<?xml version="1.0" encoding="UTF-8"?><svg id="a" xmlns="http://www.w3.org/2000/svg" width="150" height="150" viewBox="0 0 150 150"><path d="M50.36,66.7c6.42,0,12.83,0,19.25,0,.24,0,.48,0,.72.02.17,0,.29.13.31.31.02.18.03.36.03.54,0,.94,0,1.88,0,2.82,0,.48,0,.96,0,1.44,0,.16-.02.32-.04.48-.02.14-.14.26-.28.28-.18.02-.36.04-.54.04-.76,0-1.52.02-2.28.02-.32,0-.64,0-.96.05-.22.03-.44.03-.66.03-1.1.01-2.2.02-3.3.03-.3,0-.6.03-.9.05-.18.01-.36.03-.54.03-.76,0-1.52.02-2.28.02-5.46,0-10.91,0-16.37,0-1,0-2,0-3-.02-.16,0-.32,0-.48-.02-.42-.07-.84-.06-1.26-.06-1.04,0-2.08-.02-3.12-.03-.16,0-.32,0-.48-.02-.48-.08-.96-.06-1.44-.07-.68,0-1.36-.01-2.04-.02-.12,0-.24,0-.36-.02-.25-.02-.37-.14-.38-.37,0-.14-.01-.28-.01-.42,0-1.44,0-2.88,0-4.32,0-.12,0-.24,0-.36,0-.06.01-.12.03-.18.03-.1.09-.18.2-.21.08-.02.16-.04.24-.04.22,0,.44,0,.66,0,6.42,0,12.83,0,19.25,0Z"/><path id="b" d="M79.57,144.6c0-.22,0-.44-.03-.66-.08-.52-.08-1.04-.09-1.56,0-.16,0-.32-.02-.48-.09-.62-.08-1.24-.1-1.86,0-.24-.02-.48-.04-.72-.02-.32-.05-.64-.06-.96-.01-.54-.01-1.08-.02-1.62l-2.39,2.39-2.46-2.46,2.46-2.46,2.39,2.39c0-.19,0-.39,0-.58,0-.2,0-.4-.03-.6-.06-.4-.06-.8-.07-1.2,0-.68-.01-1.36-.02-2.04,0-.22-.02-.44-.03-.66-.02-.32-.05-.64-.06-.96-.02-.62-.02-1.24-.03-1.86,0-.22-.02-.44-.03-.66-.02-.32-.04-.64-.05-.96-.03-.98,0-1.96-.11-2.94,0-.08,0-.16,0-.24,0-.02,0-.03,0-.05l-1.94,1.94-2.46-2.46,2.46-2.46,1.92,1.92c0-.33-.01-.66-.02-.99,0-.18,0-.36-.02-.54-.08-.62-.07-1.24-.09-1.86,0-.3,0-.6-.04-.9-.06-.44-.07-.88-.07-1.32,0-.46,0-.92-.02-1.38,0-.2-.02-.4-.03-.6-.02-.34-.05-.68-.06-1.02-.01-.44-.01-.88-.02-1.32,0-.28,0-.56-.04-.84-.04-.34-.06-.68-.07-1.02l-1.45,1.45-2.46-2.46,2.46-2.46,1.34,1.34c0-.21-.01-.42-.02-.63,0-.66,0-1.32-.1-1.97-.01-.08-.02-.16-.01-.24.01-.9-.11-1.79-.14-2.69,0-.14-.03-.28-.06-.41-.03-.12-.12-.21-.24-.24-.12-.03-.24-.04-.35-.05-.36-.06-.72-.08-1.06-.17-.72-.19-1.41-.45-2-.93-.02-.01-.03-.02-.05-.03-.21-.13-.38-.29-.51-.5-.14-.22-.28-.43-.43-.65-.11-.17-.2-.35-.26-.54-.2-.59-.43-1.16-.46-1.79,0-.04-.02-.08-.02-.12-.08-.63-.18-1.27-.18-1.91,0-1.26,0-2.52.01-3.78,0-.22.02-.44.04-.66.02-.32.06-.64.07-.96,0-.12.02-.24.03-.36l-2.24,2.24-2.46-2.46,2.46-2.46,2.27,2.27c.04-.44.09-.87.15-1.31.09-.59.19-1.18.29-1.77.19-1.1.37-2.21.62-3.3.02-.08.04-.16.05-.23.08-.42.03-.54-.35-.71-.24-.11-.48-.2-.72-.3-.99-.43-1.98-.87-2.97-1.3-.51-.22-1.03-.43-1.55-.65-.99-.43-1.98-.86-2.97-1.29-1.01-.44-2.02-.87-3.03-1.3-.06-.02-.11-.05-.16-.08-.68-.3-1.35-.6-2.03-.9-.07-.03-.15-.06-.22-.09-.06-.02-.1,0-.15,0l-.1.1-.11.11c-.02.1-.04.19-.05.29-.19,1.1-.44,2.19-.87,3.23-.43,1.05-1.09,1.95-1.86,2.77-.08.09-.18.15-.28.22-.16.11-.33.23-.5.33-.22.14-.44.28-.67.4-.69.33-1.39.61-2.14.75-.37.07-.75.13-1.12.19-.1.02-.2.03-.3.05-.15.03-.26.14-.27.28-.01.18-.02.36-.02.54,0,.86,0,1.72,0,2.58,0,.26-.02.52-.03.78-.01.28-.04.56-.04.84,0,1.66,0,3.32,0,4.98l1.63,1.63-1.64,1.64c0,2.27,0,4.54,0,6.81,0,1.08,0,2.16,0,3.23l1.64,1.64-1.64,1.64c0,1.24,0,2.49,0,3.73h-.01c0,1.84,0,3.68,0,5.52,0,.25,0,.51,0,.76l1.66,1.66-1.66,1.66c0,3.33,0,6.66,0,9.99l1.67,1.67-1.67,1.67c0,.79,0,1.59,0,2.38,0,.16,0,.32,0,.48,0,.12,0,.25.03.36.11.33.1.67.12,1.01.01.22.03.44.05.66.02.22.04.44.05.66.02.54.01,1.08.1,1.62.02.14.02.28.02.42,0,.24,0,.48.02.72.03.46.08.92.12,1.37.02.18.14.29.32.29.3,0,.6.01.9-.02.42-.05.84-.07,1.26-.08.26,0,.52,0,.78-.04.42-.06.84-.07,1.26-.08.3-.01.6-.03.9-.05.28-.02.56-.05.84-.06.5-.02,1-.02,1.5-.09.16-.02.32-.02.48-.03.52-.02,1.04-.01,1.56-.09.16-.02.32-.02.48-.02.4,0,.8,0,1.2-.02.14,0,.27-.02.41-.02l.16-.16.14.14s0,0,0,0c.38-.05.76-.06,1.14-.07.3,0,.6,0,.9-.05.38-.05.76-.06,1.14-.07.3,0,.6,0,.9-.04.4-.05.8-.06,1.2-.08.28,0,.56,0,.84-.04.4-.05.8-.06,1.2-.08.3-.01.6-.03.9-.05.34-.02.68-.05,1.02-.07.32-.02.64,0,.96-.05.42-.05.84-.07,1.26-.08.28,0,.56-.03.84-.04.36-.02.72-.05,1.08-.07.3-.02.6,0,.9-.04.36-.04.72-.07,1.08-.08.12,0,.24-.01.36-.03.2-.03.33-.16.34-.36,0-.16.02-.32,0-.48-.07-.44-.07-.88-.08-1.32ZM56.84,145.81l-2.46-2.46,2.46-2.46,2.46,2.46-2.46,2.46ZM56.84,132.49l-2.46-2.46,2.46-2.46,2.46,2.46-2.46,2.46ZM56.84,119.17l-2.46-2.46,2.46-2.46,2.46,2.46-2.46,2.46ZM56.84,105.85l-2.46-2.46,2.46-2.46,2.46,2.46-2.46,2.46ZM56.84,92.53l-2.46-2.46,2.46-2.46,2.46,2.46-2.46,2.46ZM63.5,139.15l-2.46-2.46,2.46-2.46,2.46,2.46-2.46,2.46ZM63.5,125.83l-2.46-2.46,2.46-2.46,2.46,2.46-2.46,2.46ZM63.5,112.51l-2.46-2.46,2.46-2.46,2.46,2.46-2.46,2.46ZM63.5,99.19l-2.46-2.46,2.46-2.46,2.46,2.46-2.46,2.46ZM63.5,85.87l-2.46-2.46,2.46-2.46,2.46,2.46-2.46,2.46ZM70.16,145.81l-2.46-2.46,2.46-2.46,2.46,2.46-2.46,2.46ZM70.16,132.49l-2.46-2.46,2.46-2.46,2.46,2.46-2.46,2.46ZM70.16,119.17l-2.46-2.46,2.46-2.46,2.46,2.46-2.46,2.46ZM70.16,105.85l-2.46-2.46,2.46-2.46,2.46,2.46-2.46,2.46ZM46.31,148.28c.56.02,1.12.04,1.68.06.04,0,.08,0,.12-.01.11-.02.23-.12.25-.23.07-.43.13-.87.13-1.31,0-.38,0-.76.05-1.14.04-.36.06-.72.08-1.08.04-.86.09-1.72.14-2.57,0-.06,0-.12.02-.18.07-.32.07-.64.07-.96,0-.91,0-1.81,0-2.72l-1.46-1.46,1.46-1.46c0-1.38,0-2.76,0-4.14,0-.28,0-.56-.03-.84-.04-.36-.05-.72-.05-1.08v-4.43l-1.38-1.38,1.38-1.38v-10.57l-1.38-1.38,1.38-1.38v-.91h0c0-3.23-.02-6.46-.02-9.68l-1.35-1.35,1.35-1.35c0-3.07,0-6.14,0-9.21,0-.2,0-.4,0-.6,0-.08-.02-.16-.04-.24-.03-.1-.1-.18-.2-.21-.09-.03-.19-.05-.29-.06-.36-.05-.72-.08-1.07-.16-1.14-.25-2.23-.64-3.18-1.34-.18-.13-.37-.24-.53-.39-.66-.65-1.22-1.37-1.63-2.21-.3-.63-.55-1.29-.73-1.97-.17-.66-.33-1.32-.46-1.99-.02-.1-.05-.19-.08-.29-.02-.06-.14-.12-.2-.1-.13.04-.27.08-.39.14-.57.25-1.13.51-1.7.75-1.27.55-2.54,1.09-3.8,1.63-.92.4-1.83.8-2.75,1.2-.68.3-1.36.58-2.04.88-1.01.44-2.02.88-3.02,1.32-.09.04-.18.08-.27.13-.09.05-.15.14-.14.25.03.26.06.52.11.77.21,1.04.45,2.07.6,3.12.17,1.19.39,2.37.44,3.57,0,.12.03.24.04.36.02.3.07.6.07.9,0,1.58,0,3.16.01,4.74,0,.72-.09,1.43-.23,2.14-.11.53-.3,1.04-.49,1.54-.04.11-.11.22-.17.32-.54.89-.69,1.05-1.57,1.61-.13.09-.28.16-.42.22-.65.26-1.33.44-2.03.49-.12,0-.24.02-.36.05-.13.03-.21.11-.24.24-.02.06-.02.12-.03.18-.05.58-.13,1.15-.13,1.73,0,.14-.01.28-.03.42-.06.34-.06.68-.07,1.02,0,.34,0,.68-.04,1.02-.07.6-.07,1.2-.09,1.8,0,.03,0,.05,0,.08l1.62-1.62,2.46,2.46-2.46,2.46-1.72-1.72s0,.05,0,.08c-.02.54-.02,1.08-.03,1.62,0,.2,0,.4-.02.6-.08.58-.08,1.16-.09,1.74,0,.28,0,.56-.03.84-.06.46-.06.92-.07,1.38-.02.78,0,1.56-.1,2.34-.02.14-.01.28-.01.42,0,.4,0,.8-.02,1.2,0,.38,0,.76-.04,1.14-.03.32-.05.64-.06.96l2.19-2.19,2.46,2.46-2.46,2.46-2.2-2.2c0,.52-.02,1.04-.03,1.56,0,.18-.02.36-.03.54-.02.3-.05.6-.05.9-.02.68-.03,1.36-.04,2.04,0,.18-.02.36-.03.54-.02.32-.04.64-.05.96-.01.5-.01,1-.02,1.5,0,.3,0,.6-.03.9-.06.46-.06.92-.07,1.38,0,.66-.01,1.32-.03,1.98,0,.22,0,.44-.03.66-.06.42-.06.84-.07,1.26,0,.58-.01,1.16-.02,1.74,0,.2,0,.4-.03.6-.06.4-.07.8-.08,1.2,0,.28,0,.56-.04.84-.06.42-.07.84-.08,1.26,0,.28,0,.56-.05.84-.1.72-.06,1.44-.11,2.16,0,.02,0,.04,0,.06,0,.09.09.2.18.22.1.02.2.04.29.05.24.02.48.03.72.04.34.02.68.06,1.02.07.96.02,1.91.15,2.87.15.06,0,.12,0,.18.02.36.06.72.06,1.08.08.22,0,.44,0,.66.03.6.08,1.2.09,1.79.11.12,0,.24,0,.36.02.46.07.92.08,1.38.09.2,0,.4,0,.6.03.54.08,1.08.08,1.62.1.16,0,.32,0,.48.03.46.07.92.07,1.38.09.18,0,.36,0,.54.03.36.05.73.07,1.09.08l.18-.18.19.19c.07,0,.14,0,.21,0,.3,0,.6,0,.9.04.42.05.84.06,1.26.07.94.02,1.87.15,2.81.15.06,0,.12.01.18.02.34.02.68.06,1.02.07.96.02,1.91.15,2.87.15.12,0,.24.04.36.04ZM23.2,139.15l-2.46-2.46,2.46-2.46,2.46,2.46-2.46,2.46ZM29.86,145.81l-2.46-2.46,2.46-2.46,2.46,2.46-2.46,2.46ZM29.86,132.49l-2.46-2.46,2.46-2.46,2.46,2.46-2.46,2.46ZM29.86,119.17l-2.46-2.46,2.46-2.46,2.46,2.46-2.46,2.46ZM29.86,105.85l-2.46-2.46,2.46-2.46,2.46,2.46-2.46,2.46ZM29.86,92.53l-2.46-2.46,2.46-2.46,2.46,2.46-2.46,2.46ZM36.52,139.15l-2.46-2.46,2.46-2.46,2.46,2.46-2.46,2.46ZM36.52,125.83l-2.46-2.46,2.46-2.46,2.46,2.46-2.46,2.46ZM36.52,112.51l-2.46-2.46,2.46-2.46,2.46,2.46-2.46,2.46ZM36.52,99.19l-2.46-2.46,2.46-2.46,2.46,2.46-2.46,2.46ZM36.52,85.87l-2.46-2.46,2.46-2.46,2.46,2.46-2.46,2.46ZM43.18,145.81l-2.46-2.46,2.46-2.46,2.46,2.46-2.46,2.46ZM43.18,132.49l-2.46-2.46,2.46-2.46,2.46,2.46-2.46,2.46ZM43.18,119.17l-2.46-2.46,2.46-2.46,2.46,2.46-2.46,2.46ZM43.18,105.85l-2.46-2.46,2.46-2.46,2.46,2.46-2.46,2.46ZM43.18,92.53l-2.46-2.46,2.46-2.46,2.46,2.46-2.46,2.46ZM138.35,147.58c.01-.12.01-.24.01-.36,0-.22,0-.44,0-.66,0-1.26,0-2.52,0-3.78,0-.18,0-.36.01-.54.02-.25.13-.37.37-.39.18-.01.36-.01.54-.01.9,0,1.8,0,2.7,0,.18,0,.36-.02.54-.03.11-.01.22-.13.24-.24,0-.04.02-.08.02-.12.01-.42.02-.84-.04-1.26-.04-.26-.05-.52-.06-.78-.01-.22,0-.44,0-.66,0-.08,0-.17,0-.25l-.65.65-2.46-2.46,2.46-2.46.43.43s0-.06,0-.09c0-.38,0-.76-.01-1.14,0-.16,0-.32-.02-.48-.1-.52-.08-1.04-.09-1.55-.01-.7.03-1.4-.1-2.09-.02-.12-.01-.24-.02-.36,0-.22,0-.44,0-.66,0-.42,0-.84-.08-1.26-.03-.17-.03-.36-.03-.54,0-.24,0-.48,0-.71l-.05.05-2.46-2.46,2.29-2.29c0-.07-.01-.14-.01-.21,0-.34,0-.68-.01-1.02,0-.2,0-.4-.04-.6-.06-.32-.07-.64-.07-.96,0-.34,0-.68-.01-1.02,0-.16,0-.32-.03-.48-.08-.4-.08-.79-.08-1.2,0-.48,0-.96,0-1.44,0-.18,0-.36-.02-.54-.1-.5-.08-.99-.09-1.49,0-.06,0-.11,0-.17l-1.91-1.91,1.72-1.72c-.03-.31-.04-.62-.04-.93,0-.5,0-1-.01-1.5,0-.16-.03-.32-.06-.47-.03-.15-.14-.24-.29-.27-.1-.02-.2-.03-.3-.03-.16,0-.32,0-.48,0-.2,0-.4-.04-.58-.13-.27-.13-.54-.27-.8-.4-.15-.07-.26-.18-.36-.31-.2-.28-.4-.56-.56-.85l-2.43,2.43-2.46-2.46,2.46-2.46,2.38,2.38c-.13-.26-.24-.53-.29-.84,0-.04-.02-.08-.03-.11-.21-.71-.37-1.43-.49-2.16-.1-.63-.21-1.26-.28-1.9-.04-.36-.08-.71-.08-1.07,0-.78,0-1.56,0-2.34,0-.4,0-.8.09-1.19.03-.14.03-.28.03-.42,0-.28.02-.56.08-.83.02-.1.03-.2.04-.3.02-.39.07-.78.14-1.17l-1.56,1.56-2.46-2.46,2.46-2.46,1.84,1.84c.09-.46.17-.93.26-1.39.16-.8.3-1.61.52-2.4.28-1,.57-2,.85-3,.24-.87.54-1.72.92-2.53.08-.16.13-.33.19-.5.05-.14-.01-.27-.16-.34-.04-.02-.07-.04-.11-.05-.51-.18-1.01-.37-1.52-.55-.24-.09-.49-.17-.74-.26-.3-.11-.61-.22-.91-.34l-1.13,1.13-2.45-2.45c-.7-.25-1.4-.51-2.1-.76-.66-.24-1.32-.47-1.98-.71-.7-.25-1.41-.51-2.11-.77l-2.23,2.23-2.46,2.46-1.39-1.39s-.07.02-.1.03c-.65.12-1.29.27-1.96.28-.1,0-.2.01-.3.03-.32.07-.63.08-.95.08-1.22,0-2.44,0-3.66,0-.44,0-.88,0-1.31-.09-.06-.01-.12-.02-.18-.02-.62,0-1.23-.13-1.84-.25-.08-.02-.16-.05-.24-.07l-1.39,1.39-2.46-2.46-2.23-2.23c-.69.25-1.39.5-2.08.75-.36.13-.71.26-1.07.39-.6.22-1.2.43-1.81.65-.17.06-.34.11-.51.18-.24.09-.48.17-.71.26l-2.45,2.45-1.15-1.15c-.72.26-1.44.53-2.16.79-.34.12-.67.25-1.01.38-.07.03-.15.07-.2.12-.04.04-.06.1-.06.16,0,.06.01.12.04.17.24.46.41.96.59,1.44.16.45.32.9.46,1.36.21.71.41,1.42.61,2.13.37,1.35.71,2.71.94,4.09.04.24.08.48.12.72l1.83-1.83,2.46,2.46-2.46,2.46-1.58-1.58c.01.11.03.21.04.32.04.46.13.91.18,1.37.08.61.18,1.23.17,1.85,0,.24.04.48.06.72.01.14.04.28.04.42,0,.54.04,1.08-.07,1.61-.02.08-.02.16-.02.24,0,.44-.06.88-.13,1.31-.15.89-.27,1.78-.45,2.66-.12.59-.33,1.15-.52,1.72-.02.05-.05.1-.07.15l2.37-2.37,2.46,2.46-2.46,2.46-2.43-2.43c-.19.28-.38.56-.57.85-.09.14-.21.24-.36.31-.23.12-.47.23-.7.35-.25.14-.52.19-.81.19-.2,0-.4.01-.6.03-.15.01-.27.12-.28.27-.05.5-.16.99-.14,1.49,0,.3,0,.6,0,.9,0,.17-.02.34-.04.52l1.73,1.73-1.92,1.92c0,.39,0,.78,0,1.17,0,.38,0,.76-.08,1.14-.03.16-.03.32-.03.48,0,.28,0,.56,0,.84,0,.46,0,.92-.09,1.37-.03.16-.02.32-.03.48,0,.32,0,.64-.01.96,0,.18,0,.36-.04.54-.06.34-.07.68-.07,1.02,0,.38,0,.76,0,1.13l2.28,2.28-2.46,2.46-.06-.06c0,.24,0,.47,0,.71,0,.22-.01.44-.05.66-.04.28-.06.56-.06.84,0,.44,0,.88,0,1.32,0,.4,0,.8-.08,1.2-.03.18-.03.36-.03.54,0,.38,0,.76-.01,1.14,0,.16,0,.32-.03.48-.09.46-.08.92-.09,1.37,0,.21,0,.43-.01.64l.43-.43,2.46,2.46-2.46,2.46-.65-.65c0,.06,0,.12,0,.19,0,.34,0,.68,0,1.02,0,.46,0,.92-.09,1.37-.02.12-.02.24-.01.36,0,.24.13.38.36.39.18.01.36.01.54.01.9,0,1.8,0,2.7,0,.18,0,.36.01.54.03.11.01.23.13.24.24.02.2.03.4.03.6,0,1.44,0,2.88,0,4.32,0,.2,0,.4.02.6.01.17.14.3.31.31.24.02.48.02.72.02,2.74,0,5.47,0,8.21,0l.41-.41.41.41c4.17,0,8.33,0,12.5,0l.41-.41.41.41c4.17,0,8.33,0,12.5,0l.41-.41.41.41h7.94c.2,0,.4,0,.6,0,.1,0,.2,0,.3-.01.25-.02.37-.13.39-.37ZM95.4,145.81l-2.46-2.46,2.46-2.46,2.46,2.46-2.46,2.46ZM95.4,132.49l-2.46-2.46,2.46-2.46,2.46,2.46-2.46,2.46ZM95.4,119.17l-2.46-2.46,2.46-2.46,2.46,2.46-2.46,2.46ZM102.06,139.15l-2.46-2.46,2.46-2.46,2.46,2.46-2.46,2.46ZM102.06,125.83l-2.46-2.46,2.46-2.46,2.46,2.46-2.46,2.46ZM102.06,112.51l-2.46-2.46,2.46-2.46,2.46,2.46-2.46,2.46ZM102.06,99.19l-2.46-2.46,2.46-2.46,2.46,2.46-2.46,2.46ZM102.06,85.87l-2.46-2.46,2.46-2.46,2.46,2.46-2.46,2.46ZM108.72,145.81l-2.46-2.46,2.46-2.46,2.46,2.46-2.46,2.46ZM108.72,132.49l-2.46-2.46,2.46-2.46,2.46,2.46-2.46,2.46ZM108.72,119.17l-2.46-2.46,2.46-2.46,2.46,2.46-2.46,2.46ZM108.72,105.85l-2.46-2.46,2.46-2.46,2.46,2.46-2.46,2.46ZM108.72,92.53l-2.46-2.46,2.46-2.46,2.46,2.46-2.46,2.46ZM115.38,139.15l-2.46-2.46,2.46-2.46,2.46,2.46-2.46,2.46ZM115.38,125.83l-2.46-2.46,2.46-2.46,2.46,2.46-2.46,2.46ZM115.38,112.51l-2.46-2.46,2.46-2.46,2.46,2.46-2.46,2.46ZM115.38,99.19l-2.46-2.46,2.46-2.46,2.46,2.46-2.46,2.46ZM115.38,85.87l-2.46-2.46,2.46-2.46,2.46,2.46-2.46,2.46ZM122.04,145.81l-2.46-2.46,2.46-2.46,2.46,2.46-2.46,2.46ZM122.04,132.49l-2.46-2.46,2.46-2.46,2.46,2.46-2.46,2.46ZM122.04,119.17l-2.46-2.46,2.46-2.46,2.46,2.46-2.46,2.46ZM122.04,105.85l-2.46-2.46,2.46-2.46,2.46,2.46-2.46,2.46ZM122.04,92.53l-2.46-2.46,2.46-2.46,2.46,2.46-2.46,2.46ZM128.7,139.15l-2.46-2.46,2.46-2.46,2.46,2.46-2.46,2.46ZM128.7,125.83l-2.46-2.46,2.46-2.46,2.46,2.46-2.46,2.46ZM128.7,112.51l-2.46-2.46,2.46-2.46,2.46,2.46-2.46,2.46ZM128.7,99.19l-2.46-2.46,2.46-2.46,2.46,2.46-2.46,2.46ZM128.7,85.87l-2.46-2.46,2.46-2.46,2.46,2.46-2.46,2.46ZM135.36,145.81l-2.46-2.46,2.46-2.46,2.46,2.46-2.46,2.46ZM135.36,132.49l-2.46-2.46,2.46-2.46,2.46,2.46-2.46,2.46ZM135.36,119.17l-2.46-2.46,2.46-2.46,2.46,2.46-2.46,2.46ZM121.58,28.89c.09-.63.19-1.26.28-1.9.14-.97.27-1.94.41-2.91.12-.83.26-1.66.34-2.49,0-.09.02-.17.03-.25l-1.42-1.42,1.86-1.86s0-.06,0-.09c0-.11-.05-.2-.15-.24-.18-.08-.37-.14-.56-.21-.24-.09-.5-.16-.73-.28-.93-.47-1.78-1.07-2.54-1.79-.31-.3-.6-.61-.89-.93l-1.21,1.21-2.46-2.46,1.45-1.45c-.49-.59-.97-1.18-1.47-1.76-.4-.47-.82-.93-1.25-1.38-.42-.43-.86-.84-1.32-1.23l-1.61,1.61-2.46-2.46,1.21-1.21c-.59-.33-1.2-.62-1.85-.85-.47-.17-.95-.32-1.43-.43-.82-.19-1.65-.31-2.5-.27-.2,0-.4,0-.6,0-.14,0-.28,0-.42.03-.93.14-1.85.33-2.72.7-.49.21-.96.45-1.41.73l1.32,1.32-2.46,2.46-1.4-1.4c-.5.62-.98,1.27-1.4,1.96-.5.82-1,1.64-1.57,2.41-.15.2-.3.41-.45.61l.62.62-2.46,2.46-.47-.47c-.13.12-.27.24-.41.35-.41.32-.82.65-1.26.92-.56.34-1.17.6-1.82.76-.51.12-1.01.24-1.54.23-.08,0-.16,0-.24.02-.06,0-.12.03-.17.05-.08.03-.16.14-.16.23,0,.04,0,.08,0,.12,0,.05.01.1.02.14l1.85,1.85-1.36,1.36c.02.17.05.34.07.51.09.71.21,1.42.32,2.13.09.57.18,1.14.27,1.72.14.91.27,1.82.41,2.73.17,1.15.36,2.29.53,3.44.18,1.25.35,2.49.53,3.74.21,1.46.44,2.92.6,4.39.1.89.25,1.78.38,2.67.13.91.28,1.82.41,2.73.05.32.1.63.13.95.1,1.1.29,2.18.44,3.27.1.69.2,1.38.29,2.08.01.09.02.19.03.28l1.15-1.15,2.46,2.46-2.46,2.46-.75-.75c.06.4.11.8.17,1.21.01.08.03.16.05.23.04.12.13.2.26.23.14.02.28.04.42.04.38,0,.76,0,1.14,0,.16,0,.32,0,.48,0,.08,0,.16.01.24.02.14.02.27.13.28.27.02.2.03.4.03.6,0,1.4,0,2.8,0,4.2,0,.2.01.4.04.6.02.18.15.3.32.31.22.01.44.02.66.02,3.22,0,6.44,0,9.66,0s6.4,0,9.6,0c.2,0,.4,0,.6,0,.08,0,.16-.01.24-.03.1-.03.18-.09.21-.2.02-.08.04-.16.04-.23,0-.18,0-.36,0-.54,0-1.38,0-2.76,0-4.14,0-.2.01-.4.03-.6,0-.11.12-.23.23-.24.18-.02.36-.03.54-.03.72,0,1.44,0,2.16,0,.18,0,.36,0,.54-.02.18-.01.31-.11.34-.29.05-.25.09-.51.12-.77.04-.33.08-.66.11-1l-1.11,1.11-2.46-2.46,2.46-2.46,1.42,1.42c.1-.75.2-1.51.3-2.26.03-.24.08-.47.1-.71.1-.79.18-1.59.28-2.38.11-.91.24-1.82.36-2.73.06-.44.12-.87.18-1.31.09-.61.17-1.23.26-1.84.1-.77.2-1.54.31-2.32.1-.71.2-1.42.29-2.14.1-.75.2-1.51.3-2.26.14-1.01.28-2.02.42-3.03.11-.77.21-1.54.32-2.32ZM90.39,42.36l-2.46-2.46,2.46-2.46,2.46,2.46-2.46,2.46ZM90.39,29.04l-2.46-2.46,2.46-2.46,2.46,2.46-2.46,2.46ZM97.05,62.34l-2.46-2.46,2.46-2.46,2.46,2.46-2.46,2.46ZM97.05,49.02l-2.46-2.46,2.46-2.46,2.46,2.46-2.46,2.46ZM97.05,35.7l-2.46-2.46,2.46-2.46,2.46,2.46-2.46,2.46ZM97.05,22.38l-2.46-2.46,2.46-2.46,2.46,2.46-2.46,2.46ZM103.71,55.68l-2.46-2.46,2.46-2.46,2.46,2.46-2.46,2.46ZM103.71,42.36l-2.46-2.46,2.46-2.46,2.46,2.46-2.46,2.46ZM103.71,29.04l-2.46-2.46,2.46-2.46,2.46,2.46-2.46,2.46ZM103.71,15.72l-2.46-2.46,2.46-2.46,2.46,2.46-2.46,2.46ZM110.37,62.34l-2.46-2.46,2.46-2.46,2.46,2.46-2.46,2.46ZM110.37,49.02l-2.46-2.46,2.46-2.46,2.46,2.46-2.46,2.46ZM110.37,35.7l-2.46-2.46,2.46-2.46,2.46,2.46-2.46,2.46ZM110.37,22.38l-2.46-2.46,2.46-2.46,2.46,2.46-2.46,2.46ZM117.03,42.36l-2.46-2.46,2.46-2.46,2.46,2.46-2.46,2.46ZM117.03,29.04l-2.46-2.46,2.46-2.46,2.46,2.46-2.46,2.46ZM78.49,25.16c.09-.71.21-1.42.32-2.13.08-.53.18-1.06.26-1.6,0-.06.02-.12.03-.18l-1.33-1.33,1.78-1.78c0-.09.02-.18.03-.27,0-.15-.09-.27-.24-.3-.18-.03-.36-.05-.54-.05-.32,0-.64-.04-.95-.13-.19-.05-.39-.1-.58-.15-.25-.07-.5-.15-.73-.27-.21-.11-.43-.22-.64-.32-.33-.16-.62-.36-.92-.56-.35-.24-.66-.52-.97-.81l-.43.43-2.46-2.46.59-.59c-.16-.22-.33-.43-.48-.66-.59-.86-1.14-1.74-1.7-2.61-.38-.59-.78-1.18-1.22-1.73l-1.39,1.39-2.46-2.46,1.29-1.29c-.47-.32-.96-.59-1.51-.77-.11-.04-.22-.09-.33-.13-.23-.07-.46-.14-.69-.21-.17-.05-.35-.08-.53-.12-.68-.16-1.37-.26-2.08-.25-.46.01-.92.05-1.37.1-.9.11-1.77.34-2.61.66-.52.2-1.04.41-1.53.69-.07.04-.14.09-.21.13l1.17,1.17-2.46,2.46-1.58-1.58c-.12.11-.24.2-.36.32-.83.83-1.7,1.63-2.44,2.56-.32.41-.68.78-1.01,1.18-.08.1-.16.2-.24.29l1.42,1.42-2.46,2.46-1.2-1.2c-.63.7-1.3,1.37-2.07,1.93-.65.47-1.34.87-2.11,1.11-.46.15-.6.23-.62.54l1.8,1.8-1.4,1.4c.04.26.08.51.11.77.1.69.21,1.38.31,2.08.14.97.27,1.94.41,2.91.18,1.21.36,2.41.54,3.62.05.34.11.67.13,1.01.04.52.13,1.03.2,1.55.1.69.2,1.38.29,2.08.09.71.17,1.43.27,2.14.14,1.07.29,2.14.44,3.21.05.36.1.71.14,1.07.09.67.18,1.35.27,2.02.02.18.06.35.08.53.09.73.16,1.47.28,2.2.18,1.13.29,2.26.45,3.39.06.43.11.87.17,1.31.04.32.08.64.12.95l1.39-1.39,2.46,2.46-2.46,2.46-1.08-1.08c.01.09.02.19.04.28.03.22.05.44.08.65.03.22.07.43.11.65.05.24.16.33.42.34.16,0,.32,0,.48,0,.58,0,1.16,0,1.74,0,.16,0,.32,0,.48.01.21.02.34.14.35.34.01.18.02.36.02.54,0,1.06,0,2.12,0,3.18,0,.44,0,.88,0,1.32,0,.14.02.28.04.42.02.14.15.26.29.27.22.02.44.03.66.03,3.2,0,6.4,0,9.6,0s6.36,0,9.54,0c.2,0,.4,0,.6,0,.08,0,.16-.01.24-.03.11-.02.23-.13.24-.24.02-.2.03-.4.03-.6,0-1.42,0-2.84,0-4.26,0-.2,0-.4.02-.6.02-.2.15-.34.34-.36.18-.02.36-.02.54-.02.6,0,1.2,0,1.8,0,.42,0,.54-.11.61-.5.02-.1.02-.2.04-.3.04-.25.07-.5.11-.76l-.71.71-2.46-2.46,2.46-2.46,1.12,1.12c.03-.28.07-.56.11-.84.22-1.38.37-2.77.56-4.16.1-.69.19-1.39.29-2.08.13-.91.28-1.82.41-2.73.05-.34.09-.67.13-1.01.03-.24.05-.48.08-.71.09-.65.18-1.31.28-1.96.1-.73.21-1.46.31-2.2.1-.67.19-1.35.29-2.02.1-.69.19-1.39.29-2.08.1-.69.2-1.38.3-2.08.11-.71.21-1.42.32-2.13.14-.91.3-1.81.42-2.73ZM46.93,42.36l-2.46-2.46,2.46-2.46,2.46,2.46-2.46,2.46ZM46.93,29.04l-2.46-2.46,2.46-2.46,2.46,2.46-2.46,2.46ZM53.59,62.34l-2.46-2.46,2.46-2.46,2.46,2.46-2.46,2.46ZM53.59,49.02l-2.46-2.46,2.46-2.46,2.46,2.46-2.46,2.46ZM53.59,35.7l-2.46-2.46,2.46-2.46,2.46,2.46-2.46,2.46ZM53.59,22.38l-2.46-2.46,2.46-2.46,2.46,2.46-2.46,2.46ZM60.25,55.68l-2.46-2.46,2.46-2.46,2.46,2.46-2.46,2.46ZM60.25,42.36l-2.46-2.46,2.46-2.46,2.46,2.46-2.46,2.46ZM60.25,29.04l-2.46-2.46,2.46-2.46,2.46,2.46-2.46,2.46ZM60.25,15.72l-2.46-2.46,2.46-2.46,2.46,2.46-2.46,2.46ZM66.91,62.34l-2.46-2.46,2.46-2.46,2.46,2.46-2.46,2.46ZM66.91,49.02l-2.46-2.46,2.46-2.46,2.46,2.46-2.46,2.46ZM66.91,35.7l-2.46-2.46,2.46-2.46,2.46,2.46-2.46,2.46ZM66.91,22.38l-2.46-2.46,2.46-2.46,2.46,2.46-2.46,2.46ZM73.57,42.36l-2.46-2.46,2.46-2.46,2.46,2.46-2.46,2.46ZM73.57,29.04l-2.46-2.46,2.46-2.46,2.46,2.46-2.46,2.46Z"/></svg>