<?xml version="1.0" encoding="UTF-8"?><svg id="a" xmlns="http://www.w3.org/2000/svg" width="150" height="150" viewBox="0 0 150 150"><path d="M50.36,66.7c6.42,0,12.83,0,19.25,0,.24,0,.48,0,.72.02.17,0,.29.13.31.31.02.18.03.36.03.54,0,.94,0,1.88,0,2.82,0,.48,0,.96,0,1.44,0,.16-.02.32-.04.48-.02.14-.14.26-.28.28-.18.02-.36.04-.54.04-.76,0-1.52.02-2.28.02-.32,0-.64,0-.96.05-.22.03-.44.03-.66.03-1.1.01-2.2.02-3.3.03-.3,0-.6.03-.9.05-.18.01-.36.03-.54.03-.76,0-1.52.02-2.28.02-5.46,0-10.91,0-16.37,0-1,0-2,0-3-.02-.16,0-.32,0-.48-.02-.42-.07-.84-.06-1.26-.06-1.04,0-2.08-.02-3.12-.03-.16,0-.32,0-.48-.02-.48-.08-.96-.06-1.44-.07-.68,0-1.36-.01-2.04-.02-.12,0-.24,0-.36-.02-.25-.02-.37-.14-.38-.37,0-.14-.01-.28-.01-.42,0-1.44,0-2.88,0-4.32,0-.12,0-.24,0-.36,0-.06.01-.12.03-.18.03-.1.09-.18.2-.21.08-.02.16-.04.24-.04.22,0,.44,0,.66,0,6.42,0,12.83,0,19.25,0Z"/><path id="b" d="M27.45,96.92c.01-.18.03-.37.03-.55,0-1.58,0-3.16-.01-4.74,0-.3-.04-.6-.07-.9-.01-.12-.03-.24-.04-.36,0-.11-.02-.21-.02-.32.15,0,.3,0,.45,0,.22,0,.44,0,.66,0,.15,0,.54.07.68,0,.15-.06.29-.25.4-.43v-8.38s.07-.03.11-.05c.68-.29,1.36-.58,2.04-.88.92-.4,1.83-.81,2.75-1.2,1.27-.55,2.54-1.09,3.8-1.63.57-.25,1.13-.5,1.7-.75.13-.06.26-.1.39-.14.06-.02.18.05.2.1.03.09.06.19.08.29.13.67.29,1.33.46,1.99.18.68.43,1.33.73,1.97.26.54.59,1.03.97,1.49-.27,0-.54-.04-.78-.04-.58,0-1.33-.13-1.89,0-.26.05-.5.21-.75.26-.64.12-1.38.02-2.03.01-.34,0-.6.1-.93.14-.34.04-.68-.05-1.02.02-.35.08-.62.24-.83.53-.11.15-.17.36-.28.5-.14.18-.37.23-.51.42-.28.36-.35.81-.59,1.17-.18.26-.25.5-.36.79-.07.19-.19.45-.36.57-.26.18-.52.04-.8.09-.02,0-.04,0-.07.01v10.02h-4.11ZM21.34,114.83c0,.28,0,.56-.03.84-.06.46-.06.92-.07,1.38-.02.78,0,1.56-.1,2.34-.02.14-.01.28-.01.42,0,.4,0,.8-.02,1.2,0,.38,0,.76-.04,1.14-.05.44-.06.88-.06,1.32,0,.58-.02,1.16-.03,1.74,0,.18-.02.36-.03.54-.02.3-.05.6-.05.9-.02.68-.03,1.36-.04,2.04,0,.18-.02.36-.03.54-.02.32-.04.64-.05.96-.01.5-.01,1-.02,1.5,0,.3,0,.6-.03.9-.06.46-.06.92-.07,1.38,0,.66-.01,1.32-.03,1.98,0,.22,0,.44-.03.66-.06.42-.06.84-.07,1.26,0,.58-.01,1.16-.02,1.74,0,.2,0,.4-.03.6-.06.4-.07.8-.08,1.2,0,.28,0,.56-.04.84-.06.42-.07.84-.08,1.26,0,.28,0,.56-.05.84-.1.72-.06,1.44-.11,2.16,0,.02,0,.04,0,.06,0,.09.09.2.18.22.1.02.2.04.29.05.2.02.39.02.59.04v-.8c.29-.04.45-.03.74-.17.55-.25,1.02-.52,1.63-.66.87-.19,1.52-.57,2.32-.94.68-.32,1.34-.6,1.59-1.36.12-.36.25-.75.3-1.1.04-.3-.05-.59.03-.88.05-.17.18-.51.26-.66.14-.27.44-.41.56-.66.07-.15.07-.38.13-.53.06-.15.19-.28.26-.44.16-.39.08-.76.16-1.19.06-.32.23-.61.32-.92.13-.44.2-.9.39-1.33.09-.2.23-.36.32-.56.11-.25.12-.56.25-.81.41-.75,1.46-1.48,2.15-1.87.93-.52,1.73-1.21,2.67-1.73.82-.45,1.17-1.08,1.69-1.78h-7.41v-9.41c-.97.38-1.79,1.21-2.73,1.67-.56.27-.58.39-.79.95-.22.6-.52.97-1.11,1.23-.44.2-.77.45-1.18.69-.53.31-1.14.31-1.73.4-.28.04-.55.11-.82.19v-.19s.07-.06.11-.09c.27-.21.44-.3.52-.64.12-.48.08-1.06.53-1.45.2-.18.61-.27.84-.41.12-.08.27-.26.43-.31.09-.03.26-.01.32-.03.38-.15.9-.27,1.2-.59.24-.25.19-.47.24-.81.05-.34.28-.89.15-1.26-.23-.64-1.19-1.2-1.68-1.57-.36-.28-.49-.44-.66-.84-.12-.28-.34-.49-.53-.74-.22-.3-.51-.59-.67-.88.03.04-.13-.46-.13-.43-.04-.22-.04-.41-.04-.63,0-.12.06-.43.01-.54-.1-.22-.13-.09-.32-.2-.02,0-.03-.02-.05-.03,0,.19,0,.39-.02.58-.08.58-.08,1.16-.09,1.74ZM48.54,145.65c.04-.36.06-.72.08-1.08.04-.86.09-1.72.14-2.57,0-.06,0-.12.02-.18.07-.32.07-.64.07-.96,0-.61,0-1.21,0-1.82-.14.27-.4.54-.54.8-.23.44-.43.75-.86,1.06-.23.17-.5.27-.74.42-.33.21-.59.61-.93.79-.57.3-1.35.13-1.82.53-.52.43-.86,1.16-1.36,1.62-.25.22-.47.4-.64.6v-8.89h-.71s-.09.03-.13.05c-.48.19-.51.21-.66.71-.12.42-.03.87-.24,1.24-.25.45-.67.66-.87,1.14-.02.13-.07.24-.13.35-.09.03-.16.08-.22.15-.07.18,0,.36-.04.54-.28,0-.27.13-.45.3-.22.21-.55.28-.77.49-.31.29-.62.51-.92.81-.53.54-1.02,1.07-1.02,1.88,0,.48-.29.8-.45,1.24-.13.35.02.78-.13,1.11-.1.22-.35.26-.53.37-.21.13-.38.31-.58.45-.26.17-.5.37-.77.53-.08.05-.21.1-.32.16.11,0,.23,0,.34.02.46.07.92.07,1.38.09.18,0,.36,0,.54.03.56.08,1.12.08,1.68.09.3,0,.6,0,.9.04.42.05.84.06,1.26.07.94.02,1.87.15,2.81.15.06,0,.12.01.18.02.34.02.68.06,1.02.07.76.02,1.52.09,2.27.13.12-.02.24-.03.36-.05.43-.08.68-.31,1.1-.42.34-.1.64.02.97-.03.2-.03.43-.13.65-.21.03-.24.05-.48.05-.72,0-.38,0-.76.05-1.14ZM33.17,140.75c.18-.39.63-.99,1.07-1.11.22-.06.49.08.7.01.36-.11.3-.45.4-.7.08-.21.36-.34.56-.45.13-.07.3-.11.42-.19.15-.11.16-.26.27-.37.28-.27.99,0,1.38-.23.09-.05.2-.08.28-.17.15-.16.04-.33.14-.45.16-.19.55,0,.79-.1.33-.14.24-.4.3-.67.02-.09.07-.21.13-.33h-8.07v6.1c.14-.03.28-.06.42-.09.32-.08.96-.04,1.05-.41.06-.28.03-.55.15-.83ZM41.94,107.3h-10.38v10.88c.08-.05.17-.1.25-.15.39-.25.63-.46,1.08-.52.41-.05.93-.12,1.32-.26.49-.17.84-.43,1.38-.51.4-.06.78-.05,1.15-.2.12-.16.27-.25.47-.27.2.01.38-.04.54-.16.35-.19.51-.5.72-.75.19-.22.76-.6,1.06-.67.43-.1.91.13,1.34-.03.39-.14.66-.71,1.13-.65-.09.44-.77.62-1.02.89-.24.26-.21.73-.21,1.06,0,.55-.1,1.14.17,1.65.09.17.22.28.32.44.04.13.11.25.21.35.12.07.23.15.33.25.14.24.03.78.03,1.06,0,.38,0,.76,0,1.15,0,.93.03,1.88-.43,2.72-.32.59-.68.73-1.16,1.14-.29.25-.48.56-.7.86,0,.01-.02.02-.03.03h8.32c.12-.5.21-1,.39-1.47.13-.35.22-.6.54-.78v-15.58h0c0-3.58-.02-7.16-.02-10.74,0-3.62,0-7.24,0-10.86,0-.2,0-.4,0-.6,0-.08-.02-.16-.04-.24-.03-.09-.09-.16-.18-.2h-6.57v22.17ZM52.87,60.26h-.64s-.08.03-.12.04c-.43.17-.45.18-.59.64-.11.37-.03.78-.21,1.11-.13.24-.31.4-.48.59.68,0,1.36,0,2.04,0v-2.38ZM49.57,60.6c0,.35,0,.7,0,1.05,0,0,0,0,0,0,.14-.14.04-.29.13-.4.14-.17.5,0,.71-.09.29-.12.22-.36.27-.6.02-.08.06-.19.11-.3h-1.23c0,.12,0,.23,0,.35ZM65.62,26.46c.33-.29.73-.44,1.06-.7.15-.12.27-.28.36-.46v-10.56h-14.17v19.84h-9.29v2.83s0,.04,0,.06c.14,1.07.29,2.14.44,3.21.05.36.1.71.14,1.07.09.67.18,1.35.27,2.02,0,.02,0,.03,0,.05.1-.04.2-.07.33-.09.37-.05.83-.1,1.18-.23.44-.15.75-.38,1.23-.46.36-.06.7-.05,1.03-.18.1-.14.24-.22.42-.25.18.01.34-.04.48-.14.32-.17.45-.45.65-.67.17-.2.68-.54.95-.6.38-.09.82.12,1.2-.02.35-.13.59-.64,1.01-.58-.08.4-.69.55-.91.8-.22.23-.19.65-.18.95,0,.49-.09,1.02.15,1.47.08.15.2.25.29.39.04.12.1.22.19.31.11.06.21.13.3.22.12.22.02.7.02.95,0,.34,0,.68,0,1.03,0,.83.02,1.68-.38,2.44-.28.53-.61.65-1.03,1.02-.26.22-.43.5-.63.77,0,.01-.02.02-.02.03h7.45c.1-.44.19-.9.35-1.32.12-.34.2-.58.55-.75.23-.11.45-.1.69-.21.25-.13.45-.17.75-.1.59.16,1.21.54,1.82.6.22.02.48.03.67-.06.13-.06.2-.18.32-.24.11-.05.19-.06.32-.1.09-.02.09-.1.19-.12.08-.02.18.03.26.01.1-.02.1-.1.19-.12.09-.02.18,0,.27-.04.35-.14.55-.63.86-.84.34-.24.85-.25,1.3-.25.32,0,.35,0,.58-.15.27-.18.44-.29.74-.4.46-.17.79-.55,1.18-.82.38-.26.68-.64,1.02-.95.36-.32.67-.69,1.02-1.03.13-.13.27-.2.42-.31.28-.22.47-.61.76-.79.11-.07.24-.04.36-.12.2-.13.35-.38.57-.52.11-.07.21-.17.3-.26.02-.03.04-.06.06-.1.02-.03.04-.07.06-.1h2.32c.04-.28.07-.56.11-.84.03-.24.05-.48.08-.71.09-.65.18-1.31.28-1.96.1-.73.21-1.46.31-2.2.05-.35.1-.71.15-1.06-1.07,1.01-1.81,2.49-2.36,3.78-.19.45-.28.97-.36,1.45h-7.26v-10.44c-.14.05-.28.11-.41.21-.19.15-.37.25-.58.36-.43.24-.91.22-1.34.46-.36.2-.76.23-1.12.42-.26.14-.51.3-.75.48-.48.35-.95.75-1.42,1.11-.27.21-.61.61-.95.71.05-.28.52-.57.73-.76.22-.21.49-.29.75-.46.61-.4,1.15-.91,1.73-1.35.15-.11.37-.19.5-.33.09-.09.13-.25.22-.36.28-.35.56-.74.9-1.04.24-.22.45-.45.67-.68.18-.19.4-.26.61-.41.15-.11.25-.29.42-.37.02,0,.03-.01.05-.02v-1.35s-.08.03-.14.05c-.03.01-.07.02-.1.03-.01,0-.02,0-.04,0-.02,0-.05.01-.07.02-.01,0-.03,0-.04,0-.02,0-.04,0-.06.01-.02,0-.03,0-.05,0-.02,0-.04,0-.06,0-.02,0-.03,0-.05,0-.02,0-.04,0-.06,0-.02,0-.03,0-.05,0-.02,0-.04,0-.06,0-.02,0-.03,0-.05,0-.02,0-.04,0-.05,0-.02,0-.04,0-.06,0-.02,0-.05,0-.07,0-.03,0-.05,0-.08,0-.02,0-.03,0-.05,0-.02,0-.04,0-.06,0-.02,0-.03,0-.05,0-.02,0-.04,0-.06,0-.02,0-.03,0-.05,0-.02,0-.04,0-.06,0-.02,0-.03,0-.05,0-.02,0-.04,0-.06,0-.02,0-.03,0-.05,0-.02,0-.04,0-.06.01-.02,0-.03,0-.05.01-.02,0-.04,0-.05.01-.02,0-.03,0-.05.01-.01,0-.03,0-.04.01-.01,0-.02,0-.03.01-.06.05-.13.1-.2.14-.19.11-.4.22-.6.31-.15.07-.36.11-.51.21.03-.03.05-.06.08-.09.15-.15.33-.21.51-.31.25-.13.47-.19.73-.27.07-.06.14-.12.2-.19.07-.06.13-.13.2-.19ZM43.58,16.51c-.56.4-1.16.74-1.81.98v1.29c-.1.16-.23.32-.36.38-.08.03-.25.02-.39,0,.02.15.03.29.05.44.12.83.25,1.66.37,2.49.1.69.21,1.38.31,2.08.05.37.11.75.16,1.12h1.67v-8.78ZM45.88,54.88c.03.22.05.44.08.65,0,.04.02.08.02.13.29-.2.58-.39.89-.56.73-.4,1.04-.97,1.51-1.6h-2.69c.06.46.12.92.18,1.38ZM79.57,17.87c0-.15-.09-.27-.24-.3-.18-.03-.36-.05-.54-.05-.32,0-.64-.04-.95-.13-.19-.05-.39-.1-.58-.15-.25-.07-.5-.15-.73-.27-.21-.11-.43-.22-.64-.32-.21-.1-.4-.22-.59-.34,0,.03-.01.07-.02.09-.11.28-.43.38-.64.57-.47.44-.2,1.08-.52,1.59-.01.02-.02.03-.03.05,0,0,0,.01-.01.02,0,.01-.01.02-.02.03,0,0-.01.01-.02.02,0,0-.01.02-.02.03,0,0-.01.01-.02.02,0,0-.01.02-.02.02,0,0-.01.01-.02.02,0,0-.01.01-.02.02,0,0-.01.01-.02.02,0,0-.01.01-.02.02,0,0-.01.01-.02.02,0,0-.01.01-.02.02,0,0-.01.01-.02.02,0,0-.01.01-.02.02,0,0-.01.01-.02.02,0,0-.01.01-.02.02,0,0-.02.01-.02.02,0,0-.01.01-.02.02-.01,0-.02.02-.03.02,0,0-.02.01-.03.02,0,0-.02.01-.03.02,0,0-.01.01-.02.02,0,0-.02.01-.02.02,0,0-.01.01-.02.02,0,0-.02.01-.02.02,0,0-.01.01-.02.02,0,0-.02.01-.02.02,0,0-.01.01-.02.02,0,0-.01.01-.02.02-.11.1-.23.16-.37.21-.04.01-.07.02-.11.03-.02,0-.04,0-.06.01-.04.01-.07.02-.11.03,0,0,0,0-.01,0-.04.01-.07.03-.11.04,0,0-.01,0-.02,0-.03.01-.07.03-.1.04,0,0-.01,0-.02,0-.03.02-.07.03-.1.05-.04.02-.07.03-.11.05,0,0-.01,0-.02,0-.04.02-.07.03-.11.04,0,0,0,0-.01,0-.04.01-.07.03-.11.04,0,0,0,0,0,0-.04.01-.08.03-.12.04-.25.07-.44.1-.67.23-.34.2-.55.4-.94.47-.47.07-.74.32-1.17.51-.25.11-.63.18-.79.41-.09.14-.05.25-.08.39-.03.14-.1.24-.13.38-.06.28.04.58-.02.86-.06.26-.14.49-.23.72-.11.25-.18.45-.38.65-.07.07-.11.1-.13.14v1.84s.08-.02.13-.03c.12-.01.24.02.35,0,.15-.02.26-.1.41-.13.14-.02.28.02.41,0,.15-.03.25-.1.41-.11.14,0,.28,0,.41,0,.23,0,.41-.08.64-.11.11-.02.22-.02.33-.02.25,0,.51.01.75.01.16,0,.32.01.47,0,.22-.01.33-.11.53-.18.28-.1.4-.07.52-.36.11-.27.1-.56.25-.81.32-.53.76-.78,1.32-1,.3-.12.55-.07.86-.14.36-.08.48-.42.83-.52.09-.03.19-.05.28-.07.41-.09.83-.1,1.26-.11v-3.85h1.84c.03-.21.06-.42.1-.62.03-.16.04-.32.05-.48ZM44.35,16.23c.15-.1.26-.34.32-.51.03-.07.05-.13.07-.2-.29.27-.59.53-.91.77.18.01.35.04.52-.07ZM69.7,62.64c.2,0,.4,0,.6,0,.08,0,.16-.01.24-.03.11-.02.23-.13.24-.24.02-.2.03-.4.03-.6,0-1.42,0-2.84,0-4.26,0-.2,0-.4.02-.6.02-.2.15-.34.34-.36.18-.02.36-.02.54-.02.6,0,1.2,0,1.8,0,.42,0,.54-.11.61-.5.02-.1.02-.2.04-.3.06-.44.13-.87.19-1.31.04-.31.09-.61.13-.92h-7.91s-.04.06-.06.09c-.27.43-.29.52-.79.72-.45.18-.8.5-1.24.7-.38.17-.54.23-.83.5-.38.35-.29.39-.45.87-.05.16-.17.33-.32.49-.26.27-.61.52-.9.67-.07.04-.13.06-.19.09-.19.08-.35.15-.47.23-.22.15-.33.35-.35.78,0,.18.07.41-.03.57-.12.19-.53.36-.7.56-.34.39-.24.71-.4,1.13-.17.45-.64.74-.73,1.23-.03.16.02.34.02.5.34,0,.68,0,1.02,0,3.18,0,6.36,0,9.54,0ZM55,9.45c.18-.13.39-.09.59-.16.25-.09.43-.28.7-.32.22-.03.27.01.46-.11.25-.16.46-.43.71-.6.37-.25,1.07-.11,1.51-.11.7,0,1.38.03,2.07-.14.34-.09.4-.14.44-.45.05-.42.34-.64.62-.95.2-.22.38-.54.69-.6.52-.09,1.11.07,1.62-.11.21-.07.22-.14.26-.35,0-.04.01-.09.02-.13h1.26c-.53-.38-1.08-.7-1.71-.91-.11-.04-.22-.09-.33-.13-.23-.07-.46-.14-.69-.21-.17-.05-.35-.08-.53-.12-.68-.16-1.37-.26-2.08-.25-.46.01-.92.05-1.37.1-.9.11-1.77.34-2.61.66-.52.2-1.04.41-1.53.69-.55.32-1.1.66-1.62,1.03-.63.45-1.26.93-1.81,1.48-.83.83-1.7,1.63-2.44,2.56-.32.41-.68.78-1.01,1.18-.3.37-.6.75-.9,1.12.2,0,.39.02.59,0,.29-.03.53-.13.83-.12.58,0,1.25.09,1.82-.01.23-.04.44-.18.67-.23.5-.11,1.17,0,1.69,0,.34,0,.77.08,1.11,0,.36-.07.37-.28.38-.59,0-.24-.03-.49.03-.71.04-.14.09-.2.09-.35,0-.15-.03-.29.02-.44.07-.22.29-.62.47-.76ZM76.34,27.51v.78h1.68c.02-.13.04-.27.06-.4.04-.28.08-.55.13-.83-.24.19-.5.18-.83.31-.34.14-.69.1-1.04.14ZM87.27,55.51c.2-.13.41-.26.62-.38.73-.4,1.04-.97,1.51-1.6h-2.41c.09.66.19,1.32.28,1.97ZM90.25,61.73s0,.08,0,.12c.02,0,.06,0,.08-.02.08-.05.18-.07.25-.15.14-.14.04-.29.13-.4.14-.17.5,0,.71-.09.29-.12.22-.36.27-.6.02-.08.06-.19.11-.3h-1.55c0,.48,0,.96,0,1.44ZM84.58,17.08c-.2.07-.4.15-.6.2-.4.1-.8.17-1.21.2v1.33c-.1.16-.23.32-.36.38-.07.03-.22.02-.36.01.14.86.28,1.71.39,2.58.09.71.21,1.42.32,2.13.07.47.15.94.22,1.41h1.59v-8.24ZM106.62,26.5c.33-.29.73-.44,1.06-.7.15-.12.27-.28.36-.46v-10.56h-14.17v19.84h-9.29v1.51c.18,1.27.38,2.53.52,3.8.1.89.25,1.78.38,2.67.06.4.12.79.18,1.18.04,0,.07-.02.12-.03.37-.05.83-.1,1.18-.23.44-.15.75-.38,1.23-.46.36-.06.7-.05,1.03-.18.1-.14.24-.22.42-.25.18,0,.34-.04.48-.14.32-.17.45-.45.65-.67.17-.2.68-.54.95-.6.38-.09.82.12,1.2-.02.35-.13.59-.64,1.01-.58-.08.4-.69.55-.91.8-.22.23-.19.65-.18.95,0,.49-.09,1.02.15,1.47.08.15.2.25.29.39.04.12.1.22.19.31.11.06.21.13.3.22.12.22.02.7.02.95,0,.34,0,.68,0,1.03,0,.83.02,1.68-.38,2.44-.28.53-.61.65-1.03,1.02-.26.22-.43.5-.63.77,0,.01-.02.02-.02.03h7.45c.1-.44.19-.9.35-1.32.12-.34.2-.58.55-.75.23-.11.45-.1.69-.21.25-.13.45-.17.75-.1.59.16,1.21.54,1.82.6.22.02.48.03.67-.06.13-.06.2-.18.32-.24.11-.05.19-.06.32-.1.09-.02.09-.1.19-.12.08-.02.18.03.26.01.1-.02.1-.1.19-.12.09-.02.18,0,.27-.04.35-.14.55-.63.86-.84.34-.24.85-.25,1.3-.25.32,0,.35,0,.58-.15.27-.18.44-.29.74-.4.46-.17.79-.55,1.18-.82.38-.26.68-.64,1.02-.95.36-.32.67-.69,1.02-1.03.13-.13.27-.2.42-.31.28-.22.47-.61.76-.79.11-.07.24-.04.36-.12.2-.13.35-.38.57-.52.11-.07.21-.17.3-.26.02-.03.04-.06.06-.1.02-.03.04-.07.06-.1h2.57c.05-.33.09-.66.14-1,.1-.77.2-1.54.31-2.32.1-.71.2-1.42.29-2.14.07-.51.14-1.03.2-1.54-1.21,1.01-2.03,2.61-2.62,4-.19.45-.28.97-.36,1.45h-7.26v-10.44c-.14.05-.28.11-.41.21-.19.15-.37.25-.58.36-.43.24-.91.22-1.34.46-.36.2-.76.23-1.12.42-.26.14-.51.3-.75.48-.48.35-.95.75-1.42,1.11-.27.21-.61.61-.95.71.05-.28.52-.57.73-.76.22-.21.49-.29.75-.46.61-.4,1.15-.91,1.73-1.35.15-.11.37-.19.5-.33.09-.09.13-.25.22-.36.28-.35.56-.74.9-1.04.24-.22.45-.45.67-.68.18-.19.4-.26.61-.41.15-.11.25-.29.42-.37.02,0,.03-.01.05-.02v-1.35s-.08.03-.14.05c-.03.01-.07.02-.1.03-.01,0-.02,0-.04,0-.02,0-.05.01-.07.02-.01,0-.03,0-.04,0-.02,0-.04,0-.06.01-.02,0-.03,0-.05,0-.02,0-.04,0-.06,0-.02,0-.03,0-.05,0-.02,0-.04,0-.06,0-.02,0-.03,0-.05,0-.02,0-.04,0-.06,0-.02,0-.03,0-.05,0-.02,0-.04,0-.05,0-.02,0-.04,0-.06,0-.02,0-.05,0-.07,0-.03,0-.05,0-.08,0-.02,0-.03,0-.05,0-.02,0-.04,0-.06,0-.02,0-.03,0-.05,0-.02,0-.04,0-.06,0-.02,0-.03,0-.05,0-.02,0-.04,0-.06,0-.02,0-.03,0-.05,0-.02,0-.04,0-.06,0-.02,0-.03,0-.05,0-.02,0-.04,0-.06.01-.02,0-.03,0-.05.01-.02,0-.04,0-.05.01-.02,0-.03,0-.05.01-.01,0-.03,0-.04.01-.01,0-.02,0-.03.01-.06.05-.13.1-.2.14-.19.11-.4.22-.6.31-.15.07-.36.11-.51.21.03-.03.05-.06.08-.09.15-.15.33-.21.51-.31.25-.13.47-.19.73-.27.07-.06.14-.12.2-.19.07-.06.13-.13.2-.19ZM93.87,60.29h-.64s-.08.03-.12.04c-.43.17-.45.18-.59.64-.11.37-.03.78-.21,1.11-.13.23-.3.39-.47.57.67,0,1.35,0,2.02,0v-2.37ZM110.52,62.66c.2,0,.4,0,.6,0,.08,0,.16-.01.24-.03.1-.03.18-.09.21-.2.02-.08.04-.16.04-.23,0-.18,0-.36,0-.54,0-1.38,0-2.76,0-4.14,0-.2.01-.4.03-.6,0-.11.12-.23.23-.24.18-.02.36-.03.54-.03.72,0,1.44,0,2.16,0,.18,0,.36,0,.54-.02.18-.01.31-.11.34-.29.05-.25.09-.51.12-.77.06-.48.1-.97.16-1.45v-.58h-8.15s-.04.06-.06.09c-.27.43-.29.52-.79.72-.45.18-.8.5-1.24.7-.38.17-.54.23-.83.5-.38.35-.29.39-.45.87-.05.16-.17.33-.32.49-.26.27-.61.52-.9.67-.07.04-.13.07-.19.09-.19.08-.35.15-.47.23-.22.15-.33.35-.35.78,0,.18.07.41-.03.57-.12.19-.53.36-.7.56-.34.39-.24.71-.4,1.13-.17.45-.64.74-.73,1.23-.03.16.01.33.02.49.26,0,.52,0,.77,0,3.2,0,6.4,0,9.6,0ZM120.64,17.96c0-.11-.05-.2-.15-.24-.18-.08-.37-.14-.56-.21-.24-.09-.5-.16-.73-.28-.93-.47-1.78-1.07-2.54-1.79-.06-.06-.12-.12-.18-.19-.12.23-.04.47-.1.74-.03.12-.06.33-.1.44-.11.28-.43.38-.64.57-.47.44-.2,1.08-.52,1.59-.01.02-.02.03-.03.05,0,0,0,.01-.01.02,0,.01-.01.02-.02.03,0,0-.01.01-.02.02,0,0-.01.02-.02.03,0,0-.01.01-.02.02,0,0-.01.02-.02.02,0,0-.01.01-.02.02,0,0-.01.01-.02.02,0,0-.01.01-.02.02,0,0-.01.01-.02.02,0,0-.01.01-.02.02,0,0-.01.01-.02.02,0,0-.01.01-.02.02,0,0-.01.01-.02.02,0,0-.01.01-.02.02,0,0-.01.01-.02.02,0,0-.02.01-.02.02,0,0-.01.01-.02.02-.01,0-.02.02-.03.02,0,0-.02.01-.03.02,0,0-.02.01-.03.02,0,0-.01.01-.02.02,0,0-.02.01-.02.02,0,0-.01.01-.02.02,0,0-.02.01-.02.02,0,0-.01.01-.02.02,0,0-.02.01-.02.02,0,0-.01.01-.02.02,0,0-.01.01-.02.02-.11.1-.23.16-.37.21-.04.01-.07.02-.11.03-.02,0-.04,0-.06.01-.04.01-.07.02-.11.03,0,0,0,0-.01,0-.04.01-.07.03-.11.04,0,0-.01,0-.02,0-.03.01-.07.03-.1.04,0,0-.01,0-.02,0-.03.02-.07.03-.1.05-.04.02-.07.03-.11.05,0,0-.01,0-.02,0-.04.02-.07.03-.11.04h-.01s-.07.03-.11.05c0,0,0,0,0,0-.04.01-.08.03-.12.04-.25.07-.44.1-.67.23-.34.2-.55.4-.94.47-.47.07-.74.32-1.17.51-.25.11-.63.18-.79.41-.09.14-.05.25-.08.39-.03.14-.1.24-.13.38-.06.28.04.58-.02.86-.06.26-.14.49-.23.72-.11.25-.18.45-.38.65-.07.07-.11.1-.13.14v1.84s.08-.02.13-.03c.12-.01.24.02.35,0,.15-.02.26-.1.41-.13.14-.02.28.02.41,0,.15-.03.25-.1.41-.11.14,0,.28,0,.41,0,.23,0,.41-.08.64-.11.11-.02.22-.02.33-.02.25,0,.51.01.75.01.16,0,.32.01.47,0,.22-.01.33-.11.53-.18.28-.1.4-.07.52-.36.11-.27.1-.56.25-.81.32-.53.76-.78,1.32-1,.3-.12.55-.07.86-.14.36-.08.48-.42.83-.52.09-.03.19-.05.28-.07.41-.09.83-.1,1.26-.11v-3.85h1.93c.02-.13.04-.25.06-.38.03-.22.05-.44.06-.66ZM97.14,4.55c-.76.32-1.48.7-2.1,1.25-.06.05-.12.1-.19.15-.48.37-.91.79-1.3,1.24-.65.76-1.24,1.57-1.76,2.42-.5.82-1,1.64-1.57,2.41-.13.18-.27.36-.4.55.56.01,1.18.08,1.72-.01.23-.04.44-.18.67-.23.5-.11,1.17,0,1.69,0,.34,0,.77.08,1.11,0,.36-.07.37-.28.38-.59,0-.24-.03-.49.03-.71.04-.14.09-.2.09-.35,0-.15-.03-.29.02-.44.07-.22.29-.62.47-.76.18-.13.39-.09.59-.16.25-.09.43-.28.7-.32.22-.03.27.01.46-.11.25-.16.46-.43.71-.6.37-.25,1.07-.11,1.51-.11.7,0,1.38.03,2.07-.14.34-.09.4-.14.44-.45.05-.42.34-.64.62-.95.2-.22.38-.54.69-.6.52-.09,1.11.07,1.62-.11.21-.07.22-.14.26-.35,0-.04.01-.09.02-.13h1.15c-.64-.38-1.31-.7-2.02-.95-.47-.17-.95-.32-1.43-.43-.44-.1-.87-.18-1.32-.23h-2.32c-.89.14-1.77.33-2.6.68ZM118.38,27.4c-.34.14-.69.1-1.04.14v.78h1.86c.07-.44.14-.89.2-1.33,0-.04.01-.08.02-.13-.04.05-.07.1-.1.14-.28.31-.57.24-.94.4ZM52.24,139.79h14.12v-11.35h-9.11s-.05.07-.07.1c-.3.48-.32.58-.89.8-.5.2-.9.56-1.39.78-.42.19-.6.26-.93.56-.42.39-.32.44-.5.97-.06.18-.19.37-.36.54-.29.3-.68.58-1,.75-.07.04-.15.07-.21.1-.22.09-.39.16-.53.26-.25.17-.37.4-.39.87,0,.19.07.44-.02.62,0,1.98,0,3.97,0,5.95,0,.16,0,.32,0,.48,0,.12,0,.25.03.36.11.33.1.67.12,1.01.01.22.03.44.05.66.02.22.04.44.05.66.02.54.01,1.08.1,1.62.02.14.02.28.02.42,0,.13,0,.25.01.38.33-.03.64-.06.89-.13v-6.39ZM65.88,113.76h-8.11v-11.67c-.16.05-.31.13-.46.24-.21.16-.42.27-.65.41-.48.27-1.02.24-1.49.51-.4.22-.85.26-1.25.47-.29.16-.57.34-.84.54-.53.39-1.06.83-1.58,1.24-.15.12-.32.29-.5.45,0,3.16,0,6.32,0,9.49h-.01c0,1.84,0,3.68,0,5.52,0,.73,0,1.46,0,2.19.49.2,1,.43,1.49.48.24.02.53.03.75-.06.15-.06.22-.2.36-.26.13-.06.21-.07.36-.11.1-.03.1-.11.21-.13.09-.02.2.04.29.02.11-.02.12-.11.21-.13.1-.03.2,0,.3-.04.4-.16.61-.7.96-.94.38-.26.95-.28,1.45-.27.36,0,.39,0,.65-.17.3-.2.49-.32.83-.45.51-.19.88-.62,1.32-.92.43-.29.75-.72,1.14-1.06.41-.36.75-.77,1.14-1.15.15-.14.31-.22.46-.34.32-.24.52-.68.85-.88.12-.07.27-.04.41-.13.22-.14.39-.42.63-.58.12-.08.23-.19.34-.29.02-.04.04-.07.06-.11.02-.04.04-.08.07-.11h4.28v-3.4h4.81v27.61c-.22.03-.59-.13-.78,0-.31.22-.35.9-.58,1.23-.31.43-.83.21-1.1.64-.27.43.26,1.21-.26,1.52-.31.19-.46,0-.71.26-.13.14-.13.36-.35.45-.48.21-1.39-.37-1.82-.57-.26-.12-.64-.27-.92-.32-.25-.04-.51.04-.74-.05-.69-.28-.85-1.09-1.67-1.12-.44-.02-1.3-.15-1.61.13-.39.34-.39.97-.67,1.38-.44.63-1.23.09-1.8.61-.45.41-.45,1.17-1.19,1.12-.46-.03-.88-.33-1.33-.43-.45-.1-.98-.06-1.44-.05-.37,0-.58.05-.92.17-.15.05-.33.05-.47.16-.13.11-.14.49-.27.57-.34.21-1.28.03-1.69.03-.28,0-.72-.09-.97.05-.18.1-.24.37-.39.5-.1.09-.23.15-.39.2v2.16c.13,0,.25,0,.38-.02.42-.05.84-.07,1.26-.08.26,0,.52,0,.78-.04.42-.06.84-.07,1.26-.08.3-.01.6-.03.9-.05.28-.02.56-.05.84-.06.5-.02,1-.02,1.5-.09.16-.02.32-.02.48-.03.52-.02,1.04-.01,1.56-.09.16-.02.32-.02.48-.02.4,0,.8,0,1.2-.02.24,0,.48,0,.72-.04.38-.05.76-.06,1.14-.07.3,0,.6,0,.9-.05.38-.05.76-.06,1.14-.07.3,0,.6,0,.9-.04.4-.05.8-.06,1.2-.08.28,0,.56,0,.84-.04.4-.05.8-.06,1.2-.08.3-.01.6-.03.9-.05.34-.02.68-.05,1.02-.07.32-.02.64,0,.96-.05.42-.05.84-.07,1.26-.08.28,0,.56-.03.84-.04.36-.02.72-.05,1.08-.07.3-.02.6,0,.9-.04.36-.04.72-.07,1.08-.08.12,0,.24-.01.36-.03.2-.03.33-.16.34-.36,0-.16.02-.32,0-.48-.07-.44-.07-.88-.08-1.32,0-.22,0-.44-.03-.66-.08-.52-.08-1.04-.09-1.56,0-.16,0-.32-.02-.48-.09-.62-.08-1.24-.1-1.86,0-.24-.02-.48-.04-.72-.02-.32-.05-.64-.06-.96,0-.26,0-.52,0-.78h-2.65c.12-.38.1-.43.61-.44.42-.01.85.03,1.28,0,.32-.01.55-.07.76-.11,0-.34,0-.68-.01-1.02,0-.2,0-.4-.03-.6-.06-.4-.06-.8-.07-1.2,0-.68-.01-1.36-.02-2.04,0-.22-.02-.44-.03-.66-.02-.32-.05-.64-.06-.96-.02-.62-.02-1.24-.03-1.86,0-.22-.02-.44-.03-.66-.02-.32-.04-.64-.05-.96-.03-.98,0-1.96-.11-2.94,0-.08,0-.16,0-.24-.01-.7-.03-1.4-.04-2.1,0-.18,0-.36-.02-.54-.08-.62-.07-1.24-.09-1.86,0-.3,0-.6-.04-.9-.06-.44-.07-.88-.07-1.32,0-.46,0-.92-.02-1.38,0-.2-.02-.4-.03-.6-.02-.34-.05-.68-.06-1.02-.01-.44-.01-.88-.02-1.32,0-.28,0-.56-.04-.84-.06-.44-.06-.88-.08-1.32,0-.36,0-.72-.04-1.08-.05-.46-.07-.92-.07-1.38,0-.66,0-1.32-.1-1.97-.01-.08-.02-.16-.01-.24.01-.77-.07-1.54-.12-2.31-.37.3-.74.59-1.13.86-.35.24-.68.39-1.02.5-.42.14-.85.24-1.34.38-1.43.41-2.79.82-4.14,1.44-1.97.92-3.18,3.24-4,5.18-.21.51-.31,1.09-.41,1.62ZM70.36,98.79c-.31.35-.63.27-1.05.45-.38.16-.77.11-1.16.16v.87h4.96c-.07-.13-.15-.26-.2-.4-.2-.59-.43-1.16-.46-1.79,0-.04-.02-.08-.02-.12-.05-.37-.09-.74-.13-1.11-.35.24-.68.48-1.01.77-.38.34-.61.81-.94,1.18ZM72.86,86.79c.19-1.1.37-2.21.62-3.3.02-.08.04-.16.05-.23.08-.42.03-.54-.35-.71-.24-.11-.48-.2-.72-.3-.58-.25-1.16-.51-1.74-.76-.05.04-.11.07-.15.09-.21.11-.46.07-.69.17-.33.15-.57.22-.92.29-.03.14,0,.26,0,.4-.02.2-.12.37-.14.57-.03.32.02.44-.15.7-.17.26-.32.46-.38.76-.03.14-.02.25-.12.38-.24.31-.69.43-.92.73-.23.29-.09.59-.17.93-.03.14-.07.37-.12.49-.12.32-.48.42-.71.64-.52.49-.23,1.2-.59,1.77-.01.02-.02.04-.04.06,0,0,0,.01-.01.02,0,.01-.02.02-.03.03,0,0-.01.01-.02.02,0,0-.02.02-.02.03,0,0-.01.01-.02.02,0,0-.02.02-.02.03,0,0-.01.01-.02.02,0,0-.02.02-.02.02,0,0-.01.01-.02.02,0,0-.02.01-.02.02,0,0-.02.01-.02.02,0,0-.02.01-.02.02,0,0-.02.01-.02.02,0,0-.02.01-.02.02,0,0-.02.01-.02.02,0,0-.02.01-.02.02,0,0-.02.01-.03.02,0,0-.02.01-.02.02-.01,0-.02.02-.04.03-.01,0-.02.02-.03.02,0,0-.02.01-.03.02,0,0-.01.01-.02.02,0,0-.02.01-.03.02,0,0-.02.01-.02.02,0,0-.02.01-.03.02,0,0-.02.01-.02.02,0,0-.02.01-.03.02,0,0-.02.01-.02.02,0,0-.01.01-.02.02-.12.11-.26.18-.41.24-.04.01-.08.03-.13.04-.02,0-.04.01-.07.02-.04.01-.08.02-.12.04,0,0-.01,0-.02,0-.04.01-.08.03-.12.04,0,0-.01,0-.02,0-.04.02-.08.03-.12.05,0,0-.01,0-.02,0-.04.02-.08.03-.12.05-.04.02-.08.04-.12.05,0,0-.01,0-.02,0-.04.02-.08.03-.12.05,0,0,0,0-.01,0-.04.02-.08.03-.12.05,0,0,0,0,0,0-.04.02-.09.03-.13.04-.28.08-.5.11-.75.26-.38.22-.61.45-1.05.52-.53.08-.83.36-1.31.57-.28.12-.71.2-.88.45-.11.15-.05.28-.09.44-.04.16-.11.27-.14.42-.07.31.05.65-.02.96-.07.29-.15.54-.26.81-.12.28-.2.51-.43.72-.08.07-.12.12-.15.16v2.06s.09-.02.14-.03c.13-.02.27.02.4,0,.17-.02.3-.12.46-.14.15-.03.31.03.46,0,.17-.04.28-.12.46-.13.15,0,.31,0,.46,0,.25,0,.46-.09.71-.12.12-.02.24-.02.37-.03.28,0,.57.01.84.01.17,0,.35.01.53,0,.24-.01.37-.13.59-.21.31-.12.44-.08.58-.4.13-.3.11-.63.28-.9.36-.59.85-.87,1.47-1.12.33-.13.61-.08.97-.16.4-.09.54-.47.92-.58.1-.03.21-.06.32-.08.46-.1.93-.11,1.4-.12v-4.3h2.87c.04-.43.09-.86.15-1.29.09-.59.19-1.18.29-1.77ZM51.11,85.38c-.01.18-.02.36-.02.54,0,.86,0,1.72,0,2.58,0,.26-.02.52-.03.78-.01.28-.04.56-.04.84,0,5.02-.02,10.04-.02,15.06,0,.16,0,.32,0,.48.1-.08.19-.15.25-.21.25-.23.55-.33.83-.52.69-.45,1.28-1.02,1.94-1.51.17-.13.41-.21.56-.37.1-.11.15-.28.25-.4.32-.39.63-.82,1-1.16.27-.24.5-.51.74-.76.2-.21.45-.3.68-.46.17-.12.28-.32.46-.41.02,0,.04-.02.06-.02v-1.51s-.09.03-.15.05c-.04.01-.08.03-.12.04-.01,0-.03,0-.04,0-.03,0-.05.01-.08.02-.02,0-.03,0-.05,0-.02,0-.05,0-.07.01-.02,0-.03,0-.05,0-.02,0-.04,0-.07,0-.02,0-.04,0-.05,0-.02,0-.04,0-.06,0-.02,0-.04,0-.06,0-.02,0-.04,0-.06,0-.02,0-.04,0-.06,0-.02,0-.04,0-.06,0-.02,0-.04,0-.06,0-.03,0-.05,0-.08,0-.03,0-.06,0-.09,0-.02,0-.04,0-.05,0-.02,0-.04,0-.07,0-.02,0-.04,0-.05,0-.02,0-.04,0-.06,0-.02,0-.04,0-.05,0-.02,0-.04,0-.06,0-.02,0-.04,0-.05,0-.02,0-.04,0-.06,0-.02,0-.04,0-.06,0-.02,0-.04,0-.06.01-.02,0-.04,0-.06.01-.02,0-.04,0-.06.01-.02,0-.04.01-.06.02-.01,0-.03,0-.04.01-.01,0-.03,0-.04.01-.07.06-.15.11-.23.16-.22.12-.45.25-.68.35-.17.08-.4.13-.57.24-.07.09-.14.18-.22.26.04-.11.12-.19.22-.26.03-.04.06-.07.09-.1.17-.17.36-.23.57-.34.27-.15.53-.21.81-.3.08-.07.15-.14.23-.21.07-.07.15-.14.23-.22.36-.33.81-.49,1.19-.78.17-.14.3-.32.4-.51v-11.8h-6.46c-.1.05-.19.13-.2.25ZM135.16,96.08c-.36.32-.57.75-.88,1.11-.29.32-.59.26-.98.42-.36.15-.72.1-1.09.15v.81h4.46c-.01-.09-.03-.18-.04-.27-.04-.36-.08-.71-.08-1.07,0-.72,0-1.44,0-2.16-.49.31-.96.62-1.4,1.02ZM121.01,96.66c.34-.31.76-.46,1.11-.73.16-.13.28-.3.38-.48v-11.05h-14.83v20.76h-9.72v10.18c.08-.04.16-.09.23-.14.36-.23.59-.43,1.01-.48.39-.05.87-.11,1.24-.24.46-.16.79-.4,1.29-.48.37-.06.73-.05,1.08-.19.11-.15.25-.23.44-.26.19.01.36-.04.51-.15.33-.18.47-.47.68-.7.18-.21.71-.57,1-.63.4-.09.86.12,1.25-.02.36-.13.62-.67,1.06-.61-.08.42-.72.58-.96.83-.23.24-.2.68-.19.99,0,.51-.1,1.07.16,1.54.09.16.2.26.3.41.04.12.11.23.2.33.12.06.22.14.31.23.13.23.02.73.02,1,0,.36,0,.71,0,1.07,0,.87.02,1.76-.4,2.55-.3.55-.64.68-1.08,1.06-.27.23-.45.53-.66.8,0,.01-.02.02-.03.03h7.79c.11-.47.2-.94.36-1.38.13-.36.21-.61.58-.78.24-.11.48-.1.72-.22.26-.13.47-.18.78-.1.62.17,1.27.57,1.91.62.23.02.5.03.71-.06.14-.06.21-.19.33-.25.12-.06.19-.06.33-.1.09-.03.1-.1.2-.12.09-.02.19.03.27.01.1-.02.11-.1.2-.12.1-.02.18,0,.28-.04.37-.15.58-.66.9-.88.36-.25.89-.26,1.36-.26.33,0,.36,0,.61-.16.28-.18.46-.3.78-.42.48-.18.82-.58,1.24-.86.4-.27.71-.67,1.07-.99.38-.34.7-.72,1.07-1.08.14-.13.29-.21.43-.32.3-.23.49-.64.8-.82.12-.07.25-.04.38-.12.2-.13.37-.39.59-.54.12-.08.22-.17.32-.27.02-.03.04-.07.06-.1.02-.04.04-.07.06-.11h4v-3.19h4.5v25.85c-.21.03-.56-.12-.73,0-.29.2-.32.85-.55,1.15-.29.41-.78.2-1.03.6-.25.4.24,1.13-.24,1.43-.29.18-.43,0-.67.24-.12.13-.12.34-.33.43-.45.19-1.3-.34-1.7-.53-.24-.12-.6-.25-.86-.3-.23-.04-.47.04-.69-.05-.64-.27-.8-1.02-1.56-1.05-.41-.02-1.21-.14-1.51.12-.37.32-.36.91-.62,1.29-.41.59-1.15.08-1.68.57-.42.38-.42,1.09-1.11,1.04-.44-.03-.82-.31-1.24-.4-.42-.09-.92-.06-1.35-.05-.35,0-.54.05-.86.16-.14.05-.31.04-.44.15-.12.1-.13.46-.25.53-.32.2-1.2.03-1.58.03-.26,0-.67-.09-.91.04-.17.09-.23.35-.37.47-.09.08-.22.14-.36.19v2.67h20.98c0-.47,0-.94,0-1.41,0-.18,0-.36.01-.54.02-.25.13-.37.37-.39.18-.01.36-.01.54-.01.9,0,1.8,0,2.7,0,.18,0,.36-.02.54-.03.11-.01.22-.13.24-.24,0-.04.02-.08.02-.12.01-.42.02-.84-.04-1.26-.04-.26-.05-.52-.06-.78-.01-.22,0-.44,0-.66,0-.38,0-.76-.08-1.14-.03-.18-.03-.36-.03-.54,0-.34,0-.68-.01-1.02,0-.3-.02-.6-.07-.9-.03-.2-.04-.4-.04-.6,0-.35,0-.71-.01-1.06h-2.34c.12-.35.09-.4.57-.41.4-.01.8.03,1.2,0,.22-.01.4-.04.56-.07,0-.03,0-.06,0-.09-.1-.52-.08-1.04-.09-1.55-.01-.7.03-1.4-.1-2.09-.02-.12-.01-.24-.02-.36,0-.22,0-.44,0-.66,0-.42,0-.84-.08-1.26-.03-.17-.03-.36-.03-.54,0-.38,0-.76-.01-1.14,0-.18,0-.36-.04-.54-.07-.36-.07-.72-.07-1.08,0-.38,0-.76,0-1.14,0-.4,0-.8-.08-1.2-.03-.18-.03-.36-.03-.54,0-.34,0-.68-.01-1.02,0-.2,0-.4-.04-.6-.06-.32-.07-.64-.07-.96,0-.34,0-.68-.01-1.02,0-.16,0-.32-.03-.48-.08-.4-.08-.79-.08-1.2,0-.48,0-.96,0-1.44,0-.18,0-.36-.02-.54-.1-.5-.08-.99-.09-1.49,0-.44,0-.88-.09-1.31-.03-.17-.03-.36-.03-.54,0-.36,0-.72-.01-1.08,0-.18,0-.36-.03-.54-.08-.42-.08-.84-.08-1.26,0-.5,0-1-.01-1.5,0-.16-.03-.32-.06-.47-.03-.15-.14-.24-.29-.27-.1-.02-.2-.03-.3-.03-.16,0-.32,0-.48,0-.2,0-.4-.04-.58-.13-.27-.13-.54-.27-.8-.4-.15-.07-.26-.18-.36-.31-.17-.24-.34-.48-.48-.73-1.26.37-2.47.73-3.66,1.29-1.85.86-2.97,3.04-3.74,4.85-.2.47-.29,1.02-.38,1.52h-7.59v-10.92c-.15.05-.29.12-.43.22-.2.15-.39.26-.61.38-.45.25-.95.23-1.4.48-.37.21-.79.24-1.17.44-.28.15-.54.32-.79.5-.5.37-.99.78-1.48,1.16-.28.22-.64.64-.99.74.05-.29.55-.59.76-.79.23-.22.51-.31.78-.48.64-.42,1.2-.95,1.81-1.41.16-.12.39-.2.53-.35.09-.1.14-.27.23-.37.3-.36.59-.77.94-1.08.25-.23.47-.47.7-.71.19-.2.42-.28.64-.43.16-.11.26-.3.43-.39.02,0,.04-.02.05-.02v-1.41s-.08.03-.14.05c-.04.01-.07.02-.11.03-.01,0-.02,0-.04,0-.02,0-.05.01-.07.02-.01,0-.03,0-.04,0-.02,0-.04,0-.06.01-.02,0-.03,0-.05,0-.02,0-.04,0-.06,0-.02,0-.03,0-.05,0-.02,0-.04,0-.06,0-.02,0-.03,0-.05,0-.02,0-.04,0-.06,0-.02,0-.04,0-.05,0-.02,0-.04,0-.06,0-.02,0-.04,0-.06,0-.02,0-.05,0-.07,0-.03,0-.05,0-.08,0-.02,0-.03,0-.05,0-.02,0-.04,0-.06,0-.02,0-.03,0-.05,0-.02,0-.04,0-.06,0-.02,0-.03,0-.05,0-.02,0-.04,0-.06,0-.02,0-.03,0-.05,0-.02,0-.04,0-.06,0-.02,0-.03,0-.05,0-.02,0-.04,0-.06.01-.02,0-.03,0-.05.01-.02,0-.04,0-.06.01-.02,0-.03,0-.05.01-.01,0-.03,0-.04.01-.01,0-.02,0-.04.01-.07.05-.14.11-.21.15-.2.11-.42.23-.63.33-.16.07-.37.12-.54.22.03-.03.06-.07.09-.1.16-.16.34-.22.53-.32.26-.14.49-.2.76-.28.07-.06.14-.13.21-.19.07-.07.14-.14.21-.2ZM97.95,86.05s.04,0,.06-.01c.26-.04.51.08.75-.08.16-.11.27-.35.34-.53.1-.27.17-.49.34-.74.22-.33.29-.76.55-1.09.13-.17.34-.22.48-.39.1-.13.16-.33.27-.47.2-.27.45-.43.78-.5.31-.07.63.02.95-.02.31-.03.55-.13.87-.13.61,0,1.31.1,1.9-.01.24-.04.46-.19.71-.24.53-.11,1.23,0,1.77,0,.36,0,.81.08,1.16,0,.38-.08.39-.29.4-.62,0-.25-.04-.51.03-.75.04-.15.09-.21.1-.37,0-.16-.03-.31.02-.46.07-.23.3-.65.49-.79.19-.13.41-.09.62-.16.26-.09.45-.29.73-.33.23-.04.28.02.48-.11.06-.04.12-.1.18-.15-.52-.03-1.03-.12-1.54-.23-.25-.05-.51-.12-.75-.2-.62-.22-1.24-.46-1.77-.86-.06-.05-.13-.09-.2-.13-.29-.14-.53-.35-.75-.59-.18-.19-.35-.38-.51-.59-.24-.3-.46-.61-.69-.91-.1-.13-.2-.25-.3-.37-.09-.1-.2-.12-.33-.08-.08.03-.15.06-.23.08-.96.35-1.92.7-2.88,1.04-.36.13-.71.26-1.07.39-.6.22-1.2.43-1.81.65-.17.06-.34.11-.51.18-.78.31-1.57.59-2.37.86-.05.02-.1.04-.15.05v11.21c-.11.17-.24.34-.38.4-.13.06-.49,0-.63,0-.21,0-.41,0-.62,0-.31,0-.61,0-.92,0,.04.24.08.48.12.71.1.51.19,1.02.23,1.54.04.46.13.91.18,1.37.08.61.18,1.23.17,1.85,0,.24.04.48.06.72,0,.08.01.16.02.24h3.66v-9.38ZM137.98,85.65c.28-1,.57-2,.85-3,.24-.87.54-1.72.92-2.53.08-.16.13-.33.19-.5.05-.14-.01-.27-.16-.34-.04-.02-.07-.04-.11-.05-.51-.18-1.01-.37-1.52-.55-.24-.09-.49-.17-.74-.26-.94-.35-1.87-.7-2.81-1.04-.79-.29-1.59-.58-2.38-.87v3.03h5.49c-.48.06-.95.2-1.43.22-.2,0-.5-.08-.69.01,0,.43-.74,1.11-1.1,1.3-.2.1-.43.06-.64.16-.31.14-.53.21-.86.28-.03.13,0,.25,0,.38-.02.19-.12.34-.13.53-.03.3.02.41-.14.66-.16.24-.3.43-.36.71-.03.13-.02.23-.11.35-.22.29-.64.4-.87.69-.21.27-.09.55-.16.87-.03.13-.06.34-.11.46-.11.3-.45.4-.67.6-.49.46-.21,1.12-.55,1.66-.01.02-.02.04-.04.05,0,0,0,.01-.01.02,0,.01-.02.02-.02.03,0,0-.01.01-.02.02,0,0-.01.02-.02.03,0,0-.01.01-.02.02,0,0-.01.02-.02.02,0,0-.01.01-.02.02,0,0-.01.01-.02.02,0,0-.01.01-.02.02,0,0-.01.01-.02.02,0,0-.01.01-.02.02,0,0-.01.01-.02.02,0,0-.01.01-.02.02,0,0-.02.01-.02.02,0,0-.02.01-.02.02,0,0-.02.01-.02.02,0,0-.02.01-.02.02,0,0-.02.01-.02.02-.01,0-.02.02-.03.02,0,0-.02.01-.03.02,0,0-.02.01-.03.02,0,0-.01.01-.02.02,0,0-.02.01-.03.02,0,0-.01.01-.02.02,0,0-.02.01-.02.02,0,0-.01.01-.02.02,0,0-.02.01-.02.02,0,0-.01.01-.02.02,0,0-.01.01-.02.02-.11.1-.24.17-.38.22-.04.01-.08.02-.12.03-.02,0-.04.01-.06.02-.04.01-.08.02-.12.04,0,0,0,0-.01,0-.04.01-.07.03-.11.04,0,0-.01,0-.02,0-.04.01-.07.03-.11.04,0,0-.01,0-.02,0-.04.02-.07.03-.11.05-.04.02-.08.03-.12.05,0,0-.01,0-.02,0-.04.02-.07.03-.11.05,0,0,0,0-.01,0-.04.02-.08.03-.12.04,0,0,0,0,0,0-.04.01-.08.03-.12.04-.26.08-.46.1-.7.24-.35.2-.57.42-.98.49-.49.08-.78.34-1.22.53-.26.11-.66.19-.82.43-.1.14-.05.26-.08.41-.03.15-.1.25-.13.4-.06.29.05.61-.02.9-.06.27-.14.51-.24.76-.11.26-.19.47-.4.68-.07.07-.11.11-.14.15v1.93s.08-.02.13-.03c.12-.01.25.02.37,0,.16-.02.28-.11.43-.13.14-.02.29.03.43,0,.16-.03.26-.11.43-.12.14,0,.29,0,.43,0,.24,0,.43-.08.66-.11.11-.02.23-.02.35-.02.26,0,.53.01.78.01.16,0,.33.01.49,0,.23-.01.35-.12.55-.19.29-.11.42-.07.54-.38.12-.28.1-.59.26-.84.34-.55.8-.81,1.38-1.05.31-.13.57-.07.9-.15.37-.08.5-.44.86-.55.1-.03.2-.05.3-.07.43-.09.87-.11,1.31-.11v-4.02h3.79c.05-.25.09-.51.14-.76.16-.8.3-1.61.52-2.4ZM97.95,137.71c.13-.03.26-.05.39-.08.3-.07.9-.04.98-.39.06-.26.02-.52.14-.78.16-.36.59-.93,1-1.04.2-.05.46.07.66.01.33-.1.28-.42.38-.66.08-.19.34-.32.52-.42.12-.07.28-.1.39-.18.14-.1.15-.24.26-.34.26-.26.93,0,1.29-.22.09-.05.18-.08.26-.16.14-.15.04-.31.13-.42.15-.18.52,0,.74-.1.31-.13.23-.37.28-.63.02-.08.06-.2.12-.31h-7.56v5.71ZM117.31,141.55c-1.11.31-3.3-.06-3.34,1.17-.28.06-.56.23-.82.27-.31.05-.6-.06-.91.03-.39.11-.62.32-1.03.4-.37.07-.76.09-1.14.16-.67.13-1.45.13-2.11.21-.08.01-.19.01-.29.01v4.16c-4.74,0-9.48,0-14.22,0-.24,0-.48,0-.72-.02-.17-.01-.3-.14-.31-.31-.02-.2-.02-.4-.02-.6,0-.49,0-.98,0-1.47.28-.04.56-.11.81-.26.27-.16.32-.51.61-.68.41-.25.87-.22,1.3-.39.46-.18.8-.26,1.3-.26.65,0,1.37.09,2.02-.03.34-.06.51-.11.59-.46.03-.15-.03-.34.03-.47.08-.17.39-.27.54-.36.25-.15.47-.33.72-.49.19-.13.35-.3.55-.42.17-.11.41-.14.5-.35.13-.31,0-.71.12-1.04.15-.41.42-.72.42-1.16,0-.76.46-1.26.96-1.76.28-.28.57-.49.86-.76.21-.2.51-.26.72-.46.17-.16.16-.27.42-.28.05-.17-.03-.34.04-.5.06-.06.13-.11.21-.14.06-.1.1-.21.12-.33.19-.45.58-.65.81-1.07.19-.35.11-.77.22-1.16.14-.47.16-.48.61-.67.04-.02.08-.03.12-.05h.67v8.32c.16-.19.37-.35.6-.56.47-.43.79-1.11,1.28-1.52.45-.38,1.17-.21,1.71-.49.32-.17.57-.54.87-.74.22-.15.47-.24.69-.4.4-.29.59-.57.81-.99.16-.3.49-.6.58-.92.07-.24-.05-.5,0-.74.09-.52.6-.82.77-1.29.16-.45.07-.78.42-1.19.18-.2.61-.38.73-.58.1-.17.02-.41.03-.6.01-.44.13-.66.36-.82.13-.09.29-.16.49-.24.06-.02.13-.06.2-.09.3-.16.67-.41.94-.7.16-.16.28-.34.34-.51.17-.5.08-.54.47-.91.3-.29.48-.35.87-.53.46-.2.83-.54,1.3-.73.53-.21.55-.31.83-.75.02-.03.04-.07.07-.1h8.53v10.63h-13.22v5.99ZM106.68,143.71c-.15.14-.29.28-.42.43-.15.18-.25.35-.36.55-.24.4-.12.36-.67.47-.01.36-.34.65-.49.97.36-.34.62-.77.97-1.12.29-.27.62-.5.97-.68v-.62ZM89.2,114.27c-.03.16-.03.32-.03.48,0,.28,0,.56,0,.84,0,.46,0,.92-.09,1.37-.03.16-.02.32-.03.48,0,.32,0,.64-.01.96,0,.18,0,.36-.04.54-.03.15-.04.31-.05.46.06-.25.15-.5.37-.69.19-.17.57-.25.78-.38.12-.07.25-.24.4-.29.08-.03.24-.01.3-.03.35-.14.85-.25,1.13-.55.22-.24.18-.44.22-.76.04-.32.26-.83.14-1.18-.22-.6-1.12-1.12-1.57-1.47-.34-.26-.46-.42-.62-.79-.11-.26-.32-.46-.49-.69-.09-.13-.2-.26-.31-.39,0,.32,0,.64,0,.95,0,.38,0,.76-.08,1.14ZM93.5,117.68c-.53.26-.55.36-.74.89-.2.56-.49.9-1.04,1.15-.41.19-.72.42-1.1.65-.5.29-1.06.29-1.62.38-.02,0-.05.01-.07.02,0,.13,0,.26,0,.38,0,.44,0,.88-.08,1.31-.03.14-.02.28-.03.42,0,.24,0,.48,0,.72,0,.42,0,.84-.08,1.25-.03.16-.03.32-.03.48,0,.38,0,.76-.01,1.14,0,.22-.01.44-.05.66-.04.28-.06.56-.06.84,0,.44,0,.88,0,1.32,0,.4,0,.8-.08,1.2-.03.18-.03.36-.03.54,0,.38,0,.76-.01,1.14,0,.16,0,.32-.03.48-.09.46-.08.92-.09,1.37,0,.48,0,.96-.09,1.43-.03.14-.02.28-.02.42,0,.3,0,.6,0,.9,0,.48,0,.96-.08,1.43-.03.16-.02.32-.02.48,0,.34,0,.68,0,1.02,0,.46,0,.92-.09,1.37-.02.12-.02.24-.01.36,0,.19.1.3.25.35v-.39c.27-.04.42-.03.7-.16.51-.24.96-.49,1.52-.61.82-.18,1.42-.53,2.17-.88.64-.3,1.25-.56,1.49-1.27.11-.34.24-.7.28-1.03.04-.28-.04-.55.03-.82.04-.16.17-.48.24-.62.13-.25.41-.39.52-.62.07-.14.06-.35.12-.5.06-.14.18-.26.24-.41.15-.36.08-.71.15-1.11.05-.3.21-.57.3-.86.12-.42.19-.84.37-1.24.08-.19.21-.34.3-.53.1-.24.11-.53.24-.76.38-.71,1.37-1.39,2.01-1.75.87-.49,1.62-1.13,2.5-1.62.76-.42,1.09-1.01,1.58-1.67h-6.93v-8.81c-.91.35-1.67,1.13-2.56,1.56Z"/></svg>