<?xml version="1.0" encoding="UTF-8"?><svg id="a" xmlns="http://www.w3.org/2000/svg" width="150" height="150" viewBox="0 0 150 150"><path d="M50.36,66.7c6.42,0,12.83,0,19.25,0,.24,0,.48,0,.72.02.17,0,.29.13.31.31.02.18.03.36.03.54,0,.94,0,1.88,0,2.82,0,.48,0,.96,0,1.44,0,.16-.02.32-.04.48-.02.14-.14.26-.28.28-.18.02-.36.04-.54.04-.76,0-1.52.02-2.28.02-.32,0-.64,0-.96.05-.22.03-.44.03-.66.03-1.1.01-2.2.02-3.3.03-.3,0-.6.03-.9.05-.18.01-.36.03-.54.03-.76,0-1.52.02-2.28.02-5.46,0-10.91,0-16.37,0-1,0-2,0-3-.02-.16,0-.32,0-.48-.02-.42-.07-.84-.06-1.26-.06-1.04,0-2.08-.02-3.12-.03-.16,0-.32,0-.48-.02-.48-.08-.96-.06-1.44-.07-.68,0-1.36-.01-2.04-.02-.12,0-.24,0-.36-.02-.25-.02-.37-.14-.38-.37,0-.14-.01-.28-.01-.42,0-1.44,0-2.88,0-4.32,0-.12,0-.24,0-.36,0-.06.01-.12.03-.18.03-.1.09-.18.2-.21.08-.02.16-.04.24-.04.22,0,.44,0,.66,0,6.42,0,12.83,0,19.25,0Z"/><path id="b" d="M74.39,111.25l-9.03-5.99-9.03,5.99-1.44-.95,10.47-6.94,10.47,6.94-1.44.95ZM59.11,113.1l1.44.95,4.81-3.19,4.81,3.19,1.44-.95-6.25-4.14-6.25,4.14ZM78.61,122.24l.11-.08c0-.11,0-.22,0-.33,0-.18,0-.36-.02-.54-.03-.25-.04-.5-.06-.75l-1.3.86,1.26.83ZM78.14,108.14c0-.42-.02-.84-.05-1.25l-.92.61.97.64ZM52.59,95.08l1.62,1.07,11.14-7.39,6.91,4.58c0-.36,0-.72,0-1.07,0-.22.02-.44.04-.66,0-.12.02-.25.03-.37l-6.97-4.62-12.76,8.46ZM70.16,87l-4.81-3.19-4.81,3.19-4.95-3.28c-.21.13-.43.28-.65.39-.41.2-.82.36-1.25.5l6.85,4.54,4.81-3.19,4.81,3.19,2.6-1.72c.04-.21.07-.42.1-.63.1-.6.21-1.19.32-1.79l-3.02,2ZM52.77,108.9l1.44.95,11.15-7.39,11.15,7.39,1.44-.95-12.58-8.34-12.58,8.34ZM52.95,122.81l1.26.83,11.15-7.39,11.14,7.39,1.26-.83-12.4-8.22-12.41,8.22ZM75.47,138.14l-10.11-6.7-10.11,6.7,1.08.72,9.03-5.99,9.03,5.99,1.08-.72ZM77.58,136.74l-12.22-8.1-12.22,8.1,1.08.72,11.14-7.39,11.14,7.39,1.08-.72ZM59.47,140.94l1.08.72,4.81-3.19,4.81,3.19,1.08-.72-5.89-3.9-5.89,3.9ZM75.65,124.21l-10.29-6.82-10.29,6.82,1.26.83,9.03-5.99,9.03,5.99,1.26-.83ZM59.29,127.01l1.26.83,4.81-3.19,4.81,3.19,1.26-.83-6.07-4.02-6.07,4.02ZM73.53,125.61l-8.18-5.42-8.18,5.42,1.26.83,6.92-4.59,6.92,4.59,1.26-.83ZM73.35,139.54l-8-5.3-8,5.3,1.08.72,6.92-4.59,6.92,4.59,1.08-.72ZM73.72,111.7l-8.36-5.54-8.36,5.54,1.44.95,6.92-4.59,6.92,4.59,1.44-.95ZM51.31,145.51c.02.14.02.28.02.42,0,.21,0,.41.02.62l2.52,1.67s.06,0,.08,0c.22,0,.44,0,.65-.03l.5-.33-3.82-2.53c0,.06,0,.13.02.19ZM65.36,111.79l-4.81,3.19-9.56-6.33c0,.56,0,1.11,0,1.67l9.56,6.33,4.81-3.19,4.81,3.19,8.11-5.38c0-.17-.01-.34-.02-.51,0-.36,0-.72-.04-1.08,0-.01,0-.03,0-.04l-8.05,5.34-4.81-3.19ZM65.36,125.83l-4.81,3.19-9.57-6.35v1.43s9.57,6.35,9.57,6.35l4.81-3.19,4.81,3.19,8.63-5.72c-.01-.18-.01-.37-.03-.55,0-.08,0-.16,0-.24,0-.2,0-.4-.01-.61l-8.58,5.69-4.81-3.19ZM74.38,119.44l4.11-2.72c0-.29,0-.58-.01-.87,0-.2-.02-.4-.03-.6,0-.05,0-.11,0-.16l-5.31,3.52,1.26.83ZM65.36,97.76l-4.81,3.19-9.54-6.33c0,.64,0,1.27,0,1.91l9.55,6.33,4.81-3.19,4.81,3.19,3.23-2.14c-.07-.1-.14-.21-.2-.31-.11-.17-.2-.35-.26-.54-.07-.2-.14-.41-.21-.61l-2.55,1.69-4.81-3.19ZM72.27,104.25l3.04-2.01c-.41-.16-.79-.36-1.14-.65-.02-.01-.03-.02-.05-.03-.11-.07-.21-.15-.3-.24l-2.99,1.98,1.44.95ZM74.39,105.65l3.49-2.31c0-.12-.02-.24-.05-.35-.03-.12-.12-.21-.24-.24-.12-.03-.24-.04-.35-.05-.34-.05-.68-.08-1.01-.16l-3.27,2.17,1.44.95ZM72.27,118.04l6.11-4.05c0-.36,0-.72-.02-1.08,0-.19,0-.38-.02-.57l-7.34,4.86,1.26.83ZM58.93,99.27l1.62,1.07,4.81-3.19,4.81,3.19,1.62-1.07-6.43-4.26-6.43,4.26ZM72.26,93.99l-6.91-4.58-10.65,7.06,1.62,1.07,9.03-5.99,6.91,4.58s0-.06,0-.09c0-.68,0-1.37,0-2.05ZM72.57,98.75c-.06-.22-.1-.45-.11-.68,0-.04-.02-.08-.02-.12-.05-.38-.09-.76-.13-1.13l-6.95-4.61-8.54,5.66,1.62,1.07,6.92-4.59,6.92,4.59.29-.19ZM72.27,131.85l6.62-4.39c0-.12-.02-.24-.02-.35-.01-.35-.01-.7-.02-1.05l-7.66,5.08,1.08.72ZM58.75,85.23l1.8,1.19,4.81-3.19,4.81,3.19,1.8-1.19-6.61-4.38-6.61,4.38ZM72.27,145.65l7.07-4.69c-.01-.3-.01-.61-.02-.91,0-.09,0-.17-.01-.26l-7.93,5.26.9.6ZM73.32,84.33c.06-.28.11-.56.17-.84,0-.02,0-.03.01-.05l-3.35-2.22c-.21-.09-.42-.19-.64-.28-.51-.22-1.03-.43-1.55-.65-.99-.43-1.98-.86-2.97-1.29-.22-.09-.43-.18-.65-.28l-7.7,5.11,1.8,1.19,6.92-4.59,6.92,4.59,1.04-.69ZM53.54,107.49l-2.55-1.69c0,.64,0,1.27,0,1.91l1.11.73,1.44-.95ZM73.19,82.55c-.24-.11-.48-.2-.72-.3-.16-.07-.32-.14-.47-.21l1.56,1.04c.02-.27-.06-.38-.37-.52ZM59.54,76.64c-.17-.06-.31.03-.36.21-.02.1-.04.2-.05.29-.13.72-.28,1.44-.49,2.14l2.77-1.83c-.55-.24-1.09-.48-1.64-.73-.07-.03-.15-.06-.22-.09ZM77.89,146.86c.36-.04.72-.07,1.08-.08.02,0,.04,0,.06,0l.64-.42c0-.14.01-.29,0-.43-.04-.24-.05-.47-.06-.71l-2.56,1.69c.28-.01.57,0,.85-.04ZM52.8,84.86c-.37.07-.75.13-1.12.19-.1.02-.2.03-.3.05-.15.03-.26.14-.27.28,0,.1,0,.2-.01.31l7.34,4.86,1.62-1.07-7.05-4.68c-.07.02-.13.04-.2.06ZM53.72,93.68l-2.71-1.8c0,.71,0,1.43,0,2.14l1.09.73,1.62-1.07ZM73.49,146.45l.9.59s0,0,0,0l5.13-3.4c-.04-.38-.05-.77-.06-1.15l-5.96,3.95ZM51,99.32l7.44,4.93,1.44-.95-8.87-5.88c0,.64,0,1.27,0,1.91ZM63.96,78.56c-.67-.29-1.34-.57-2-.86-.06-.02-.11-.05-.16-.08,0,0,0,0-.01,0l-3.31,2.2c-.07.19-.13.38-.21.57-.43,1.05-1.09,1.95-1.86,2.77-.08.09-.18.15-.28.22-.03.02-.05.03-.08.05l.29.19,7.63-5.06ZM76.5,120.84l2.11-1.4c0-.3,0-.6-.04-.9-.03-.24-.05-.47-.06-.71l-3.28,2.17,1.26.83ZM76.5,107.05l1.53-1.01c0-.62-.04-1.23-.09-1.85l-2.88,1.91,1.44.95ZM70.65,89.48l1.62,1.07.11-.07c.03-.64.1-1.28.19-1.91.02-.14.05-.27.07-.41l-1.99,1.32ZM70.16,143.05l-4.81-3.19-4.81,3.19-9.58-6.35c0,.4,0,.79,0,1.19l9.58,6.35,4.81-3.19,4.81,3.19,9.06-6.01c0-.39-.01-.79-.01-1.18l-9.05,6ZM79.1,134.3l-1.57,1.04,1.08.72.57-.38c0-.08,0-.16-.01-.23-.05-.38-.06-.76-.07-1.14ZM76.5,134.65l2.59-1.71c0-.24,0-.49,0-.73,0-.22-.02-.44-.03-.66,0,0,0,0,0-.01l-3.63,2.4,1.08.72ZM73.31,132.54l1.08.72,4.59-3.04c0-.47-.02-.94-.02-1.41l-5.65,3.74ZM53.36,121.41l-2.38-1.58c0,.37,0,.74,0,1.12,0,.18,0,.37,0,.55l1.13.75,1.26-.83ZM55.83,92.28l-4.77-3.16c0,.05,0,.11,0,.16-.01.28-.04.56-.04.84,0,.37,0,.74,0,1.11l3.2,2.12,1.62-1.07ZM57.59,118.61l-6.59-4.37c0,.4,0,.79,0,1.19h-.01v.47l5.35,3.55,1.26-.83ZM57.76,104.69l-6.76-4.48c0,.64,0,1.27,0,1.91l5.33,3.53,1.44-.95ZM55.65,106.09l-4.66-3.09c0,.64,0,1.27,0,1.91l3.22,2.13,1.44-.95ZM55.47,120.01l-4.5-2.98c0,.56,0,1.11,0,1.67l3.24,2.15,1.26-.83ZM55.29,133.93l-4.32-2.86c0,.48,0,.95,0,1.43l3.24,2.15,1.08-.72ZM57.4,132.53l-6.43-4.26c0,.48,0,.95,0,1.43l5.35,3.55,1.08-.72ZM68.55,147.39l-3.19-2.12-3.74,2.48s.08,0,.12,0c.4,0,.8,0,1.2-.02.19,0,.38-.01.56-.03l1.86-1.23,1.55,1.03c.27,0,.54,0,.81-.04.28-.04.55-.05.83-.06ZM50.97,126.9l7.46,4.95,1.08-.72-8.54-5.66v1.43ZM57.94,90.88l-6.85-4.54c0,.71,0,1.43,0,2.14l5.24,3.47,1.62-1.07ZM53.18,135.33l-2.21-1.46c0,.48,0,.95,0,1.43l1.13.75,1.08-.72ZM51.11,142.39c0,.06,0,.13,0,.19.01.22.03.44.05.66.01.14.02.27.03.41l5.13,3.4.9-.6-6.12-4.05ZM50.99,113.11l7.45,4.94,1.26-.83-8.71-5.77c0,.56,0,1.11,0,1.67ZM50.96,140.69l7.47,4.95.9-.6-8.37-5.55c0,.4,0,.79,0,1.19ZM56.96,148.04c.25-.02.51-.05.76-.06.41-.02.82-.03,1.22-.07l6.41-4.25,5.43,3.6c.05,0,.11,0,.16,0,.3-.01.6-.03.9-.05.2-.01.4-.03.6-.04l-7.08-4.7-8.4,5.57ZM45.28,124.21l-10.29-6.82-10.29,6.82,1.26.83,9.03-5.99,9.03,5.99,1.26-.83ZM43.35,111.7l-8.36-5.54-8.36,5.54,1.44.95,6.92-4.59,6.92,4.59,1.44-.95ZM47.39,122.81l-12.4-8.22-12.41,8.22,1.26.83,11.15-7.39,11.14,7.39,1.26-.83ZM23.03,121.41l-1.91-1.27c0,.28,0,.57-.01.85,0,.27,0,.53-.02.8l.68.45,1.26-.83ZM22.84,135.33l-2.2-1.46s0,.04,0,.06c0,.45-.01.9-.02,1.36l1.14.76,1.08-.72ZM28.92,127.01l1.26.83,4.81-3.19,4.81,3.19,1.26-.83-6.07-4.02-6.07,4.02ZM43.17,125.61l-8.18-5.42-8.18,5.42,1.26.83,6.92-4.59,6.92,4.59,1.26-.83ZM28.74,113.1l1.44.95,4.81-3.19,4.81,3.19,1.44-.95-6.25-4.14-6.25,4.14ZM28.56,99.27l1.62,1.07,4.81-3.19,4.81,3.19,1.62-1.07-6.43-4.26-6.43,4.26ZM47.21,136.74l-12.22-8.1-12.22,8.1,1.08.72,11.14-7.39,11.14,7.39,1.08-.72ZM47.75,95.08l-12.76-8.46-7.53,4.99s0,.02,0,.03c0,.7,0,1.41,0,2.11l7.52-4.98,11.14,7.39,1.62-1.07ZM45.64,96.48l-10.65-7.06-7.52,4.98c0,.66,0,1.31,0,1.97,0,.06,0,.12-.01.18l7.52-4.99,9.03,5.99,1.62-1.07ZM45.46,110.3l-10.47-6.94-10.47,6.94,1.44.95,9.03-5.99,9.03,5.99,1.44-.95ZM47.57,108.9l-12.58-8.34-12.58,8.34,1.44.95,11.15-7.39,11.15,7.39,1.44-.95ZM43.68,83.83l-7.93-5.26c-.44.19-.89.38-1.33.57-.92.4-1.83.8-2.75,1.2-.17.07-.33.14-.5.21l-4.84,3.21s.02.09.03.14l1.68,1.11,6.92-4.59,6.92,4.59,1.8-1.19ZM43.53,97.88l-8.54-5.66-7.56,5.01c-.04.4-.09.79-.17,1.18l.81.54,6.92-4.59,6.92,4.59,1.62-1.07ZM25.99,119.45l1.26-.83-5.91-3.92s0,.09,0,.13c0,.28,0,.56-.03.84-.03.21-.04.43-.05.64l4.74,3.14ZM28.1,118.05l1.26-.83-7.9-5.24c0,.17,0,.35,0,.52,0,.2,0,.4-.02.6-.02.17-.03.34-.04.51l6.71,4.45ZM30.18,116.64l4.81-3.19,4.81,3.19,8.96-5.94v-1.67l-8.96,5.94-4.81-3.19-4.81,3.19-8.61-5.71c-.01.26-.02.51-.04.77-.02.28-.05.56-.06.84,0,0,0,0,0,0l8.7,5.77ZM25.99,133.25l1.08-.72-6.22-4.12c0,.08,0,.17,0,.25,0,.18-.02.36-.03.54-.01.2-.02.4-.03.6l5.2,3.45ZM25.95,147.05l.9-.6-6.51-4.31s0,.04,0,.06c-.05.36-.06.72-.07,1.08l5.69,3.77ZM23.88,134.65l1.08-.72-4.21-2.79c0,.17,0,.34,0,.51,0,.3,0,.6-.03.89l3.17,2.1ZM28.07,145.65l.9-.6-8.47-5.61s0,.09,0,.13c0,.2,0,.4-.03.6-.02.14-.03.28-.04.41l7.64,5.07ZM23.85,107.05l1.44-.95-3.41-2.26c-.04.35-.07.7-.06,1.05,0,.14-.01.28-.03.42-.02.11-.03.23-.04.35l2.11,1.4ZM42.99,139.54l-8-5.3-8,5.3,1.08.72,6.92-4.59,6.92,4.59,1.08-.72ZM29.1,140.94l1.08.72,4.81-3.19,4.81,3.19,1.08-.72-5.89-3.9-5.89,3.9ZM41.5,147.98c.13,0,.26.02.38.02.06,0,.12.01.18.02.34.02.68.06,1.02.07.14,0,.28.02.42.02l-8.51-5.64-7.17,4.75c.36.02.72.03,1.08.04.12,0,.24,0,.36.02.07.01.15.01.22.02l5.5-3.65,6.52,4.32ZM25.96,105.65l1.44-.95-3.45-2.28c-.45.14-.91.24-1.38.28-.12,0-.24.02-.36.05-.13.03-.21.11-.24.24,0,0,0,.02,0,.02l3.99,2.65ZM34.99,85.96l4.81,3.19,6.66-4.42c-.7-.19-1.36-.46-1.99-.83l-4.68,3.1-4.81-3.19-4.81,3.19-3.68-2.44c.16.75.31,1.49.42,2.25,0,.07.02.13.03.2l3.23,2.14,4.81-3.19ZM45.1,138.14l-10.11-6.7-10.11,6.7,1.08.72,9.03-5.99,9.03,5.99,1.08-.72ZM28.07,104.25l1.44-.95-3.37-2.24c-.27.35-.53.55-1.11.92-.07.04-.14.07-.21.11l3.26,2.16ZM28.1,131.85l1.08-.72-8.24-5.46s0,.04,0,.06c-.02.3-.05.6-.05.9,0,.14,0,.29,0,.43l7.22,4.79ZM28.07,90.55l1.62-1.07-2.63-1.74c.12.77.23,1.55.27,2.33l.73.49ZM41.91,145.65l6.93-4.59c0-.06,0-.12,0-.18,0-.34,0-.67,0-1.01l-7.83,5.19.9.6ZM48.84,135.66c0-.48,0-.95,0-1.43l-1.68,1.11,1.08.72.6-.4ZM36.92,147.74s0,0,0,0c.3,0,.6,0,.9.04.35.04.7.05,1.04.06l-3.87-2.57-3.29,2.18c.38.03.77.04,1.15.06.16,0,.32,0,.48.03.01,0,.03,0,.04,0l1.62-1.07,1.93,1.28ZM28.36,85.23l1.8,1.19,4.81-3.19,4.81,3.19,1.8-1.19-6.61-4.38-6.61,4.38ZM48.76,108.11v-.35h0c0-.52,0-1.04,0-1.55l-1.94,1.29,1.44.95.51-.34ZM41.91,118.04l6.85-4.54v-1.67l-8.11,5.37,1.26.83ZM48.76,121.9v-1.67l-1.77,1.17,1.26.83.51-.34ZM21.4,146.83c.31.02.62.06.92.06.36,0,.71.04,1.07.06l-3.21-2.13c-.02.38-.04.77-.06,1.15l1.27.84ZM30.18,130.45l4.81-3.19,4.81,3.19,8.96-5.94v-1.43l-8.96,5.94-4.81-3.19-4.81,3.19-9.17-6.08c0,.17-.01.34-.01.51,0,.3-.01.6-.02.9l9.2,6.1ZM30.18,144.25l4.81-3.19,4.81,3.19,9.04-6c0-.21,0-.41,0-.62,0-.19,0-.38,0-.57l-9.04,6-4.81-3.19-4.81,3.19-9.61-6.37c-.05.38-.05.76-.06,1.14,0,0,0,0,0,.01l9.67,6.41ZM41.91,104.25l6.82-4.52c0-.64,0-1.27,0-1.91l-8.26,5.48,1.44.95ZM30.18,102.85l4.81-3.19,4.81,3.19,8.93-5.92c0-.64,0-1.27,0-1.91l-8.93,5.92-4.81-3.19-4.81,3.19-3.05-2.02c-.11.38-.24.76-.37,1.13-.04.11-.11.22-.17.32-.02.03-.03.05-.04.07l3.63,2.41ZM27.58,90.88l-.18-.12c0,.07.01.15.02.22l.16-.1ZM23.17,107.49l-1.47-.97c0,.27,0,.55-.03.82-.04.34-.06.68-.07,1.02l.13.09,1.44-.95ZM23.88,120.84l1.26-.83-3.91-2.59c0,.54-.02,1.08-.07,1.62l2.72,1.8ZM41.91,131.85l6.85-4.54v-1.43l-7.93,5.26,1.08.72ZM48.84,132.86c0-.48,0-.95,0-1.43l-3.79,2.51,1.08.72,2.71-1.79ZM42.94,132.54l1.08.72,4.78-3.17c-.03-.3-.04-.61-.04-.91v-.49l-5.82,3.86ZM48.73,94.43c0-.72,0-1.43,0-2.15l-2.1,1.39,1.62,1.07.48-.32ZM46.31,148.28s.04,0,.06,0l2.11-1.4s0-.07,0-.1c0-.38.01-.76.05-1.13l-3.31,2.19.58.39s.09,0,.14,0c.12,0,.24.04.36.04ZM40.52,76.72c-.02-.06-.14-.12-.2-.1-.13.04-.27.08-.39.14-.41.18-.82.36-1.24.55l2.34,1.55c-.16-.61-.31-1.22-.43-1.84-.02-.1-.05-.19-.08-.29ZM26.61,82.54c-.09.04-.18.08-.27.13-.09.05-.15.14-.14.25.02.16.05.32.07.47l3.11-2.06c-.93.4-1.85.8-2.78,1.21ZM44.01,83.61s-.05-.03-.07-.05c-.18-.13-.37-.24-.53-.39-.66-.65-1.22-1.37-1.63-2.21-.25-.51-.45-1.05-.61-1.59l-2.86-1.9s-.06.03-.09.04c-.7.3-1.39.6-2.09.9l7.87,5.21h.02ZM44.02,147.05l4.63-3.07c.02-.41.04-.82.07-1.24l-5.59,3.71.9.6ZM48.73,91.63c0-.72,0-1.43,0-2.15l-4.21,2.79,1.62,1.07,2.59-1.72ZM44.02,91.95l4.71-3.12c0-.72,0-1.43,0-2.15l-6.32,4.19,1.62,1.07ZM41.91,90.55l6.82-4.52c0-.15,0-.31,0-.46,0-.08-.02-.16-.04-.24-.03-.1-.1-.18-.2-.21-.09-.03-.19-.05-.29-.06-.34-.05-.68-.08-1.01-.15l-6.89,4.57,1.62,1.07ZM48.74,105.32c0-.63,0-1.27,0-1.91l-4.05,2.68,1.44.95,2.61-1.73ZM44.02,119.44l4.74-3.14v-1.67l-6,3.97,1.26.83ZM48.76,119.1v-1.67l-3.88,2.57,1.26.83,2.62-1.74ZM44.02,105.65l4.72-3.13c0-.64,0-1.27,0-1.9l-6.15,4.08,1.44.95ZM88.2,137.01c0,.16,0,.33,0,.49l.71.47,11.14-7.39,11.14,7.39,1.08-.72-12.22-8.1-11.85,7.85ZM108.04,140.06l-8-5.3-8,5.3,1.08.72,6.92-4.59,6.92,4.59,1.08-.72ZM105.88,131.66l1.08.72,8.27-5.48,8.26,5.48,1.08-.72-9.34-6.19-9.35,6.19ZM110.16,138.66l-10.11-6.7-10.11,6.7,1.08.72,9.03-5.99,9.03,5.99,1.08-.72ZM115.23,135.3l1.93,1.28,1.08-.72-3.01-1.99-3.01,1.99,1.08.72,1.93-1.28ZM94.16,141.46l1.08.72,4.81-3.19,4.81,3.19,1.08-.72-5.89-3.9-5.89,3.9ZM124.52,141.46l1.08.72,4.81-3.19,4.81,3.19,1.08-.72-5.89-3.9-5.89,3.9ZM121.38,133.77l1.08-.72-7.23-4.79-7.23,4.79,1.08.72,6.15-4.08,6.15,4.08ZM141.56,135.18l.89-.59s0-.01,0-.02c0-.38,0-.76-.01-1.14,0-.09,0-.18,0-.26l-1.95,1.29,1.08.72ZM118.19,137.26l1.08.72,11.14-7.39,11.14,7.39,1.02-.68s0-.05,0-.08l-12.16-8.06-12.22,8.1ZM140.52,138.66l-10.11-6.7-10.11,6.7,1.08.72,9.03-5.99,9.03,5.99,1.08-.72ZM115.23,132.5l4.04,2.68,1.08-.72-5.12-3.39-5.12,3.39,1.08.72,4.04-2.68ZM138.59,126.13l-8.18-5.42-8.18,5.42,1.26.83,6.92-4.59,6.92,4.59,1.26-.83ZM121.38,119.97l1.26-.83-7.41-4.91-7.41,4.91,1.26.83,6.15-4.08,6.15,4.08ZM115.23,118.69l4.04,2.68,1.26-.83-5.3-3.51-5.3,3.51,1.26.83,4.04-2.68ZM115.23,121.49l1.93,1.28,1.26-.83-3.19-2.11-3.19,2.11,1.26.83,1.93-1.28ZM88.83,122.55c-.01.11-.02.22-.02.34,0,.24,0,.48,0,.72,0,.17,0,.33,0,.49l.11.07,11.15-7.39,11.14,7.39,1.26-.83-12.4-8.22-11.22,7.43ZM105.7,117.73l1.26.83,8.26-5.48,8.27,5.48,1.26-.83-9.53-6.31-9.52,6.31ZM140.7,124.73l-10.29-6.82-10.29,6.82,1.26.83,9.03-5.99,9.03,5.99,1.26-.83ZM124.34,127.54l1.26.83,4.81-3.19,4.81,3.19,1.26-.83-6.07-4.02-6.07,4.02ZM88.94,121.37l1.26-.83-1.26-.84c0,.08,0,.17,0,.25,0,.4,0,.8,0,1.2,0,.07,0,.14,0,.21h.02ZM91.05,119.97l1.26-.83-3.24-2.15c-.02.15-.02.3-.02.45,0,.32,0,.64-.01.96,0,.08-.01.15-.02.23l2.03,1.34ZM93.16,118.57l1.26-.83-5.22-3.46c-.03.15-.03.31-.03.47,0,.28,0,.56,0,.84,0,.11,0,.22,0,.33l4,2.65ZM93.16,132.37l1.08-.72-5.67-3.76s0,.05,0,.07c0,.44,0,.88,0,1.32,0,.01,0,.02,0,.03l4.6,3.05ZM118.01,123.34l1.26.83,11.15-7.39,11.14,7.39.41-.27c0-.05,0-.11,0-.16,0-.32,0-.65,0-.97l-11.55-7.65-12.4,8.22ZM142.07,141.83c.15,0,.3-.01.45-.03.11-.01.22-.13.24-.24,0-.04.02-.08.02-.12,0-.03,0-.06,0-.08l-.71.47ZM130.41,126.36l-4.81,3.19-10.38-6.88-10.38,6.88-4.81-3.19-4.81,3.19-6.54-4.34s0,.09,0,.13c0,.38,0,.76-.01,1.14,0,.05,0,.09-.01.14l6.57,4.36,4.81-3.19,4.81,3.19,10.38-6.88,10.38,6.88,4.81-3.19,4.81,3.19,6.86-4.55c0-.36,0-.72-.01-1.08,0-.11-.01-.22-.02-.33l-6.83,4.53-4.81-3.19ZM139.44,119.97l2.28-1.51c0-.05,0-.11,0-.16,0-.34,0-.68-.01-1.02,0-.15,0-.31-.03-.46l-3.5,2.32,1.26.83ZM137.33,132.38l4.88-3.23c0-.07,0-.13,0-.2,0-.22,0-.44,0-.66,0-.19,0-.37-.01-.56l-5.93,3.93,1.08.72ZM130.41,140.39l-4.81,3.19-10.38-6.88-10.38,6.88-4.81-3.19-4.81,3.19-7.15-4.74c0,.29,0,.58,0,.86,0,.11,0,.21,0,.32l2.74,1.82c.25,0,.51,0,.76,0,.18,0,.36.01.54.03.11.01.23.13.24.24.02.2.03.4.03.6,0,.06,0,.12,0,.18l2.85,1.89,4.81-3.19,4.81,3.19,10.38-6.88,10.38,6.88,4.81-3.19,4.81,3.19,3.15-2.09c0-.15,0-.29,0-.44.02-.25.13-.37.37-.39.18-.01.36-.01.54-.01.12,0,.23,0,.35,0l3.08-2.04c0-.13-.02-.26-.03-.39-.01-.22,0-.44,0-.66,0-.04,0-.08,0-.12l-7.45,4.94-4.81-3.19ZM137.33,118.57l4.27-2.83s0-.09,0-.14c0-.48,0-.96,0-1.44,0-.03,0-.06,0-.08l-5.52,3.66,1.26.83ZM139.44,133.78l2.88-1.91c0-.16,0-.31,0-.47,0-.32,0-.64,0-.95l-3.95,2.62,1.08.72ZM139.44,106.17l1.49-.99s-.04-.02-.06-.03c-.1-.02-.2-.03-.3-.03-.16,0-.32,0-.48,0-.2,0-.4-.04-.58-.13-.22-.11-.44-.22-.66-.33l-.86.57,1.44.95ZM103.37,74.76l1.48.98,1.13-.75c-.1-.13-.2-.26-.3-.4-.1-.13-.2-.25-.3-.37-.09-.1-.2-.12-.33-.08-.08.03-.15.06-.23.08-.49.18-.98.35-1.46.53ZM125.61,75.75l1.59-1.06c-.22-.08-.45-.16-.67-.24-.28-.1-.56-.21-.85-.3-.13-.04-.24,0-.32.1-.03.03-.05.06-.08.09-.17.29-.38.55-.59.81l.91.6ZM135.22,87.53l-4.81-3.19-4.81,3.19-10.38-6.88-10.38,6.88-4.81-3.19-4.81,3.19-2.39-1.58c.21.83.4,1.67.55,2.51l1.84,1.22,4.81-3.19,4.81,3.19,10.38-6.88,10.38,6.88,4.81-3.19,4.81,3.19,2.22-1.47s.02-.1.03-.15c.16-.79.29-1.58.5-2.35l-2.75,1.82ZM88.04,141.61c.05.12.14.21.3.22.01,0,.02,0,.03,0l-.33-.22ZM130.41,112.31l-4.81,3.19-10.38-6.88-10.38,6.88-4.81-3.19-4.81,3.19-5.93-3.93c0,.12-.03.24-.03.36,0,.4,0,.8,0,1.2,0,.03,0,.06,0,.08l5.96,3.95,4.81-3.19,4.81,3.19,10.38-6.88,10.38,6.88,4.81-3.19,4.81,3.19,6.28-4.17c-.02-.29-.02-.58-.03-.88,0-.25,0-.51-.02-.76l-6.23,4.13-4.81-3.19ZM115.23,146.29l2.52,1.67h1.8l-4.32-2.86-4.31,2.86c.6,0,1.2,0,1.8,0l2.52-1.67ZM136.43,145.57l.9.6,1.04-.69c0-.4,0-.79,0-1.19l-1.93,1.28ZM92.65,147.9s.05.03.08.04c.24.02.48.02.72.02.3,0,.61,0,.91,0l5.69-3.77,5.69,3.77c.6,0,1.2,0,1.8,0l-7.49-4.96-7.4,4.9ZM122.92,147.96h1.8l5.69-3.77,5.69,3.77h.96c.2,0,.4,0,.6,0,.08,0,.15,0,.23,0l-7.47-4.95-7.49,4.96ZM106.06,145.57l.9.6,8.26-5.48,8.26,5.48.9-.6-9.16-6.07-9.16,6.07ZM108.23,126.13l-8.18-5.42-8.18,5.42,1.26.83,6.92-4.59,6.92,4.59,1.26-.83ZM88.93,135.17l1.08-.72-1.68-1.11c0,.22,0,.45-.01.67,0,.25,0,.5-.01.74l.63.41ZM101.51,147.96c.6,0,1.2,0,1.8,0l-3.26-2.16-3.26,2.16c.6,0,1.2,0,1.8,0l1.46-.97,1.46.97ZM130.41,145.8l-3.26,2.16h1.8l1.47-.97,1.47.97h1.8l-3.26-2.16ZM94.02,145.57l-1.63-1.08c0,.4,0,.8,0,1.19l.73.48.9-.6ZM115.14,147.96h.18l-.09-.06-.09.06ZM91.05,133.77l1.08-.72-3.65-2.42c-.01.13-.02.26-.02.39,0,.34,0,.68-.01,1.02l2.61,1.73ZM108.18,146.97l.9.6,6.15-4.08,6.15,4.08.9-.6-7.05-4.67-7.05,4.67ZM138.41,140.06l-8-5.3-8,5.3,1.08.72,6.92-4.59,6.92,4.59,1.08-.72ZM123.81,85.75l1.8,1.19,4.81-3.19,4.81,3.19,1.8-1.19-6.61-4.38-6.61,4.38ZM130.41,78.57l-8.72,5.78,1.8,1.19,6.92-4.59,6.92,4.59.83-.55c.1-.36.2-.72.3-1.08l-8.06-5.34ZM136.95,90.82c.02-.1.03-.19.05-.29.09-.53.2-1.05.3-1.58l-1.58,1.05,1.24.82ZM139.93,79.61c.05-.14-.01-.27-.16-.34-.04-.02-.07-.04-.11-.05-.51-.18-1.01-.37-1.52-.55-.24-.09-.49-.17-.74-.26-.94-.35-1.87-.7-2.81-1.04-.85-.31-1.7-.62-2.55-.93l7.24,4.8c.14-.38.29-.76.46-1.12.08-.16.13-.33.19-.5ZM93.63,89.72c.06.31.11.61.15.92l.96-.64-1.21-.8c.03.17.06.35.09.52ZM139.16,81.58l-8.51-5.64c-.1-.04-.21-.08-.31-.11l-10.76,7.13,1.8,1.19,9.03-5.99,8.16,5.41c.09-.31.17-.61.26-.92.1-.36.22-.72.34-1.07ZM115.23,93.99l1.93,1.28,1.62-1.07-3.55-2.35-3.55,2.35,1.62,1.07,1.93-1.28ZM93.86,91.24s0,.01,0,.02c.04.46.13.91.18,1.37.02.2.05.39.08.59l5.93-3.93,11.14,7.39,1.62-1.07-12.76-8.46-6.19,4.1ZM105.35,90l1.62,1.07,8.26-5.48,8.26,5.48,1.62-1.07-9.88-6.55-9.88,6.55ZM110.7,97l-10.65-7.06-5.87,3.89c.02.21.04.43.03.64,0,.24.04.48.06.72.01.14.04.28.04.42,0,.09,0,.19,0,.28l5.73-3.8,9.03,5.99,1.62-1.07ZM117.48,81.56l1.79,1.18,10.66-7.07c-.36-.13-.73-.26-1.09-.39-.41-.15-.83-.3-1.24-.45l-10.13,6.72h0ZM108.58,98.4l-8.54-5.66-5.74,3.8c0,.23-.02.45-.07.68-.02.08-.02.16-.02.24,0,.44-.06.88-.13,1.31,0,.03,0,.05-.01.08l5.98-3.96,6.92,4.59,1.62-1.07ZM100.05,97.69l4.81,3.19,1.62-1.07-6.43-4.26-6.09,4.04c-.02.13-.04.27-.06.4l1.35.89,4.81-3.19ZM123.2,77.36l-.56-.37c-.5.28-1.01.54-1.56.71-.17.06-.34.11-.52.15-.06.01-.12.02-.18.03l1.02.68,1.79-1.19ZM108.74,84.35l-8.72-5.78-7.77,5.15c.08.3.17.6.26.9.06.21.11.42.16.63l.43.29,6.92-4.59,6.92,4.59,1.8-1.19ZM106.95,77.16l.7-.46s0,0-.01,0c-.29-.14-.53-.35-.75-.59-.18-.19-.35-.38-.51-.59-.06-.08-.12-.16-.18-.24l-1.04.69,1.79,1.19ZM101.96,75.27c-.36.13-.71.26-1.07.39-.09.03-.17.06-.26.09l10.54,6.99,1.8-1.19-10.02-6.64c-.33.12-.66.24-.99.36ZM93.42,85.75l1.8,1.19,4.81-3.19,4.81,3.19,1.8-1.19-6.61-4.38-6.61,4.38ZM96.2,77.36c-.62.21-1.24.44-1.86.66-.75.27-1.5.55-2.25.83-.34.12-.67.25-1.01.38-.07.03-.15.07-.2.12-.04.04-.06.1-.06.16,0,.06.01.12.04.17.23.44.39.91.56,1.38l6.57-4.36c-.59.22-1.19.45-1.79.65ZM110.85,82.95l-10.63-7.05c-.29.1-.57.21-.86.31l-7.83,5.19c.13.36.26.72.37,1.09.09.29.17.59.25.88l7.87-5.22,9.03,5.99,1.8-1.19ZM121.09,78.77l-1.19-.79c-.43.08-.85.15-1.29.15-.1,0-.2.01-.3.03-.32.07-.63.08-.95.08-.22,0-.43,0-.65,0l2.59,1.72,1.79-1.19ZM121.38,92.47l1.62-1.07-7.77-5.15-7.77,5.15,1.62,1.07,6.15-4.08,6.15,4.08ZM107.45,77.49l1.61,1.07,1.11-.73c-.19-.04-.37-.09-.55-.15-.57-.2-1.14-.43-1.65-.78l-.64.42.12.17ZM113.75,78.24s-.04,0-.06,0c-.44,0-.88,0-1.31-.09-.06-.01-.12-.02-.18-.02-.53,0-1.05-.1-1.57-.2l-1.26.84,1.79,1.19,2.59-1.72ZM115.23,80.07l1.96,1.3,1.79-1.19-2.91-1.93c-.56,0-1.13,0-1.69,0l-2.91,1.93,1.79,1.19,1.96-1.3ZM124.27,75.67c-.28.34-.58.67-.94.91-.12.08-.24.14-.36.21l.54.36,1.79-1.19-.83-.55c-.07.08-.14.17-.21.25ZM117.83,109.42l1.44.95,11.15-7.39,10.95,7.26c0-.35,0-.7-.01-1.05,0-.18,0-.36-.03-.54-.02-.12-.03-.25-.04-.37l-10.86-7.2-12.58,8.34ZM115.23,104.9l4.04,2.68,1.44-.95-5.48-3.63-5.48,3.63,1.44.95,4.04-2.68ZM140.89,110.82l-10.47-6.94-10.47,6.94,1.44.95,9.03-5.99,9.03,5.99,1.44-.95ZM124.17,113.62l1.44.95,4.81-3.19,4.81,3.19,1.44-.95-6.25-4.14-6.25,4.14ZM121.38,106.17l1.44-.95-7.59-5.03-7.59,5.03,1.44.95,6.15-4.08,6.15,4.08ZM115.23,107.69l1.93,1.28,1.44-.95-3.37-2.23-3.37,2.23,1.44.95,1.93-1.28ZM138.78,112.22l-8.36-5.54-8.36,5.54,1.44.95,6.92-4.59,6.92,4.59,1.44-.95ZM93.98,127.54l1.26.83,4.81-3.19,4.81,3.19,1.26-.83-6.07-4.02-6.07,4.02ZM141.55,121.37l.31-.2c0-.1-.02-.2-.02-.3,0-.34,0-.68-.01-1.02,0-.11-.02-.21-.02-.31l-1.51,1,1.26.83ZM105.53,103.82l1.44.95,8.26-5.48,8.26,5.48,1.44-.95-9.7-6.43-9.7,6.43ZM110.34,124.73l-10.29-6.82-10.29,6.82,1.26.83,9.03-5.99,9.03,5.99,1.26-.83ZM91.01,106.17l1.44-.95-.72-.48c-.13.06-.25.12-.38.19-.25.14-.52.19-.81.19-.2,0-.4.01-.6.03-.11,0-.18.08-.23.16l1.3.86ZM93.13,104.77l1.44-.95-1.37-.91c-.03.08-.05.16-.08.24-.03.09-.08.18-.13.27-.19.28-.38.57-.57.85,0,0-.02.01-.02.02l.74.49ZM141.24,107.37c0-.49,0-.98-.01-1.46,0,0,0-.01,0-.02l-1.11.74,1.13.75ZM136.55,97.22c0-.14,0-.27,0-.41l-6.14-4.07-8.54,5.66,1.62,1.07,6.92-4.59,6.34,4.2c-.04-.27-.09-.53-.12-.8-.04-.36-.08-.71-.08-1.07ZM135.22,101.47l-4.81-3.19-4.81,3.19-10.38-6.88-10.38,6.88-4.81-3.19-4.81,3.19-1.44-.96c-.05.31-.1.61-.16.92-.05.25-.13.5-.2.74l1.81,1.2,4.81-3.19,4.81,3.19,10.38-6.88,10.38,6.88,4.81-3.19,4.81,3.19,2.1-1.39c-.15-.55-.27-1.1-.37-1.66l-1.73,1.14ZM123.98,99.8l1.62,1.07,4.81-3.19,4.81,3.19,1.62-1.07-6.43-4.26-6.43,4.26ZM89.5,108.07c0,.11,0,.22-.02.33-.05.3-.06.6-.07.9,0,.25,0,.5,0,.74l10.65-7.06,11.15,7.39,1.44-.95-12.58-8.34-10.55,6.99ZM136.6,94.04l-6.19-4.1-10.65,7.06,1.62,1.07,9.03-5.99,6.14,4.07c0-.43,0-.85,0-1.28,0-.28.01-.56.04-.84ZM117.65,95.6l1.62,1.07,11.14-7.39,6.25,4.14c0-.06.01-.11.01-.16,0-.28.02-.56.08-.83.02-.1.03-.2.04-.3.01-.24.04-.48.07-.72l-6.45-4.27-12.76,8.46ZM135.89,103.82l1.44.95.94-.62c-.31-.44-.6-.89-.75-1.41l-1.63,1.08ZM108.41,112.22l-8.36-5.54-8.36,5.54,1.44.95,6.92-4.59,6.92,4.59,1.44-.95ZM93.8,113.62l1.44.95,4.81-3.19,4.81,3.19,1.44-.95-6.25-4.14-6.25,4.14ZM110.52,110.82l-10.47-6.94-10.47,6.94,1.44.95,9.03-5.99,9.03,5.99,1.44-.95ZM89.52,107.16l.82-.54-.76-.51c-.03.26-.06.53-.05.79,0,.08,0,.17,0,.26ZM115.23,91.19l4.04,2.68,1.62-1.07-5.66-3.75-5.66,3.75,1.62,1.07,4.04-2.68ZM96.35,62.66c.72,0,1.44,0,2.16,0l2.59-1.71,2.59,1.71c.72,0,1.44,0,2.16,0l-4.74-3.14-4.74,3.14ZM101.1,62.31l-.52.35h1.04l-.52-.35ZM108.1,60.18l1.26.83,2.25-1.49c0-.56,0-1.11,0-1.67l-3.51,2.33ZM96.2,58.78l-9.34-6.19c.01.12.03.23.04.35.07.5.14.99.21,1.49l7.83,5.19,1.26-.83ZM91.98,61.58l-1.73-1.15c0,.43,0,.86,0,1.3,0,.13.01.26.02.39l.45.3,1.26-.83ZM87.41,56.37c.04.12.13.2.26.23.14.02.28.04.42.04.22,0,.44,0,.66,0l-1.45-.96c.02.15.04.31.07.46.01.08.03.16.05.23ZM94.09,60.18l-3.84-2.55c0,.56,0,1.11,0,1.67l2.58,1.71,1.26-.83ZM113.45,56.64c.37,0,.75,0,1.12,0,.18,0,.36,0,.54-.02.18-.01.31-.11.34-.29.05-.25.09-.51.12-.77.01-.12.03-.24.04-.36l-2.16,1.43ZM99.62,3.89c-.85.14-1.68.32-2.48.66-.76.32-1.48.7-2.1,1.25-.06.05-.12.1-.19.15-.48.37-.91.79-1.3,1.24-.4.47-.77.96-1.12,1.46l7.19-4.76ZM110.62,51.78l-9.53-6.31-9.52,6.31,1.26.83,8.26-5.48,8.27,5.48,1.26-.83ZM106.4,54.58l-5.3-3.51-5.3,3.51,1.26.83,4.04-2.68,4.04,2.68,1.26-.83ZM108.51,53.18l-7.41-4.91-7.41,4.91,1.26.83,6.15-4.08,6.15,4.08,1.26-.83ZM92.13,62.66c.72,0,1.44,0,2.16,0l6.81-4.51,6.81,4.51c.72,0,1.44,0,2.16,0l-8.97-5.94-8.97,5.94ZM101.1,53.87l-3.19,2.11,1.26.83,1.93-1.28,1.93,1.28,1.26-.83-3.19-2.11ZM105.98,58.78l1.26.83,8.51-5.64c.08-.61.16-1.22.25-1.83l-10.01,6.64ZM116.28,46.36l-4.81,3.19-10.38-6.88-10.38,6.88-4.69-3.11c.06.61.14,1.22.23,1.82l4.46,2.95,10.38-6.88,10.38,6.88,4.81-3.19.24.16c.05-.46.1-.91.16-1.37,0-.06.02-.12.02-.18l-.43-.28ZM97.06,44.42l1.44-.95-12.58-8.34-1.35.89c.08.58.17,1.16.25,1.74l1.09-.72,11.15,7.39ZM116.28,32.33l-4.81,3.19-10.38-6.88-10.38,6.88-4.81-3.19-1.71,1.13c.08.58.16,1.16.25,1.75l1.46-.97,4.81,3.19,10.38-6.88,10.38,6.88,4.81-3.19,1.93,1.28c.06-.43.11-.86.17-1.28.02-.16.04-.31.06-.47l-2.17-1.44ZM111.47,9.79l.24-.16c-.29-.32-.57-.65-.87-.96-.72-.75-1.51-1.42-2.34-2.06-1.13-.87-2.34-1.6-3.69-2.08-.47-.17-.95-.32-1.43-.43-.24-.05-.47-.1-.71-.14l8.81,5.84ZM106.57,40.67l-5.48-3.63-5.48,3.63,1.44.95,4.04-2.68,4.04,2.68,1.44-.95ZM116.28,18.39l-4.81,3.19-10.38-6.88-10.38,6.88-4.81-3.19-3.61,2.39c.05.33.1.67.15,1,.04.32.09.64.14.95l3.32-2.2,4.81,3.19,10.38-6.88,10.38,6.88,4.81-3.19,3.7,2.45c.07-.46.13-.93.18-1.4.02-.19.05-.39.07-.58l-3.95-2.62ZM110.21,61.58l1.26.83.11-.07c.01-.05.03-.1.03-.16,0-.18,0-.36,0-.54,0-.33,0-.66,0-1l-1.4.93ZM86.45,49.55c.08.6.17,1.21.26,1.81l10.35,6.86,1.26-.83-11.87-7.87s0,.02,0,.03ZM92.83,47.22l1.44-.95-8.36-5.54-.65.43c.07.48.15.96.22,1.44.01.1.03.19.04.29l.39-.26,6.92,4.59ZM90.72,48.62l1.44-.95-6.25-4.14-.27.18c.08.54.16,1.08.24,1.62,0,.04,0,.07.01.11h.01s4.81,3.18,4.81,3.18ZM94.95,45.82l1.44-.95-10.47-6.94-.99.65c.06.45.13.9.17,1.35.01.14.04.27.05.41l.76-.5,9.03,5.99ZM110.8,37.87l-9.7-6.43-9.7,6.43,1.44.95,8.26-5.48,8.26,5.48,1.44-.95ZM97.73,42.07l1.44.95,1.93-1.28,1.93,1.28,1.44-.95-3.37-2.23-3.37,2.23ZM108.69,39.27l-7.59-5.03-7.59,5.03,1.44.95,6.15-4.08,6.15,4.08,1.44-.95ZM91.79,9.61c-.13.22-.27.43-.4.64l1.42.95,8.28-5.49,8.28,5.49,1.79-1.19-9.28-6.15c-.33-.03-.67-.05-1.01-.03-.18,0-.36,0-.53,0l-8.41,5.58c-.05.07-.1.14-.14.21ZM101.1,14.11l1.96,1.3,1.79-1.19-3.75-2.49-3.75,2.49,1.79,1.19,1.96-1.3ZM101.1,11.31l4.07,2.7,1.79-1.19-5.86-3.88-5.86,3.88,1.79,1.19,4.07-2.69ZM107.27,12.61l1.79-1.19-7.97-5.28-7.9,5.24.12.17,1.61,1.07,6.17-4.09,6.17,4.09ZM90.7,20.99l1.8-1.19-5.85-3.88c-.27.21-.55.42-.85.6-.56.34-1.17.6-1.82.76-.4.1-.8.17-1.2.2l-.89.59c.04.29.08.58.13.86.07.43.14.87.21,1.3l3.67-2.43,4.81,3.19ZM103.52,29.65l1.62,1.07,11.14-7.39,3.33,2.21c.07-.49.14-.97.21-1.46.02-.17.05-.33.07-.5l-3.61-2.39-12.76,8.46ZM94.61,18.4l-6.19-4.1c-.24.31-.53.58-.82.84-.18.16-.35.32-.54.47-.04.03-.08.06-.12.09l5.87,3.89,1.8-1.19ZM96.72,17l-6.82-4.52c-.39.54-.79,1.08-1.25,1.55l6.28,4.16,1.8-1.19ZM120.49,17.72c-.09-.04-.17-.07-.26-.1l.39.26c-.02-.07-.06-.13-.13-.16ZM119.52,26.14l-3.24-2.15-10.65,7.06,1.62,1.07,9.03-5.99,2.96,1.96c.06-.37.11-.74.17-1.1.04-.28.08-.57.12-.85ZM103.35,15.61l1.79,1.18,8.1-5.37c-.38-.46-.76-.92-1.15-1.37-.05-.05-.1-.1-.14-.16l-8.6,5.7h0ZM103.87,57.38l1.26.83,11.03-7.31c.04-.33.09-.66.13-.99.03-.23.07-.45.1-.68l-.12-.08-12.4,8.22ZM116.28,15.42l-6.61,4.38,1.8,1.19,4.81-3.19,4.02,2.66s0,0,0-.01c.09-.61.19-1.22.28-1.84.02-.11.02-.22.03-.33l-4.33-2.87ZM109.36,19.59l6.9-4.58c-.46-.48-.9-.99-1.33-1.5l-7.38,4.89,1.8,1.19ZM107.25,18.19l7.47-4.95c-.31-.39-.62-.78-.94-1.16-.11-.13-.22-.26-.32-.39l-8.01,5.31,1.8,1.19ZM90.1,12.2l6.93,4.59,1.8-1.19-7.62-5.05c-.31.5-.64,1-.99,1.48-.04.06-.08.11-.12.17ZM97.05,30.72l1.62-1.07-12.76-8.46-3.23,2.14c.03.2.06.39.09.59.07.45.14.91.21,1.36l2.93-1.94,11.14,7.39ZM103.7,43.47l1.44.95,11.15-7.39,1.58,1.05c.07-.53.15-1.06.22-1.59,0-.05.01-.1.02-.16l-1.82-1.21-12.58,8.34ZM106.75,26.85l-5.66-3.75-5.66,3.75,1.62,1.07,4.04-2.68,4.04,2.68,1.62-1.07ZM117.05,44.03l-.77-.51-6.25,4.14,1.44.95,4.81-3.19.54.36c.07-.57.15-1.13.22-1.7,0-.02,0-.04,0-.06ZM97.55,28.25l1.62,1.07,1.93-1.28,1.93,1.28,1.62-1.07-3.55-2.35-3.55,2.35ZM117.4,41.47l-1.12-.74-8.36,5.54,1.44.95,6.92-4.59.88.58c.02-.14.04-.29.06-.43.06-.44.12-.88.18-1.32ZM119.15,28.69l-2.87-1.9-8.54,5.66,1.62,1.07,6.92-4.59,2.6,1.72c.08-.59.16-1.18.24-1.77,0-.07.02-.13.03-.2ZM116.28,37.93l-10.47,6.94,1.44.95,9.03-5.99,1.23.82c.08-.58.16-1.17.23-1.75l-1.47-.97ZM108.87,25.45l-7.77-5.15-7.77,5.15,1.62,1.07,6.15-4.08,6.15,4.08,1.62-1.07ZM90.72,34.92l1.62-1.07-6.43-4.26-2.07,1.37c.04.28.09.56.13.84.05.37.1.75.16,1.12l1.78-1.18,4.81,3.19ZM118.52,33.22c.09-.66.18-1.31.27-1.97l-2.51-1.67-6.43,4.26,1.62,1.07,4.81-3.19,2.24,1.49ZM92.83,33.52l1.62-1.07-8.54-5.66-2.46,1.63c.1.65.2,1.3.3,1.95l2.16-1.43,6.92,4.59ZM94.94,32.12l1.62-1.07-10.65-7.06-2.84,1.88c.1.65.19,1.3.29,1.95l2.55-1.69,9.03,5.99ZM110.98,24.05l-9.88-6.55-9.88,6.55,1.62,1.07,8.26-5.48,8.26,5.48,1.62-1.07ZM72.58,56.53c.31,0,.62,0,.94,0,.42,0,.54-.11.61-.5.02-.1.02-.2.04-.3.01-.09.03-.18.04-.28l-1.63,1.08ZM55.35,62.64c.72,0,1.44,0,2.16,0l1.76-1.17,1.77,1.17c.72,0,1.44,0,2.16,0l-3.92-2.6-3.92,2.6ZM66.27,60.71l1.26.83,3.28-2.17c0-.56,0-1.11,0-1.67l-4.54,3.01ZM49.61,62.34s.03.06.05.09l.49-.33-.58-.39c0,.07,0,.14,0,.21,0,.14.02.28.04.42ZM52.27,60.71l-2.7-1.79c0,.56,0,1.11,0,1.67l1.44.95,1.26-.83ZM48.72,56.53c.16,0,.32,0,.48.01.21.02.34.14.35.34.01.18.02.36.02.54,0,.12,0,.24,0,.36l3.55,2.35,1.26-.83-8.66-5.74c.06.44.11.88.17,1.32.02.17.04.34.06.51l1.73,1.15c.35,0,.69,0,1.04,0ZM62.05,57.91l1.26.83,11.15-7.39.27.18c.02-.17.04-.33.07-.5.05-.34.1-.69.14-1.03l-.49-.32-12.4,8.22ZM66.69,53.71l-7.41-4.91-7.41,4.91,1.26.83,6.15-4.08,6.15,4.08,1.26-.83ZM68.8,52.31l-9.53-6.31-9.52,6.31,1.26.83,8.26-5.48,8.27,5.48,1.26-.83ZM68.39,62.11l.8.53h.51c.14,0,.27,0,.41,0l.68-.45c.01-.14.02-.28.02-.41,0-.42,0-.85,0-1.27l-2.42,1.61ZM51.13,62.64c.72,0,1.44,0,2.16,0l5.99-3.97,5.99,3.97c.72,0,1.44,0,2.16,0l-8.15-5.4-8.15,5.4ZM74.6,52.58l-.14-.09-10.29,6.82,1.26.83,8.96-5.94c.04-.3.09-.6.13-.91.03-.24.06-.48.09-.72ZM59.27,54.39l-3.19,2.11,1.26.83,1.93-1.28,1.93,1.28,1.26-.83-3.19-2.11ZM64.57,55.11l-5.3-3.51-5.3,3.51,1.26.83,4.04-2.68,4.04,2.68,1.26-.83ZM45.41,51.19c.05.38.1.76.15,1.13l9.67,6.41,1.26-.83-11.17-7.41c.03.23.06.46.09.69ZM50.99,11.73l8.28-5.49,8.28,5.49,1.79-1.19-9.96-6.61c-.05,0-.11,0-.16.01-.04,0-.07.02-.11.02l-9.92,6.57,1.79,1.19ZM74.46,18.91l-4.81,3.19-10.38-6.88-10.38,6.88-4.81-3.19-2.85,1.89c.06.43.13.86.19,1.3.03.22.06.44.1.66l2.56-1.69,4.81,3.19,10.38-6.88,10.38,6.88,4.81-3.19,4.23,2.8c.04-.28.08-.56.12-.84.06-.37.12-.74.18-1.11l-4.53-3ZM55.24,44.95l1.44-.95-12.58-8.34-.68.45c.06.46.11.91.17,1.37.02.13.04.26.05.39l.45-.3,11.15,7.39ZM52.45,46.79l-8.35-5.54c.02.16.04.33.07.49.07.53.14,1.07.21,1.6l6.64,4.4,1.44-.95ZM59.95,3.89l9.7,6.43.32-.22c-.15-.24-.31-.47-.46-.71-.75-1.16-1.53-2.29-2.62-3.18-.06-.05-.12-.11-.18-.16-.15-.13-.31-.25-.47-.38l-1.05-.7c-.31-.17-.63-.33-.97-.44-.11-.04-.22-.09-.33-.13-.23-.07-.46-.14-.69-.21-.17-.05-.35-.08-.53-.12-.68-.16-1.37-.26-2.08-.25-.22,0-.43.03-.65.05ZM58.24,4.13c-.55.12-1.1.27-1.63.47-.52.2-1.04.41-1.53.69-.55.32-1.1.66-1.62,1.03-.63.45-1.26.93-1.81,1.48-.64.64-1.28,1.27-1.89,1.94l8.47-5.61ZM74.46,32.85l-4.81,3.19-10.38-6.88-10.38,6.88-4.81-3.19-1.03.68c.08.58.17,1.16.25,1.74l.78-.52,4.81,3.19,10.38-6.88,10.38,6.88,4.81-3.19,2.39,1.59.02-.15c.08-.53.15-1.06.23-1.59l-2.64-1.75ZM53.12,46.35l1.44-.95-10.47-6.94-.34.23c.08.58.16,1.17.24,1.75l.1-.07,9.03,5.99ZM50.34,48.19l-5.82-3.86c.09.69.16,1.39.26,2.08l4.12,2.73,1.44-.95ZM64.75,41.19l-5.48-3.63-5.48,3.63,1.44.95,4.04-2.68,4.04,2.68,1.44-.95ZM68.98,38.39l-9.7-6.43-9.7,6.43,1.44.95,8.26-5.48,8.26,5.48,1.44-.95ZM66.86,39.79l-7.59-5.03-7.59,5.03,1.44.95,6.15-4.08,6.15,4.08,1.44-.95ZM55.91,42.59l1.44.95,1.93-1.28,1.93,1.28,1.44-.95-3.37-2.23-3.37,2.23ZM52.78,18.92l-6.9-4.57c-.45.51-.93.98-1.44,1.43l6.54,4.33,1.8-1.19ZM59.27,11.84l4.07,2.7,1.79-1.19-5.86-3.88-5.86,3.88,1.79,1.2,4.07-2.7ZM48.87,21.52l1.8-1.19-6.5-4.31c-.17.14-.33.31-.52.44-.6.44-1.24.81-1.95,1.05l-.76.5c-.03.12-.03.28-.01.52.03.36.08.71.13,1.07.03.22.06.43.1.65l2.9-1.92,4.81,3.19ZM65.45,13.13l1.79-1.19-7.97-5.28-7.9,5.24.12.17,1.61,1.07,6.17-4.09,6.17,4.09ZM74.46,46.88l-4.81,3.19-10.38-6.88-10.38,6.88-3.98-2.64c.08.61.16,1.22.24,1.83l3.74,2.48,10.38-6.88,10.38,6.88,4.81-3.19.63.42c.07-.51.13-1.02.2-1.54l-.83-.55ZM59.27,14.64l1.96,1.3,1.79-1.19-3.75-2.49-3.75,2.49,1.79,1.19,1.96-1.3ZM61.69,30.17l1.62,1.07,11.14-7.39,3.85,2.55c.06-.42.14-.83.19-1.25.03-.23.07-.47.1-.7l-4.14-2.75-12.76,8.46ZM54.9,17.52l-7.51-4.98c-.4.51-.81,1.01-1.23,1.51-.01.01-.02.03-.04.04l6.97,4.62,1.8-1.19ZM79.57,17.87c0-.15-.09-.27-.24-.3-.18-.03-.36-.05-.54-.05-.32,0-.64-.04-.95-.13-.19-.05-.39-.1-.58-.15-.18-.05-.34-.12-.51-.19l2.69,1.78c.03-.16.05-.33.08-.49.03-.16.04-.32.05-.48ZM77.83,29.55l-3.37-2.23-8.54,5.66,1.62,1.07,6.92-4.59,3.08,2.04c.07-.49.14-.99.22-1.48.02-.16.05-.32.07-.47ZM61.53,16.13l1.79,1.18,7.94-5.26s-.02-.03-.03-.05c-.36-.53-.71-1.08-1.05-1.62l-8.64,5.73h0ZM47.61,12.28l7.6,5.04,1.8-1.19-8.12-5.39c-.23.27-.46.53-.68.8-.2.24-.39.49-.59.74ZM67.54,20.12l6.82-4.52c-.3-.26-.59-.54-.9-.78-.09-.07-.16-.18-.24-.27-.09-.11-.17-.22-.27-.32-.02-.02-.03-.04-.04-.05l-7.17,4.75,1.8,1.19ZM63.63,17.52l1.8,1.19,7.26-4.81c-.44-.5-.85-1.03-1.23-1.57l-7.83,5.19ZM74.46,15.95l-6.61,4.38,1.8,1.19,4.81-3.19,4.62,3.06c.1-.73.2-1.45.32-2.17l-4.93-3.27ZM78.21,27l-3.76-2.49-10.65,7.06,1.62,1.07,9.03-5.99,3.46,2.29c.05-.36.1-.71.16-1.06.05-.3.09-.59.14-.89ZM61.88,43.99l1.44.95,11.15-7.39,2.02,1.34c.02-.17.05-.34.07-.51.06-.41.12-.82.18-1.23l-2.27-1.51-12.58,8.34ZM76.28,40.35c.03-.21.06-.42.09-.63l-1.91-1.27-10.47,6.94,1.44.95,9.03-5.99,1.68,1.12c.02-.14.04-.27.05-.41.03-.24.05-.48.08-.71ZM55.23,31.24l1.62-1.07-12.76-8.46-2.47,1.64c.04.27.08.55.12.82.05.38.11.76.16,1.14l2.19-1.45,11.14,7.39ZM74.46,44.05l-6.25,4.14,1.44.95,4.81-3.19.94.63c.08-.58.16-1.16.25-1.74l-1.19-.79ZM74.46,41.25l-8.36,5.54,1.44.95,6.92-4.59,1.31.87c.09-.58.17-1.16.26-1.73l-1.57-1.04ZM64.93,27.37l-5.66-3.75-5.66,3.75,1.62,1.07,4.04-2.68,4.04,2.68,1.62-1.07ZM48.9,35.44l1.62-1.07-6.43-4.26-1.35.9c.03.23.07.46.09.7.03.43.1.86.16,1.29l1.11-.73,4.81,3.19ZM51.01,34.04l1.62-1.07-8.54-5.66-1.73,1.15c.1.65.2,1.3.29,1.95l1.44-.95,6.92,4.59ZM74.45,30.11l-6.43,4.26,1.62,1.07,4.81-3.19,2.72,1.8c.09-.65.18-1.31.28-1.96,0,0,0,0,0,0l-3-1.99ZM53.12,32.64l1.62-1.07-10.65-7.06-2.1,1.39c.05.39.11.78.16,1.17.04.26.08.52.12.79l1.82-1.21,9.03,5.99ZM69.16,24.57l-9.88-6.55-9.88,6.55,1.62,1.07,8.26-5.48,8.26,5.48,1.62-1.07ZM67.04,25.97l-7.77-5.15-7.77,5.15,1.62,1.07,6.15-4.08,6.15,4.08,1.62-1.07ZM55.73,28.77l1.62,1.07,1.93-1.28,1.93,1.28,1.62-1.07-3.55-2.35-3.55,2.35Z"/></svg>