<?xml version="1.0" encoding="UTF-8"?><svg id="a" xmlns="http://www.w3.org/2000/svg" width="150" height="150" viewBox="0 0 150 150"><path d="M50.36,66.7c6.42,0,12.83,0,19.25,0,.24,0,.48,0,.72.02.17,0,.29.13.31.31.02.18.03.36.03.54,0,.94,0,1.88,0,2.82,0,.48,0,.96,0,1.44,0,.16-.02.32-.04.48-.02.14-.14.26-.28.28-.18.02-.36.04-.54.04-.76,0-1.52.02-2.28.02-.32,0-.64,0-.96.05-.22.03-.44.03-.66.03-1.1.01-2.2.02-3.3.03-.3,0-.6.03-.9.05-.18.01-.36.03-.54.03-.76,0-1.52.02-2.28.02-5.46,0-10.91,0-16.37,0-1,0-2,0-3-.02-.16,0-.32,0-.48-.02-.42-.07-.84-.06-1.26-.06-1.04,0-2.08-.02-3.12-.03-.16,0-.32,0-.48-.02-.48-.08-.96-.06-1.44-.07-.68,0-1.36-.01-2.04-.02-.12,0-.24,0-.36-.02-.25-.02-.37-.14-.38-.37,0-.14-.01-.28-.01-.42,0-1.44,0-2.88,0-4.32,0-.12,0-.24,0-.36,0-.06.01-.12.03-.18.03-.1.09-.18.2-.21.08-.02.16-.04.24-.04.22,0,.44,0,.66,0,6.42,0,12.83,0,19.25,0Z"/><path id="b" d="M48.27,98.77h.46c0,.19,0,.39,0,.58l-.46-.58ZM46.33,133.08l1.67,2.07h-.33l1.17,1.46c0-.41,0-.82,0-1.23l-1.85-2.3h-.66ZM44.85,133.08l1.67,2.07h-.06l2.38,2.96c0-.07,0-.14,0-.21l-.55-.68h.38l.17.21c0-.08,0-.16,0-.24l-3.31-4.11h-.68ZM47.5,102.87h-.02l1.1,1.37h-.37l.54.67c0-.22,0-.44,0-.67h-.14l-1.1-1.37ZM46.43,114.17l2.32,2.89v-1l-1.52-1.89h-.8ZM46.75,102.87l1.9,2.37h.04l-1.9-2.37h-.04ZM48.76,127.01v-.4h-.33l.33.4ZM47.88,114.17l.87,1.08v-1.03l-.04-.06h-.83ZM29.68,122.43l2.18,2.71h.36l-2.18-2.71h-.36ZM31.1,130.75l-1-1.24v.09l.92,1.15h.08ZM32.19,130.75l-2.09-2.6v.36l1.8,2.24h.29ZM30.74,130.75l-.63-.78v.02l.61.76h.02ZM33.52,130.75l-1.95-2.42h.13l-1.39-1.72h-.21v1.16l.45.56h.58l1.95,2.42h.43ZM46.95,126.6l1.81,2.25v-.2l-.26-.32h.26v-.57l-.93-1.15h-.88ZM33.07,125.14h.45l-1.57-2.71h-1.07l2.18,2.71ZM47.81,133.08l1.02,1.27c0-.26,0-.53,0-.79l-.39-.48h-.64ZM34.73,130.75l-1.95-2.42h.38l-1.39-1.72h-1.12l1.39,1.72h.29l1.95,2.42h.45ZM45.28,102.87l1.9,2.37h.09l-1.9-2.37h-.09ZM48.84,138.94v-.27l-2.83-3.51h-.27l-1.67-2.07h-.7l3.34,4.15h.21l1.67,2.07h.19l-1.67-2.07h.3l-.53-.66h.06l1.91,2.37ZM35.94,130.75l-1.95-2.42h.63l-1.39-1.72h-1.1l3.34,4.15h.47ZM48.75,105.87l-1.32-1.64h-.25l-1.1-1.37h-.07l1.1,1.37h-.38l2.01,2.5c0-.29,0-.58,0-.86ZM45.47,126.6l3.34,4.15h.02c0-.17,0-.33-.02-.5,0-.02,0-.03,0-.05l-1.51-1.88h.47l-1.39-1.72h-.9ZM44.85,97.38l3.34,4.15h.55c0-.06,0-.11,0-.17l-3.21-3.98h-.68ZM46.33,97.38l2.4,2.98c0-.27,0-.55,0-.82l-1.74-2.16h-.66ZM46.88,92.16l1.85,2.3c0-.16,0-.32,0-.48l-1.46-1.82h-.38ZM43.37,97.38l3.34,4.15h.7l-3.34-4.15h-.7ZM47.81,97.38l.92,1.14c0-.26,0-.53,0-.79l-.28-.35h-.64ZM43.07,102.87l1.1,1.37h-.39l4.52,5.62h.45v-.36l-4.23-5.26h-.2l-1.1-1.37h-.15ZM48.09,92.16l.64.79c0-.15,0-.3,0-.45l-.28-.34h-.36ZM34.09,119.79l-4.52-5.62h-.9l4.52,5.62h.9ZM45.26,104.23l3.5,4.34v-.81h0v-.08s-2.77-3.45-2.77-3.45h-.22l-1.1-1.37h-.11l1.1,1.37h-.38ZM41.89,97.38l3.34,4.15h.72l-3.34-4.15h-.72ZM43.81,102.87l1.9,2.37h.13l-1.9-2.37h-.13ZM39.54,126.6l3.34,4.15h.32l-1.95-2.42h.58l1.95,2.42h.09l-3.34-4.15h-.99ZM41.02,126.6l3.34,4.15h.04l-1.95-2.42h.56l1.95,2.42h.37l-3.34-4.15h-.97ZM48.45,141.34l-1.14-1.41h-.43l1.14,1.41h.43ZM38.06,126.6l1.39,1.72h0l1.95,2.42h.58l-1.95-2.42h.42l-1.39-1.72h-1.01ZM42.5,126.6l1.39,1.72h.31l1.95,2.42h.64l-3.34-4.15h-.95ZM43.99,126.6l1.39,1.72h.01l1.95,2.42h.7l-1.95-2.42h.22l-1.39-1.72h-.92ZM40.78,137.23l-3.34-4.15h.79l1.67,2.07h.17l3.34,4.15h-.87l-1.67-2.07h-.09ZM39.73,135.16l-.28-.35h-.34l.28.35h.34ZM43.75,139.31l-3.34-4.15h.18l-1.67-2.07h.77l3.34,4.15h-.1l1.67,2.07h-.85ZM40.92,135.16l-.28-.35h-.31l.28.35h.31ZM36.58,126.6l1.39,1.72h.3l1.95,2.42h.56l-1.95-2.42h.17l-1.39-1.72h-1.03ZM35.1,126.6l1.39,1.72h.59l1.95,2.42h.46l-3.34-4.15h-1.06ZM28.9,96.3l-1.43-1.77c0,.16,0,.32,0,.48l1.04,1.29h.38ZM23.25,139.31l-1.67-2.07h.14l-1.1-1.37s0,.03,0,.05c0,.22,0,.44-.03.66,0,.03,0,.05,0,.08l2.13,2.65h.54ZM24.44,139.31l-3.34-4.15h-.17l-.3-.37c0,.08,0,.16,0,.23l.11.14h-.11s0,.04,0,.05l3.3,4.09h.52ZM20.64,134.29l.42.52h.59l.28.35h-.14l3.34,4.15h.5l-1.67-2.07h.1l-3.34-4.15h-.05c-.01.28-.02.57-.03.85,0,.12,0,.24,0,.36ZM26.91,144.08l-3.34-4.15h-.87l3.34,4.15h.87ZM20.92,128.05l-.06-.08s0,.01,0,.02l.05.06h.02ZM36.81,102.87h-.35l1.9,2.37h.34l3.72,4.62h.83l-4.52-5.62h-.09l-1.1-1.37h-.33l1.1,1.37h-.38l-1.1-1.37ZM46.36,143.97l1.75,2.17h.41c0-.08,0-.15.01-.23l-2.02-2.51h.6l1.46,1.81c.02-.22.03-.43.05-.65,0,0,0-.01,0-.02l-.92-1.14h.62l.33.41c.03-.61.07-1.22.1-1.83h-2.4v1.97ZM35.39,102.87h-.4l1.9,2.37h.33l3.72,4.62h.85l-4.52-5.62h-.07l-1.1-1.37h-.38l1.1,1.37h-.34l-1.1-1.37ZM29,144.08h.28l-3.34-4.15h-.83l3.34,4.15h.25l-2.2-2.73h.29l2.2,2.73ZM35.06,104.23h.29l-1.1-1.37h.42l1.1,1.37h.04l4.52,5.62h-.87l-3.72-4.62h-.58l3.72,4.62h-.89l-3.72-4.62h-.56l3.72,4.62h-.92l-3.72-4.62h-.54l3.72,4.62h-.94l-3.72-4.62h-.51l3.72,4.62h-.96l-3.72-4.62h-.49l3.72,4.62h-.98l-3.72-4.62h-.47l3.72,4.62h-1l-1.08-1.35h.3l-2.64-3.27h-.75l3.72,4.62h-1.03l-1.08-1.35h.18l-2.64-3.27h-.6l3.72,4.62h-1.05l-1.08-1.35h.05l-2.64-3.27h-.46l3.72,4.62h-1.07l-3.72-4.62h-.49l2.64,3.27h.11l1.08,1.35h-1.09l-3.02-3.75c0-.27.02-.53.06-.79.02-.14.03-.28.03-.42,0-.16.02-.31.02-.46h0,0c0-.07,0-.13.01-.19h.28l-.26-.32s0-.1.01-.15l.38.47h.49l.16.19h.09l-1.05-1.31s.01-.1.02-.14c0,0,0,0,0-.01l1.17,1.46h.21l-.16-.19h.35l-1.1-1.37h.18l1.1,1.37h.47l.16.19h.06l-1.25-1.56h.2l1.25,1.56h.34l-.16-.19h.17l-1.1-1.37h.22l1.1,1.37h.45l.16.19h.04l-1.25-1.56h.24l1.25,1.56h.47l-.16-.19h0l-1.1-1.37h.27l1.1,1.37h.44l.16.19h.01l-1.25-1.56h.29l1.25,1.56h.17l-.16-.19h.09l.16.19h.16l-1.25-1.56h.31l1.1,1.37h.4l-1.1-1.37h.33l1.25,1.56h.17l-.16-.19h.21l-1.1-1.37h.35l1.1,1.37h.36l-1.1-1.37h.38l1.25,1.56h.18l-.16-.19h.16l-1.1-1.37h.4l1.25,1.56h.12l-.16-.19h.2l-1.1-1.37h.42l1.25,1.56h.18l-.16-.19h.11l-1.1-1.37h2.95l1.1,1.37ZM28.81,105.23h-.34l2.64,3.27h.34l-2.64-3.27ZM30.41,105.23h-.31l2.64,3.27h.31l-2.64-3.27ZM32,105.23h-.29l2.64,3.27h.29l-2.64-3.27ZM28.76,139.31h.43l-1.67-2.07h.25l-1.95-2.42h.58l.28.35h-.05l3.34,4.15h.41l-3.34-4.15h-.27l-1.67-2.07h-.99l1.67,2.07h-.36l3.34,4.15ZM28.09,144.08l-3.34-4.15h-.85l3.34,4.15h.85ZM38.3,91.07l-5.53-6.87h-1.27l5.53,6.87h1.27ZM31.63,81.71l-.81-1c-.11.05-.22.1-.33.14l.69.86h.45ZM32.17,81.71h.42l-1.05-1.31c-.1.04-.21.09-.31.13l.94,1.17ZM42.34,102.87l1.9,2.37h.18l-1.9-2.37h-.18ZM21.43,128.05h.08l-.64-.79s0,.06,0,.09l.56.7ZM34.49,81.71l-1.55-1.92c-.09.04-.18.08-.26.12l1.46,1.81h.36ZM38.67,144.08h.11l-3.34-4.15h-.65l3.34,4.15h.08l-2.2-2.73h.47l2.2,2.73ZM39.88,144.08h.08l-3.34-4.15h-.63l3.34,4.15h.05l-2.2-2.73h.49l2.2,2.73ZM41.09,144.08h.06l-3.34-4.15h-.61l3.34,4.15h.03l-2.2-2.73h.51l2.2,2.73ZM37.36,81.71l-2.29-2.85c-.07.03-.13.06-.2.09l2.22,2.76h.27ZM42.3,144.08h.04l-3.34-4.15h-.58l3.34,4.15h.01l-2.2-2.73h.54l2.2,2.73ZM33.83,144.08h.19l-3.34-4.15h-.74l3.34,4.15h.17l-2.2-2.73h.38l2.2,2.73ZM48.49,139.93h-.41l.75.93v-.51l-.35-.43ZM37.84,130.75h.19l-3.34-4.15h-1.08l3.34,4.15h.2l-1.95-2.42h.69l1.95,2.42ZM46.72,139.31h.26l-1.67-2.07h.4l1.67,2.07h.21l-1.67-2.07h.03l-.53-.66h.31l2.2,2.73h.24l-3.34-4.15h-.54l-1.67-2.07h-.72l1.67,2.07h-.73l3.34,4.15h.23l-2.2-2.73h.31l2.2,2.73ZM43.77,137.23h.06l1.67,2.07h.28l-1.67-2.07h.37l-3.34-4.15h-.75l1.39,1.72h.03l.28.35h-.48l3.34,4.15h.25l-2.2-2.73h.23l.53.66ZM25.62,119.79l-4.28-5.31c0,.06,0,.12,0,.18l1.95,2.42h-.38l-1.58-1.96c0,.08,0,.17,0,.25l3.56,4.42h.74ZM28.02,133.08h-.95l1.39,1.72h.31l.28.35h0l3.34,4.15h.36l-1.67-2.07h.28l-3.34-4.15ZM21.78,114.17h-.23l4.52,5.62h.76l-4.52-5.62h-.17l2.34,2.91h-.36l-2.34-2.91ZM31.04,125.14l-2.18-2.71h-.38l2.18,2.71h.38ZM26.48,122.43h-.43l2.18,2.71h.43l-2.18-2.71ZM27.48,125.14l-2.18-2.71h-.45l2.18,2.71h.45ZM22.99,114.17h-.25l4.52,5.62h.78l-4.52-5.62h-.19l2.34,2.91h-.34l-2.34-2.91ZM46.14,109.85l-4.52-5.62h-.15l-1.1-1.37h-.24l1.1,1.37h-.39l4.52,5.62h.78ZM32.63,144.08h.22l-3.34-4.15h-.76l3.34,4.15h.19l-2.2-2.73h.36l2.2,2.73ZM31.17,139.31h.38l-1.67-2.07h0l-3.34-4.15h-.97l3.34,4.15h.04l-1.95-2.42h.56l.28.35h-.02l3.34,4.15ZM39.4,102.87l1.9,2.37h.27l-1.9-2.37h-.27ZM26.55,101.53l-.4-.5c-.1.13-.2.24-.31.34l.12.15h.58ZM31.16,139.93l3.34,4.15h.14l-2.2-2.73h.4l2.2,2.73h.17l-3.34-4.15h-.72ZM27.48,114.17l4.52,5.62h.87l-4.52-5.62h-.87ZM36.25,144.08h.15l-3.34-4.15h-.7l3.34,4.15h.12l-2.2-2.73h.42l2.2,2.73ZM25.41,114.17h-.3l4.52,5.62h.83l-4.52-5.62h-.24l2.34,2.91h-.29l-2.34-2.91ZM27.76,101.53l-1.08-1.34c-.03.06-.06.12-.09.18-.01.02-.02.04-.03.06l.89,1.11h.32ZM24.2,114.17h-.28l4.52,5.62h.81l-4.52-5.62h-.22l2.34,2.91h-.31l-2.34-2.91ZM29.85,125.14l-2.18-2.71h-.41l2.18,2.71h.41ZM40.71,91.07l-5.53-6.87h-1.24l5.53,6.87h1.24ZM39.92,96.3l-3.34-4.15h-.58l3.34,4.15h.58ZM41.6,102.87l1.1,1.37h-.39l4.52,5.62h.76l-4.52-5.62h-.17l-1.1-1.37h-.2ZM34.79,92.16l3.34,4.15h.61l-3.34-4.15h-.61ZM36.4,84.21l5.53,6.87h1.2l-5.53-6.87h-1.2ZM45.55,91.07l-5.53-6.87h-1.16l5.53,6.87h1.16ZM36.11,81.71h.3l-2.05-2.54c-.07.03-.15.06-.22.1l1.97,2.45ZM31.52,97.38l3.34,4.15h.16l-1.95-2.42h.45l1.95,2.42h.27l-3.34-4.15h-.88ZM33.58,92.16l3.34,4.15h.63l-3.34-4.15h-.63ZM33,97.38l1.39,1.72h.32l1.95,2.42h.54l-3.34-4.15h-.86ZM35.87,99.11h.02l1.95,2.42h.81l-1.95-2.42h0l-1.39-1.72h-.83l1.39,1.72ZM32.37,92.16l3.34,4.15h.65l-3.34-4.15h-.65ZM22.72,125.14l2.34,2.91h.01l-4.06-5.04c0,.15,0,.3-.01.45,0,.07,0,.14,0,.2l1.19,1.48h.53ZM30.87,144.08h.21l-2.2-2.73h.34l2.2,2.73h.24l-3.34-4.15h-.78l3.34,4.15ZM26.32,139.93l3.34,4.15h.23l-2.2-2.73h.31l2.2,2.73h.26l-3.34-4.15h-.81ZM30.04,97.38l3.34,4.15h.44l-1.95-2.42h.47l-1.39-1.72h-.9ZM28.34,101.53h.09l-1.53-1.9s-.02.05-.03.08l1.46,1.82ZM33.58,139.93l3.34,4.15h.1l-2.2-2.73h.45l2.2,2.73h.13l-3.34-4.15h-.67ZM36.51,78.54l2.55,3.17h.21l-2.55-3.17h-.21ZM38.48,78.54l2.55,3.17h.15l-2.55-3.17h-.15ZM37.5,78.54l2.55,3.17h.18l-2.55-3.17h-.18ZM48.73,86.17c0-.05,0-.1,0-.16l-.8-.99c-.27-.03-.54-.07-.81-.12-.15-.03-.29-.07-.43-.11l2.04,2.53c0-.38,0-.77,0-1.15ZM39.47,78.54l2.55,3.17h.12l-2.55-3.17h-.12ZM40.45,78.54l.76.94c-.02-.06-.04-.12-.06-.18l-.61-.76h-.09ZM33.15,81.71h.39l-1.3-1.61c-.1.04-.19.08-.29.13l1.2,1.49ZM27.47,93.57h.05l2.2,2.73h.36l-2.2-2.73h.34l-.75-.94c0,.31,0,.62,0,.94ZM26.59,84.21l5.53,6.87h1.35l-5.53-6.87h-1.35ZM28.74,92.16l3.34,4.15h.72l-3.34-4.15h-.72ZM29.95,92.16l3.34,4.15h.7l-3.34-4.15h-.7ZM35.17,96.3l-3.34-4.15h-.67l3.34,4.15h.67ZM27.53,92.16l1.14,1.41h.06l2.2,2.73h.68l-3.34-4.15h-.74ZM22.64,128.05h.05l-1.77-2.2s0,.04,0,.06l1.72,2.13ZM27.08,87.87l2.58,3.21h1.38l-4.32-5.37c.07.37.14.73.2,1.1.05.35.11.71.16,1.06ZM27.4,90.74c0,.11.02.23.03.34h1.2l-1.34-1.67c.03.32.06.64.07.97,0,.12.03.24.04.36ZM28.69,81.63c-.06.03-.12.05-.19.08h.25l-.06-.08ZM20.4,140.8c0,.19-.02.38-.02.56,0,.28,0,.56-.04.84-.06.42-.07.84-.08,1.26,0,.21-.01.41-.03.62h2.81l-2.64-3.28ZM22.06,139.31l-1.54-1.91c0,.14,0,.29,0,.43,0,.08,0,.17,0,.25l.99,1.23h.56ZM20.5,138.84c0,.15,0,.31,0,.46h.38l-.37-.46ZM28.55,97.38l1.39,1.72h.01l1.95,2.42h.7l-1.95-2.42h.22l-1.39-1.72h-.92ZM21.15,133.08l1.39,1.72h.3l.28.35h-.11l3.34,4.15h.47l-1.67-2.07h.2l-1.95-2.42h.17l-1.39-1.72h-1.03ZM21.51,125.14l2.34,2.91h.03l-2.9-3.61c0,.23,0,.45-.01.68v.02h.54ZM35.88,91.07l-5.53-6.87h-1.31l5.53,6.87h1.31ZM24.02,134.81h0l.28.35h-.09l3.34,4.15h.45l-1.67-2.07h.22l-1.95-2.42h.42l-1.39-1.72h-1.01l1.39,1.72ZM25.72,144.08l-3.34-4.15h-.9l3.34,4.15h.9ZM29.71,81.71l-.31-.39c-.12.05-.25.11-.37.16l.18.23h.5ZM30.19,81.71h.48l-.56-.69c-.12.05-.24.1-.35.15l.44.54ZM38.08,81.71h.24l-2.54-3.15c-.06.03-.12.05-.18.08l2.48,3.08ZM27.48,96.3h.23l-.23-.29c0,.1,0,.19,0,.29ZM35.12,81.71h.33l-1.8-2.23c-.08.04-.16.07-.24.11l1.71,2.13ZM23.21,119.79l-1.98-2.46c0,.28,0,.57-.01.85l1.29,1.61h.7ZM23.01,108.51l-1.31-1.63c0,.15,0,.31-.03.46-.02.16-.03.33-.04.49l1.62,2.02h1.12l-1.08-1.35h-.28ZM23.92,125.14l-2.18-2.71h-.52l2.18,2.71h.52ZM22.11,117.07h-.4l-.46-.57c0,.08,0,.15,0,.23l2.46,3.05h.72l-3.13-3.89s0,.1-.01.14l.83,1.03ZM22.92,109.85l-1.08-1.35h-.24c0,.21-.01.42-.02.63,0,.14-.01.29-.02.43l.23.28h1.14ZM22,119.79l-.82-1.02c-.01.2-.02.4-.04.61,0,.06,0,.11,0,.17l.19.24h.67ZM27.42,97.38c-.01.12-.03.24-.05.37l1.09,1.36h.31l1.95,2.42h.64l-3.34-4.15h-.6ZM41.97,141.34h.54l-1.14-1.41h-.54l1.14,1.41ZM26.29,125.14l-2.18-2.71h-.47l2.18,2.71h.47ZM33.59,139.31l-1.67-2.07h-.02l-1.95-2.42h-.01l-1.39-1.72h.92l1.39,1.72h-.22l.28.35h.77l-1.67-2.07h.9l1.39,1.72h-.47l.28.35h1.05l-1.67-2.07h.88l1.67,2.07h.92l-.28-.35h-.32l-1.39-1.72h.86l1.67,2.07h.65l-.28-.35h-.02l-1.39-1.72h.83l1.39,1.72h0l1.95,2.42h-.76l1.67,2.07h-5.96ZM33.35,135.16h.45l-.28-.35h-.45l.28.35ZM25.11,125.14l-2.18-2.71h-.5l2.18,2.71h.5ZM40.63,114.17l4.52,5.62h.72l-4.52-5.62h-.72ZM43.53,114.17l4.52,5.62h.7v-.07l-4.47-5.55h-.76ZM42.08,114.17l4.52,5.62h.74l-4.52-5.62h-.74ZM41.31,141.34l2.2,2.73h.02l-3.34-4.15h-.56l1.14,1.41h.55ZM48.76,117.88l-2.99-3.72h-.78l3.77,4.69v-.97ZM40.87,102.87l1.9,2.37h.22l-1.9-2.37h-.22ZM34.82,114.17l4.52,5.62h.63l-4.52-5.62h-.63ZM39.18,114.17l4.52,5.62h.69l-4.52-5.62h-.69ZM27.19,110.8l11.54,14.45h4.12l-11.54-14.45h-4.12ZM26.3,114.17l4.52,5.62h.85l-4.52-5.62h-.85ZM36.27,114.17l4.52,5.62h.65l-4.52-5.62h-.65ZM37.72,114.17l4.52,5.62h.67l-4.52-5.62h-.67ZM41.33,139.31h.9l-3.34-4.15h-.7l-.28-.35h.26l-1.39-1.72h-.81l3.34,4.15h.36l1.67,2.07ZM38.92,97.38l3.34,4.15h.01l-1.95-2.42h.31l1.95,2.42h.44l-3.34-4.15h-.77ZM41.82,99.11l1.95,2.42h.72l-3.34-4.15h-.75l1.39,1.72h.03ZM38.41,92.16l3.34,4.15h.54l-3.34-4.15h-.54ZM37.44,97.38l3.34,4.15h.28l-1.95-2.42h.34l1.95,2.42h.17l-3.34-4.15h-.79ZM37.2,92.16l3.34,4.15h.56l-3.34-4.15h-.56ZM27.58,99.11l1.95,2.42h.37l-2.62-3.25c-.01.08-.02.15-.04.23-.04.2-.1.4-.16.6h.5ZM35.96,97.38l3.34,4.15h.56l-1.95-2.42h.26l-1.39-1.72h-.81ZM28.97,101.53l-1.91-2.37s0,.03-.01.04l1.87,2.33h.04ZM39.62,92.16l3.34,4.15h.52l-3.34-4.15h-.52ZM37.93,102.87l1.9,2.37h.31l-1.9-2.37h-.31ZM39.36,104.23l4.52,5.62h.8l-4.52-5.62h-.12l-1.1-1.37h-.29l1.1,1.37h-.4ZM42.56,139.93h-.52l1.14,1.41h.52l-1.14-1.41ZM47.52,146.15l-1.17-1.45v.78l.54.67h.63ZM43.76,84.21l4.96,6.16c0-.45,0-.9,0-1.35l-3.87-4.81h-1.09ZM47.26,141.34l-1.14-1.41h-.45l1.14,1.41h.45ZM46.07,141.34l-1.14-1.41h-.47l1.14,1.41h.47ZM40.83,92.16l3.34,4.15h.5l-3.34-4.15h-.5ZM44.88,141.34l-1.14-1.41h-.5l1.14,1.41h.5ZM42.04,92.16l3.34,4.15h.47l-3.34-4.15h-.47ZM43.25,92.16l3.34,4.15h.45l-3.34-4.15h-.45ZM44.46,92.16l3.34,4.15h.43l-3.34-4.15h-.43ZM48.73,95.45l-2.65-3.29h-.41l3.06,3.8c0-.17,0-.34,0-.51ZM46.84,91.07h1.13l-5.53-6.87h-1.13l5.53,6.87ZM97.61,97.65l-3.34,4.15h-.92l3.34-4.15h.92ZM89.58,123.01l-.98,1.21c0-.08,0-.17,0-.25l.78-.97h.19ZM89.5,110.12h-.08l4.52-5.62h.09l1.1-1.37h.63l-1.9,2.37h-.11l-3.72,4.62h-.02l2.34-2.91h-.51l-2.34,2.91ZM96.15,97.65l-2.64,3.28c.05-.25.1-.49.14-.74.04-.25.07-.5.11-.75l1.43-1.78h.95ZM90.77,123.01l-2.27,2.82c0-.07,0-.14,0-.22l2.09-2.6h.17ZM90.71,110.12h-.1l4.52-5.62h.09l1.1-1.37h.65l-1.9,2.37h-.11l-3.72,4.62h-.04l2.34-2.91h-.49l-2.34,2.91ZM98.93,120.05h-1.07l4.52-5.62h1.07l-4.52,5.62ZM117.62,104.5l-4.52,5.62h-.65l4.52-5.62h.65ZM93.89,98.65c.02-.12.04-.24.05-.36.02-.21.03-.43.05-.64h.7l-.8,1ZM92.84,104.5l1.1-1.37h.61l-1.9,2.37h-.11l-1.38,1.71h-.53l-1.4,1.73s0-.05,0-.07l3.52-4.37h.09ZM120.56,103.13l-1.9,2.37h-.04l1.9-2.37h.04ZM97.19,101.8h-.88l3.34-4.15h.88l-3.34,4.15ZM98.65,101.8h-.86l3.34-4.15h.86l-3.34,4.15ZM104.22,92.42l-3.34,4.15h-.21l2.2-2.73h-.34l-2.2,2.73h-.24l3.34-4.15h.78ZM88.71,123.01h.28l-.37.46c0-.12,0-.23,0-.35l.09-.11ZM94.33,110.12h-.17l4.52-5.62h.09l1.1-1.37h.72l-1.9,2.37h-.11l-3.72,4.62h-.11l2.34-2.91h-.42l-2.34,2.91ZM91.91,110.12h-.12l4.52-5.62h.09l1.1-1.37h.67l-1.9,2.37h-.11l-3.72,4.62h-.06l2.34-2.91h-.47l-2.34,2.91ZM93.12,110.12h-.14l4.52-5.62h.09l1.1-1.37h.7l-1.9,2.37h-.11l-3.72,4.62h-.08l2.34-2.91h-.45l-2.34,2.91ZM104.91,97.65l-3.34,4.15h-.81l3.34-4.15h.81ZM99.28,101.8l3.34-4.15h.83l-3.34,4.15h-.83ZM113.9,110.12l4.52-5.62h.28l1.1-1.37h.02l-1.1,1.37h.37l-4.52,5.62h-.67ZM118.06,131.02l1.95-2.42h-.47l1.39-1.72h.9l-3.34,4.15h-.44ZM113.23,131.02l1.95-2.42h0l1.39-1.72h.83l-1.39,1.72h-.02l-1.95,2.42h-.81ZM124.97,103.13l-1.9,2.37h-.18l1.9-2.37h.18ZM108.28,104.5l1.1-1.37h.9l-1.9,2.37h-.11l-3.72,4.62h-.87l4.52-5.62h.09ZM114.68,131.02l3.34-4.15h.86l-1.39,1.72h-.32l-1.95,2.42h-.54ZM125.32,131.02l1.95-2.42h-.42l1.39-1.72h1.01l-1.39,1.72h0l-1.95,2.42h-.58ZM121.22,128.59h-.22l1.39-1.72h.92l-1.39,1.72h-.01l-1.95,2.42h-.7l1.95-2.42ZM126.28,126.87l-3.34,4.15h-.04l1.95-2.42h-.56l-1.95,2.42h-.37l3.34-4.15h.97ZM111,110.12l4.52-5.62h.63l-4.52,5.62h-.63ZM118.26,110.12l4.52-5.62h.2l1.1-1.37h.15l-1.1,1.37h.39l-4.52,5.62h-.74ZM101.59,110.12h-.3l4.52-5.62h.09l1.1-1.37h.85l-1.9,2.37h-.11l-3.72,4.62h-.24l2.34-2.91h-.29l-2.34,2.91ZM100.38,110.12h-.28l4.52-5.62h.09l1.1-1.37h.83l-1.9,2.37h-.11l-3.72,4.62h-.22l2.34-2.91h-.31l-2.34,2.91ZM102.48,110.12l4.52-5.62h.09l1.1-1.37h.87l-1.9,2.37h-.11l-3.72,4.62h-.85ZM118.86,97.65h.64l-1.11,1.38h.66l-11.54,14.45h-4.12l6.38-7.99h-.29l-3.72,4.62h-.9l4.52-5.62h.09l1.1-1.37h1.08l1.07-1.33h-.1l3.34-4.15h.64l-1.11,1.38h.85l1.11-1.38h.58l-1.11,1.38h.85l1.11-1.38ZM99.17,110.12h-.25l4.52-5.62h.09l1.1-1.37h.81l-1.9,2.37h-.11l-3.72,4.62h-.19l2.34-2.91h-.34l-2.34,2.91ZM90.88,120.05h-.03l3.25-5.62h2.09l-4.52,5.62h-.28l3.44-4.27h-.51l-3.44,4.27ZM93.3,89c-.06-.32-.12-.63-.18-.95-.03-.13-.05-.27-.08-.4l2.56-3.18h.92l-3.23,4.01h.43l-.42.52ZM96.75,110.12h-.21l4.52-5.62h.09l1.1-1.37h.76l-1.9,2.37h-.11l-3.72,4.62h-.15l2.34-2.91h-.38l-2.34,2.91ZM97.96,110.12h-.23l4.52-5.62h.09l1.1-1.37h.78l-1.9,2.37h-.11l-3.72,4.62h-.17l2.34-2.91h-.36l-2.34,2.91ZM111.44,84.47l-5.53,6.87h-1.13l5.53-6.87h1.13ZM126.53,131.02l1.95-2.42h-.17l1.39-1.72h1.03l-1.39,1.72h-.3l-1.95,2.42h-.56ZM107.09,120.05h-.38l4.52-5.62h.94l-4.52,5.62h-.26l3.44-4.27h-.29l-3.44,4.27ZM108.83,78.81l-2.55,3.17h-1.14l2.55-3.17h1.14ZM107.9,81.98h-1.17l2.55-3.17h1.17l-2.55,3.17ZM98.18,92.42l-3.34,4.15h-.1l2.2-2.73h-.45l-2.2,2.73h-.13l3.34-4.15h.67ZM106.61,84.47l-5.53,6.87h-1.2l5.53-6.87h1.2ZM99.39,92.42l-3.34,4.15h-.12l2.2-2.73h-.42l-2.2,2.73h-.15l3.34-4.15h.7ZM117.97,114.44l-4.52,5.62h-.85l4.52-5.62h.85ZM100.6,92.42l-3.34,4.15h-.14l2.2-2.73h-.4l-2.2,2.73h-.17l3.34-4.15h.72ZM109.65,120.05l4.52-5.62h.89l-4.52,5.62h-.89ZM112.07,78.81l-2.55,3.17h-1.2l2.55-3.17h1.2ZM115.13,97.65l-3.34,4.15h-.66l3.34-4.15h.66ZM113.67,97.65l-3.34,4.15h-.68l3.34-4.15h.68ZM113.86,84.47l-5.53,6.87h-1.09l5.53-6.87h1.09ZM111.12,120.05l4.52-5.62h.87l-4.52,5.62h-.87ZM105.47,120.05h-.24l4.52-5.62h.96l-4.52,5.62h-.41l3.44-4.27h-.31l-3.44,4.27ZM105.95,101.8h-.75l3.34-4.15h.75l-3.34,4.15ZM106.93,96.57h-.9l3.34-4.15h.9l-3.34,4.15ZM110.75,97.65l-3.34,4.15h-.72l3.34-4.15h.72ZM112.21,97.65l-3.34,4.15h-.7l3.34-4.15h.7ZM101.8,92.42l-3.34,4.15h-.17l2.2-2.73h-.38l-2.2,2.73h-.19l3.34-4.15h.74ZM106.64,92.42l-3.34,4.15h-.25l2.2-2.73h-.29l-2.2,2.73h-.28l3.34-4.15h.83ZM107.85,92.42l-3.34,4.15h-.85l3.34-4.15h.85ZM109.06,92.42l-3.34,4.15h-.87l3.34-4.15h.87ZM103.03,101.8h-.79l3.34-4.15h.79l-3.34,4.15ZM103.01,92.42l-3.34,4.15h-.19l2.2-2.73h-.36l-2.2,2.73h-.22l3.34-4.15h.76ZM107.83,97.65l-3.34,4.15h-.77l3.34-4.15h.77ZM99.07,97.65l-3.34,4.15h-.9l3.34-4.15h.9ZM102.09,96.57h-.23l2.2-2.73h-.31l-2.2,2.73h-.26l3.34-4.15h.81l-3.34,4.15ZM109.03,84.47l-5.53,6.87h-1.16l5.53-6.87h1.16ZM94.55,92.42l-.65.8c0-.23-.02-.45-.06-.68l.1-.12h.61ZM94.51,84.47l-1.69,2.11c-.07-.31-.13-.62-.22-.93-.03-.11-.06-.23-.1-.34l.67-.84h1.34ZM94.24,78.81l-2.55,3.17h-.14c-.07-.22-.13-.44-.21-.65l2.03-2.52h.87ZM96.97,92.42l-2.94,3.66s0-.06,0-.1l1.73-2.15h-.47l-1.26,1.57s0-.09,0-.13l2.29-2.85h.65ZM95.76,92.42l-1.74,2.16s0-.04,0-.07l.55-.68h-.49l-.1.13s0-.06-.01-.09l1.17-1.45h.63ZM95.95,110.12l2.34-2.91h-.4l-2.34,2.91h-.19l4.52-5.62h.09l1.1-1.37h.74l-1.9,2.37h-.11l-3.72,4.62h-.13ZM90,105.13c.16,0,.32,0,.48,0,.02,0,.04,0,.06,0l-.31.39h-.11l-.77.96c0-.19,0-.37,0-.56,0-.05.01-.1.02-.14l.5-.62s.09-.01.13-.01ZM88.5,126.49c0-.19,0-.38,0-.57h.29l2.34-2.91h.23l-2.87,3.56s0-.06,0-.09ZM88.56,124.71l1.36-1.7h.25l-1.65,2.05c0-.08,0-.17.02-.25,0-.03,0-.07.01-.1ZM91.86,104.58c.15-.07.26-.18.36-.31.26-.36.51-.73.69-1.14h.42l-1.9,2.37h-.11l-1.38,1.71h-.53l-.08.1s0-.03,0-.04l1.92-2.39c.2-.1.4-.2.6-.3ZM121.16,131.02h-.64l3.34-4.15h.95l-1.39,1.72h-.31l-1.95,2.42ZM104.57,76.58l1.23-1.53c.16.2.33.4.5.61l-.74.92h-.99ZM118.01,91.34h-1.09l5.53-6.87h1.09l-5.53,6.87ZM103.04,76.58l1.96-2.44c.08,0,.15.03.21.1.03.03.05.06.08.09.07.12.16.23.24.34l-1.53,1.9h-.96ZM98.45,76.58l.12-.15c.39-.14.79-.29,1.18-.43.03,0,.05-.02.08-.03l-.49.61h-.89ZM99.98,76.58l.75-.93c.33-.12.67-.24,1-.36.1-.03.19-.07.29-.11l-1.13,1.4h-.92ZM130.49,103.13h.35l-1.9,2.37h-.34l-3.72,4.62h-.83l4.52-5.62h.09l1.1-1.37h.33l-1.1,1.37h.38l1.1-1.37ZM127.81,131.02l3.34-4.15h1.06l-1.39,1.72h-.59l-1.95,2.42h-.46ZM131.92,103.13h.4l-1.9,2.37h-.33l-3.72,4.62h-.85l4.52-5.62h.07l1.1-1.37h.38l-1.1,1.37h.34l1.1-1.37ZM132.25,104.5h-.29l1.1-1.37h-.42l-1.1,1.37h-.04l-4.52,5.62h.87l3.72-4.62h.58l-3.72,4.62h.89l3.72-4.62h.56l-3.72,4.62h.92l3.72-4.62h.54l-3.72,4.62h.94l3.72-4.62h.51l-3.72,4.62h.96l3.72-4.62h.49l-3.72,4.62h.98l3.72-4.62h.47l-3.72,4.62h1l1.08-1.35h-.3l2.64-3.27h.75l-3.72,4.62h1.03l1.08-1.35h-.18l1.96-2.44c-.03-.31-.08-.61-.11-.92-.01-.14-.13-.26-.28-.27-.2-.02-.4-.03-.6-.03-.29,0-.55-.06-.81-.19-.23-.12-.46-.23-.7-.35-.04-.02-.06-.06-.1-.08l-.16.2h-.17l.16-.19h-.21l.16-.2s-.03-.02-.04-.03c-.04-.07-.09-.13-.13-.2l-.35.43h-.36l.54-.67c-.06-.09-.11-.17-.17-.26l-.9,1.12h-.18l.16-.19h-.16l.94-1.17c-.03-.06-.07-.12-.09-.18,0,0,0-.01,0-.02h-.14l-1.25,1.56h-.12l.16-.19h-.2l1.1-1.37h-.42l-1.25,1.56h-.18l.16-.19h-.11l1.1-1.37h-2.95l-1.1,1.37ZM138.5,105.5h.34l-2.64,3.27h-.34l2.64-3.27ZM136.9,105.5h.31l-2.64,3.27h-.31l2.64-3.27ZM135.3,105.5h.29l-2.64,3.27h-.29l2.64-3.27ZM90.32,133.35l-2.29,2.85s0-.09,0-.14c0-.3.02-.6.07-.9.02-.12.02-.24.03-.37l1.16-1.45h1.03ZM110.33,137.5h-.16l-1.67,2.07h-.04l1.67-2.07h-.48l3.34-4.15h.68l-1.67,2.07h.38l-3.34,4.15h-.01l2.2-2.73h-.37l-.53.66ZM123.53,137.5h-.06l-1.67,2.07h-.28l1.67-2.07h-.37l3.34-4.15h.75l-1.39,1.72h-.03l-.28.35h.48l-3.34,4.15h-.25l2.2-2.73h-.23l-.53.66ZM128.41,135.43h.7l.28-.35h-.26l1.39-1.72h.81l-3.34,4.15h-.36l-1.67,2.07h-.9l3.34-4.15ZM120.59,139.57h-.26l1.67-2.07h-.4l-1.67,2.07h-.21l1.67-2.07h-.03l.53-.66h-.31l-2.2,2.73h-.24l3.34-4.15h.54l1.67-2.07h.72l-1.67,2.07h.73l-3.34,4.15h-.23l2.2-2.73h-.31l-2.2,2.73ZM125.33,141.61h-.54l1.14-1.41h.54l-1.14,1.41ZM137.34,139.57h-.41l3.34-4.15h.27l1.67-2.07h.04c0,.22,0,.44.01.66,0,.16,0,.33,0,.49l-.74.92h.36l-3.34,4.15h-.43l1.67-2.07h-.25l1.95-2.42h-.58l-.28.35h.05l-3.34,4.15ZM113.33,139.57h-.13l3.34-4.15h.64l1.67-2.07h.64l-1.67,2.07h.61l-3.34,4.15h-.12l2.2-2.73h-.42l-2.2,2.73h-.15l1.67-2.07h-.51l-1.67,2.07h-.1l2.2-2.73h-.45l-2.2,2.73ZM138.19,143.67l-.54.67h-.23l.77-.96c0,.1,0,.19,0,.29ZM111.79,137.5h-.41l-1.67,2.07h-.06l1.67-2.07h-.18l3.34-4.15h.66l-1.67,2.07h.13l-3.34,4.15h-.03l2.2-2.73h-.1l-.53.66ZM110.92,139.57h-.08l3.34-4.15h.11l1.67-2.07h.64l-3.34,4.15h-.12l-1.67,2.07h-.05l1.67-2.07h-.46l.53-.66h-.03l-2.2,2.73ZM112.12,139.57h-.1l3.34-4.15h.41l1.67-2.07h.58l-3.34,4.15h-.33l-1.67,2.07h-.08l1.67-2.07h-.17l.53-.66h-.3l-2.2,2.73ZM138.19,144.34h-.16l.16-.2c0,.07,0,.13,0,.2ZM138.55,81.98l.52-.65c-.08.21-.15.43-.22.65h-.3ZM94.79,142.27l-2.58,3.2c0-.21,0-.41,0-.62l2.08-2.59h.5ZM131.43,91.34l5.53-6.87h1.16c-.01.05-.03.1-.04.15-.01.04-.02.09-.03.13l-5.3,6.59h-1.31ZM114.36,146.42h-.52l2.2-2.73h-.34l1.14-1.41h4.1v1.97l-1.75,2.17h-.61l2.2-2.73h-.6l-2.2,2.73h-.58l2.2-2.73h-.62l-2.2,2.73h-.56l2.2-2.73h-.65l-2.2,2.73h-.54l2.2-2.73h-.67l-2.2,2.73ZM96.69,133.35h.92l-3.34,4.15h-.92l3.34-4.15ZM125.01,144.34h-.04l3.34-4.15h.58l-3.34,4.15h-.01l2.2-2.73h-.54l-2.2,2.73ZM134.51,96.57l1.87-2.33c0,.08-.01.15-.01.23,0,.24-.04.48-.06.72,0,.01,0,.03,0,.04l-1.08,1.34h-.72ZM137.59,81.98l2.11-2.63s.06.1.06.16c0,.06-.01.12-.04.17-.11.2-.19.41-.28.62l-1.35,1.68h-.5ZM133.84,91.34l3.68-4.58c-.15.64-.29,1.29-.4,1.95-.02.09-.03.19-.05.28l-1.89,2.35h-1.35ZM132.45,101.8h-.16l1.95-2.42h-.45l-1.95,2.42h-.27l3.34-4.15h.88l-3.34,4.15ZM139.31,139.57l1.67-2.07h-.22l1.6-1.99c.02.12.02.24.02.36,0,.15,0,.3,0,.45l-2.62,3.25h-.45ZM126.22,144.34h-.06l3.34-4.15h.61l-3.34,4.15h-.03l2.2-2.73h-.51l-2.2,2.73ZM134.68,144.34h-.22l3.34-4.15h.76l-3.34,4.15h-.19l2.2-2.73h-.36l-2.2,2.73ZM135.89,144.34h-.24l3.34-4.15h.78l-1.38,1.71c-.09.04-.16.12-.17.2,0,0,0,0,0,.01l-1.79,2.22h-.21l2.2-2.73h-.34l-2.2,2.73ZM132.26,144.34h-.17l3.34-4.15h.72l-3.34,4.15h-.14l2.2-2.73h-.4l-2.2,2.73ZM133.47,144.34h-.19l3.34-4.15h.74l-3.34,4.15h-.17l2.2-2.73h-.38l-2.2,2.73ZM131.05,144.34h-.15l3.34-4.15h.7l-3.34,4.15h-.12l2.2-2.73h-.42l-2.2,2.73ZM128.63,144.34h-.11l3.34-4.15h.65l-3.34,4.15h-.08l2.2-2.73h-.47l-2.2,2.73ZM127.42,144.34h-.08l3.34-4.15h.63l-3.34,4.15h-.05l2.2-2.73h-.49l-2.2,2.73ZM129.84,144.34h-.13l3.34-4.15h.67l-3.34,4.15h-.1l2.2-2.73h-.45l-2.2,2.73ZM122.3,81.98l2.55-3.17h.03l-2.55,3.17h-.03ZM139.83,125.41l1.95-2.42c0,.18,0,.37,0,.55l-1.5,1.86h-.45ZM137.74,114.44h.9l-4.52,5.62h-.9l4.52-5.62ZM139.82,114.44l-4.52,5.62h-.87l4.52-5.62h.87ZM141.13,108.75c.02.18.04.37.04.55,0,.24,0,.48,0,.72l-.08.1h-1.07l1.1-1.37ZM141.01,125.41l.8-.99c.01.15.02.3.05.44,0,.02,0,.05,0,.07l-.38.47h-.47ZM141.01,114.44l-4.52,5.62h-.85l4.52-5.62h.85ZM133.78,125.41l1.57-2.71h1.07l-2.18,2.71h-.45ZM138.05,120.05l3.37-4.19c0,.09,0,.18,0,.26l-.98,1.21h.31l.69-.86c0,.1.02.2.03.3l-2.63,3.27h-.81ZM136.84,120.05l4.52-5.62h.02c0,.08.01.16.02.25l-2.14,2.66h.29l1.86-2.31c0,.12,0,.24,0,.37l-3.75,4.65h-.83ZM135.08,125.41l2.18-2.71h.36l-2.18,2.71h-.36ZM138.64,125.41l2.18-2.71h.43l-2.18,2.71h-.43ZM133.78,131.02l1.95-2.42h-.13l1.39-1.72h.21v1.16l-.45.56h-.58l-1.95,2.42h-.43ZM132.57,131.02l1.95-2.42h-.38l1.39-1.72h1.12l-1.39,1.72h-.29l-1.95,2.42h-.45ZM121.16,110.12l4.52-5.62h.15l1.1-1.37h.24l-1.1,1.37h.39l-4.52,5.62h-.78ZM131.36,131.02l1.95-2.42h-.63l1.39-1.72h1.1l-3.34,4.15h-.47ZM139.26,120.05l2.27-2.82c0,.07,0,.14,0,.2,0,.25,0,.51,0,.76l-1.5,1.86h-.78ZM136.26,125.41l2.18-2.71h.38l-2.18,2.71h-.38ZM137.45,125.41l2.18-2.71h.41l-2.18,2.71h-.41ZM136.2,131.02l1-1.24v.09l-.92,1.15h-.08ZM136.57,131.02l.63-.78v.02l-.61.76h-.02ZM135.11,131.02l2.09-2.6v.36l-1.8,2.24h-.29ZM93.44,131.02h-.7l1.92-2.38h-.11l4.52-5.62h.02l-2.34,2.91h.51l2.34-2.91h.08l-3.1,3.86h.21l-3.34,4.15ZM88.38,128.23c0-.37.01-.73.07-1.1l.21-.26h.04l3.1-3.86h.15l-2.34,2.91h.38l2.34-2.91h.21l-3.1,3.86h.03l-1.09,1.36ZM92.5,120.05h-.54l4.52-5.62h1.16l-4.52,5.62h-.13l3.44-4.27h-.49l-3.44,4.27ZM102.05,123.01l-4.52,5.62h-.56l2.18-2.71h.53l2.34-2.91h.03ZM104.25,115.78l1.08-1.35h1.03l-4.52,5.62h-.85l3.44-4.27h-.18ZM99.07,84.47h.28l-5.53,6.87h-.12c-.04-.27-.08-.54-.13-.81-.02-.14-.05-.27-.08-.41l4.54-5.64h.47l-3.23,4.01h.56l3.23-4.01ZM101.04,84.47h.73l-5.53,6.87h-1.27l5.53-6.87h.02l-3.23,4.01h.52l3.23-4.01ZM127.91,103.13l-1.9,2.37h-.27l1.9-2.37h.27ZM91.08,80.72c-.08-.2-.16-.4-.25-.6-.01-.03-.02-.06-.04-.1l.86-1.07c.13-.05.26-.09.38-.14h.57l-1.53,1.9ZM103.85,120.05h-.09l4.52-5.62h.98l-4.52,5.62h-.55l3.44-4.27h-.34l-3.44,4.27ZM110.47,131.02h-.17l3.34-4.15h.79l-3.34,4.15h-.28l1.95-2.42h-.34l-1.95,2.42ZM109.29,131.02h-.44l3.34-4.15h.77l-3.34,4.15h-.01l1.95-2.42h-.31l-1.95,2.42ZM116.96,139.57h-.19l1.67-2.07h0l3.34-4.15h.68l-1.67,2.07h.06l-3.34,4.15h-.17l1.67-2.07h-.38l-1.67,2.07ZM118.17,139.57h-.22l3.34-4.15h.27l1.67-2.07h.7l-3.34,4.15h-.21l-1.67,2.07h-.19l1.67-2.07h-.3l.53-.66h-.06l-2.2,2.73ZM129.46,131.02h-.19l3.34-4.15h1.08l-3.34,4.15h-.2l1.95-2.42h-.69l-1.95,2.42ZM123.53,131.02h-.09l3.34-4.15h.99l-3.34,4.15h-.32l1.95-2.42h-.58l-1.95,2.42ZM140.47,120.05l1.09-1.36c0,.08,0,.16.02.24.04.2.05.41.06.61l-.41.51h-.76ZM109.42,135.43h.41l1.67-2.07h.7l-3.34,4.15h-.7l.53-.66h-.41l1.14-1.41ZM116.41,131.02h-.27l3.34-4.15h.88l-3.34,4.15h-.16l1.95-2.42h-.45l-1.95,2.42ZM120.32,133.35h.66l-1.67,2.07h.33l-3.34,4.15h-.14l2.2-2.73h-.19l-.53.66h-.21l-1.67,2.07h-.17l1.67-2.07h-.27l3.34-4.15ZM123.5,103.13l-1.9,2.37h-.13l1.9-2.37h.13ZM121.23,141.61l1.14-1.41h.47l-1.14,1.41h-.47ZM122.42,141.61l1.14-1.41h.5l-1.14,1.41h-.5ZM120.05,141.61l1.14-1.41h.45l-1.14,1.41h-.45ZM119.78,146.42l1.17-1.45v.78l-.54.67h-.63ZM124.74,140.2h.52l-1.14,1.41h-.52l1.14-1.41ZM112.66,146.42l2.2-2.73h-.34l1.14-1.41h.9l-1.14,1.41h-.06l-2.2,2.73h-.5ZM139.43,141.84l.19-.23h-.31l-.19.23s-.07,0-.11,0c-.05,0-.1,0-.16,0l1.33-1.66h.81l-1.33,1.65c-.08,0-.15,0-.23,0ZM140.49,139.57l1.67-2.07h-.2l.42-.53c0,.27.01.53.04.79l-1.45,1.8h-.47ZM136.84,144.34l1.35-1.68s0,.03,0,.04c0,.09,0,.19,0,.28l-1.09,1.35h-.26ZM123.78,144.34l3.34-4.15h.56l-1.14,1.41h-.55l-2.2,2.73h-.02ZM104.01,146.42l3.34-4.15h.74l-1.14,1.41h-.06l-2.2,2.73h-.68ZM105.54,146.42l2.2-2.73h-.34l1.14-1.41h.76l-1.14,1.41h-.06l-2.2,2.73h-.36ZM141.68,139.57l.81-1s0,.07,0,.11c0,.17,0,.33,0,.5l-.32.39h-.5ZM102.83,146.42l3.34-4.15h.72l-3.34,4.15h-.72ZM100.45,146.42l3.34-4.15h.67l-3.34,4.15h-.67ZM101.64,146.42l3.34-4.15h.7l-3.34,4.15h-.7ZM109.1,146.42l2.2-2.73h-.34l1.14-1.41h.83l-1.14,1.41h-.06l-2.2,2.73h-.43ZM106.72,146.42l2.2-2.73h-.34l1.14-1.41h.78l-1.14,1.41h-.06l-2.2,2.73h-.38ZM99.79,81.98h-1.02l2.55-3.17h1.02l-2.55,3.17ZM111.47,146.42l2.2-2.73h-.34l1.14-1.41h.87l-1.14,1.41h-.06l-2.2,2.73h-.47ZM107.91,146.42l2.2-2.73h-.34l1.14-1.41h.81l-1.14,1.41h-.06l-2.2,2.73h-.41ZM133.36,84.47l-5.53,6.87h-1.24l5.53-6.87h1.24ZM128.45,84.47l-5.53,6.87h-1.16l5.53-6.87h1.16ZM142.28,135.08l.03-.03s0,.02,0,.03h-.03ZM130.1,92.42l-3.34,4.15h-.56l3.34-4.15h.56ZM99.27,146.42l3.34-4.15h.65l-3.34,4.15h-.65ZM125.01,96.57l3.34-4.15h.54l-3.34,4.15h-.54ZM130.9,84.47l-5.53,6.87h-1.2l5.53-6.87h1.2ZM121.09,84.47l-5.53,6.87h-1.05l5.53-6.87h1.05ZM107.17,76.51l-.06.07h-1.01l.49-.6c.18.19.37.38.58.53ZM103.96,78.81l-2.55,3.17h-1.05l2.55-3.17h1.05ZM113.11,91.34h-.96l5.53-6.87h.96l-5.53,6.87ZM125.99,84.47l-5.53,6.87h-1.13l5.53-6.87h1.13ZM136.72,100.16l-1.32,1.64h-.7l1.9-2.36c.04.24.08.48.12.72ZM136.59,99.38h-.15l.13-.16c0,.05.02.11.03.16ZM131.31,92.42l-3.34,4.15h-.58l3.34-4.15h.58ZM129.38,103.13l-1.9,2.37h-.31l1.9-2.37h.31ZM136.59,101.8h-.64l.87-1.08c.04.22.07.43.12.65l-.35.43ZM126.52,101.8h-.28l1.95-2.42h-.34l-1.95,2.42h-.17l3.34-4.15h.79l-3.34,4.15ZM132.52,92.42l-3.34,4.15h-.61l3.34-4.15h.61ZM127.94,104.5l-4.52,5.62h-.8l4.52-5.62h.12l1.1-1.37h.29l-1.1,1.37h.4ZM131.34,97.65l-3.34,4.15h-.56l1.95-2.42h-.26l1.39-1.72h.81ZM110.28,146.42l2.2-2.73h-.34l1.14-1.41h.85l-1.14,1.41h-.06l-2.2,2.73h-.45ZM131.44,99.38h-.02l-1.95,2.42h-.81l1.95-2.42h0l1.39-1.72h.83l-1.39,1.72ZM134.31,97.65l-1.39,1.72h-.32l-1.95,2.42h-.54l3.34-4.15h.86ZM136.37,97.65c.01.33.05.66.1.98l-2.55,3.16h-.44l1.95-2.42h-.47l1.39-1.72h0ZM141.23,141.84l1.28-1.59c0,.28.02.55.08.82,0,.04,0,.08,0,.13l-.51.63c-.13,0-.26,0-.38,0-.16,0-.32,0-.47,0ZM134.94,92.42l-3.34,4.15h-.65l3.34-4.15h.65ZM140.8,141.61h-.29l-.19.23c-.09,0-.19,0-.28,0l1.32-1.65h.83l-1.32,1.65c-.08,0-.17,0-.25,0l.19-.23ZM129.76,96.57l3.34-4.15h.63l-3.34,4.15h-.63ZM137.69,78.81l-2.55,3.17h-.42l2.55-3.17h.42ZM136.71,78.81l-2.55,3.17h-.39l2.55-3.17h.39ZM130.28,91.34h-1.27l5.53-6.87h1.27l-5.53,6.87ZM135.72,78.81l-2.55,3.17h-.36l2.55-3.17h.36ZM136.54,92.63c-.04.32-.09.64-.12.97l-2.4,2.98h-.7l3.22-4s0,.04,0,.06ZM136.28,96.57h-.58l.57-.71c0,.24,0,.47,0,.71ZM136.71,91.34h-.45l.53-.66c-.03.19-.06.39-.07.58,0,.03,0,.06-.01.08ZM95.48,142.27h.52l-3.34,4.15h-.45v-.09l3.27-4.06ZM132.14,96.57l3.34-4.15h.67l-3.34,4.15h-.67ZM92.37,142.27l-.17.21c0-.07,0-.14,0-.21h.17ZM93.11,142.27h.47l-1.37,1.7c0-.2,0-.39,0-.59l.89-1.11ZM135.68,81.98l2.55-3.17h.16s.07.02.1.04c.04.01.08.03.12.05l-2.49,3.09h-.45ZM137.11,81.98h-.48l2.37-2.94c.12.05.24.09.36.14l-2.26,2.8ZM130.9,81.98l2.55-3.17h.3l-2.55,3.17h-.3ZM123.11,76.58c.22-.13.41-.3.58-.48.18-.19.35-.38.51-.59,0,0,0-.01.01-.02l-.63,1.09h-.47ZM91.87,137.5l3.34-4.15h.95l-3.34,4.15h-.95ZM94.83,137.5l3.34-4.15h.9l-3.34,4.15h-.9ZM101.51,76.58l1.38-1.71c.39-.14.77-.28,1.16-.42.06-.02.11-.04.17-.06l-1.77,2.19h-.94ZM88.15,133.35h.71l-.72.89c0-.27,0-.54,0-.82,0-.03,0-.05,0-.08ZM100.53,133.35l-1.67,2.07h.22l-1.07,1.32v-.27l-.82,1.02h-.88l3.34-4.15h.88ZM95.7,146.42l3.34-4.15h.58l-3.34,4.15h-.58ZM96.89,146.42l3.34-4.15h.61l-3.34,4.15h-.61ZM93.33,146.42l3.34-4.15h.54l-3.34,4.15h-.54ZM94.52,146.42l3.34-4.15h.56l-3.34,4.15h-.56ZM127.84,78.81l-2.55,3.17h-.12l2.55-3.17h.12ZM131.78,78.81l-2.55,3.17h-.24l2.55-3.17h.24ZM132.76,78.81l-2.55,3.17h-.27l2.55-3.17h.27ZM125.87,78.81l-2.55,3.17h-.06l2.55-3.17h.06ZM130.79,78.81l-2.55,3.17h-.21l2.55-3.17h.21ZM98.08,146.42l3.34-4.15h.63l-3.34,4.15h-.63ZM126.85,78.81l-2.55,3.17h-.09l2.55-3.17h.09ZM134.74,78.81l-2.55,3.17h-.33l2.55-3.17h.33ZM128.82,78.81l-2.55,3.17h-.15l2.55-3.17h.15ZM129.81,78.81l-2.55,3.17h-.18l2.55-3.17h.18ZM120.97,97.65l-3.34,4.15h-.66l3.34-4.15h.66ZM100.72,78.81l-2.55,3.17h-.99l2.55-3.17h.99ZM99.1,78.81l-2.55,3.17h-.96l2.55-3.17h.96ZM107.21,78.81l-2.55,3.17h-1.11l2.55-3.17h1.11ZM105.59,78.81l-2.55,3.17h-1.08l2.55-3.17h1.08ZM104.19,84.47l-5.53,6.87h-1.24l2.3-2.86h.05l3.23-4.01h1.19ZM97.48,78.81l-2.55,3.17h-.93l2.55-3.17h.93ZM94.91,120.05l4.52-5.62h1.12l-1.08,1.35h-.28l-3.44,4.27h-.83ZM102,114.44l-1.08,1.35h-.11l-3.44,4.27h-.98l4.52-5.62h1.09ZM89.77,131.02l3.34-4.15h.43l3.1-3.86h.06l-2.34,2.91h.47l2.34-2.91h.12l-4.52,5.62h-.34l-1.92,2.38h-.75ZM88.36,129.3c.01-.07,0-.15,0-.22l.36-.45h-.23l4.52-5.62h.13l-2.34,2.91h.4l2.34-2.91h.19l-3.1,3.86h.31l-2.66,3.31c.01-.29.03-.59.09-.88ZM92.4,81.98l2.55-3.17h.9l-2.55,3.17h-.9ZM121.64,92.42l-3.34,4.15h-.41l3.34-4.15h.41ZM124.06,92.42l-3.34,4.15h-.45l3.34-4.15h.45ZM122.85,92.42l-3.34,4.15h-.43l3.34-4.15h.43ZM125.26,92.42l-3.34,4.15h-.47l3.34-4.15h.47ZM126.47,92.42l-3.34,4.15h-.5l3.34-4.15h.5ZM115.43,81.98h-5.52l2.55-3.17h5.52l-2.55,3.17ZM120.43,92.42l-3.34,4.15h-.38l3.34-4.15h.38ZM109.7,91.34l5.53-6.87h1.05l-5.53,6.87h-1.05ZM114.67,96.57h-5.96l3.34-4.15h5.96l-3.34,4.15ZM119.22,92.42l-3.34,4.15h-.36l3.34-4.15h.36ZM102.58,120.05l3.44-4.27h-.3l1.08-1.35h1l-4.52,5.62h-.7ZM122.03,103.13l-1.9,2.37h-.09l1.9-2.37h.09ZM122.76,103.13l-1.1,1.37h.38l-4.52,5.62h-.72l4.52-5.62h.22l1.1-1.37h.11ZM120.57,104.5l-4.52,5.62h-.69l4.52-5.62h.25l1.1-1.37h.07l-1.1,1.37h.38ZM114.07,120.05l4.52-5.62h.83l-4.52,5.62h-.83ZM120.87,114.44l-4.52,5.62h-.8l4.52-5.62h.8ZM112.02,131.02l1.95-2.42h-.26l1.39-1.72h.81l-3.34,4.15h-.56ZM104.21,128.63l2.18-2.71h.43l-2.18,2.71h-.43ZM108.18,120.05l4.52-5.62h.92l-4.52,5.62h-.92ZM122.45,97.65l-3.34,4.15h-.68l3.34-4.15h.68ZM123.94,97.65l-3.34,4.15h-.7l3.34-4.15h.7ZM107.38,131.02l1.92-2.38h-.25l2.18-2.71h.45l-.55.95h.33l-1.17,1.45-.18.31h-.1l-1.92,2.38h-.72ZM105.64,125.92l-2.18,2.71h-.45l2.18-2.71h.45ZM94.59,126.87h.16l3.1-3.86h.04l-2.34,2.91h.49l2.34-2.91h.1l-4.52,5.62h-.06l-1.92,2.38h-.72l3.34-4.15ZM127.68,92.42l-3.34,4.15h-.52l3.34-4.15h.52ZM88.91,137.5l3.34-4.15h.99l-3.34,4.15h-.99ZM99.39,120.05l3.44-4.27h-.05l1.08-1.35h1.05l-4.52,5.62h-.99ZM104.46,131.02l3.34-4.15h.25l.76-.95h.38l-.76.95h.07l-3.34,4.15h-.7ZM105.92,131.02l1.92-2.38h0l2.18-2.71h.36l-.76.95h.36l-3.34,4.15h-.72ZM101.54,131.02l3.34-4.15h.66l-3.34,4.15h-.66ZM103,131.02l3.34-4.15h.5l.76-.95h.41l-2.18,2.71h-.23l-1.92,2.38h-.68ZM93.44,120.05l4.52-5.62h1.14l-1.08,1.35h-.45l-3.44,4.27h-.69ZM105.02,136.84l-.53.66h-.77l3.34-4.15h.77l-1.67,2.07h.17l-1.14,1.41h-.17ZM105.2,137.5l3.34-4.15h.75l-3.34,4.15h-.75ZM103.03,137.5h-.79l.53-.66h-.42l1.14-1.41h.42l1.67-2.07h.79l-1.67,2.07h.43l-1.14,1.41h-.43l-.53.66ZM107.22,136.84h-.12l1.14-1.41h.12l1.67-2.07h.72l-3.34,4.15h-.72l.53-.66ZM100.76,137.5l.53-.66h-.13l1.14-1.41h.13l1.67-2.07h.81l-3.34,4.15h-.81ZM107.27,139.57l3.34-4.15h.56l-1.14,1.41h-.55l-2.2,2.73h-.02ZM115.3,141.61l1.14-1.41h.36l-1.14,1.41h-.36ZM116.49,141.61l1.14-1.41h.38l-1.14,1.41h-.38ZM117.67,141.61l1.14-1.41h.41l-1.14,1.41h-.41ZM99.28,137.5l3.34-4.15h.83l-3.34,4.15h-.83ZM114.52,140.2h1.07l-1.07,1.32v-1.32ZM97.8,137.5l3.34-4.15h.86l-3.34,4.15h-.86ZM88.02,136.76l2.75-3.41h1.01l-3.34,4.15h-.45c.02-.14.02-.28.03-.42,0-.11,0-.21,0-.32ZM122.08,101.8h-.72l3.34-4.15h.72l-3.34,4.15ZM94.22,131.02l1.92-2.38h-.39l2.18-2.71h.53l2.34-2.91h.05l-3.1,3.86h.48l-3.34,4.15h-.68ZM90.39,137.5l3.34-4.15h.97l-3.34,4.15h-.97ZM98.66,131.02l3.34-4.15h0l.76-.95h.5l-.76.95h.08l-3.34,4.15h-.58ZM102.01,128.63h-.21l2.18-2.71h.47l-.76.95h.37l-3.34,4.15h-.64l1.92-2.38ZM95.7,131.02l3.34-4.15h.55l.76-.95h.53l2.34-2.91h.01l-4.52,5.62h-.43l-1.92,2.38h-.66ZM97.18,131.02l3.34-4.15h.28l.76-.95h.52l-2.18,2.71h-.16l-1.92,2.38h-.64ZM90.21,128.63h-.51l4.52-5.62h.11l-2.34,2.91h.42l2.34-2.91h.17l-3.1,3.86h.51l3.1-3.86h.08l-2.34,2.91h.45l2.34-2.91h.14l-4.52,5.62h-.61l-1.92,2.38h-.77l1.92-2.38ZM123.77,114.44l-4.52,5.62h-.76l4.52-5.62h.76ZM125.23,114.44l-4.52,5.62h-.74l4.52-5.62h.74ZM128.13,114.44l-4.52,5.62h-.69l4.52-5.62h.69ZM126.68,114.44l-4.52,5.62h-.72l4.52-5.62h.72ZM129.58,114.44l-4.52,5.62h-.67l4.52-5.62h.67ZM117.02,120.05l4.52-5.62h.78l-4.52,5.62h-.78ZM126.9,97.65l-1.39,1.72h-.03l-1.95,2.42h-.72l3.34-4.15h.75ZM126.44,103.13l-1.9,2.37h-.22l1.9-2.37h.22ZM128.38,97.65l-3.34,4.15h-.01l1.95-2.42h-.31l-1.95,2.42h-.44l3.34-4.15h.77ZM124.99,104.5l-4.52,5.62h-.76l4.52-5.62h.17l1.1-1.37h.2l-1.1,1.37h.39ZM118.86,141.61l1.14-1.41h.43l-1.14,1.41h-.43ZM124.76,139.57l1.67-2.07h.09l3.34-4.15h-.79l-1.67,2.07h-.17l-3.34,4.15h.87ZM127.57,135.43l.28-.35h.34l-.28.35h-.34ZM133.71,139.57l1.67-2.07h.02l1.95-2.42h.01l1.39-1.72h-.92l-1.39,1.72h.22l-.28.35h-.77l1.67-2.07h-.9l-1.39,1.72h.47l-.28.35h-1.05l1.67-2.07h-.88l-1.67,2.07h-.92l.28-.35h.32l1.39-1.72h-.86l-1.67,2.07h-.65l.28-.35h.02l1.39-1.72h-.83l-1.39,1.72h0l-1.95,2.42h.76l-1.67,2.07h5.96ZM133.96,135.43h-.45l.28-.35h.45l-.28.35ZM134.56,139.57l1.67-2.07h-.28l3.34-4.15h.95l-1.39,1.72h-.31l-.28.35h0l-3.34,4.15h-.36ZM123.55,139.57l3.34-4.15h-.18l1.67-2.07h-.77l-3.34,4.15h.1l-1.67,2.07h.85ZM126.39,135.43l.28-.35h.31l-.28.35h-.31ZM140.11,111.07l-11.54,14.45h-4.12l11.54-14.45h4.12ZM131.03,114.44l-4.52,5.62h-.65l4.52-5.62h.65ZM132.48,114.44l-4.52,5.62h-.63l4.52-5.62h.63ZM141.06,107.81c0,.14.02.28.03.42l-.44.55h.05l-1.08,1.35h-1.05l2.48-3.08c0,.26,0,.51,0,.77ZM136.13,139.57h-.38l1.67-2.07h0l3.34-4.15h.97l-3.34,4.15h-.04l1.95-2.42h-.56l-.28.35h.02l-3.34,4.15ZM117.33,42.02c.05-.36.1-.71.15-1.07,0-.02,0-.04,0-.06l-3.42-4.25h-1.07l4.34,5.39ZM111.54,36.63l4.52,5.62h.99l-3.44-4.27h.05l-1.08-1.35h-1.05ZM108.6,25.33l1.9,2.37h.11l3.72,4.62h.24l-2.34-2.91h.29l2.34,2.91h.3l-4.52-5.62h-.09l-1.1-1.37h-.85ZM112.92,27.69h.11l3.72,4.62h.19l-2.34-2.91h.34l2.34,2.91h.25l-4.52-5.62h-.09l-1.1-1.37h-.81l1.9,2.37ZM109.8,25.33l1.9,2.37h.11l3.72,4.62h.22l-2.34-2.91h.31l2.34,2.91h.28l-4.52-5.62h-.09l-1.1-1.37h-.83ZM108.62,19.85l3.34,4.15h.77l-3.34-4.15h-.77ZM109.17,61.77l-3.34-4.15h-.56l1.14,1.41h.55l2.2,2.73h.02ZM110.09,36.63l4.52,5.62h.85l-3.44-4.27h.18l-1.08-1.35h-1.03ZM104.28,36.63l4.52,5.62h.26l-3.44-4.27h.29l3.44,4.27h.38l-4.52-5.62h-.94ZM108.64,36.63l4.52,5.62h.7l-3.44-4.27h.3l-1.08-1.35h-1ZM107.19,36.63l4.52,5.62h.55l-3.44-4.27h.34l3.44,4.27h.09l-4.52-5.62h-.98ZM105.73,36.63l4.52,5.62h.41l-3.44-4.27h.31l3.44,4.27h.24l-4.52-5.62h-.96ZM116.66,27.69l2.24,2.78s.01-.09.02-.13l-.75-.94h.4l.41.51c0-.07.02-.13.03-.2l-2.43-3.02h-.09l-1.1-1.37h-.74l1.9,2.37h.11ZM113.43,25.33l1.9,2.37h.11l3.27,4.07c0-.05.01-.11.02-.16l-1.77-2.2h.38l1.44,1.79c.01-.07.02-.15.03-.22l-3.45-4.28h-.09l-1.1-1.37h-.76ZM112.22,25.33l1.9,2.37h.11l3.72,4.62h.17l-2.34-2.91h.36l2.34,2.91h.16s0-.05.01-.08l-4.46-5.54h-.09l-1.1-1.37h-.78ZM111.93,18.77h.85l-3.34-4.15h-.85l3.34,4.15ZM114.87,23.99h.81l-3.34-4.15h-.81l3.34,4.15ZM117.96,37.39c.04-.25.07-.51.1-.76h-.71l.61.76ZM102.59,6.67l5.53,6.87h1.09l-5.53-6.87h-1.09ZM111.6,18.77l-3.34-4.15h-.87l3.34,4.15h.87ZM114.44,36.63l1.08,1.35h.11l1.92,2.38c.05-.35.09-.7.14-1.04l-2.16-2.68h-1.09ZM113.41,23.99h.79l-3.34-4.15h-.79l3.34,4.15ZM115.89,36.63l1.08,1.35h.28l.53.65c.04-.29.08-.59.12-.88l-.9-1.12h-1.12ZM103.11,61.77h.13l-3.34-4.15h-.64l-1.67-2.07h-.64l1.67,2.07h-.61l3.34,4.15h.12l-2.2-2.73h.42l2.2,2.73h.15l-1.67-2.07h.51l1.67,2.07h.1l-2.2-2.73h.45l2.2,2.73ZM92,47.71l-7.03-8.8c.04.34.09.68.13,1.02.1.89.25,1.78.38,2.67.13.86.26,1.72.39,2.59l2.02,2.52h4.12ZM98.81,59.69h.21l1.67,2.07h.17l-1.67-2.07h.27l-3.34-4.15h-.66l1.67,2.07h-.33l3.34,4.15h.14l-2.2-2.73h.19l.53.66ZM88.63,53.21l-2.02-2.51c.03.23.07.47.1.7l1.45,1.81h.46ZM87.27,55.55c.03.2.06.39.08.59.01.08.03.16.05.23.04.12.13.2.26.23.14.02.28.04.42.04.06,0,.11,0,.17,0l-.88-1.09h-.1ZM106.42,48.11h-.36l.76.95h-.36l3.34,4.15h.72l-1.92-2.38h0l-2.18-2.71ZM103.87,53.21h.56l-1.95-2.42h.26l-1.39-1.72h-.81l3.34,4.15ZM86.9,52.93c0,.07.02.14.03.22l.05.06h.19l-.28-.35s0,.05,0,.07ZM97.03,36.63l4.52,5.62h.83l-4.52-5.62h-.83ZM105.97,53.21h.17l-3.34-4.15h-.79l3.34,4.15h.28l-1.95-2.42h.34l1.95,2.42ZM107.02,57.62h-.41l-1.67-2.07h-.7l3.34,4.15h.7l-.53-.66h.41l-1.14-1.41ZM105.32,42.25l-4.52-5.62h-.87l4.52,5.62h.87ZM98.48,36.63l4.52,5.62h.85l-4.52-5.62h-.85ZM104.66,59.69h.41l1.67,2.07h.06l-1.67-2.07h.18l-3.34-4.15h-.66l1.67,2.07h-.13l3.34,4.15h.03l-2.2-2.73h.1l.53.66ZM105.53,61.77h.08l-3.34-4.15h-.11l-1.67-2.07h-.64l3.34,4.15h.12l1.67,2.07h.05l-1.67-2.07h.46l-.53-.66h.03l2.2,2.73ZM107.16,53.21h.44l-3.34-4.15h-.77l3.34,4.15h.01l-1.95-2.42h.31l1.95,2.42ZM104.32,61.77h.1l-3.34-4.15h-.41l-1.67-2.07h-.58l3.34,4.15h.33l1.67,2.07h.08l-1.67-2.07h.17l-.53-.66h.3l2.2,2.73ZM106.12,59.69h.16l1.67,2.07h.04l-1.67-2.07h.48l-3.34-4.15h-.68l1.67,2.07h-.38l3.34,4.15h.01l-2.2-2.73h.37l.53.66ZM99.65,62.39l.22.27c.12,0,.24,0,.36,0l-.22-.27h-.36ZM105,6.67l5.53,6.87h1.13l-5.53-6.87h-1.13ZM85.12,32.31l-1.33-1.65c.06.38.12.76.17,1.14.01.1.03.2.04.3l.17.22h.94ZM94.1,53.21h.37l-3.34-4.15h-.97l3.34,4.15h.04l-1.95-2.42h.56l1.95,2.42ZM98.94,61.77h.17l-1.67-2.07h.38l1.67,2.07h.19l-1.67-2.07h0l-3.34-4.15h-.68l1.67,2.07h-.06l3.34,4.15ZM89.11,42.25l-4.44-5.52c.05.32.09.63.14.95l3.68,4.57h.63ZM108.21,57.62h-.12l-1.67-2.07h-.72l3.34,4.15h.72l-.53-.66h.12l-1.14-1.41ZM113.97,32.31l-4.52-5.62h-.09l-1.1-1.37h-.87l1.9,2.37h.11l3.72,4.62h.85ZM90.01,25.33l1.9,2.37h.22l-1.9-2.37h-.22ZM86.58,32.31l-3.12-3.88c.07.47.14.94.22,1.41l1.99,2.47h.92ZM96.74,32.31l-4.52-5.62h-.17l-1.1-1.37h-.2l1.1,1.37h-.39l4.52,5.62h.76ZM108.17,26.69l-1.1-1.37h-.9l1.9,2.37h.11l3.72,4.62h.87l-4.52-5.62h-.09ZM113.44,50.83l-2.18-2.71h-.45l2.18,2.71h.45ZM114.9,53.21l-3.34-4.15h-.66l3.34,4.15h.66ZM115.85,53.21c.02-.18.05-.36.07-.54l-1.48-1.84h.21l-2.18-2.71h-.47l.76.95h-.37l3.34,4.15h.13ZM114.45,49.06h0l-.76-.95h-.5l.76.95h-.08l2.18,2.71c.03-.2.05-.41.08-.61l-1.68-2.09ZM109.62,48.11l2.18,2.71h.43l-2.18-2.71h-.43ZM92.92,53.21h.09l-3.34-4.15h-.99l3.34,4.15h.32l-1.95-2.42h.58l1.95,2.42ZM92.92,59.69h.06l1.67,2.07h.28l-1.67-2.07h.37l-3.34-4.15h-.75l1.39,1.72h.03l.28.35h-.48l3.34,4.15h.25l-2.2-2.73h.23l.53.66ZM83.1,25.33h-.11c.02.1.03.2.05.31.1.69.2,1.37.31,2.06h.07l3.72,4.62h.89l-3.72-4.62h.58l3.72,4.62h.87l-4.52-5.62h-.04l-1.1-1.37h-.42l1.1,1.37h-.29l-1.1-1.37ZM82.77,23.92s0,.05.01.08h.17l-.21-.26c0,.06.02.12.03.18ZM97.64,62.39h-.41l.22.27c.14,0,.27,0,.41,0l-.22-.27ZM114.4,45.21l2.16,2.68s0-.02,0-.04l-2.13-2.64h-.03ZM85.95,25.33h-.35l1.9,2.37h.34l3.72,4.62h.83l-4.52-5.62h-.09l-1.1-1.37h-.33l1.1,1.37h-.38l-1.1-1.37ZM95.28,32.31l-4.52-5.62h-.15l-1.1-1.37h-.24l1.1,1.37h-.39l4.52,5.62h.78ZM90.89,18.77h.54l-3.32-4.13c-.1.1-.2.2-.3.3l3.08,3.83ZM97.59,19.85h-.64l1.11,1.38h-.66l11.54,14.45h4.12l-6.38-7.99h.29l3.72,4.62h.9l-4.52-5.62h-.09l-1.1-1.37h-1.08l-1.07-1.33h.1l-3.34-4.15h-.64l1.11,1.38h-.85l-1.11-1.38h-.58l1.11,1.38h-.85l-1.11-1.38ZM89.06,18.77l-2.34-2.9c-.12.09-.24.18-.36.27l2.12,2.63h.58ZM91.41,23.99l-1.95-2.42h.31l1.95,2.42h.44l-3.34-4.15h-.77l3.34,4.15h.01ZM88.54,25.33l1.9,2.37h.27l-1.9-2.37h-.27ZM119.73,18.77h.17l-1.73-2.15c-.11-.07-.24-.14-.35-.22l1.91,2.37ZM120.6,18.34c0-.06.01-.11.01-.17l-.47-.58c-.07-.03-.14-.05-.21-.08l.67.83ZM117.86,27.69l1.21,1.5c.01-.1.03-.21.04-.31.02-.14.04-.28.06-.42l-1.42-1.77h-.09l-1.1-1.37h-.72l1.9,2.37h.11ZM118.96,27.69h.11l.19.23c.04-.23.07-.47.11-.71l-.42-.53h-.09l-1.1-1.37h-.7l1.9,2.37ZM120.52,18.77l-1.19-1.48s-.08-.03-.12-.05c-.03-.01-.05-.03-.08-.05l1.27,1.58h.12ZM120.29,19.85l.08.11s.01-.07.02-.11h-.1ZM119.19,18.77h.14l-2.2-2.73h.25c-.24-.19-.49-.38-.72-.59-.27-.26-.53-.54-.78-.82h-.04l3.34,4.15ZM116.77,18.77h.19l-2.2-2.73h.36l2.2,2.73h.22l-3.34-4.15h-.76l3.34,4.15ZM117.17,23.99l-3.34-4.15h-.83l3.34,4.15h.83ZM109.8,14.62l3.34,4.15h.25l-2.2-2.73h.29l2.2,2.73h.28l-3.34-4.15h-.83ZM111.01,14.62l3.34,4.15h.23l-2.2-2.73h.31l2.2,2.73h.26l-3.34-4.15h-.81ZM112.22,14.62l3.34,4.15h.21l-2.2-2.73h.34l2.2,2.73h.24l-3.34-4.15h-.78ZM115.65,49.06l-.76-.95h-.52l1.86,2.31c.02-.17.05-.34.07-.51.02-.11.03-.22.05-.33l-.42-.52h-.28ZM116.85,45.21h-.08l.1.13s0-.05.01-.08l-.04-.05ZM112.95,13.54h1.16l-5.51-6.84s-.02-.02-.03-.03h-1.15l5.53,6.87ZM114.45,19.85l3.34,4.15h.86l-3.34-4.15h-.86ZM113.21,45.21l3.19,3.96c.02-.2.05-.39.07-.59l-.38-.47h-.53l-2.34-2.91h-.01ZM115.64,45.21h-.05l1.12,1.4s0-.04,0-.06l-1.08-1.34ZM118.53,18.77h.19l-3.34-4.15h-.74l3.34,4.15h.17l-2.2-2.73h.38l2.2,2.73ZM119.96,23.06c.05-.32.09-.64.13-.96l-1.81-2.25h-.9l2.59,3.22ZM115.91,19.85l3.34,4.15h.57c.02-.11.03-.21.05-.32l-3.08-3.83h-.88ZM118.83,19.85l1.33,1.66c.03-.33.08-.66.13-.99l-.54-.67h-.92ZM119.48,25.33l.13.17c0-.06.02-.11.02-.17h-.16ZM118.27,25.33l1.16,1.44c.03-.24.07-.47.1-.71l-.59-.73h-.67ZM91.18,62.39l.22.27c.17,0,.35,0,.52,0l-.22-.27h-.52ZM104.3,13.54l-5.53-6.87h-.96l5.53,6.87h.96ZM96.45,62.39h-.43l.22.27c.14,0,.29,0,.43,0l-.22-.27ZM112.35,55.55h-.81l.88,1.09c.27,0,.54,0,.81,0l-.88-1.09ZM93.6,14.62l3.34,4.15h.43l-3.34-4.15h-.43ZM92.07,59.69h.1l-1.94-2.41c0,.08.01.16.01.24,0,.32,0,.63,0,.95l2.64,3.28h.85l-1.67-2.07ZM97.23,14.62l3.34,4.15h.36l-3.34-4.15h-.36ZM94.81,14.62l3.34,4.15h.41l-3.34-4.15h-.41ZM96.02,14.62l3.34,4.15h.38l-3.34-4.15h-.38ZM101.77,18.77h5.96l-3.34-4.15h-5.96l3.34,4.15ZM92.39,62.39l.22.27c.17,0,.33,0,.5,0l-.22-.27h-.5ZM95.36,6.67l5.53,6.87h1.05l-5.53-6.87h-1.05ZM95.54,61.77l-2.2-2.73h.31l2.2,2.73h.26l-1.67-2.07h.4l1.67,2.07h.21l-1.67-2.07h.03l-.53-.66h.31l2.2,2.73h.24l-3.34-4.15h-.54l-1.67-2.07h-.72l1.67,2.07h-.73l3.34,4.15h.23ZM89.97,14.62l3.34,4.15h.5l-3.34-4.15h-.5ZM88.76,14.62l3.34,4.15h.52l-3.34-4.15h-.52ZM93.99,19.85l3.34,4.15h.68l-3.34-4.15h-.68ZM92.51,19.85l3.34,4.15h.7l-3.34-4.15h-.7ZM90.94,21.57h.03l1.95,2.42h.72l-3.34-4.15h-.75l1.39,1.72ZM99.43,42.25l-4.52-5.62h-.78l4.52,5.62h.78ZM91.22,36.63l4.52,5.62h.74l-4.52-5.62h-.74ZM89.77,36.63l4.52,5.62h.72l-4.52-5.62h-.72ZM86.58,19.85l3.34,4.15h.28l-1.95-2.42h.34l1.95,2.42h.17l-3.34-4.15h-.79ZM92.67,36.63l4.52,5.62h.76l-4.52-5.62h-.76ZM95.47,19.85l3.34,4.15h.66l-3.34-4.15h-.66ZM88.32,36.63l4.52,5.62h.69l-4.52-5.62h-.69ZM93.53,13.54h1.16l-3.01-3.74c-.17.27-.34.54-.51.82l2.35,2.92ZM95.98,13.54h1.13l-4.32-5.37c-.18.24-.35.49-.52.75l3.72,4.62ZM99.52,13.54l-5.5-6.84c-.16.16-.32.32-.46.49-.04.05-.07.1-.11.14l4.99,6.2h1.09ZM95.26,62.39h-.45l.22.27c.15,0,.3,0,.45,0l-.22-.27ZM94.07,62.39h-.47l.22.27c.16,0,.32,0,.47,0l-.22-.27ZM81.87,17.81s0,.08,0,.12c0,.06.02.11.02.17l.54.67h.7l-.98-1.22s-.08.02-.11.03c-.08.03-.16.14-.16.23ZM84.16,23.99l-1.7-2.11c.01.08.03.17.04.25l1.5,1.86h.16ZM82.16,19.85s0,.02,0,.03l1.37,1.7h.32l1.95,2.42h.54l-3.34-4.15h-.84ZM83.7,17.34l1.15,1.42h.65l-1.26-1.57c-.09.03-.17.06-.26.08-.09.02-.18.04-.28.06ZM85.03,21.57l1.95,2.42h.81l-1.95-2.42h0l-1.39-1.72h-.83l1.39,1.72h.02ZM84.31,18.77l-1.07-1.32c-.21.04-.42.05-.63.06l1.02,1.27h.67ZM88.44,23.99h.56l-1.95-2.42h.26l-1.39-1.72h-.81l3.34,4.15ZM82.42,21.57h.24l1.95,2.42h.27l-2.57-3.2c.04.26.08.51.11.77ZM89.68,18.77h.56l-2.81-3.49c-.11.1-.22.2-.33.29l2.58,3.2ZM91.18,14.62l3.34,4.15h.47l-3.34-4.15h-.47ZM85.56,16.65l1.71,2.12h.61l-1.9-2.36c-.06.04-.11.08-.17.12-.08.05-.16.08-.24.12ZM90.22,12.03c-.06.08-.12.16-.17.24l1.02,1.27h1.2l-1.67-2.07c-.13.19-.25.38-.38.56ZM89.85,13.54l-.39-.48c-.13.17-.27.32-.41.48h.79ZM84.86,25.33l1.1,1.37h-.34l-1.1-1.37h-.4l1.9,2.37h.33l3.72,4.62h.85l-4.52-5.62h-.07l-1.1-1.37h-.38ZM87.07,25.33l1.9,2.37h.31l-1.9-2.37h-.31ZM92.39,14.62l3.34,4.15h.45l-3.34-4.15h-.45ZM86.68,18.77l-1.54-1.91c-.15.07-.31.14-.47.2l1.38,1.71h.63ZM88.51,26.69l4.52,5.62h.8l-4.52-5.62h-.12l-1.1-1.37h-.29l1.1,1.37h-.4ZM100.29,26.69l4.52,5.62h.63l-4.52-5.62h-.63ZM96.09,49.06l3.34,4.15h.16l-1.95-2.42h.45l1.95,2.42h.27l-3.34-4.15h-.88ZM100.44,50.79h.02l1.95,2.42h.81l-1.95-2.42h0l-1.39-1.72h-.83l1.39,1.72ZM97.57,49.06l1.39,1.72h.32l1.95,2.42h.54l-3.34-4.15h-.86ZM100.9,42.25l-4.52-5.62h-.8l4.52,5.62h.8ZM91.48,25.33l1.9,2.37h.18l-1.9-2.37h-.18ZM93.13,49.06l1.39,1.72h.01l1.95,2.42h.7l-1.95-2.42h.22l-1.39-1.72h-.92ZM85.41,36.63l4.52,5.62h.65l-4.52-5.62h-.65ZM101.32,19.85l3.34,4.15h.66l-3.34-4.15h-.66ZM94.61,49.06l3.34,4.15h.44l-1.95-2.42h.47l-1.39-1.72h-.9ZM91.65,49.06l1.39,1.72h.31l1.95,2.42h.64l-3.34-4.15h-.95ZM90.32,62.39c.04.14.14.24.29.25.04,0,.08,0,.11,0l-.2-.25h-.2ZM92.21,25.33l1.1,1.37h-.39l4.52,5.62h.74l-4.52-5.62h-.2l-1.1-1.37h-.15ZM97.74,26.69l-1.1-1.37h-.02l1.1,1.37h-.37l4.52,5.62h.67l-4.52-5.62h-.28ZM98.82,26.69l4.52,5.62h.65l-4.52-5.62h-.65ZM109.06,53.21l-1.92-2.38h.25l-2.18-2.71h-.45l.55.95h-.33l1.17,1.45.18.31h.1l1.92,2.38h.72ZM92.95,25.33l1.9,2.37h.13l-1.9-2.37h-.13ZM101.38,36.63l4.52,5.62h.89l-4.52-5.62h-.89ZM108.27,42.25l-4.52-5.62h-.92l4.52,5.62h.92ZM94.4,26.69l4.52,5.62h.72l-4.52-5.62h-.22l-1.1-1.37h-.11l1.1,1.37h-.38ZM91.03,19.85l3.34,4.15h.72l-3.34-4.15h-.72ZM95.15,25.33l1.1,1.37h-.38l4.52,5.62h.69l-4.52-5.62h-.25l-1.1-1.37h-.07ZM94.42,25.33l1.9,2.37h.09l-1.9-2.37h-.09ZM95.89,25.33l1.9,2.37h.04l-1.9-2.37h-.04ZM86.87,36.63l4.52,5.62h.67l-4.52-5.62h-.67ZM106.75,13.54l-5.53-6.87h-1.05l5.53,6.87h1.05ZM115.44,56.33c.03-.17.06-.34.08-.52l-.22-.27h-.86l.81,1.01c.09-.05.16-.12.18-.23ZM100.88,3.82c-.05,0-.1,0-.15,0l.29.35h2.66c-.1-.03-.2-.06-.3-.08-.82-.19-1.65-.31-2.5-.27ZM113.44,53.21l-3.34-4.15h-.5l-.76-.95h-.41l2.18,2.71h.23l1.92,2.38h.68ZM114.57,56.64s.09,0,.14,0l-.87-1.08h-.83l.88,1.09c.23,0,.46,0,.69,0ZM102.78,19.85l3.34,4.15h.68l-3.34-4.15h-.68ZM104.24,19.85l3.34,4.15h.7l-3.34-4.15h-.7ZM110.41,18.77l-3.34-4.15h-.9l3.34,4.15h.9ZM108.64,49.06h-.25l-.76-.95h-.38l.76.95h-.07l3.34,4.15h.7l-3.34-4.15ZM105.7,19.85l3.34,4.15h.72l-3.34-4.15h-.72ZM110.5,23.99h.75l-3.34-4.15h-.75l3.34,4.15ZM96.06,59.69l1.67,2.07h.19l-1.67-2.07h.3l-.53-.66h.06l2.2,2.73h.22l-3.34-4.15h-.27l-1.67-2.07h-.7l3.34,4.15h.21ZM90.25,60.38c0,.37,0,.74,0,1.11l.22.28h.9l-1.12-1.39ZM87.97,50.79h.17l-1.39-1.72h-.37c.02.16.05.32.07.48.02.17.05.34.07.52l.58.72h.3l1.95,2.42h.56l-1.95-2.42ZM91.13,53.21l-1.95-2.42h.42l-1.39-1.72h-1.01l1.39,1.72h0l1.95,2.42h.58ZM110.87,55.55h-.79l1.54,1.91c0-.18.01-.36.03-.54,0-.09.08-.17.16-.21l-.93-1.16ZM90.25,58.9c0,.36,0,.72,0,1.09l1.43,1.78h.87l-2.31-2.87ZM88.07,55.55l.88,1.09c.09,0,.19,0,.28,0,.16,0,.32,0,.48,0,0,0,0,0,.01,0l-.88-1.09h-.77ZM109.38,55.55h-.77l1.67,2.07h-.17l1.14,1.41h.17l.18.23c0-.32,0-.64,0-.95l-2.22-2.76ZM111.32,57.62l.29.36c0-.12,0-.24,0-.36h-.29ZM100.86,62.39l.22.27h.85v-.27h-1.07ZM107.9,55.55h-.75l3.34,4.15h.75l-3.34-4.15ZM98.82,62.39h-.38l.22.27h.39l-.22-.27ZM74.64,37.97l1.68,2.09c.05-.35.1-.69.15-1.04l-1.93-2.4h-1.09l1.08,1.35h.11ZM67.59,25.33l1.9,2.37h.11l3.72,4.62h.24l-2.34-2.91h.29l2.34,2.91h.3l-4.52-5.62h-.09l-1.1-1.37h-.85ZM61.77,19.85l3.34,4.15h.68l-3.34-4.15h-.68ZM71.91,27.69h.11l3.72,4.62h.19l-2.34-2.91h.34l2.34,2.91h.25l-4.52-5.62h-.09l-1.1-1.37h-.81l1.9,2.37ZM71.94,13.54h.43c-.41-.49-.8-1-1.16-1.53-.59-.86-1.14-1.74-1.7-2.61-.63-.98-1.3-1.92-2.13-2.73h-.96l5.53,6.87ZM64.69,19.85l3.34,4.15h.72l-3.34-4.15h-.72ZM61.58,6.67l5.53,6.87h1.09l-5.53-6.87h-1.09ZM63.23,19.85l3.34,4.15h.7l-3.34-4.15h-.7ZM67.61,19.85l3.34,4.15h.77l-3.34-4.15h-.77ZM69.49,23.99h.75l-3.34-4.15h-.75l3.34,4.15ZM68.51,18.77h.9l-3.34-4.15h-.9l3.34,4.15ZM68.8,25.33l1.9,2.37h.11l3.72,4.62h.22l-2.34-2.91h.31l2.34,2.91h.28l-4.52-5.62h-.09l-1.1-1.37h-.83ZM75.95,18.77l-2.2-2.73h.36l2.2,2.73h.22l-3.34-4.15h-.76l3.34,4.15h.19ZM74.89,36.63l1.08,1.35h.28l.3.38c.04-.29.08-.59.13-.88l-.68-.85h-1.12ZM76.74,37.12c.02-.16.05-.33.07-.49h-.47l.4.49ZM47.63,53.21l-2.33-2.9c.03.23.06.46.09.69l1.78,2.21h.46ZM71.22,25.33l1.9,2.37h.11l3.72,4.62h.17l-2.34-2.91h.36l2.29,2.84c0-.05.01-.1.02-.15,0-.03,0-.06.01-.09l-4.27-5.31h-.09l-1.1-1.37h-.78ZM70.01,14.62l3.34,4.15h.23l-2.2-2.73h.31l2.2,2.73h.26l-3.34-4.15h-.81ZM70.93,18.77h.85l-3.34-4.15h-.85l3.34,4.15ZM66.38,14.62l3.34,4.15h.87l-3.34-4.15h-.87ZM64,6.67l5.53,6.87h1.13l-5.53-6.87h-1.13ZM71.22,14.62l3.34,4.15h.21l-2.2-2.73h.34l2.2,2.73h.24l-3.34-4.15h-.78ZM72.41,23.99h.79l-3.34-4.15h-.79l3.34,4.15ZM67.63,36.63l4.52,5.62h.7l-3.44-4.27h.3l-1.08-1.35h-1ZM62.11,61.77h.13l-3.34-4.15h-.64l-1.67-2.07h-.64l1.67,2.07h-.61l3.34,4.15h.12l-2.2-2.73h.42l2.2,2.73h.15l-1.67-2.07h.51l1.67,2.07h.1l-2.2-2.73h.45l2.2,2.73ZM63.32,61.77h.1l-3.34-4.15h-.41l-1.67-2.07h-.58l3.34,4.15h.33l1.67,2.07h.08l-1.67-2.07h.17l-.53-.66h.3l2.2,2.73ZM58.64,62.39l.2.25c.12,0,.24,0,.36,0l-.2-.25h-.36ZM64.53,61.77h.08l-3.34-4.15h-.11l-1.67-2.07h-.64l3.34,4.15h.12l1.67,2.07h.05l-1.67-2.07h.46l-.53-.66h.03l2.2,2.73ZM63.65,59.69h.41l1.67,2.07h.06l-1.67-2.07h.18l-3.34-4.15h-.66l1.67,2.07h-.13l3.34,4.15h.03l-2.2-2.73h.1l.53.66ZM57.93,61.77h.17l-1.67-2.07h.38l1.67,2.07h.19l-1.67-2.07h0l-3.34-4.15h-.68l1.67,2.07h-.06l3.34,4.15ZM46.17,53.21l-.59-.73s0,.05.01.08c0,.07.02.13.03.2l.36.45h.19ZM48.11,42.25l-4.52-5.62h-.11c.03.26.06.51.1.77l3.91,4.85h.63ZM45.97,55.55c.03.21.06.41.11.61l.27.34s.09.02.15.02c.16,0,.32,0,.48,0,.06,0,.12,0,.18,0l-.79-.99h-.4ZM65.11,59.69h.16l1.67,2.07h.04l-1.67-2.07h.48l-3.34-4.15h-.68l1.67,2.07h-.38l3.34,4.15h.01l-2.2-2.73h.37l.53.66ZM53.1,53.21h.37l-3.34-4.15h-.97l3.34,4.15h.04l-1.95-2.42h.56l1.95,2.42ZM66.18,36.63l4.52,5.62h.55l-3.44-4.27h.34l3.44,4.27h.09l-4.52-5.62h-.98ZM75.65,27.69l2.07,2.57s.01-.09.02-.13l-.58-.72h.4l.24.3c0-.07.02-.13.03-.2l-2.27-2.82h-.09l-1.1-1.37h-.74l1.9,2.37h.11ZM70.54,36.63l4.52,5.62h.98s-3.43-4.27-3.43-4.27h.05l-1.08-1.35h-1.05ZM69.08,36.63l4.52,5.62h.85l-3.44-4.27h.18l-1.08-1.35h-1.03ZM72.97,32.31l-4.52-5.62h-.09l-1.1-1.37h-.87l1.9,2.37h.11l3.72,4.62h.85ZM67.21,57.62h-.12l-1.67-2.07h-.72l3.34,4.15h.72l-.53-.66h.12l-1.14-1.41ZM76.11,41.75c.03-.23.06-.46.09-.69.02-.16.04-.31.05-.47l-3.19-3.97h-1.07l4.12,5.12ZM66.16,53.21h.44l-3.34-4.15h-.77l3.34,4.15h.01l-1.95-2.42h.31l1.95,2.42ZM67.19,27.69l3.72,4.62h.87l-4.52-5.62h-.09l-1.1-1.37h-.9l1.9,2.37h.11ZM65.42,48.11h-.36l.76.95h-.36l3.34,4.15h.72l-1.92-2.38h0l-2.18-2.71ZM63.28,36.63l4.52,5.62h.26l-3.44-4.27h.29l3.44,4.27h.38l-4.52-5.62h-.94ZM64.73,36.63l4.52,5.62h.41l-3.44-4.27h.31l3.44,4.27h.24l-4.52-5.62h-.96ZM72.43,25.33l1.9,2.37h.11l3.09,3.84c0-.05.02-.1.02-.16l-1.59-1.97h.38l1.26,1.57.03-.22-3.27-4.06h-.09l-1.1-1.37h-.76ZM68.38,55.55h-.77l1.67,2.07h-.17l1.14,1.41h.17l.39.49c0-.32,0-.64,0-.95l-2.43-3.02ZM49.24,18.77l-3.34-4.15h-.26c-.05.06-.11.12-.16.17l3.2,3.97h.56ZM56.59,19.85h-.64l1.11,1.38h-.66l11.54,14.45h4.12l-6.38-7.99h.29l3.72,4.62h.9l-4.52-5.62h-.09l-1.1-1.37h-1.08l-1.07-1.33h.1l-3.34-4.15h-.64l1.11,1.38h-.85l-1.11-1.38h-.58l1.11,1.38h-.85l-1.11-1.38ZM69.86,55.55h-.79l1.67,2.07h-.43l.5.62c0-.24,0-.48,0-.73,0-.2,0-.4.02-.6,0-.04.03-.07.04-.11l-1.01-1.26ZM51.91,53.21h.09l-3.34-4.15h-.99l3.34,4.15h.32l-1.95-2.42h.58l1.95,2.42ZM56.63,62.39h-.41l.2.25c.14,0,.27,0,.41,0l-.2-.25ZM73.9,53.21l-3.34-4.15h-.66l3.34,4.15h.66ZM68.62,48.11l2.18,2.71h.43l-2.18-2.71h-.43ZM49,25.33l1.9,2.37h.22l-1.9-2.37h-.22ZM55.73,32.31l-4.52-5.62h-.17l-1.1-1.37h-.2l1.1,1.37h-.39l4.52,5.62h.76ZM72.44,50.83l-2.18-2.71h-.45l2.18,2.71h.45ZM45.57,32.31l-3.24-4.02c.07.47.14.93.21,1.4l2.11,2.62h.92ZM58.52,13.54l-5.52-6.86c-.23.17-.45.35-.66.53l5.1,6.34h1.09ZM48.05,18.77l-2.91-3.61c-.11.11-.22.21-.33.32l2.65,3.3h.58ZM50.07,13.54h1.2l-2.32-2.88c-.21.24-.41.48-.62.72l1.73,2.15ZM43.16,23.99l-1.76-2.19c.01.08.02.17.04.25l1.56,1.94h.16ZM43.52,25.33h-.4l1.9,2.37h.33l3.72,4.62h.85l-4.52-5.62h-.07l-1.1-1.37h-.38l1.1,1.37h-.34l-1.1-1.37ZM44.95,25.33h-.35l1.9,2.37h.34l3.72,4.62h.83l-4.52-5.62h-.09l-1.1-1.37h-.33l1.1,1.37h-.38l-1.1-1.37ZM47.53,25.33l1.9,2.37h.27l-1.9-2.37h-.27ZM54.28,32.31l-4.52-5.62h-.15l-1.1-1.37h-.24l1.1,1.37h-.39l4.52,5.62h.78ZM51.91,59.69h.06l1.67,2.07h.28l-1.67-2.07h.37l-3.34-4.15h-.75l.88,1.09s.04.04.05.07l.46.57h.03l.28.35h-.48l3.34,4.15h.25l-2.2-2.73h.23l.53.66ZM41.67,23.65c.02.12.03.23.05.35h.23l-.28-.35ZM42.24,27.69h.17l3.72,4.62h.89l-3.72-4.62h.58l3.72,4.62h.87l-4.52-5.62h-.04l-1.1-1.37h-.42l1.1,1.37h-.29l-1.1-1.37h-.19c.08.58.16,1.17.24,1.75.03.21.06.41.09.62ZM77.72,18.77l-1.62-2.01c-.07-.03-.13-.07-.2-.1-.05-.02-.09-.05-.13-.07l1.76,2.19h.19ZM79.29,19.85h0s0,0,0,0h0ZM79.46,18.77s0-.04,0-.06l-.97-1.21s-.09,0-.13,0l1.02,1.27h.07ZM76.06,25.33l1.9,2.37h.11l.03.04c.04-.23.07-.47.11-.7l-.27-.33h-.09l-1.1-1.37h-.7ZM74.85,25.33l1.9,2.37h.11l1.05,1.3c.04-.24.07-.49.11-.73l-1.27-1.57h-.09l-1.1-1.37h-.72ZM79.53,18.26c0-.05.01-.11.02-.17l-.44-.54c-.05,0-.11-.01-.16-.01l.58.72ZM73.45,19.85l3.34,4.15h.86l-3.34-4.15h-.86ZM77.26,25.33l1.01,1.25c.04-.23.07-.47.11-.7l-.44-.55h-.67ZM74.91,19.85l3.34,4.15h.42c.02-.16.05-.32.07-.48l-2.95-3.66h-.88ZM74.63,52.31l-1.19-1.48h.21l-2.18-2.71h-.47l.76.95h-.37l3.16,3.93c.03-.23.06-.46.08-.69ZM77.14,18.77l-2.13-2.65s-.02-.02-.04-.02c-.16-.1-.29-.23-.43-.35l2.44,3.03h.17ZM78.83,22.9c.05-.31.1-.62.15-.93l-1.71-2.12h-.9l2.46,3.06ZM78.73,18.77h.17l-1.12-1.39c-.07-.02-.14-.04-.22-.06l1.16,1.44ZM74.65,49.06l-.76-.95h-.52l1.57,1.95c.04-.28.08-.56.12-.84l-.13-.16h-.28ZM72.21,45.21l2.9,3.6c.02-.19.05-.38.08-.58l-.09-.12h-.53l-2.34-2.91h-.01ZM74.64,45.21h-.05l.86,1.07s0-.04,0-.06l-.82-1.01ZM73.4,45.21l1.88,2.33s0-.02,0-.03l-1.85-2.3h-.03ZM79.21,20.41l-.46-.57h-.92l1.24,1.55c.05-.33.09-.65.14-.98ZM73.44,49.06h0l-.76-.95h-.5l.76.95h-.08l1.88,2.34c.02-.12.03-.25.05-.37.01-.08.02-.16.03-.24l-1.39-1.73ZM78.33,18.77l-1.29-1.61c-.07-.02-.14-.05-.21-.08l1.35,1.68h.14ZM72.68,18.77h.28l-3.34-4.15h-.83l3.34,4.15h.25l-2.2-2.73h.29l2.2,2.73ZM70.53,19.85l3.34,4.15h.81l-3.34-4.15h-.81ZM76.16,23.99l-3.34-4.15h-.83l3.34,4.15h.83ZM48.76,36.63l4.52,5.62h.72l-4.52-5.62h-.72ZM50.99,47.71l-7.25-9.07c.09.68.19,1.36.28,2.04.05.36.1.71.14,1.07.09.67.18,1.35.27,2.02.02.18.06.35.08.53.02.18.04.35.06.53l2.3,2.88h4.12ZM51.39,62.39l.2.25c.17,0,.33,0,.5,0l-.2-.25h-.5ZM50.22,36.63l4.52,5.62h.74l-4.52-5.62h-.74ZM58.42,42.25l-4.52-5.62h-.78l4.52,5.62h.78ZM51.67,36.63l4.52,5.62h.76l-4.52-5.62h-.76ZM63.29,13.54l-5.53-6.87h-.96l5.53,6.87h.96ZM72.14,56.53l-.79-.99h-.81l.81,1c.12,0,.25-.01.37-.01.14,0,.28,0,.42,0ZM45.58,19.85l3.34,4.15h.28l-1.95-2.42h.34l1.95,2.42h.17l-3.34-4.15h-.79ZM55.44,62.39h-.43l.2.25c.14,0,.29,0,.43,0l-.2-.25ZM51.07,59.69h.1l-1.6-1.99c0,.39,0,.79,0,1.18l2.32,2.88h.85l-1.67-2.07ZM54.54,61.77l-2.2-2.73h.31l2.2,2.73h.26l-1.67-2.07h.4l1.67,2.07h.21l-1.67-2.07h.03l-.53-.66h.31l2.2,2.73h.24l-3.34-4.15h-.54l-1.67-2.07h-.72l1.67,2.07h-.73l3.34,4.15h.23ZM54.35,6.67l5.53,6.87h1.05l-5.53-6.87h-1.05ZM54.47,19.85l3.34,4.15h.66l-3.34-4.15h-.66ZM74.16,55.73c0-.06.02-.12.03-.18h-.74l.59.74c.03-.07.06-.15.08-.26.02-.1.02-.2.04-.3ZM64.31,23.99l-3.34-4.15h-.66l3.34,4.15h.66ZM64.69,13.54h1.05l-5.53-6.87h-1.05l5.53,6.87ZM60.6,3.84c-.27,0-.54.04-.81.06l.22.28h3.07c-.13-.03-.27-.06-.41-.09-.68-.16-1.37-.26-2.08-.25ZM46.55,14.62l3.34,4.15h.54l-3.34-4.15h-.54ZM47.76,14.62l3.34,4.15h.52l-3.34-4.15h-.52ZM50.41,23.99l-1.95-2.42h.31l1.95,2.42h.44l-3.34-4.15h-.77l3.34,4.15h.01ZM48.97,14.62l3.34,4.15h.5l-3.34-4.15h-.5ZM52.99,19.85l3.34,4.15h.68l-3.34-4.15h-.68ZM51.51,19.85l3.34,4.15h.7l-3.34-4.15h-.7ZM60.77,18.77h5.96l-3.34-4.15h-5.96l3.34,4.15ZM54.98,13.54h1.13l-4.54-5.64c-.21.21-.42.41-.63.62l4.04,5.02ZM46.06,25.33l1.9,2.37h.31l-1.9-2.37h-.31ZM43.84,18.77h.65l-1.5-1.87c-.15.09-.3.17-.45.25l1.3,1.62ZM53.07,62.39h-.47l.2.25c.16,0,.32,0,.47,0l-.2-.25ZM54.26,62.39h-.45l.2.25c.15,0,.3,0,.45,0l-.2-.25ZM52.52,13.54h1.16l-3.46-4.3c-.21.22-.41.45-.62.68l2.91,3.62ZM43.31,18.77l-1.15-1.43c-.17.07-.34.14-.51.2l.99,1.23h.67ZM40.92,18.14l.5.62h.7l-.87-1.08c-.23.1-.32.22-.33.46ZM41.65,21.57l1.95,2.42h.27l-2.64-3.28c.04.29.08.57.13.86h.29ZM44.03,21.57l1.95,2.42h.81l-1.95-2.42h0l-1.39-1.72h-.83l1.39,1.72h.02ZM41.14,19.85l1.39,1.72h.32l1.95,2.42h.54l-3.34-4.15h-.86ZM46.26,18.77h.61l-2.41-2.99c-.12.1-.24.21-.36.31l2.16,2.69ZM51.39,14.62l3.34,4.15h.45l-3.34-4.15h-.45ZM50.18,14.62l3.34,4.15h.47l-3.34-4.15h-.47ZM52.6,14.62l3.34,4.15h.43l-3.34-4.15h-.43ZM55.01,14.62l3.34,4.15h.38l-3.34-4.15h-.38ZM53.8,14.62l3.34,4.15h.41l-3.34-4.15h-.41ZM59.92,18.77l-3.34-4.15h-.36l3.34,4.15h.36ZM45.68,18.77l-1.93-2.39s-.06.06-.1.08c-.1.07-.2.14-.3.2l1.69,2.11h.63ZM47.44,23.99h.56l-1.95-2.42h.26l-1.39-1.72h-.81l3.34,4.15ZM47.5,26.69l4.52,5.62h.8l-4.52-5.62h-.12l-1.1-1.37h-.29l1.1,1.37h-.4ZM48.85,13.54l-1.13-1.4c-.21.26-.41.51-.62.77l.51.63h1.24ZM47.31,36.63l4.52,5.62h.69l-4.52-5.62h-.69ZM57.82,26.69l4.52,5.62h.65l-4.52-5.62h-.65ZM56.74,26.69l-1.1-1.37h-.02l1.1,1.37h-.37l4.52,5.62h.67l-4.52-5.62h-.28ZM54.88,25.33l1.9,2.37h.04l-1.9-2.37h-.04ZM59.29,26.69l4.52,5.62h.63l-4.52-5.62h-.63ZM60.38,36.63l4.52,5.62h.89l-4.52-5.62h-.89ZM67.27,42.25l-4.52-5.62h-.92l4.52,5.62h.92ZM50.47,25.33l1.9,2.37h.18l-1.9-2.37h-.18ZM51.92,26.69l4.52,5.62h.74l-4.52-5.62h-.2l-1.1-1.37h-.15l1.1,1.37h-.39ZM54.15,25.33l1.1,1.37h-.38l4.52,5.62h.69l-4.52-5.62h-.25l-1.1-1.37h-.07ZM53.41,25.33l1.9,2.37h.09l-1.9-2.37h-.09ZM50.02,19.85l3.34,4.15h.72l-3.34-4.15h-.72ZM48.54,19.85l1.39,1.72h.03l1.95,2.42h.72l-3.34-4.15h-.75ZM64.32,42.25l-4.52-5.62h-.87l4.52,5.62h.87ZM62.84,42.25l-4.52-5.62h-.85l4.52,5.62h.85ZM51.94,25.33l1.9,2.37h.13l-1.9-2.37h-.13ZM57.81,59.69h.21l1.67,2.07h.17l-1.67-2.07h.27l-3.34-4.15h-.66l1.67,2.07h-.33l3.34,4.15h.14l-2.2-2.73h.19l.53.66ZM68.06,53.21l-1.92-2.38h.25l-2.18-2.71h-.45l.55.95h-.33l1.17,1.45.18.31h.1l1.92,2.38h.72ZM58.64,32.31l-4.52-5.62h-.22l-1.1-1.37h-.11l1.1,1.37h-.38l4.52,5.62h.72ZM68.17,61.77l-3.34-4.15h-.56l1.14,1.41h.55l2.2,2.73h.02ZM62.87,53.21h.56l-1.95-2.42h.26l-1.39-1.72h-.81l3.34,4.15ZM66.02,57.62h-.41l-1.67-2.07h-.7l3.34,4.15h.7l-.53-.66h.41l-1.14-1.41ZM64.97,53.21h.17l-3.34-4.15h-.79l3.34,4.15h.28l-1.95-2.42h.34l1.95,2.42ZM56.02,36.63l4.52,5.62h.83l-4.52-5.62h-.83ZM50.18,62.39l.19.24c.06,0,.13,0,.19,0,.11,0,.22,0,.34,0l-.2-.25h-.52ZM46.96,50.79h.17l-1.39-1.72h-.62c.03.21.05.41.08.62l.89,1.1h.3l1.95,2.42h.56l-1.95-2.42ZM50.12,53.21l-1.95-2.42h.42l-1.39-1.72h-1.01l1.39,1.72h0l1.95,2.42h.58ZM73.51,56.53s.06,0,.1,0l-.78-.97h-.83l.79.98c.24,0,.49,0,.73,0ZM47.06,55.55l.79.99c.26,0,.51,0,.77,0l-.79-.99h-.77ZM55.06,59.69l1.67,2.07h.19l-1.67-2.07h.3l-.53-.66h.06l2.2,2.73h.22l-3.34-4.15h-.27l-1.67-2.07h-.7l3.34,4.15h.21ZM49.57,59.31c0,.36,0,.72,0,1.08l1.11,1.38h.87l-1.98-2.46ZM67.64,49.06h-.25l-.76-.95h-.38l.76.95h-.07l3.34,4.15h.7l-3.34-4.15ZM72.44,53.21l-3.34-4.15h-.5l-.76-.95h-.41l2.18,2.71h.23l1.92,2.38h.68ZM57.82,62.39h-.38l.2.25c.13,0,.26,0,.38,0l-.2-.25ZM66.9,55.55h-.75l3.34,4.15h.75l-3.34-4.15ZM59.85,62.39l.2.25h.87v-.25h-1.07ZM50.64,49.06l1.39,1.72h.31l1.95,2.42h.64l-3.34-4.15h-.95ZM53.6,49.06l3.34,4.15h.44l-1.95-2.42h.47l-1.39-1.72h-.9ZM55.09,49.06l3.34,4.15h.16l-1.95-2.42h.45l1.95,2.42h.27l-3.34-4.15h-.88ZM56.57,49.06l1.39,1.72h.32l1.95,2.42h.54l-3.34-4.15h-.86ZM59.44,50.79h.02l1.95,2.42h.81l-1.95-2.42h0l-1.39-1.72h-.83l1.39,1.72ZM52.12,49.06l1.39,1.72h.01l1.95,2.42h.7l-1.95-2.42h.22l-1.39-1.72h-.92ZM44.41,36.63l4.52,5.62h.65l-4.52-5.62h-.65ZM49.57,60.78c0,.33,0,.66,0,.99h.79l-.79-.99ZM42.73,30.97c.04.25.08.49.1.74,0,.06.02.13.02.19l.34.42h.94l-1.45-1.81c0,.06.02.12.03.19.01.07.02.14.03.2l.06.07h-.05ZM59.9,42.25l-4.52-5.62h-.8l4.52,5.62h.8ZM45.86,36.63l4.52,5.62h.67l-4.52-5.62h-.67ZM70.34,92.16l1.92,2.39s0-.06,0-.09l-.71-.88h.47l.24.3s0-.09,0-.13l-1.27-1.58h-.65ZM60.7,84.21l5.53,6.87h1.2l-5.53-6.87h-1.2ZM64.27,101.53h.79l-3.34-4.15h-.79l3.34,4.15ZM67.92,92.16l3.34,4.15h.12l-2.2-2.73h.42l2.2,2.73h.15l-3.34-4.15h-.7ZM69.13,92.16l3.13,3.88s0-.08,0-.12l-1.89-2.35h.45l1.44,1.79c0-.05,0-.1,0-.16l-2.46-3.05h-.67ZM63.76,81.71l-2.55-3.17h-1.11l2.55,3.17h1.11ZM60.58,81.71l-1.95-2.42c-.1.34-.22.68-.35,1.02l1.13,1.4h1.17ZM55.86,84.21l5.53,6.87h1.13l-5.53-6.87h-1.13ZM62.46,96.3l-3.34-4.15h-.87l3.34,4.15h.87ZM63.81,91.07h1.16l-5.53-6.87h-1.16l5.53,6.87ZM66.71,92.16l3.34,4.15h.14l-2.2-2.73h.4l2.2,2.73h.17l-3.34-4.15h-.72ZM65.73,101.53h.81l-3.34-4.15h-.81l3.34,4.15ZM78.85,125.65h-.33l-2.34-2.91h-.23l2.92,3.62c0-.24,0-.48-.01-.72ZM59.45,92.16l3.34,4.15h.85l-3.34-4.15h-.85ZM61.87,92.16l3.34,4.15h.23l-2.2-2.73h.31l2.2,2.73h.26l-3.34-4.15h-.81ZM60.66,92.16l3.34,4.15h.25l-2.2-2.73h.29l2.2,2.73h.28l-3.34-4.15h-.83ZM70.76,81.71h.5c-.26-.11-.52-.23-.78-.34l.28.34ZM71.55,92.16l.72.89c0-.26,0-.52,0-.78l-.09-.11h-.63ZM77.38,122.74h-.25l1.67,2.08c0-.11-.01-.23-.02-.34l-1.4-1.74ZM51.15,139.31l-.19-.23c0,.06,0,.12,0,.18l.04.05h.14ZM75.65,104.23l-1.1-1.37h-.58l1.9,2.37h.11l1.38,1.71h.53l.24.29s0-.03,0-.05l-2.38-2.96h-.09ZM59.45,102.87l1.9,2.37h.11l3.72,4.62h.24l-2.34-2.91h.29l2.34,2.91h.3l-4.52-5.62h-.09l-1.1-1.37h-.85ZM57.88,135.16h-.41l-1.67-2.07h-.7l3.34,4.15h.7l-.53-.66h.41l-1.14-1.41ZM54.32,133.08h-.68l1.67,2.07h-.38l3.34,4.15h.01l-2.2-2.73h.37l.53.66h.16l1.67,2.07h.04l-1.67-2.07h.48l-3.34-4.15ZM52.21,126.6h-.81l3.34,4.15h.56l-1.95-2.42h.26l-1.39-1.72ZM56.83,130.75h.17l-3.34-4.15h-.79l3.34,4.15h.28l-1.95-2.42h.34l1.95,2.42ZM55.14,114.17l4.52,5.62h.26l-3.44-4.27h.29l3.44,4.27h.38l-4.52-5.62h-.94ZM59.48,97.38l3.34,4.15h.77l-3.34-4.15h-.77ZM51.95,109.85l-.96-1.19c0,.29,0,.57,0,.86l.26.33h.69ZM53.4,109.85l-2.41-2.99c0,.28,0,.56,0,.83l1.74,2.16h.67ZM60.48,125.65l2.18,2.71h.43l-2.18-2.71h-.43ZM50.98,118.81c0,.32,0,.65,0,.97h.78l-.78-.97ZM50.98,116.98c0,.34,0,.68,0,1.03l1.43,1.78h.83l-2.26-2.8ZM62.4,114.17l4.52,5.62h.99l-3.44-4.27h.05l-1.08-1.35h-1.05ZM68.37,119.79h1.07l-4.52-5.62h-1.07l4.52,5.62ZM63.78,105.23h.11l3.72,4.62h.19l-2.34-2.91h.34l2.34,2.91h.25l-4.52-5.62h-.09l-1.1-1.37h-.81l1.9,2.37ZM60.95,114.17l4.52,5.62h.85l-3.44-4.27h.18l-1.08-1.35h-1.03ZM63.08,92.16l3.34,4.15h.21l-2.2-2.73h.34l2.2,2.73h.24l-3.34-4.15h-.78ZM59.5,114.17l4.52,5.62h.7l-3.44-4.27h.3l-1.08-1.35h-1ZM63.85,128.36h.45l-2.18-2.71h-.45l2.18,2.71ZM65.26,122.74l4.52,5.62h.56l-2.18-2.71h-.53l-2.34-2.91h-.03ZM58.04,114.17l4.52,5.62h.55l-3.44-4.27h.34l3.44,4.27h.09l-4.52-5.62h-.98ZM56.59,114.17l4.52,5.62h.41l-3.44-4.27h.31l3.44,4.27h.24l-4.52-5.62h-.96ZM76.83,104.23l-1.1-1.37h-.56l1.9,2.37h.11l.85,1.06c0-.07-.01-.13-.01-.2,0-.17-.01-.34-.02-.51l-1.08-1.35h-.09ZM64.83,109.85l-4.52-5.62h-.09l-1.1-1.37h-.87l1.9,2.37h.11l3.72,4.62h.85ZM52.83,142h-.87l1.14,1.41h.06l2.2,2.73h.47l-2.2-2.73h.34l-1.14-1.41ZM53.97,139.31h.13l-3.13-3.89c0,.55,0,1.11,0,1.66l1.8,2.23h.15l-1.67-2.07h.51l1.67,2.07h.1l-2.2-2.73h.45l2.2,2.73ZM59.03,104.23l-1.1-1.37h-.9l1.9,2.37h.11l3.72,4.62h.87l-4.52-5.62h-.09ZM55.18,139.31h.11l-3.34-4.15h-.41l-.58-.71v.72s1.67,2.07,1.67,2.07h.33l1.67,2.07h.08l-1.67-2.07h.17l-.53-.66h.3l2.2,2.73ZM61.03,81.71h1.14l-2.55-3.17h-.78c-.03.11-.06.23-.09.34l2.28,2.83ZM68.23,84.21h-.28l4.48,5.57c.04-.4.09-.81.14-1.21,0-.07.02-.13.03-.2l-3.35-4.16h-.47l3.23,4.01h-.56l-3.23-4.01ZM76.38,102.87l1.59,1.98c-.02-.24-.03-.48-.04-.73l-1.01-1.26h-.54ZM56.39,139.31h.08l-3.34-4.15h-.11l-1.67-2.07h-.39c0,.1,0,.21,0,.31l3.09,3.84h.12l1.67,2.07h.05l-1.67-2.07h.46l-.53-.66h.03l2.2,2.73ZM60.06,91.07l-5.48-6.81c-.27.12-.54.23-.82.33l5.22,6.48h1.09ZM65.89,81.71h1.05l-2.3-2.86c-.24-.1-.48-.21-.72-.31h-.58l2.55,3.17ZM76.54,133.08h-1.01l3.34,4.15h.35c0-.28,0-.56-.01-.84l-2.66-3.31ZM78.56,142l.91,1.13c0-.17-.01-.33-.02-.5l-.51-.63h-.38ZM59.07,135.16h-.12l-1.67-2.07h-.72l3.34,4.15h.72l-.53-.66h.12l-1.14-1.41ZM51.79,96.3l-.78-.97c0,.15,0,.3,0,.45l.42.52h.36ZM76.99,133.08l2.2,2.73c0-.13,0-.25-.02-.38-.05-.34-.06-.67-.07-1.01l-1.08-1.34h-1.03ZM76.42,119.79h.03l-3.25-5.62h-2.09l4.52,5.62h.28l-3.44-4.27h.51l3.44,4.27ZM74.8,119.79h.54l-4.52-5.62h-1.16l4.52,5.62h.13l-3.44-4.27h.49l3.44,4.27ZM58.02,130.75h.44l-3.34-4.15h-.77l3.34,4.15h.01l-1.95-2.42h.31l1.95,2.42ZM66.27,84.21h-.73l5.53,6.87h1.27l-5.53-6.87h-.02l3.23,4.01h-.52l-3.23-4.01ZM78.6,126.6l-3.1-3.86h-.15l2.34,2.91h-.38l-2.34-2.91h-.21l3.1,3.86h-.03l1.09,1.36c-.02-.28-.04-.57-.05-.85,0-.08,0-.15,0-.23l-.23-.29h-.04ZM77.72,122.74l1.04,1.29s0-.07,0-.1c0-.05,0-.1,0-.15l-.84-1.04h-.19ZM75.39,109.85h.12l-4.52-5.62h-.09l-1.1-1.37h-.67l1.9,2.37h.11l3.72,4.62h.06l-2.34-2.91h.47l2.34,2.91ZM70.99,101.53l-3.34-4.15h-.88l3.34,4.15h.88ZM63.85,97.38l3.34,4.15h.83l-3.34-4.15h-.83ZM72.97,109.85h.17l-4.52-5.62h-.09l-1.1-1.37h-.72l1.9,2.37h.11l3.72,4.62h.11l-2.34-2.91h.42l2.34,2.91ZM74.18,109.85h.14l-4.52-5.62h-.09l-1.1-1.37h-.7l1.9,2.37h.11l3.72,4.62h.08l-2.34-2.91h.45l2.34,2.91ZM65.31,97.38l3.34,4.15h.86l-3.34-4.15h-.86ZM65.5,92.16l3.34,4.15h.17l-2.2-2.73h.38l2.2,2.73h.19l-3.34-4.15h-.74ZM78.59,122.74h-.28l.43.53c0-.12,0-.23,0-.35l-.14-.18ZM68.23,97.38l3.34,4.15h.9l-3.34-4.15h-.9ZM74.46,104.23l-1.1-1.37h-.61l1.9,2.37h.11l1.38,1.71h.53l1.48,1.84s0-.05,0-.07l-3.6-4.48h-.09ZM73.23,84.75c.03-.18.07-.36.11-.54h-.55l.44.54ZM70.55,109.85h.21l-4.52-5.62h-.09l-1.1-1.37h-.76l1.9,2.37h.11l3.72,4.62h.15l-2.34-2.91h.38l2.34,2.91ZM71.15,97.38l1.6,1.99c-.14-.42-.27-.84-.29-1.3,0-.04-.02-.08-.02-.12,0-.06-.02-.12-.02-.18l-.31-.39h-.95ZM71.36,109.85l-2.34-2.91h.4l2.34,2.91h.19l-4.52-5.62h-.09l-1.1-1.37h-.74l1.9,2.37h.11l3.72,4.62h.13ZM76.6,109.85h.1l-4.52-5.62h-.09l-1.1-1.37h-.65l1.9,2.37h.11l3.72,4.62h.04l-2.34-2.91h.49l2.34,2.91ZM70.79,84.21l2.07,2.58c.05-.31.11-.63.16-.94l-1.32-1.64h-.92ZM69.34,109.85h.23l-4.52-5.62h-.09l-1.1-1.37h-.78l1.9,2.37h.11l3.72,4.62h.17l-2.34-2.91h.36l2.34,2.91ZM69.69,97.38l3.34,4.15h.92l-3.34-4.15h-.92ZM77.81,109.85h.08l-4.52-5.62h-.09l-1.1-1.37h-.63l1.9,2.37h.11l3.72,4.62h.02l-2.34-2.91h.51l2.34,2.91ZM76.53,122.74l2.31,2.87c0-.08-.01-.15-.01-.23l-2.13-2.64h-.17ZM64.29,92.16l3.34,4.15h.19l-2.2-2.73h.36l2.2,2.73h.22l-3.34-4.15h-.76ZM60.66,102.87l1.9,2.37h.11l3.72,4.62h.22l-2.34-2.91h.31l2.34,2.91h.28l-4.52-5.62h-.09l-1.1-1.37h-.83ZM66.54,137.23l-.53-.66h.13l-1.14-1.41h-.13l-1.67-2.07h-.81l3.34,4.15h.81ZM56.56,97.38l3.34,4.15h.72l-3.34-4.15h-.72ZM64.27,137.23h.79l-.53-.66h.42l-1.14-1.41h-.42l-1.67-2.07h-.79l1.67,2.07h-.43l1.14,1.41h.43l.53.66ZM71.6,146.15l-3.34-4.15h-.58l3.34,4.15h.58ZM62.28,136.57l.53.66h.77l-3.34-4.15h-.77l1.67,2.07h-.17l1.14,1.41h.17ZM72.79,146.15l-3.34-4.15h-.56l3.34,4.15h.56ZM58.76,133.08h-.75l3.34,4.15h.75l-3.34-4.15ZM72.47,137.23l-3.34-4.15h-.9l3.34,4.15h.9ZM66.77,133.08l1.67,2.07h-.22l1.07,1.32v-.27l.82,1.02h.88l-3.34-4.15h-.88ZM51.72,139.31l-.76-.95c0,.07,0,.14,0,.21l.59.73h.17ZM59.4,146.15l-2.2-2.73h.34l-1.14-1.41h-.81l1.14,1.41h.06l2.2,2.73h.41ZM51,97.38c0,.12,0,.23,0,.35l.83,1.03h-.83c0,1.14,0,2.27,0,3.41l8.82,11.04h4.12l-6.38-7.99h.29l3.72,4.62h.9l-4.52-5.62h-.09l-1.1-1.37h-1.08l-1.07-1.33h.1l-3.34-4.15h-.35ZM52.18,97.38l3.34,4.15h.66l-3.34-4.15h-.66ZM55.1,97.38l3.34,4.15h.7l-3.34-4.15h-.7ZM53.64,97.38l3.34,4.15h.68l-3.34-4.15h-.68ZM53.46,146.15l-2.2-2.73h.34l-.46-.57c.01.13.02.26.03.4.02.22.04.44.05.66,0,.04,0,.07,0,.11l1.72,2.14h.52ZM73.95,137.23l-3.34-4.15h-.92l3.34,4.15h.92ZM60.42,142l3.34,4.15h.72l-3.34-4.15h-.72ZM54.65,146.15l-2.2-2.73h.34l-1.14-1.41h-.57c.02.15.03.3.03.45l.78.97h.06l2.2,2.73h.5ZM58.21,146.15l-2.2-2.73h.34l-1.14-1.41h-.83l1.14,1.41h.06l2.2,2.73h.43ZM55.16,143.41l-1.14-1.41h-.85l1.14,1.41h.06l2.2,2.73h.45l-2.2-2.73h.34ZM68.03,137.23l-3.34-4.15h-.83l3.34,4.15h.83ZM78.72,146.15l-3.34-4.15h-.45l3.34,4.15h.45ZM77.54,146.15l-3.34-4.15h-.47l3.34,4.15h.47ZM76.35,146.15l-3.34-4.15h-.5l3.34,4.15h.5ZM71.82,142h-.52l3.34,4.15h.52l-3.34-4.15ZM70.41,146.15l-3.34-4.15h-.61l3.34,4.15h.61ZM51.01,90.11s0,.03,0,.05l.73.91h1.05l-1.73-2.15c0,.12,0,.23-.02.35-.01.28-.04.56-.04.84ZM78.45,133.08l.65.81c0-.27,0-.54,0-.81h-.64ZM79.65,145.82l-3.07-3.82h-.43l3.34,4.15h.18c0-.08,0-.16,0-.23,0-.03,0-.06,0-.09ZM69.23,146.15l-3.34-4.15h-.63l3.34,4.15h.63ZM75.43,137.23l-3.34-4.15h-.95l3.34,4.15h.95ZM79.56,144.24l-1.81-2.24h-.41l2.23,2.77c0-.06,0-.11,0-.17,0-.12,0-.24,0-.36ZM78.58,128.36h.23l-4.52-5.62h-.13l2.34,2.91h-.4l-2.34-2.91h-.19l3.1,3.86h-.31l2.61,3.24c0-.33-.01-.67-.02-1l-.38-.47ZM79,130.73l-1.9-2.36h.51l-4.52-5.62h-.11l2.34,2.91h-.42l-2.34-2.91h-.17l3.1,3.86h-.51l-3.1-3.86h-.08l2.34,2.91h-.45l-2.34-2.91h-.14l4.52,5.62h.61l1.92,2.39h.75s0-.02,0-.02ZM55.16,91.07l-4.06-5.05c0,.39,0,.79,0,1.18l3.11,3.86h.96ZM76.92,137.23l-3.34-4.15h-.97l3.34,4.15h.97ZM78.4,137.23l-3.34-4.15h-.99l3.34,4.15h.99ZM66.85,146.15l-3.34-4.15h-.67l3.34,4.15h.67ZM64.7,142h-.65l3.34,4.15h.65l-3.34-4.15ZM61.63,142l3.34,4.15h.7l-3.34-4.15h-.7ZM51.01,94.28l1.63,2.02h5.96l-3.34-4.15h-4.25c0,.71,0,1.42,0,2.13ZM52.27,146.15l-1.02-1.26c.01.21.02.42.06.63,0,.04,0,.08,0,.12l.41.51h.54ZM73.97,146.15l-3.34-4.15h-.54l3.34,4.15h.54ZM63.29,146.15l-3.34-4.15h-.74l1.14,1.41h.06l2.2,2.73h.68ZM61.77,146.15l-2.2-2.73h.34l-1.14-1.41h-.76l1.14,1.41h.06l2.2,2.73h.36ZM58,143.41l2.2,2.73h.38l-2.2-2.73h.34l-1.14-1.41h-.78l1.14,1.41h.06ZM57.09,139.31l-2.2-2.73h.1l.53.66h.41l1.67,2.07h.06l-1.67-2.07h.18l-3.34-4.15h-.66l1.67,2.07h-.13l3.34,4.15h.03ZM52.01,141.34l-1.04-1.3v.45s.68.85.68.85h.36ZM50.99,105.17c0,.23,0,.46,0,.69l3.21,3.99h.65l-3.86-4.8s0,.08,0,.12ZM56.13,135.16l1.14,1.41h.55l2.2,2.73h.02l-3.34-4.15h-.56ZM61.38,130.75l-1.92-2.39h0l-2.18-2.71h-.36l.76.95h-.36l3.34,4.15h.72ZM62.84,130.75l-3.34-4.15h-.25l-.76-.95h-.38l.76.95h-.07l3.34,4.15h.7ZM59.92,130.75l-1.92-2.39h.25l-2.18-2.71h-.45l.55.95h-.33l1.17,1.45.18.31h.1l1.92,2.39h.72ZM57.66,119.79l-4.52-5.62h-.89l4.52,5.62h.89ZM50.97,130.51c0,.08,0,.16,0,.24h.2l-.2-.24ZM54.08,130.75l-1.95-2.42h0l-1.16-1.44c0,.35,0,.69,0,1.04l.33.41h.02l1.95,2.42h.81ZM52.63,130.75l-1.65-2.06c0,.22,0,.45,0,.67l1.11,1.38h.54ZM50.96,137.75l1.25,1.56h.12l-1.37-1.71c0,.05,0,.1,0,.15ZM51.15,104.23l4.52,5.62h.63l-4.52-5.62h-.63ZM52.78,139.93h-1.07l1.07,1.32v-1.32ZM59.13,119.79l-4.52-5.62h-.92l4.52,5.62h.92ZM64.3,130.75l-3.34-4.15h-.5l-.76-.95h-.41l2.18,2.71h.23l1.92,2.39h.68ZM50.99,115.17v.26h-.01c0,.26,0,.52,0,.78l2.88,3.58h.85l-3.72-4.62ZM56.18,119.79l-4.52-5.62h-.67v.25l4.32,5.37h.87ZM65.3,114.17l1.08,1.35h.11l3.44,4.27h.98l-4.52-5.62h-1.09ZM63.11,84.21l5.53,6.87h1.24l-2.3-2.86h-.05l-3.23-4.01h-1.19ZM67.52,81.71h1.02l-1.45-1.8c-.52-.23-1.05-.46-1.57-.68l2,2.48ZM68.01,80.31l1.13,1.4h.99l-.62-.77s0,0,0,0c-.5-.22-1-.42-1.49-.63ZM77.76,102.87h-.17l.27.33c0-.07-.01-.14-.03-.21-.01-.05-.04-.08-.07-.12ZM73.87,119.79l-4.52-5.62h-1.14l1.08,1.35h.45l3.44,4.27h.69ZM57.79,81.71h1.2l-.86-1.07c-.14.31-.3.61-.48.89l.14.17ZM61.27,96.3l-3.34-4.15h-.9l3.34,4.15h.9ZM57.61,91.07l-4.98-6.19c-.31.06-.62.11-.92.16l4.85,6.03h1.05ZM72.39,119.79l-4.52-5.62h-1.12l1.08,1.35h.28l3.44,4.27h.83ZM65.76,130.75l-3.34-4.15h-.66l3.34,4.15h.66ZM61.72,78.54l2.55,3.17h1.08l-2.55-3.17h-1.08ZM61.35,101.53h.75l-3.34-4.15h-.75l3.34,4.15ZM70.12,130.75l-3.34-4.15h-.28l-.76-.95h-.52l2.18,2.71h.16l1.92,2.39h.64ZM71.61,130.75l-3.34-4.15h-.55l-.76-.95h-.53l-2.34-2.91h-.01l4.52,5.62h.43l1.92,2.39h.66ZM65.3,128.36h.21l-2.18-2.71h-.47l.76.95h-.37l3.34,4.15h.64l-1.92-2.39ZM69.51,137.23l-3.34-4.15h-.86l3.34,4.15h.86ZM68.64,130.75l-3.34-4.15h0l-.76-.95h-.5l.76.95h-.08l3.34,4.15h.58ZM73.09,130.75l-1.92-2.39h.39l-2.18-2.71h-.53l-2.34-2.91h-.05l3.1,3.86h-.48l3.34,4.15h.68ZM77.53,130.75l-3.34-4.15h-.43l-3.1-3.86h-.06l2.34,2.91h-.47l-2.34-2.91h-.12l4.52,5.62h.34l1.92,2.39h.75ZM76.05,130.75l-3.34-4.15h-.16l-3.1-3.86h-.04l2.34,2.91h-.49l-2.34-2.91h-.1l4.52,5.62h.06l1.92,2.39h.72ZM74.57,130.75l-1.92-2.39h.11l-4.52-5.62h-.02l2.34,2.91h-.51l-2.34-2.91h-.08l3.1,3.86h-.21l3.34,4.15h.7Z"/></svg>