<?xml version="1.0" encoding="UTF-8"?>
<svg id="katman_2" data-name="katman 2" xmlns="http://www.w3.org/2000/svg" viewBox="0 0 1103.14 787.72">
  <defs>
    <style>
      .cls-1 {
        fill: #1d1d1b;
      }
    </style>
  </defs>
  <g id="katman_1" data-name="katman 1">
    <g>
      <g>
        <g>
          <path class="cls-1" d="M493.84,260.59c4.31,10.34,10.01,19.66,16.76,27.92l8.23-7.94c-6.3-7.7-11.63-16.39-15.81-25.91l-9.49,5.08c.12.28.2.58.32.86Z"/>
          <path class="cls-1" d="M599.77,321.52l-.14,8.16c12.56-.23,25.24-2.61,37.61-7.29l-1.2-4.84c-12.04,3.38-24.26,4.62-36.26,3.96Z"/>
          <path class="cls-1" d="M485.21,217.29c-.03,11.46,1.71,23.07,5.38,34.46l9.27-4.96c-3.51-9.93-5.52-20.06-6.15-30.14l-8.5.65Z"/>
          <path class="cls-1" d="M499.54,173.12l-4.32-1.71c-5.31,11.77-8.64,24.41-9.66,37.4l7.93-.61c.15-12.03,2.19-23.87,6.05-35.09Z"/>
          <path class="cls-1" d="M544.72,316.55l4.87-9.95c-9.2-5.31-17.67-11.93-25.13-19.76l-8.23,7.94c8.37,8.79,17.96,16.16,28.49,21.76Z"/>
          <path class="cls-1" d="M591.36,320.77c-11.95-1.56-23.52-5.04-34.31-10.24l-4.71,9.62c12.23,5.38,25.38,8.55,38.87,9.32l.15-8.71Z"/>
          <path class="cls-1" d="M589.55,210.62l.24.82c-14.34,11.67-21.16,26.38-16.59,43.1,5.37,19.59,26.83,31.66,54.7,24.05,25.78-7.06,41.55-28,35.12-51.5-4.4-16.12-18.05-25.47-36.51-27.3l-.17-.59c14.37-12.37,16.59-26.06,13.5-37.39-4.57-16.71-22.02-29.44-48.02-22.36-23.51,6.43-37.66,26.08-31.89,47.07,3.18,11.56,12.91,21.31,29.64,24.08ZM645.16,233.97c3.79,13.81-3.98,26.78-20.24,31.25-17.13,4.69-30.72-4.44-33.79-18.05-3.48-12.75,2.1-25.59,16.57-34.24,19.52,0,33.06,4.94,37.46,21.03ZM594.14,152.84c16.49-4.56,25.73,4.89,28.65,15.62,3.34,12.19-3.07,22.79-13.54,29.88-16.62.12-28.9-4.26-32.37-17.76-3.15-11.53,2.39-23.7,17.25-27.73Z"/>
          <path class="cls-1" d="M1089.42,573.21c-.22,0-.48.03-.73.09-76.73-.59-158.78-1.57-257.89-3.11-62.86-.97-126.76-2.41-188.56-3.8-15.71-.35-31.42-.67-47.13-1-38.5-.79-77-1.58-115.5-2.37-59.18-1.02-118.91-1.74-176.91-2.45-37.6-.45-75.19-.9-112.78-1.43-45.63-.64-92.02-.95-136.88-1.25l-25.76-.18s0,0,0,0c0,0-.01,0-.02,0C12.19,557.74-.04,569.88,0,584.75c.03,14.87,12.32,26.94,27.38,26.9.01,0,.03,0,.04,0,73.44-.88,153.18-2.07,250.95-3.79,75.62-1.32,155.4-2.79,236.62-4.64,22.87-.55,45.74-1.1,68.61-1.64,7.23-.18,14.46-.36,21.7-.55l29.07-.77c95.87-2.54,195.01-5.14,292.53-6.87,12.76-.22,25.52-.48,38.29-.73,23.51-.47,47.03-.94,70.53-1.22l53.77-.64c4.04,0,7.23-3.89,7.22-8.82-.02-4.93-3.22-8.79-7.29-8.77ZM17,599.44c-8.19,0-14.88-6.57-14.91-14.65-.04-8.08,6.59-14.66,14.78-14.66,8.19,0,14.87,6.57,14.91,14.65.04,8.08-6.59,14.66-14.78,14.66ZM136.17,603.89c-31.94.48-62.2.89-91.25,1.25,5.91-4.97,9.75-12.28,9.73-20.52-.02-8.25-3.89-15.54-9.83-20.48l8.18.06c27.26.18,55.09.37,82.96.64,9.4,10.68,9.48,28.29.21,39.06ZM167.49,603.41c-5.56.08-11.15.17-16.6.26,9.08-10.73,9-28.06-.2-38.7,5.55.06,11.07.13,16.61.19,8.95,10.58,9.03,27.58.19,38.25ZM199.91,602.89c-5.92.1-11.9.19-17.69.29,8.63-10.6,8.57-27.3-.16-37.84,2.59.03,5.19.06,7.77.09,3.2.05,6.4.08,9.6.12,8.56,10.39,8.73,26.73.47,37.33ZM249.78,602.06c-11.96.2-23.71.4-35.15.59,8.04-10.53,7.89-26.57-.44-36.9,11.83.16,23.67.3,35.5.45,6.42,10.25,6.45,25.58.09,35.86ZM1035.65,585.14c-23.53.29-47.06.75-70.58,1.22-12.76.26-25.51.51-38.27.73-97.55,1.72-196.69,4.33-292.58,6.87l-29.06.76c-32.43.85-64.75,1.63-96.86,2.35,2.31-5.66,3.07-12.2,2.25-18.45l236.83,1.55c0-.53.06-1.06.28-1.59l-237.89-4.14c-.4-1.59-.93-3.11-1.54-4.59,44.63.84,89.26,1.83,133.9,2.84,61.82,1.39,125.73,2.83,188.61,3.81,92.94,1.44,170.81,2.38,243.66,2.97v5.21s-38.72.46-38.72.46ZM1089.49,586.72s-5.28.07-6.21.07c-2.3.03-4.6.06-6.9.08l-.03-10.04c4.28.03,8.58.1,12.86.13.09-.01.16-.07.25-.07,1.98,0,3.59,2.19,3.59,4.91.01,2.7-1.59,4.91-3.57,4.92Z"/>
          <path class="cls-1" d="M89.91,507.22h125.34v26.52h666.74v-26.51h124.8l-49.5-79.77,49.63-78.74h-206.42v26.51h-504.31v-26.51H89.78l49.63,78.73-49.5,79.77ZM923.15,423.71l36.28-57.56,5.49-8.71,2.34-3.72h16.55s-2.34,3.72-2.34,3.72l-44.2,70.02,44,71.06,2.33,3.76-16.36-.09-2.27-3.66-5.41-8.71-36.44-58.72-2.3-3.7,2.32-3.68ZM810.43,361.25l13.99,4.9,25.95,9.08h-39.94v-13.98ZM272.29,366.15l13.99-4.9v13.98h-39.94l25.95-9.08ZM223.97,521.9v-137.96h649.32v141.09H223.97v-3.13ZM115.23,357.43l-2.34-3.7h16.55s2.34,3.7,2.34,3.7l5.5,8.72,36.28,57.56,2.32,3.68-2.29,3.7-36.43,58.71-5.41,8.72-2.27,3.66-16.37.1,2.33-3.76,44-71.06-44.2-70.02Z"/>
          <path class="cls-1" d="M325.7,369.46h399.52c4.52-6.25,8.74-12.75,12.62-19.46l16.25,7.11c-2.04,4.19-4.2,8.31-6.48,12.36h32.58c16.39-33.87,25.59-71.88,25.59-112.03C805.79,115.24,690.53,0,548.35,0s-257.43,115.24-257.43,257.43c0,40.15,9.2,78.16,25.59,112.03h9.19ZM767.15,191.95c5.27,17.78,8.66,36.37,9.5,55.68l-8.57-1.31c.16-3.53.53-7.01.53-10.57,0-14.7-1.6-29.02-4.3-42.95.98-.19,1.91-.53,2.84-.84ZM766.77,263.47l10.04,1.53c-.89,26.92-6.34,52.63-15.74,76.42l-15.23-6.66c10.62-22.06,17.87-46,20.94-71.29ZM598.4,93.51c67.62,0,122.47,54.81,122.47,122.45s-54.85,122.46-122.47,122.46-122.44-54.83-122.44-122.46,54.83-122.45,122.44-122.45ZM449.03,68.77c17.78,0,32.2,13.69,32.2,30.55s-14.42,30.6-32.2,30.6-32.18-13.67-32.18-30.6,14.41-30.55,32.18-30.55ZM394.1,129.92c9.07,0,16.44,7.37,16.44,16.45s-7.37,16.44-16.44,16.44-16.47-7.36-16.47-16.44,7.37-16.45,16.47-16.45ZM370.23,186.17c5.71,0,10.35,4.64,10.35,10.36s-4.64,10.35-10.35,10.35-10.37-4.63-10.37-10.35,4.64-10.36,10.37-10.36Z"/>
        </g>
        <g>
          <path class="cls-1" d="M301.12,413.1c-1.34-1.5-5.45-3.2-12.31-5.09-6.87-1.89-12.16-2.84-15.87-2.84-1.5,0-2.45.2-2.84.59-.63.55-.87,1.89-.71,4.03.16,2.53.12,4.26-.12,5.21l-15.27,52.21c-4.66,2.45-7.06,4.14-7.22,5.09-.08.47-.12.91-.12,1.3,0,1.66.83,3.32,2.49,4.97-.4,1.42-1.86,5.29-4.38,11.6-1.82,4.34-2.57,7.07-2.25,8.17.16.63,2.47,1.94,6.93,3.91,4.46,1.97,7.64,2.96,9.53,2.96.47,0,.83-.08,1.07-.24,1.1-.63,1.79-1.44,2.07-2.43.28-.99.53-2.03.77-3.14,1.97-4.97,3.55-9.16,4.74-12.55,1.73-1.18,5.48-2.66,11.25-4.44,5.76-1.78,10.14-2.86,13.14-3.26,1.1,3.47,2.09,7.86,2.96,13.14.63,4.03,1.26,6.39,1.89,7.1,1.5,1.74,4.34,3.24,8.52,4.5,3.87,1.34,7.1,2.01,9.71,2.01.95,0,1.62-.12,2.01-.36.55-.71.87-1.78.95-3.2.24-2.68.39-4.38.47-5.09-4.1-8.21-8.13-23.13-12.08-44.76-3.08-17.52-4.85-30.67-5.33-39.43ZM274.72,464.6c.16-1.82,1.38-6.31,3.67-13.5,2.13-6.87,3.98-12.23,5.56-16.1.31,5.68.91,11.17,1.78,16.46.24,1.58.87,4.85,1.89,9.83-7.1,1.58-11.41,2.68-12.91,3.32Z"/>
          <path class="cls-1" d="M346.35,406.82c-2.29-.63-5.13-1.07-8.52-1.3-2.76-.16-4.58-.16-5.45,0-2.76.63-4.22,1.89-4.38,3.79,0,.47.14.97.41,1.48.28.51.41,1.01.41,1.48v83.47c0,.95-.16,1.62-.47,2.01-.32.4-.47.75-.47,1.07,0,1.26.87,2.65,2.6,4.14.79.71,3.71,1.7,8.76,2.96,4.81,1.18,7.58,1.7,8.29,1.54,1.89-.4,2.84-3.12,2.84-8.17,0-.47-.24-1.08-.71-1.84-.47-.75-.71-1.6-.71-2.55v-72.7c.47-3.32.95-5.76,1.42-7.34.08-.24.3-.83.65-1.78.35-.95.53-1.7.53-2.25,0-1.74-1.74-3.08-5.21-4.03Z"/>
          <path class="cls-1" d="M464.39,493.61v-72.46c0-.71.2-1.79.59-3.26.39-1.46.59-2.58.59-3.37,0-.63-.08-1.22-.24-1.78-.47-1.89-2.57-3.2-6.27-3.91-.95-.16-4.54-.51-10.77-1.07-1.34-.08-3.75-.55-7.22-1.42-3.16-.71-5.41-1.07-6.75-1.07-.71,0-1.34.08-1.89.24-1.82.47-4.18,6.2-7.1,17.17-5.84,21.47-9.87,35.72-12.08,42.74l-15.98-42.98c-.24-.55-.36-1.18-.36-1.89,0-.31.12-1.3.36-2.96.16-1.18.12-2.13-.12-2.84-.55-1.81-5.53-3.95-14.92-6.39-9-2.45-14.17-3.39-15.51-2.84-1.03.4-1.93,1.2-2.72,2.43-.79,1.22-1.18,2.31-1.18,3.26v83.94c0,.63-.14,1.5-.41,2.61-.28,1.11-.41,1.89-.41,2.37,0,.79.2,1.46.59,2.01.79,1.1,3.35,2.17,7.7,3.2,4.02,1.02,7.5,1.54,10.42,1.54,1.34,0,2.25-.16,2.72-.47.95-.63,1.5-2.29,1.66-4.97.16-2.21.08-4.1-.24-5.68-.08-.55-.51-1.93-1.3-4.14-.63-1.81-.95-3.24-.95-4.26v-47.12c1.66,2.92,5.25,12.59,10.77,29.01,2.29,6.79,4.89,14.68,7.81,23.68.16.55.16,1.7,0,3.43-.16,1.42.08,2.41.71,2.96,3.87,3.55,10.93,5.33,21.19,5.33,1.97,0,3.35-.12,4.14-.36,1.26-.32,2.09-1.26,2.49-2.84.16-.71.28-2.29.35-4.74,0-.47-.14-1.58-.41-3.31-.28-1.74-.41-3-.41-3.79,0-.39.04-.75.12-1.07,6-25.41,10.85-41.75,14.56-49.02v53.75c0,.71-.1,1.6-.3,2.66-.2,1.07-.3,1.84-.3,2.31,0,.63.12,1.22.35,1.78.79,1.58,4.03,3.16,9.71,4.74,5.37,1.5,9,2.01,10.89,1.54,1.34-.32,2.29-2.17,2.84-5.56.16-.79-.26-1.97-1.24-3.55-.99-1.58-1.48-2.76-1.48-3.55Z"/>
          <path class="cls-1" d="M544.07,461.4c-4.74-3-9.47-6-14.21-9-4.18-3-6.27-8.05-6.27-15.16,0-4.26.81-8.07,2.43-11.43,1.62-3.35,3.65-5.11,6.1-5.27.79-.08,1.18,1.58,1.18,4.97,0,1.89-.14,4.93-.41,9.12-.28,4.18-.41,6.87-.41,8.05,0,1.34.08,2.13.24,2.37,1.26,1.74,4.26,3.36,9,4.85,4.26,1.42,7.18,2.01,8.76,1.78,2.76-.39,4.22-2.33,4.38-5.8.08-.87-.08-1.74-.47-2.6-.47-1.26-.75-2.17-.83-2.72,0-.87.04-2.37.12-4.5.08-2.45.12-4.3.12-5.56,0-6.79-1.11-11.56-3.32-14.33-1.42-1.81-3.3-3.2-5.62-4.14-2.33-.95-4.64-1.85-6.93-2.72-9.24-3.87-14.76-5.6-16.58-5.21-4.34,1.03-8.47,4.56-12.37,10.6-3.91,6.04-6.06,12.02-6.45,17.94-.47,7.1,1.58,13.26,6.16,18.47,3.95,4.5,10.81,9.39,20.6,14.68,4.26,2.29,6.39,6.87,6.39,13.73,0,3.16-.53,5.98-1.6,8.47-1.07,2.49-2.35,3.73-3.85,3.73-.4,0-.75-.08-1.07-.24-1.42-.55-2.49-3.2-3.2-7.93-.79-5.13-1.42-7.97-1.89-8.52-.47-.55-2.7-1.16-6.69-1.84-3.99-.67-7.36-1.01-10.12-1.01-1.26,0-2.13.08-2.61.24-.95.32-1.76,1.05-2.43,2.19-.67,1.15-.89,2.31-.65,3.49.87,1.58,1.62,2.68,2.25,3.31.87,1.26,2.13,4.38,3.79,9.35,1.34,4.26,3.08,7.34,5.21,9.24,1.42,1.34,3.1,2.23,5.03,2.66,1.93.43,3.85.85,5.74,1.24.16,0,2.05.51,5.68,1.54,1.97.55,3.83.83,5.56.83,6.87-.16,12.23-2.11,16.1-5.86,3.87-3.75,5.8-8.54,5.8-14.39,0-6.79-1.11-12.08-3.32-15.87-1.74-2.92-4.85-5.84-9.35-8.76Z"/>
          <path class="cls-1" d="M630.15,453.23c-3.31-2.92-5.17-4.62-5.56-5.09v-32.68c0-.87.28-1.97.83-3.32.47-1.02.63-1.85.47-2.49-.4-1.42-2.27-2.76-5.62-4.03-3.36-1.26-5.9-1.78-7.64-1.54-1.66.16-3.32.36-4.97.59-2.21.4-3.51,1.3-3.91,2.72-.16.63-.06,1.46.3,2.49.35,1.03.53,1.62.53,1.78v33.03c-6.39,1.42-12.27,2.8-17.64,4.14v-28.89c0-.71.37-2.05,1.12-4.03.75-1.97,1.08-3.32,1.01-4.03-.24-2.05-2.45-3.71-6.63-4.97-3.24-.95-6.32-1.42-9.24-1.42-.71,0-1.15.04-1.3.12-2.53,1.42-3.87,2.53-4.03,3.32-.71,3.08-1.07,5.25-1.07,6.51v75.78c0,.63-.12,1.74-.35,3.32-.08,1.03,0,1.97.24,2.84.31,1.18,3.37,2.74,9.18,4.68,5.8,1.93,9.33,2.66,10.6,2.19.63-.24,1.07-.79,1.3-1.66.24-1.18.51-2.41.83-3.67-.08-.39-.38-.97-.89-1.72-.51-.75-.77-1.4-.77-1.95v-24.03c1.42-.55,4.34-1.34,8.76-2.37,4.42-1.02,7.38-1.62,8.88-1.78v23.92c0,.24-.36.83-1.07,1.78-.71.95-.99,1.7-.83,2.25.16,1.42.28,2.49.36,3.2,1.02,2.05,3.87,4.1,8.52,6.16,4.34,1.97,7.89,2.96,10.66,2.96.79,0,1.38-.08,1.78-.24,1.89-.87,2.49-3.83,1.78-8.88-.79-3.16-1.18-4.62-1.18-4.38v-29.84c.24-.08.91-.12,2.01-.12.79,0,2.07-.81,3.85-2.43,1.78-1.62,2.7-2.98,2.78-4.08.08-.87-.95-2.25-3.08-4.14Z"/>
          <path class="cls-1" d="M679.87,404.69c-.79-.08-1.58-.12-2.37-.12-1.66,0-5.41.83-11.25,2.49-.55-.08-1.32-.26-2.31-.53-.99-.28-1.76-.41-2.31-.41-6.16,0-11.17,7.42-15.04,22.26-2.84,11.05-4.26,20.72-4.26,29.01,0,10.18,1.42,18.87,4.26,26.05,3.24,8.13,8.01,13.58,14.33,16.34,5.05,1.66,8.76,2.8,11.13,3.43,1.97.63,3.98,1.24,6.04,1.84,2.05.59,3.91.81,5.56.65,8.13-.95,14.56-6.35,19.3-16.22,4.42-9.08,6.63-19.93,6.63-32.56,0-13.34-2.45-24.82-7.34-34.45-5.45-10.66-12.91-16.58-22.38-17.76ZM685.2,477.86c-2.6,9.55-6.04,13.93-10.3,13.14-3.63-.71-6.47-4.5-8.52-11.37-1.82-6.16-2.72-13.54-2.72-22.14,0-10.97,1.34-19.42,4.03-25.34.47.08,1.08.34,1.83.77.75.43,1.32.65,1.72.65,1.74,0,3.45-2.56,5.15-7.7,1.7-5.13,3.41-7.46,5.15-6.99,2.29.63,4.07,3.79,5.33,9.47,1.18,5.29,1.78,11.84,1.78,19.65,0,11.53-1.15,21.47-3.43,29.84Z"/>
          <path class="cls-1" d="M754.46,404.69c-.79-.08-1.58-.12-2.37-.12-1.66,0-5.41.83-11.25,2.49-.55-.08-1.32-.26-2.31-.53-.99-.28-1.76-.41-2.31-.41-6.16,0-11.17,7.42-15.04,22.26-2.84,11.05-4.26,20.72-4.26,29.01,0,10.18,1.42,18.87,4.26,26.05,3.24,8.13,8.01,13.58,14.33,16.34,5.05,1.66,8.76,2.8,11.13,3.43,1.97.63,3.98,1.24,6.04,1.84,2.05.59,3.91.81,5.56.65,8.13-.95,14.56-6.35,19.3-16.22,4.42-9.08,6.63-19.93,6.63-32.56,0-13.34-2.45-24.82-7.34-34.45-5.45-10.66-12.91-16.58-22.38-17.76ZM759.79,477.86c-2.6,9.55-6.04,13.93-10.3,13.14-3.63-.71-6.47-4.5-8.53-11.37-1.82-6.16-2.72-13.54-2.72-22.14,0-10.97,1.34-19.42,4.03-25.34.47.08,1.08.34,1.83.77.75.43,1.32.65,1.72.65,1.74,0,3.45-2.56,5.15-7.7,1.7-5.13,3.41-7.46,5.15-6.99,2.29.63,4.06,3.79,5.33,9.47,1.18,5.29,1.78,11.84,1.78,19.65,0,11.53-1.15,21.47-3.43,29.84Z"/>
          <path class="cls-1" d="M851.31,411.56c-.63-2.6-1.22-4.38-1.78-5.33-.79-1.42-2.29-2.29-4.5-2.6-1.03-.16-2.17.04-3.43.59-1.89.87-3.04,1.34-3.43,1.42l-41.2,10.54c-.71.16-1.7.16-2.96,0-1.26-.16-2.29-.12-3.08.12-3.08.95-4.93,2.33-5.56,4.14-.39,1.5.99,4.36,4.14,8.58,3.16,4.22,5.64,6.57,7.46,7.04.63.16,1.4-.06,2.31-.65.91-.59,1.56-.93,1.95-1.01l8.41-2.13v58.61c0,.95-.51,2.45-1.54,4.5-1.18,2.37-1.23,4.26-.12,5.68.95,1.1,4.03,2.25,9.23,3.43,4.66,1.02,8.29,1.54,10.89,1.54.63,0,1.02-.04,1.18-.12,1.02-.63,1.78-2.17,2.25-4.62.47-2.21.55-3.71.24-4.5-1.11-2.68-1.66-5.17-1.66-7.46v-62.28l12.2-3.32c.71-.16,1.62.02,2.72.53,1.1.51,1.97.77,2.61.77,2.37-.08,3.77-.57,4.2-1.48.43-.91.65-2.23.65-3.97,0-2.29-.4-4.97-1.18-8.05Z"/>
        </g>
      </g>
      <g>
        <path class="cls-1" d="M72.08,723.1c-6.39-4.05-12.79-8.1-19.18-12.15-5.65-4.05-8.47-10.87-8.47-20.46,0-5.75,1.09-10.9,3.28-15.43,2.18-4.53,4.93-6.9,8.23-7.11,1.06-.1,1.6,2.13,1.6,6.71,0,2.56-.19,6.66-.56,12.31-.37,5.65-.56,9.27-.56,10.87,0,1.81.1,2.88.32,3.2,1.7,2.35,5.75,4.53,12.15,6.55,5.75,1.92,9.7,2.72,11.83,2.4,3.73-.53,5.7-3.14,5.91-7.83.1-1.17-.11-2.34-.64-3.52-.64-1.7-1.01-2.93-1.12-3.68,0-1.17.05-3.2.16-6.07.1-3.3.16-5.81.16-7.51,0-9.16-1.49-15.61-4.48-19.34-1.92-2.45-4.45-4.32-7.59-5.6-3.14-1.28-6.26-2.5-9.35-3.68-12.47-5.22-19.93-7.57-22.38-7.03-5.86,1.39-11.43,6.15-16.71,14.31-5.28,8.15-8.18,16.23-8.71,24.22-.64,9.59,2.13,17.9,8.31,24.94,5.33,6.07,14.6,12.68,27.82,19.82,5.75,3.09,8.63,9.27,8.63,18.54,0,4.26-.72,8.07-2.16,11.43-1.44,3.36-3.17,5.04-5.2,5.04-.53,0-1.01-.1-1.44-.32-1.92-.74-3.36-4.32-4.32-10.71-1.07-6.93-1.92-10.76-2.56-11.51-.64-.74-3.65-1.57-9.03-2.48-5.38-.9-9.94-1.36-13.67-1.36-1.71,0-2.88.11-3.52.32-1.28.43-2.37,1.41-3.28,2.96-.91,1.55-1.2,3.12-.88,4.72,1.17,2.13,2.18,3.62,3.04,4.48,1.17,1.71,2.88,5.91,5.12,12.63,1.81,5.76,4.16,9.91,7.03,12.47,1.92,1.81,4.18,3.01,6.79,3.6,2.61.58,5.2,1.14,7.75,1.68.21,0,2.77.69,7.67,2.08,2.66.74,5.17,1.12,7.51,1.12,9.27-.21,16.52-2.85,21.74-7.91,5.22-5.06,7.83-11.53,7.83-19.42,0-9.16-1.49-16.31-4.48-21.42-2.35-3.94-6.55-7.89-12.63-11.83Z"/>
        <path class="cls-1" d="M222.82,651c-4.26-1.92-8.21-3.14-11.83-3.68-4.48-.64-7.3,1.71-8.47,7.03-1.92,4.48-4.64,12.95-8.15,25.42-4.58,15.67-8.31,30.85-11.19,45.56-1.71-9.91-2.56-21.79-2.56-35.65,0-5.65.16-12.25.48-19.82.21-6.39.32-9.96.32-10.71-.11-1.38-3.84-3.86-11.19-7.43-7.35-3.57-11.62-5.25-12.79-5.04-1.92.32-3.52,1.28-4.8,2.88-1.07,2.45-1.71,4.37-1.92,5.75l-22.38,70.18c-3.09-20.57-4.64-35.38-4.64-44.44,0-4.16.21-8.69.64-13.59.42-5.44.58-8.47.48-9.11-.43-1.92-3.68-4.48-9.75-7.67-6.08-3.2-10.5-4.85-13.27-4.96-2.45-.1-4.37,2.13-5.75,6.71-.43,1.28-.16,4.42.8,9.43-.32,20.25.37,37.46,2.08,51.63,1.7,14.81,5.06,31.33,10.07,49.56.32,4.69.43,7.46.32,8.31,1.06,3.73,5.38,6.93,12.95,9.59,6.18,2.24,11.72,3.36,16.63,3.36,1.06,0,1.92-.11,2.56-.32,2.02-.64,3.52-3.25,4.48-7.83.21-.96.16-2.29-.16-4-.21-1.6-.21-2.88,0-3.84-.21-8.21,1.06-16.47,3.84-24.78,2.88-7.67,5.81-15.35,8.79-23.02,1.49,14.49,4.53,28.77,9.11,42.84.21,6.39.37,9.7.48,9.91.64,1.92,5.6,4.85,14.87,8.79,8.95,4.05,14.28,5.91,15.99,5.59,2.13-.32,3.57-2.98,4.32-7.99.1-.64,0-1.6-.32-2.88-.32-1.28-.37-2.34-.16-3.2-.43-5.33,2.13-20.57,7.67-45.72,6.71-30.69,14.17-53.55,22.38-68.58-.96-2.98-4.26-5.76-9.91-8.31Z"/>
        <path class="cls-1" d="M306.35,751.48c-6.02-4.64-9.78-6.95-11.27-6.95-1.28,0-4.66,1.31-10.15,3.92-5.49,2.61-9.83,4.88-13.03,6.79v-16.79c10.23-6.07,17.37-9.48,21.42-10.23,2.66-.21,4.53-.32,5.59-.32,1.38-.42,2.82-1.44,4.32-3.04,1.49-1.6,2.24-2.98,2.24-4.16,0-1.92-2.74-5.36-8.23-10.31-5.49-4.96-9.09-7.33-10.79-7.11-5.97,2.03-10.82,4-14.55,5.91v-26.06c3.73-3.52,9.54-6.61,17.42-9.27,3.3-1.17,6.87-2.18,10.71-3.04.21-.1.58,0,1.12.32.53.32,1.38.48,2.56.48,1.38,0,3.17-1.17,5.35-3.52,2.18-2.34,3.17-4,2.96-4.96-.43-2.02-3.17-5.41-8.23-10.15-5.06-4.74-8.87-7.54-11.43-8.39-1.17-.42-4.1.75-8.79,3.52-5.12,2.88-9.27,4.32-12.47,4.32-2.45,0-5.59-.77-9.43-2.32-3.84-1.54-6.39-2.37-7.67-2.48-1.17-.1-3.01.53-5.52,1.92-2.51,1.39-3.76,2.45-3.76,3.2v120.21c0,1.39,3.3,3.52,9.91,6.39.96.42,6.77,2.82,17.43,7.19,6.61-5.65,13.85-10.28,21.74-13.91,3.3-1.6,6.61-2.88,9.91-3.84.21-.11.42-.16.64-.16.53,0,1.22.24,2.08.72.85.48,1.44.67,1.76.56,1.17-.42,2.53-1.68,4.08-3.76,1.54-2.08,2.48-4.02,2.8-5.83.21-1.28-2.69-4.24-8.71-8.87Z"/>
        <path class="cls-1" d="M400.1,657.88c-1.81-2.02-7.35-4.32-16.63-6.87-9.27-2.56-16.41-3.84-21.42-3.84-2.03,0-3.3.27-3.84.8-.85.75-1.17,2.56-.96,5.44.21,3.41.16,5.76-.16,7.03l-20.62,70.5c-6.29,3.3-9.54,5.6-9.75,6.87-.11.64-.16,1.23-.16,1.76,0,2.24,1.12,4.48,3.36,6.71-.53,1.92-2.51,7.14-5.91,15.67-2.45,5.86-3.46,9.54-3.04,11.03.21.85,3.33,2.61,9.35,5.28,6.02,2.66,10.31,4,12.87,4,.64,0,1.12-.11,1.44-.32,1.49-.85,2.42-1.95,2.8-3.28.37-1.33.72-2.74,1.04-4.24,2.66-6.71,4.79-12.36,6.39-16.95,2.34-1.6,7.41-3.6,15.19-5.99,7.78-2.4,13.69-3.86,17.74-4.4,1.49,4.69,2.82,10.61,4,17.74.85,5.44,1.7,8.63,2.56,9.59,2.02,2.34,5.86,4.37,11.51,6.07,5.22,1.81,9.59,2.72,13.11,2.72,1.28,0,2.18-.16,2.72-.48.74-.96,1.17-2.4,1.28-4.32.32-3.62.53-5.91.64-6.87-5.54-11.08-10.98-31.22-16.31-60.43-4.16-23.66-6.55-41.4-7.19-53.23ZM364.45,727.42c.21-2.45,1.86-8.52,4.95-18.22,2.88-9.27,5.38-16.52,7.51-21.74.42,7.67,1.22,15.08,2.4,22.22.32,2.13,1.17,6.55,2.56,13.27-9.59,2.13-15.4,3.62-17.42,4.48Z"/>
        <path class="cls-1" d="M521.91,756.67c-1.81-.96-3.2-1.6-4.16-1.92-15.24-15.67-25.1-25.52-29.58-29.57,21.74-19.4,32.29-35.27,31.65-47.64-.21-3.94-1.71-7.51-4.48-10.71-.21-.32-3.25-3.25-9.11-8.79-2.24-2.13-4.58-4.26-7.03-6.39-2.45-2.13-5.17-3.52-8.15-4.16-1.71-.32-3.36-.48-4.96-.48-4.16,0-9.03,1.41-14.63,4.24-5.59,2.82-9.3,4.29-11.11,4.4-1.92.11-5.14-.45-9.67-1.68-4.53-1.22-7.43-1.73-8.71-1.52-4.16.53-6.29,2.24-6.39,5.12,0,.32.16.77.48,1.36.32.59.48,1.25.48,2v111.58c0,1.39-.13,2.53-.4,3.44-.27.91-.4,1.63-.4,2.16,0,1.7,3.41,3.3,10.23,4.8,6.29,1.49,11.03,2.08,14.23,1.76,4.16-.32,6.24-2.08,6.24-5.27,0-.85-.45-2.18-1.36-4-.91-1.81-1.36-3.3-1.36-4.48v-29.57l33.73,31.49c1.28,2.03,2.08,3.57,2.4,4.64,2.02,3.52,4.74,5.33,8.15,5.44,3.2.1,7.17-3.38,11.91-10.47,4.74-7.09,6.63-11.53,5.67-13.35-1.39-1.06-2.61-1.86-3.68-2.4ZM463.72,709.83v-24.46c12.68-10.44,21.53-15.67,26.54-15.67,1.81,0,2.72,1.07,2.72,3.2,0,4.48-3.73,11.3-11.19,20.46-7.46,9.17-13.48,14.65-18.06,16.47Z"/>
        <path class="cls-1" d="M657.79,756.67c-1.81-.96-3.2-1.6-4.16-1.92-15.24-15.67-25.1-25.52-29.57-29.57,21.74-19.4,32.29-35.27,31.65-47.64-.21-3.94-1.71-7.51-4.48-10.71-.21-.32-3.25-3.25-9.11-8.79-2.24-2.13-4.58-4.26-7.03-6.39-2.45-2.13-5.17-3.52-8.15-4.16-1.71-.32-3.36-.48-4.96-.48-4.16,0-9.03,1.41-14.63,4.24-5.59,2.82-9.3,4.29-11.11,4.4-1.92.11-5.14-.45-9.67-1.68-4.53-1.22-7.43-1.73-8.71-1.52-4.16.53-6.29,2.24-6.39,5.12,0,.32.16.77.48,1.36.32.59.48,1.25.48,2v111.58c0,1.39-.13,2.53-.4,3.44-.27.91-.4,1.63-.4,2.16,0,1.7,3.41,3.3,10.23,4.8,6.29,1.49,11.03,2.08,14.23,1.76,4.16-.32,6.23-2.08,6.23-5.27,0-.85-.45-2.18-1.36-4-.91-1.81-1.36-3.3-1.36-4.48v-29.57l33.73,31.49c1.28,2.03,2.08,3.57,2.4,4.64,2.02,3.52,4.74,5.33,8.15,5.44,3.2.1,7.17-3.38,11.91-10.47,4.74-7.09,6.63-11.53,5.68-13.35-1.39-1.06-2.61-1.86-3.68-2.4ZM599.6,709.83v-24.46c12.68-10.44,21.53-15.67,26.54-15.67,1.81,0,2.72,1.07,2.72,3.2,0,4.48-3.73,11.3-11.19,20.46-7.46,9.17-13.48,14.65-18.06,16.47Z"/>
        <path class="cls-1" d="M735.72,751.48c-6.02-4.64-9.78-6.95-11.27-6.95-1.28,0-4.66,1.31-10.15,3.92-5.49,2.61-9.83,4.88-13.03,6.79v-16.79c10.23-6.07,17.37-9.48,21.42-10.23,2.66-.21,4.53-.32,5.59-.32,1.38-.42,2.82-1.44,4.32-3.04,1.49-1.6,2.24-2.98,2.24-4.16,0-1.92-2.74-5.36-8.23-10.31-5.49-4.96-9.09-7.33-10.79-7.11-5.97,2.03-10.82,4-14.55,5.91v-26.06c3.73-3.52,9.54-6.61,17.42-9.27,3.3-1.17,6.87-2.18,10.71-3.04.21-.1.58,0,1.12.32.53.32,1.38.48,2.56.48,1.38,0,3.17-1.17,5.36-3.52,2.18-2.34,3.17-4,2.96-4.96-.43-2.02-3.17-5.41-8.23-10.15-5.06-4.74-8.87-7.54-11.43-8.39-1.17-.42-4.1.75-8.79,3.52-5.12,2.88-9.27,4.32-12.47,4.32-2.45,0-5.59-.77-9.43-2.32-3.84-1.54-6.39-2.37-7.67-2.48-1.17-.1-3.01.53-5.51,1.92-2.51,1.39-3.76,2.45-3.76,3.2v120.21c0,1.39,3.3,3.52,9.91,6.39.96.42,6.77,2.82,17.43,7.19,6.61-5.65,13.85-10.28,21.74-13.91,3.3-1.6,6.61-2.88,9.91-3.84.21-.11.42-.16.64-.16.53,0,1.22.24,2.08.72.85.48,1.44.67,1.76.56,1.17-.42,2.53-1.68,4.08-3.76,1.54-2.08,2.48-4.02,2.8-5.83.21-1.28-2.69-4.24-8.71-8.87Z"/>
        <path class="cls-1" d="M817,657.08c-1.49-.74-3.84-2.61-7.03-5.6-2.66-2.56-5.22-4.16-7.67-4.8-1.28-.32-2.56-.48-3.84-.48-2.24,0-5.83.91-10.79,2.72-4.95,1.81-9.03,2.67-12.23,2.56-2.24-.1-5.25-.77-9.03-2-3.78-1.22-5.94-1.84-6.47-1.84-3.2,0-5.12,2.56-5.76,7.67-.11.75.21,1.97.96,3.68.75,1.71,1.12,2.88,1.12,3.52v98.79c0,1.28-.37,3.04-1.12,5.28-.96,2.98-.96,5.22,0,6.71,1.6,2.35,5.75,5.01,12.47,7.99,6.39,2.88,10.55,4.21,12.47,4,1.92-.21,3.38-1.57,4.4-4.08,1.01-2.51,1.41-4.24,1.2-5.2-.21-.96-.69-2.72-1.44-5.28-.53-1.81-.8-3.41-.8-4.8v-27.18c2.02,1.6,4.08,3.22,6.15,4.88,2.08,1.65,3.97,2.48,5.68,2.48,8.74,0,17.32-8.21,25.74-24.62,7.57-14.71,11.35-26.86,11.35-36.45,0-13.21-5.11-22.54-15.35-27.98ZM799.74,701.04c-5.11,11.3-10.55,17.85-16.3,19.66v-38.53c2.34-3.2,5.7-6.13,10.07-8.79,4.37-2.66,7.78-4,10.23-4,2.02,0,3.04,1.87,3.04,5.6,0,7.14-2.35,15.83-7.03,26.06Z"/>
        <path class="cls-1" d="M905.64,751.48c-6.02-4.64-9.78-6.95-11.27-6.95-1.28,0-4.66,1.31-10.15,3.92-5.49,2.61-9.83,4.88-13.03,6.79v-16.79c10.23-6.07,17.37-9.48,21.42-10.23,2.66-.21,4.53-.32,5.59-.32,1.38-.42,2.82-1.44,4.32-3.04,1.49-1.6,2.24-2.98,2.24-4.16,0-1.92-2.74-5.36-8.23-10.31-5.49-4.96-9.09-7.33-10.79-7.11-5.97,2.03-10.82,4-14.55,5.91v-26.06c3.73-3.52,9.54-6.61,17.42-9.27,3.3-1.17,6.87-2.18,10.71-3.04.21-.1.58,0,1.12.32.53.32,1.38.48,2.56.48,1.38,0,3.17-1.17,5.35-3.52,2.18-2.34,3.17-4,2.96-4.96-.43-2.02-3.17-5.41-8.23-10.15-5.06-4.74-8.87-7.54-11.43-8.39-1.17-.42-4.1.75-8.79,3.52-5.12,2.88-9.27,4.32-12.47,4.32-2.45,0-5.6-.77-9.43-2.32-3.84-1.54-6.39-2.37-7.67-2.48-1.17-.1-3.01.53-5.51,1.92-2.51,1.39-3.76,2.45-3.76,3.2v120.21c0,1.39,3.3,3.52,9.91,6.39.96.42,6.77,2.82,17.43,7.19,6.61-5.65,13.85-10.28,21.74-13.91,3.3-1.6,6.61-2.88,9.91-3.84.21-.11.42-.16.64-.16.53,0,1.22.24,2.08.72.85.48,1.44.67,1.76.56,1.17-.42,2.53-1.68,4.08-3.76,1.54-2.08,2.48-4.02,2.8-5.83.21-1.28-2.69-4.24-8.71-8.87Z"/>
        <path class="cls-1" d="M999.4,657.88c-1.81-2.02-7.35-4.32-16.63-6.87-9.27-2.56-16.41-3.84-21.42-3.84-2.03,0-3.3.27-3.84.8-.85.75-1.17,2.56-.96,5.44.21,3.41.16,5.76-.16,7.03l-20.62,70.5c-6.29,3.3-9.54,5.6-9.75,6.87-.11.64-.16,1.23-.16,1.76,0,2.24,1.12,4.48,3.36,6.71-.53,1.92-2.51,7.14-5.91,15.67-2.45,5.86-3.46,9.54-3.04,11.03.21.85,3.33,2.61,9.35,5.28,6.02,2.66,10.31,4,12.87,4,.64,0,1.12-.11,1.44-.32,1.49-.85,2.42-1.95,2.8-3.28.37-1.33.72-2.74,1.04-4.24,2.66-6.71,4.8-12.36,6.39-16.95,2.34-1.6,7.41-3.6,15.19-5.99,7.78-2.4,13.69-3.86,17.74-4.4,1.49,4.69,2.82,10.61,4,17.74.85,5.44,1.7,8.63,2.56,9.59,2.02,2.34,5.86,4.37,11.51,6.07,5.22,1.81,9.59,2.72,13.11,2.72,1.28,0,2.18-.16,2.72-.48.75-.96,1.17-2.4,1.28-4.32.32-3.62.53-5.91.64-6.87-5.54-11.08-10.98-31.22-16.31-60.43-4.16-23.66-6.55-41.4-7.19-53.23ZM963.75,727.42c.21-2.45,1.86-8.52,4.96-18.22,2.88-9.27,5.38-16.52,7.51-21.74.42,7.67,1.22,15.08,2.4,22.22.32,2.13,1.17,6.55,2.56,13.27-9.59,2.13-15.4,3.62-17.42,4.48Z"/>
        <path class="cls-1" d="M1101.55,655.8c-.85-3.52-1.65-5.91-2.4-7.19-1.07-1.92-3.09-3.09-6.07-3.52-1.39-.21-2.93.05-4.64.8-2.56,1.17-4.1,1.81-4.64,1.92l-55.63,14.23c-.96.21-2.29.21-4,0-1.71-.21-3.09-.16-4.16.16-4.16,1.28-6.66,3.14-7.51,5.59-.53,2.03,1.33,5.89,5.59,11.59,4.26,5.7,7.62,8.87,10.07,9.51.85.21,1.89-.08,3.12-.88,1.22-.8,2.1-1.25,2.64-1.36l11.35-2.88v79.13c0,1.28-.69,3.3-2.08,6.07-1.6,3.2-1.65,5.75-.16,7.67,1.28,1.49,5.44,3.04,12.47,4.64,6.29,1.38,11.19,2.08,14.71,2.08.85,0,1.38-.05,1.6-.16,1.38-.85,2.4-2.93,3.04-6.23.64-2.98.74-5.01.32-6.07-1.49-3.62-2.24-6.98-2.24-10.07v-84.09l16.46-4.48c.96-.21,2.18.03,3.68.72,1.49.69,2.66,1.04,3.52,1.04,3.2-.1,5.09-.77,5.67-2,.59-1.22.88-3.01.88-5.36,0-3.09-.53-6.71-1.6-10.87Z"/>
      </g>
    </g>
  </g>
</svg>