<?xml version="1.0" standalone="no"?>
<!DOCTYPE svg PUBLIC "-//W3C//DTD SVG 20010904//EN"
 "http://www.w3.org/TR/2001/REC-SVG-20010904/DTD/svg10.dtd">
<svg version="1.0" xmlns="http://www.w3.org/2000/svg"
 width="1024.000000pt" height="1024.000000pt" viewBox="0 0 1024.000000 1024.000000"
 preserveAspectRatio="xMidYMid meet">

<g transform="translate(0.000000,1024.000000) scale(0.100000,-0.100000)"
fill="#000000" stroke="none">
<path d="M2712 9448 c-8 -8 -12 -57 -12 -156 0 -142 1 -145 25 -168 24 -22 35
-24 159 -26 l133 -3 -181 -330 -180 -330 -2 -130 c-1 -137 5 -165 36 -165 17
0 19 -9 22 -72 l3 -73 428 -3 427 -2 0 50 0 50 -415 0 c-408 0 -415 0 -415 20
0 20 7 20 353 22 413 3 406 3 434 -7 21 -7 22 -5 25 102 4 134 1 153 -23 153
-15 0 -19 7 -19 38 0 21 -5 43 -12 50 -8 8 -55 12 -146 12 -73 0 -132 3 -130
8 14 30 144 282 232 447 l106 200 0 107 c0 106 0 108 -25 114 -20 5 -25 12
-25 39 0 66 9 65 -409 65 -280 0 -380 -3 -389 -12z m766 -141 l3 -119 -62
-116 c-34 -65 -120 -225 -190 -358 -71 -132 -129 -246 -129 -252 0 -9 53 -12
190 -12 l190 0 0 -140 0 -140 -400 0 -400 0 0 124 0 125 64 118 c35 65 123
226 195 358 72 132 131 243 131 247 0 5 -76 8 -169 8 l-168 0 -8 130 c-4 71
-4 134 0 140 4 7 125 9 378 8 l372 -3 3 -118z"/>
<path d="M2760 9290 l0 -100 179 0 c114 0 182 -4 186 -10 4 -6 -69 -149 -160
-318 -92 -169 -185 -339 -206 -378 -38 -70 -39 -73 -39 -178 l0 -106 288 0
c159 0 323 3 365 6 l77 7 0 103 0 104 -199 0 c-116 0 -202 4 -206 10 -3 5 87
182 200 393 l206 385 -7 91 -7 91 -338 0 -339 0 0 -100z"/>
<path d="M3616 9444 c-14 -14 -16 -85 -16 -634 0 -363 4 -629 9 -644 6 -13 18
-26 27 -28 15 -2 17 -13 16 -63 -1 -33 1 -66 6 -73 6 -9 54 -12 203 -10 l194
3 3 48 3 47 -190 0 c-186 0 -191 1 -191 21 0 20 4 20 175 17 l175 -3 0 615 c0
338 -5 633 -10 655 -14 62 -23 65 -216 65 -144 0 -175 -3 -188 -16z m372 -646
l2 -628 -180 0 -180 0 0 630 0 630 178 -2 177 -3 3 -627z"/>
<path d="M3670 8795 l0 -595 140 0 140 0 0 595 0 595 -140 0 -140 0 0 -595z"/>
<path d="M4131 9446 c-8 -9 -10 -188 -9 -652 l3 -638 24 -13 c22 -10 25 -17
22 -62 -5 -99 -39 -91 365 -91 l354 0 0 50 0 50 -342 2 c-315 3 -343 4 -346
20 -3 16 20 18 308 20 171 2 318 -1 327 -6 26 -14 33 13 33 137 0 95 -3 119
-15 123 -9 4 -15 19 -15 40 0 23 -6 37 -19 44 -11 5 -76 10 -145 10 l-126 0 0
60 0 60 130 0 130 0 0 150 c0 93 -4 150 -10 150 -5 0 -10 12 -10 26 0 59 -10
64 -135 64 l-115 0 0 55 0 54 158 3 157 3 3 126 c2 103 0 128 -13 139 -8 7
-15 25 -15 41 0 18 -7 32 -19 39 -13 6 -140 10 -344 10 -262 0 -327 -3 -336
-14z m673 -32 c10 -26 7 -224 -4 -245 -10 -17 -23 -19 -155 -19 l-145 0 0 -90
0 -90 118 0 c64 0 123 -4 130 -8 9 -7 12 -41 10 -138 l-3 -129 -127 -3 -128
-3 0 -119 0 -120 155 0 155 0 0 -140 0 -140 -330 0 -330 0 0 630 0 630 324 0
c286 0 325 -2 330 -16z m-96 -761 c-32 -2 -86 -2 -120 0 -35 2 -9 3 57 3 66 0
94 -1 63 -3z"/>
<path d="M4182 8798 l3 -593 225 -3 c124 -2 257 0 297 3 l72 7 0 99 0 99 -142
0 c-78 0 -148 4 -155 9 -10 6 -14 44 -14 148 0 77 2 145 6 152 5 7 49 11 129
11 l122 0 -3 100 -3 99 -122 3 -122 3 0 125 0 125 148 3 147 3 0 99 0 100
-295 0 -295 0 2 -592z"/>
<path d="M4936 9444 c-14 -14 -16 -85 -16 -634 0 -378 4 -629 10 -644 6 -16
17 -26 30 -26 18 0 20 -6 20 -75 l0 -75 353 2 352 3 3 48 3 47 -340 0 c-336 0
-341 0 -341 20 0 20 5 21 323 20 l322 -1 3 130 c2 85 -1 131 -8 131 -5 0 -10
10 -10 23 0 12 -7 33 -16 45 -14 21 -22 22 -135 22 l-119 0 0 444 c0 435 0
444 -20 449 -15 4 -20 14 -20 36 0 20 -7 34 -19 41 -11 6 -92 10 -190 10 -141
0 -172 -3 -185 -16z m368 -30 c3 -9 6 -229 6 -490 l0 -473 148 -3 147 -3 3
-137 3 -138 -331 0 -330 0 0 630 0 630 174 0 c149 0 175 -2 180 -16z"/>
<path d="M4988 8795 l2 -595 278 0 c152 0 283 4 290 8 9 6 12 35 10 108 l-3
99 -145 5 -145 5 -3 483 -2 482 -143 0 -142 0 3 -595z"/>
<path d="M5726 9444 c-14 -14 -16 -83 -14 -652 l3 -637 28 -13 c26 -12 27 -17
27 -83 l0 -69 355 0 355 0 0 50 0 50 -340 0 c-333 0 -340 0 -340 20 0 19 7 20
98 20 53 0 192 1 308 2 115 1 215 -2 222 -6 26 -16 32 8 32 134 0 104 -3 129
-15 134 -9 3 -15 18 -15 35 0 20 -7 34 -19 41 -11 5 -76 10 -145 10 l-126 0 0
60 0 60 130 0 130 0 0 155 c0 97 -4 155 -10 155 -5 0 -10 10 -10 23 0 49 -17
56 -135 59 l-110 3 -3 53 -3 52 160 0 161 0 0 134 c0 74 -4 137 -9 140 -5 3
-12 21 -15 40 -4 19 -14 37 -22 40 -9 3 -161 6 -339 6 -281 0 -326 -2 -339
-16z m669 -154 l0 -135 -152 -3 -153 -3 0 -89 0 -90 53 0 c30 0 89 -3 131 -6
l77 -7 -3 -131 -3 -131 -128 -3 -128 -3 3 -117 3 -117 153 -3 152 -3 0 -139 0
-140 -330 0 -330 0 0 630 0 630 328 -2 327 -3 0 -135z m-97 -637 c-32 -2 -84
-2 -115 0 -32 2 -6 3 57 3 63 0 89 -1 58 -3z"/>
<path d="M5770 8983 c0 -225 3 -492 7 -596 l6 -188 261 2 c144 0 276 3 294 6
l32 5 0 99 0 99 -142 0 c-79 0 -149 4 -156 8 -9 7 -12 45 -10 158 l3 149 128
3 128 3 -3 97 -3 97 -125 5 -125 5 0 125 0 125 148 3 147 3 0 99 0 100 -295 0
-295 0 0 -407z"/>
<path d="M6530 9445 c-15 -18 -14 33 -12 -683 2 -605 2 -614 22 -619 17 -5 20
-14 20 -62 0 -93 -3 -92 205 -89 l180 3 3 47 3 48 -178 2 c-156 3 -178 5 -181
19 -3 15 15 18 143 24 104 5 150 4 158 -4 33 -33 37 -15 39 219 l3 231 112
-248 c61 -137 120 -269 132 -296 l20 -47 178 2 178 3 3 48 3 47 -184 0 c-174
0 -185 1 -190 19 -3 11 -2 22 1 25 11 12 308 6 320 -6 6 -6 14 -9 17 -7 9 10
5 1243 -4 1283 -5 21 -16 43 -23 47 -21 14 -332 11 -346 -3 -9 -9 -12 -79 -12
-252 0 -141 -4 -236 -9 -230 -5 5 -57 115 -116 244 -58 129 -112 238 -118 242
-7 4 -89 8 -183 8 -139 0 -174 -3 -184 -15z m489 -307 c73 -161 137 -297 141
-301 4 -5 7 125 6 290 l-1 298 163 3 162 2 2 -455 c2 -250 3 -533 3 -627 l0
-173 -173 0 -173 0 -135 300 c-74 165 -136 301 -138 303 -2 1 -1 -135 2 -303
l5 -305 -172 0 -171 0 0 623 c0 343 3 627 7 630 3 4 81 7 173 7 l166 0 133
-292z"/>
<path d="M6580 8795 l0 -595 131 0 132 0 -6 308 c-3 169 -8 316 -12 327 -3 11
1 29 9 40 13 18 16 18 30 5 8 -8 82 -163 163 -345 l149 -330 139 0 140 0 3
593 2 592 -131 0 -132 0 4 -332 c4 -324 3 -333 -15 -333 -15 0 -31 24 -67 105
-26 58 -94 207 -151 332 l-103 227 -142 1 -143 0 0 -595z"/>
<path d="M3295 7897 c-87 -29 -135 -68 -171 -137 -25 -51 -31 -174 -10 -236
21 -63 105 -176 156 -212 36 -25 51 -44 33 -41 -5 1 -54 1 -110 0 -102 -1
-103 -1 -109 -27 -23 -89 67 -304 154 -371 62 -47 137 -66 236 -61 135 7 224
61 272 163 29 61 32 165 8 258 -29 112 -70 172 -167 244 l-59 43 110 0 c65 0
113 4 117 10 7 11 -9 123 -25 182 -20 70 -70 130 -135 162 -53 27 -72 31 -160
33 -63 2 -115 -2 -140 -10z m278 -36 c91 -44 153 -151 145 -248 l-3 -38 -122
-3 -123 -3 0 45 c0 52 -21 78 -59 74 -21 -2 -27 -9 -29 -35 -5 -49 10 -66 119
-144 136 -96 160 -119 195 -181 26 -47 29 -62 29 -138 0 -99 -20 -148 -82
-199 -56 -46 -123 -66 -228 -65 -205 1 -305 90 -305 271 l0 53 125 0 125 0 0
-32 c0 -52 21 -83 54 -83 18 0 34 8 42 20 25 38 -9 81 -139 178 -169 126 -204
184 -195 319 8 112 62 181 173 221 70 25 214 19 278 -12z m-125 -244 c4 -42
-10 -48 -33 -13 -18 27 -10 58 14 54 11 -2 17 -16 19 -41z m-23 -417 c20 -23
13 -53 -12 -48 -12 2 -19 14 -21 36 -4 37 7 41 33 12z m276 -199 c-13 -24 -74
-77 -110 -95 -82 -43 -246 -41 -327 4 -22 12 -30 18 -19 15 160 -50 349 -22
430 63 34 37 40 39 26 13z"/>
<path d="M3303 7846 c-64 -21 -99 -51 -129 -111 -22 -47 -26 -65 -22 -124 5
-96 39 -148 148 -229 172 -126 192 -148 192 -207 0 -49 -25 -75 -73 -75 -29 0
-43 6 -63 31 -15 18 -26 43 -26 60 l0 29 -95 0 -95 0 0 -44 c0 -93 40 -158
119 -194 46 -21 71 -25 146 -26 194 -1 295 79 295 235 0 111 -48 178 -212 292
-53 37 -106 78 -117 92 -51 65 -29 137 43 143 49 4 73 -18 82 -74 l6 -44 96 0
95 0 -7 56 c-10 87 -47 139 -126 180 -46 23 -198 29 -257 10z"/>
<path d="M2737 7884 c-4 -4 -7 -218 -7 -475 0 -458 0 -469 20 -479 15 -8 20
-21 20 -55 l0 -45 150 0 150 0 0 35 0 35 -140 0 c-122 0 -140 2 -140 16 0 14
15 16 130 12 l130 -4 -1 451 c-1 247 -4 464 -8 480 l-6 30 -146 3 c-80 1 -148
-1 -152 -4z m281 -477 l2 -458 -132 3 -133 3 -3 445 c-1 245 0 451 3 458 3 9
36 12 132 10 l128 -3 3 -458z"/>
<path d="M2780 7410 l0 -430 105 0 105 0 0 430 0 430 -105 0 -105 0 0 -430z"/>
<path d="M3767 7883 c-4 -3 -7 -57 -7 -120 0 -92 3 -115 15 -119 8 -4 15 -17
15 -30 0 -22 4 -23 73 -26 l72 -3 -4 -306 c-2 -168 0 -316 4 -328 3 -11 13
-21 21 -21 10 0 14 -13 14 -50 l0 -50 150 0 150 0 0 35 0 35 -141 0 c-108 0
-140 3 -136 13 3 9 39 12 135 12 l132 0 2 330 3 330 83 3 84 3 -4 127 c-2 77
-8 136 -16 150 l-13 22 -313 0 c-172 0 -316 -3 -319 -7z m621 -115 l-3 -103
-82 -3 -83 -3 0 -354 0 -355 -130 0 -130 0 -2 203 c-1 111 0 256 1 322 1 66 0
134 -4 152 l-6 32 -82 3 -82 3 -3 103 -3 102 306 0 306 0 -3 -102z m-30 -135
c-21 -2 -55 -2 -75 0 -21 2 -4 4 37 4 41 0 58 -2 38 -4z"/>
<path d="M3810 7765 l0 -75 79 0 c52 0 82 -4 87 -12 5 -7 8 -166 8 -353 l1
-340 103 -3 102 -3 0 344 c0 253 3 346 12 355 7 7 41 12 84 12 l71 0 7 46 c3
26 6 60 6 75 l0 29 -280 0 -280 0 0 -75z"/>
<path d="M4897 7883 c-4 -3 -7 -218 -7 -476 0 -460 0 -469 20 -474 17 -4 20
-14 20 -54 l0 -49 49 0 c84 0 81 5 81 -146 l0 -134 -42 0 c-61 0 -236 -26
-332 -49 -365 -87 -732 -308 -983 -591 -202 -227 -359 -526 -428 -813 -28
-116 -55 -287 -55 -347 l0 -40 -180 0 -180 0 0 -60 0 -60 179 0 178 0 7 -92
c9 -124 58 -363 96 -473 204 -586 692 -1048 1288 -1219 108 -32 228 -53 395
-71 l57 -6 0 -170 0 -169 55 0 55 0 0 169 0 169 68 7 c195 18 341 48 496 102
606 210 1072 722 1230 1352 26 102 56 295 56 361 l0 40 180 0 180 0 0 60 0 60
-178 0 -178 0 -12 112 c-94 888 -767 1588 -1645 1713 -56 8 -123 15 -149 15
l-48 0 0 134 0 134 25 6 c21 5 25 12 25 42 l0 36 -132 -3 c-113 -3 -133 -2
-133 11 0 12 21 15 125 16 l125 1 5 136 5 137 85 -185 85 -185 164 0 163 0 -7
27 c-3 15 -12 31 -18 35 -7 4 -79 8 -160 8 -114 0 -148 3 -145 13 3 9 43 13
142 15 104 2 138 6 142 16 3 8 -45 114 -107 237 l-112 224 102 196 c55 108
101 201 101 207 0 7 -6 12 -13 12 -7 0 -12 13 -12 33 l0 32 -147 3 -147 3 -56
-116 c-31 -64 -60 -113 -65 -110 -6 4 -10 48 -10 100 0 51 -3 100 -6 109 -5
14 -28 16 -148 16 -79 0 -146 -3 -149 -7z m283 -180 l5 -162 79 165 79 164
134 0 c92 0 133 -3 133 -11 0 -7 -47 -102 -105 -211 l-105 -200 120 -239 c66
-131 120 -243 120 -249 0 -6 -51 -10 -144 -10 l-143 0 -35 78 c-20 42 -55 121
-79 175 -23 53 -46 97 -51 97 -4 0 -9 -78 -10 -172 l-3 -173 -132 -3 -133 -3
0 454 c0 250 3 457 7 461 4 3 63 5 132 4 l126 -3 5 -162z m215 -1290 c619 -97
1165 -540 1388 -1129 61 -161 117 -411 117 -526 l0 -48 -147 0 c-82 0 -172 -3
-200 -6 l-53 -7 0 -43 c0 -43 0 -44 34 -44 19 0 38 -4 41 -10 4 -6 71 -10 167
-10 l161 0 -6 -94 c-21 -313 -162 -679 -360 -936 -208 -268 -463 -464 -762
-585 -162 -65 -430 -124 -567 -125 l-38 0 0 165 0 165 -55 0 -55 0 0 -166 0
-167 -82 7 c-374 32 -751 196 -1045 455 -335 295 -561 748 -589 1179 l-7 102
140 0 c77 0 168 3 202 6 l62 7 -3 51 c-3 49 -4 51 -33 52 -16 0 -106 1 -199 2
l-169 2 6 91 c17 233 108 523 229 733 184 318 502 604 835 750 176 78 388 132
556 143 l87 6 1 -134 c1 -74 0 -146 -1 -161 -1 -28 -1 -28 59 -28 l61 0 0 165
0 165 63 -6 c34 -3 107 -12 162 -21z"/>
<path d="M4940 7410 l0 -430 105 0 106 0 -2 165 c-2 173 4 199 43 193 13 -2
38 -45 87 -153 37 -82 74 -162 81 -177 l13 -28 114 0 c62 0 113 3 113 6 0 4
-53 110 -117 235 -102 197 -116 231 -106 248 7 10 53 98 103 195 l92 177 -106
-3 -106 -3 -81 -170 c-90 -189 -94 -196 -115 -188 -11 4 -14 38 -14 184 l0
179 -105 0 -105 0 0 -430z"/>
<path d="M5060 6030 l0 -50 50 0 50 0 0 50 0 50 -50 0 -50 0 0 -50z"/>
<path d="M5060 5790 l0 -50 50 0 50 0 0 50 0 50 -50 0 -50 0 0 -50z"/>
<path d="M5010 5615 c-8 -2 -49 -9 -90 -15 -378 -61 -722 -324 -889 -681 -22
-46 -47 -112 -57 -146 -17 -63 -28 -73 -81 -73 -21 0 -23 -5 -23 -50 0 -48 1
-50 28 -50 l27 0 1 -182 c1 -164 3 -193 27 -281 72 -269 237 -512 458 -677
362 -270 829 -311 1234 -111 247 123 421 296 545 541 96 190 136 377 127 593
l-6 127 35 0 35 0 -3 48 -3 47 -45 3 -46 3 -18 63 c-25 87 -104 247 -163 331
-183 257 -436 424 -745 491 -66 14 -312 28 -348 19z m150 -125 l0 -50 -50 0
-50 0 0 50 0 50 50 0 50 0 0 -50z m90 -84 l65 -12 -45 -13 c-86 -23 -195 -63
-289 -107 -101 -47 -96 -48 -128 11 -9 17 -24 41 -34 54 -24 31 -24 38 3 47
103 32 315 42 428 20z m-534 -102 c32 -22 54 -64 54 -105 0 -35 -15 -52 -205
-224 -54 -49 -134 -132 -177 -184 -71 -86 -78 -98 -78 -138 l0 -43 -50 0 -50
0 0 44 c0 36 -4 46 -20 51 -26 8 -26 44 -1 116 65 189 220 376 389 468 64 34
101 38 138 15z m444 -89 l0 -55 -50 0 -50 0 0 55 0 55 50 0 50 0 0 -55z m73
-200 c109 -23 192 -69 277 -155 121 -120 170 -237 170 -400 0 -158 -51 -281
-164 -395 -118 -119 -288 -185 -436 -170 -250 27 -445 194 -506 435 -22 85
-15 231 15 315 65 182 232 329 421 369 85 19 140 19 223 1z m-1182 -315 c23 0
25 -4 28 -45 l2 -45 -56 0 -55 0 0 43 c0 50 7 60 35 53 11 -3 32 -6 46 -6z
m1977 -42 l3 -48 -55 0 -56 0 0 44 c0 43 1 45 33 49 67 9 72 6 75 -45z m242
18 c0 -19 3 -41 6 -50 5 -13 -3 -16 -50 -16 l-56 0 0 50 0 50 50 0 50 0 0 -34z
m-2094 -77 c32 -8 44 -16 44 -30 0 -10 -4 -20 -9 -23 -5 -4 -26 -50 -48 -103
l-38 -97 -8 50 c-7 47 0 214 9 214 3 0 25 -5 50 -11z m984 -1019 l0 -50 -50 0
-50 0 0 50 0 50 50 0 50 0 0 -50z m0 -240 l0 -50 -50 0 -50 0 0 50 0 50 50 0
50 0 0 -50z"/>
<path d="M5060 4910 l0 -50 50 0 50 0 0 50 0 50 -50 0 -50 0 0 -50z"/>
<path d="M5043 4806 c-90 -29 -133 -85 -133 -171 0 -49 10 -77 42 -112 l20
-22 -37 -33 c-46 -40 -65 -82 -65 -143 0 -123 97 -195 264 -195 86 0 162 25
198 66 71 80 59 233 -21 280 l-30 18 29 33 c36 40 44 69 38 132 -9 94 -78 149
-196 157 -41 2 -83 -1 -109 -10z m142 -126 c28 -31 24 -79 -9 -107 -34 -29
-58 -29 -90 0 -36 32 -42 67 -16 100 27 34 87 38 115 7z m-2 -270 c52 -41 43
-130 -17 -159 -53 -25 -121 11 -127 69 -9 91 76 144 144 90z"/>
<path d="M4690 4660 l0 -50 50 0 50 0 0 44 c0 47 -11 56 -72 56 -27 0 -28 -2
-28 -50z"/>
<path d="M5470 4660 l0 -50 50 0 50 0 0 50 0 50 -50 0 -50 0 0 -50z"/>
<path d="M5060 4030 l0 -50 50 0 50 0 0 50 0 50 -50 0 -50 0 0 -50z"/>
<path d="M5697 7883 c-4 -3 -7 -218 -7 -476 0 -460 0 -469 20 -474 17 -4 20
-14 20 -54 l0 -49 270 0 270 0 0 35 0 35 -255 0 c-226 0 -255 2 -255 16 0 14
26 15 245 12 197 -2 246 0 250 10 9 25 5 161 -5 167 -5 3 -10 16 -10 29 0 39
-18 46 -127 46 -111 0 -112 0 -97 58 6 21 11 22 100 22 l94 0 0 103 c0 61 -6
118 -14 142 l-14 40 -86 3 -86 3 0 34 0 35 120 0 120 0 0 98 c0 54 -4 102 -9
108 -5 5 -11 20 -13 34 l-3 25 -261 3 c-143 1 -263 -1 -267 -5z m513 -118 l0
-105 -115 0 -115 0 0 -65 0 -65 95 0 96 0 -3 -102 -3 -103 -90 0 -90 0 -3 -82
c-3 -97 -11 -92 138 -96 l95 -2 0 -95 0 -95 -250 0 -250 0 -3 458 -2 457 250
0 250 0 0 -105z"/>
<path d="M5740 7410 l0 -430 225 0 226 0 -3 73 -3 72 -118 3 -118 3 3 107 3
107 93 3 92 3 0 74 0 74 -92 3 -93 3 0 90 0 90 113 3 112 3 0 74 0 75 -220 0
-220 0 0 -430z"/>
<path d="M6307 7883 c-4 -3 -7 -217 -7 -474 0 -458 0 -469 20 -479 15 -8 20
-21 20 -55 l0 -45 150 0 150 0 0 35 0 35 -141 0 c-108 0 -140 3 -136 13 3 8
39 12 128 14 l124 1 3 442 c1 285 -2 456 -8 481 l-11 39 -143 0 c-78 0 -146
-3 -149 -7z m281 -475 l2 -458 -135 0 -135 0 0 453 c0 250 3 457 7 461 4 3 63
5 132 4 l126 -3 3 -457z"/>
<path d="M6350 7410 l0 -430 105 0 105 0 0 430 0 430 -105 0 -105 0 0 -430z"/>
<path d="M6691 7871 c-7 -12 -9 -179 -6 -472 4 -393 6 -455 20 -465 10 -7 15
-27 15 -58 l0 -46 145 0 145 0 0 35 0 35 -136 0 c-104 0 -135 3 -131 13 3 9
37 12 125 12 l122 0 0 153 c0 83 3 152 8 152 4 0 48 -90 97 -200 l90 -200 138
0 137 0 0 35 0 35 -140 0 c-118 0 -140 2 -140 15 0 13 21 15 130 15 l130 0 -1
448 c-1 246 -4 461 -8 477 l-6 30 -140 0 -140 0 -5 -170 -5 -170 -69 150 c-99
217 -72 195 -231 195 -121 0 -135 -2 -144 -19z m355 -186 c46 -99 92 -197 102
-218 17 -38 17 -37 17 180 l0 218 120 0 120 0 3 -457 2 -458 -127 0 -128 0
-95 211 c-52 116 -97 212 -100 214 -3 2 -5 -92 -5 -208 l0 -212 -122 -3 -123
-3 0 461 0 461 126 -3 127 -3 83 -180z"/>
<path d="M6736 7832 c-7 -11 -6 -743 1 -804 l5 -48 94 0 94 0 0 168 c-1 92 -5
199 -10 237 -7 53 -6 73 4 83 20 20 35 -5 146 -255 l103 -233 104 0 103 0 0
430 0 430 -97 0 -96 0 6 -239 c7 -337 17 -341 -178 86 l-70 153 -102 0 c-56 0
-104 -4 -107 -8z"/>
<path d="M2576 2184 c-3 -9 -6 -77 -6 -152 l0 -137 33 -26 c32 -26 38 -27 150
-25 64 0 117 -3 117 -7 0 -5 -76 -149 -170 -321 l-170 -313 0 -126 c0 -101 3
-129 16 -141 8 -9 22 -16 29 -16 10 0 15 -18 17 -67 l3 -68 225 -3 c124 -2
312 0 418 3 l192 7 0 44 0 44 -405 0 c-398 0 -405 0 -405 20 0 20 7 20 400 20
l400 0 0 120 c0 119 0 120 -25 126 -20 5 -25 12 -25 38 0 52 -11 56 -152 56
-70 0 -128 4 -128 9 0 4 70 141 155 303 l155 295 0 117 c0 109 -1 116 -20 116
-16 0 -20 7 -20 31 0 17 -5 39 -10 50 -10 18 -25 19 -389 19 -336 0 -380 -2
-385 -16z m415 -14 l339 0 0 -121 0 -120 -180 -339 c-99 -187 -180 -344 -180
-349 0 -7 70 -12 188 -13 l187 -3 3 -129 c2 -97 -1 -131 -10 -138 -7 -4 -185
-8 -395 -8 l-383 0 0 125 0 125 129 237 c71 131 156 288 189 348 l60 110 -166
5 -167 5 -3 129 c-3 132 3 153 36 141 8 -3 166 -5 353 -5z"/>
<path d="M2634 2127 c-3 -8 -4 -52 -2 -98 l3 -84 173 -3 c130 -2 174 -6 178
-15 3 -8 -72 -155 -167 -328 -247 -452 -229 -412 -229 -519 l0 -90 360 0 360
0 0 105 0 105 -194 0 c-107 0 -197 4 -200 9 -4 5 9 38 28 73 18 34 106 199
195 366 l162 303 -3 92 -3 92 -328 3 c-267 2 -328 0 -333 -11z"/>
<path d="M3462 2188 c-15 -15 -17 -870 -2 -968 10 -63 21 -88 104 -248 77
-147 230 -222 426 -209 121 8 198 37 269 103 72 66 109 143 119 246 4 40 5
291 2 558 -4 369 -8 490 -18 508 -12 22 -16 22 -195 22 -129 0 -187 -4 -195
-12 -9 -9 -12 -127 -12 -471 0 -297 -4 -465 -10 -478 -16 -29 -56 -25 -65 8
-3 14 -5 215 -4 445 2 371 0 420 -14 431 -9 7 -17 26 -19 42 l-3 30 -185 3
c-136 2 -189 -1 -198 -10z m878 -473 c0 -479 -3 -522 -46 -607 -52 -104 -130
-159 -259 -183 -252 -48 -455 34 -527 214 -23 55 -23 62 -26 544 l-3 487 176
0 175 0 0 -457 c0 -348 3 -464 13 -483 15 -30 54 -45 91 -36 54 13 56 32 56
525 0 287 4 451 10 453 5 2 84 2 175 0 l165 -3 0 -454z m-54 -692 c-83 -162
-378 -231 -572 -136 -81 40 -82 52 -3 26 194 -65 449 -21 548 94 43 50 46 52
27 16z"/>
<path d="M3510 1763 c1 -585 11 -646 122 -733 159 -126 505 -96 606 52 61 91
62 96 62 600 l0 459 -137 -3 -138 -3 3 -345 c2 -190 -1 -398 -6 -463 -8 -109
-11 -120 -36 -145 -21 -22 -36 -27 -75 -27 -59 0 -95 28 -111 84 -6 21 -10
213 -10 469 l0 432 -140 0 -140 0 0 -377z"/>
<path d="M4472 2188 c-9 -9 -12 -161 -12 -622 0 -336 4 -616 8 -622 4 -6 15
-13 25 -17 14 -5 17 -19 17 -71 0 -36 5 -68 11 -72 6 -3 96 -3 200 1 l189 7 0
44 0 44 -185 0 c-178 0 -185 1 -185 20 0 19 7 20 180 20 l181 0 -1 213 -1 212
93 2 c51 1 108 2 125 2 l33 1 -7 153 c-3 83 -10 154 -15 155 -4 2 -8 17 -8 32
0 42 -24 50 -139 50 l-101 0 0 50 0 49 158 3 157 3 3 133 c2 111 0 133 -13
138 -8 4 -15 18 -15 33 0 15 -5 32 -12 39 -17 17 -669 17 -686 0z m666 -151
l-3 -132 -147 -3 -148 -3 0 -94 0 -95 125 0 125 0 0 -135 0 -135 -125 0 -125
0 0 -233 c0 -168 -3 -236 -12 -245 -13 -13 -291 -18 -322 -6 -14 6 -16 69 -16
609 l0 604 33 3 c17 2 164 2 325 0 l293 -3 -3 -132z m-100 -634 c-32 -2 -84
-2 -115 0 -32 2 -6 3 57 3 63 0 89 -1 58 -3z"/>
<path d="M4523 2124 c-3 -8 -3 -266 0 -572 l5 -557 136 -3 136 -3 0 240 c0
209 2 240 16 245 9 3 67 6 130 6 l114 0 0 95 0 95 -114 0 c-148 0 -146 -2
-146 139 0 70 4 111 12 119 8 8 57 12 155 12 l144 0 -3 98 -3 97 -288 3 c-254
2 -288 0 -294 -14z"/>
<path d="M5395 2188 c-16 -46 -305 -1209 -305 -1227 0 -13 9 -26 26 -33 23
-11 25 -15 18 -52 -4 -23 -8 -52 -8 -66 l-1 -25 190 3 c104 2 191 5 193 7 3 2
8 22 12 45 l7 40 -178 0 c-175 0 -179 0 -179 21 0 20 4 21 168 19 207 -3 192
-4 192 23 0 44 11 48 111 45 90 -3 94 -4 97 -26 2 -13 14 -28 27 -34 18 -8 24
-21 29 -63 10 -91 -4 -85 195 -85 211 0 223 3 215 39 -15 66 2 61 -200 61
-177 0 -184 1 -184 20 0 19 7 20 174 20 l173 0 -7 38 c-18 92 -292 1157 -299
1162 -5 3 -12 16 -16 30 -15 50 -15 50 -237 50 -158 0 -210 -3 -213 -12z m412
-20 c6 -7 45 -150 88 -318 43 -168 111 -435 151 -593 41 -159 72 -293 68 -298
-3 -5 -78 -9 -168 -9 -166 0 -186 4 -186 41 0 9 -7 49 -16 88 l-16 71 -113 0
c-100 0 -114 -2 -118 -17 -3 -10 -11 -47 -17 -83 -21 -107 -7 -100 -194 -100
-89 0 -165 2 -168 6 -6 6 292 1192 305 1212 6 9 56 12 191 12 135 0 186 -3
193 -12z m-97 -1063 c0 -12 -17 -15 -95 -15 -78 0 -95 3 -95 15 0 12 17 15 95
15 78 0 95 -3 95 -15z"/>
<path d="M5445 2128 c-6 -20 -285 -1125 -285 -1132 0 -3 61 -6 135 -6 100 0
137 3 139 13 2 6 10 46 17 87 7 41 17 81 22 88 7 8 48 12 144 12 153 0 138 11
163 -114 l16 -81 143 -3 c134 -2 143 -1 136 15 -4 10 -52 194 -107 408 -55
215 -119 464 -142 555 l-43 165 -167 3 c-128 2 -167 0 -171 -10z m192 -240 c6
-7 20 -76 32 -153 12 -77 30 -183 40 -235 24 -127 23 -130 -84 -130 -103 0
-115 4 -115 41 0 30 66 441 76 472 6 20 37 23 51 5z"/>
<path d="M5611 1815 c-1 -5 -15 -89 -31 -185 -41 -239 -44 -220 35 -220 56 0
65 3 65 18 0 21 -58 372 -64 387 -3 7 -5 7 -5 0z m27 -286 c16 -90 16 -89 -19
-89 -30 0 -31 1 -25 32 3 18 9 56 13 86 7 65 16 57 31 -29z"/>
<path d="M6190 2181 c-11 -21 -15 -1187 -4 -1228 3 -11 14 -23 25 -26 16 -4
19 -15 19 -64 0 -32 4 -64 9 -72 7 -11 68 -13 350 -10 l341 4 0 48 0 47 -335
0 c-331 0 -335 0 -335 21 0 20 3 20 325 17 l325 -3 0 128 c0 106 -2 127 -15
127 -10 0 -15 10 -15 33 0 52 -12 57 -142 57 l-119 0 2 428 c1 364 -1 427 -13
430 -8 2 -19 20 -24 40 l-9 37 -187 3 c-177 2 -188 1 -198 -17z m372 -478 l3
-468 143 -3 142 -3 1 -67 c0 -37 3 -97 5 -134 5 -64 4 -68 -18 -73 -13 -3
-158 -4 -323 -3 l-300 3 -3 608 -2 607 175 0 175 0 2 -467z"/>
<path d="M6243 2124 c-3 -9 -3 -231 0 -493 4 -262 7 -513 7 -558 l0 -83 285 0
285 0 0 105 0 105 -145 0 c-108 0 -145 3 -147 13 -1 6 -2 217 -2 467 l-1 455
-138 3 c-120 2 -138 0 -144 -14z"/>
<path d="M6960 2181 c-12 -23 -14 -1219 -2 -1237 4 -6 15 -13 25 -17 13 -5 17
-18 17 -64 0 -32 4 -64 9 -72 7 -11 68 -12 355 -6 l346 8 0 43 0 44 -340 0
c-333 0 -340 0 -340 20 0 20 7 20 330 20 l330 0 0 125 c0 118 -1 125 -20 125
-16 0 -20 7 -20 34 0 18 -6 38 -13 44 -7 6 -64 13 -128 14 l-114 3 -3 428 c-2
357 -5 427 -16 427 -8 0 -18 16 -23 38 l-9 37 -186 3 c-177 2 -188 1 -198 -17z
m370 -481 l0 -469 148 -3 147 -3 0 -135 0 -135 -320 0 -320 0 -3 608 -2 607
175 0 175 0 0 -470z"/>
<path d="M7020 1565 l0 -575 285 0 285 0 0 105 0 105 -145 0 c-109 0 -145 3
-145 13 0 6 -1 217 -3 467 l-2 455 -137 3 -138 3 0 -576z"/>
</g>
</svg>
