<?xml version="1.0" standalone="no"?>
<!DOCTYPE svg PUBLIC "-//W3C//DTD SVG 20010904//EN"
 "http://www.w3.org/TR/2001/REC-SVG-20010904/DTD/svg10.dtd">
<svg version="1.0" xmlns="http://www.w3.org/2000/svg"
 width="2048.000000pt" height="2048.000000pt" viewBox="0 0 2048.000000 2048.000000"
 preserveAspectRatio="xMidYMid meet">

<g transform="translate(0.000000,2048.000000) scale(0.100000,-0.100000)"
fill="#000000" stroke="none">
<path d="M10915 18009 c-300 -43 -609 -241 -782 -502 -127 -190 -191 -383
-200 -602 -7 -158 10 -255 63 -362 138 -278 531 -366 872 -194 45 23 82 38 82
34 0 -17 -113 -372 -136 -425 -47 -112 -98 -174 -166 -202 -112 -47 -219 24
-189 125 25 83 129 129 219 97 l42 -16 0 57 c-1 119 -70 194 -179 194 -104 0
-187 -59 -240 -173 -22 -47 -26 -69 -26 -150 0 -86 3 -100 29 -148 38 -68 79
-104 153 -133 49 -19 77 -23 178 -24 141 0 228 23 326 87 174 112 266 252 366
557 68 207 211 728 219 799 l7 52 -182 2 c-99 0 -186 1 -192 2 -6 1 -31 -62
-55 -139 -93 -290 -123 -341 -241 -401 -50 -24 -70 -29 -138 -29 -70 0 -86 4
-127 28 -92 54 -136 150 -145 317 -15 272 119 615 316 810 167 165 399 213
456 93 20 -41 15 -95 -14 -151 -40 -77 -113 -122 -200 -122 l-49 0 9 -41 c13
-58 33 -91 73 -126 47 -42 96 -56 175 -51 122 9 227 84 282 202 120 257 -2
480 -289 532 -85 15 -225 16 -317 3z"/>
<path d="M5045 18000 c-262 -26 -479 -147 -587 -330 -82 -138 -100 -319 -44
-434 39 -80 117 -126 190 -112 82 15 166 102 186 192 8 34 7 35 -36 56 -55 25
-82 62 -96 130 -36 175 138 326 381 331 43 1 81 0 84 -3 3 -3 -48 -192 -113
-420 -99 -349 -269 -958 -327 -1172 -25 -93 -37 -88 232 -88 235 0 235 0 245
23 6 12 49 154 96 316 92 319 110 370 123 355 5 -5 23 -54 41 -109 18 -55 55
-156 82 -225 97 -244 149 -316 264 -360 85 -33 261 -33 388 1 101 27 124 48
129 114 l2 40 -57 5 c-49 4 -63 10 -96 43 -48 47 -101 147 -185 347 -72 172
-187 472 -187 488 0 6 13 21 29 34 167 136 832 739 825 749 -3 5 -59 9 -125 9
l-120 0 -67 -59 c-397 -349 -522 -461 -672 -598 -96 -88 -176 -159 -178 -158
-3 3 21 92 150 544 38 134 67 249 65 255 -3 8 -70 16 -188 24 -290 20 -338 21
-434 12z"/>
<path d="M15150 17956 c-36 -7 -124 -25 -197 -41 l-132 -28 -14 -61 c-8 -34
-12 -64 -10 -68 2 -5 22 -8 43 -8 21 0 41 -4 44 -8 3 -5 -31 -146 -75 -313
-44 -167 -100 -387 -125 -489 -57 -235 -103 -402 -116 -415 -6 -7 -14 -4 -23
9 -13 17 -17 16 -70 -28 -71 -58 -179 -110 -270 -132 -234 -54 -328 72 -261
351 59 244 205 445 324 445 71 0 67 -74 -9 -153 -27 -28 -49 -56 -49 -61 0
-25 40 -74 73 -89 44 -21 109 -22 148 -1 35 18 85 92 100 149 16 60 14 145 -5
190 -39 92 -119 135 -261 142 -185 10 -360 -57 -504 -193 -188 -176 -278 -389
-269 -637 3 -100 7 -119 34 -178 62 -131 194 -198 391 -199 187 0 367 60 528
175 43 31 79 54 81 52 2 -2 -7 -46 -20 -97 -13 -52 -22 -100 -19 -107 7 -18
362 -19 386 0 14 11 117 355 117 394 0 37 21 4 50 -79 77 -224 133 -303 232
-333 66 -19 128 -19 203 0 62 16 182 80 236 124 l30 26 -20 48 c-11 26 -22 47
-24 47 -3 0 -24 -7 -47 -15 -86 -30 -144 -15 -176 46 -18 35 -87 230 -82 234
2 1 32 17 68 36 84 43 186 145 224 223 78 163 48 339 -69 400 -61 32 -182 29
-255 -5 -67 -32 -151 -100 -191 -153 -16 -22 -29 -37 -29 -33 0 3 43 176 95
383 52 208 95 383 95 390 0 7 -10 25 -22 39 -29 32 -72 38 -158 21z m231 -862
c22 -26 14 -98 -17 -154 -32 -60 -76 -100 -142 -134 -50 -25 -169 -62 -177
-54 -3 2 11 37 30 77 94 196 251 332 306 265z"/>
<path d="M12120 17940 c-52 -10 -135 -27 -184 -37 l-90 -19 -13 -49 c-20 -80
-19 -85 26 -85 22 0 42 -4 45 -8 3 -5 -8 -56 -24 -113 -32 -114 -157 -592
-252 -959 -69 -266 -78 -354 -44 -423 69 -139 286 -148 493 -19 107 66 106 65
94 108 -18 65 -20 66 -83 42 -63 -23 -103 -19 -113 11 -5 16 76 352 142 586
22 80 162 617 216 831 23 91 19 125 -18 142 -34 16 -81 14 -195 -8z"/>
<path d="M7866 17869 c-87 -21 -149 -87 -168 -182 -36 -175 142 -288 299 -191
70 43 107 108 107 187 0 64 -11 95 -48 135 -43 48 -119 68 -190 51z"/>
<path d="M12745 17807 c-40 -19 -85 -65 -101 -104 -21 -49 -18 -130 6 -168 62
-101 247 -87 325 24 25 36 30 52 30 101 0 63 -16 95 -68 134 -35 26 -147 33
-192 13z"/>
<path d="M13189 17797 c-64 -34 -103 -101 -104 -177 0 -63 16 -95 69 -134 44
-33 146 -29 209 7 69 40 102 95 102 168 0 43 -6 65 -21 86 -54 73 -169 95
-255 50z"/>
<path d="M7775 17353 c-51 -7 -249 -55 -265 -63 -15 -8 -42 -115 -32 -125 3
-3 25 -5 49 -5 33 0 43 -4 43 -16 0 -14 -151 -590 -166 -633 -3 -11 -12 -7
-34 14 -28 27 -30 27 -52 11 -13 -9 -48 -34 -78 -56 -91 -66 -191 -103 -291
-108 -146 -7 -198 38 -199 174 l0 62 48 7 c26 3 87 20 136 36 265 88 422 245
433 432 4 64 2 78 -24 127 -51 100 -164 148 -318 136 -259 -19 -486 -183 -610
-441 -103 -212 -122 -451 -47 -589 33 -60 101 -116 179 -147 50 -20 76 -23
188 -23 93 0 149 5 195 17 100 27 275 119 367 192 46 36 86 65 89 65 3 0 3
-13 -1 -28 -8 -40 11 -120 40 -164 15 -23 44 -46 80 -63 110 -54 235 -31 405
74 45 29 84 50 86 48 2 -2 -2 -29 -8 -61 -11 -48 -10 -59 2 -66 8 -6 90 -10
182 -10 159 0 168 1 192 23 25 23 61 145 176 606 54 215 59 227 112 251 88 40
146 15 135 -57 -4 -21 -36 -150 -72 -288 -73 -282 -82 -363 -45 -434 42 -84
110 -116 234 -109 65 3 96 11 149 36 78 36 187 110 187 126 0 6 -7 30 -17 54
-12 33 -20 41 -32 36 -86 -36 -120 -37 -134 0 -7 18 13 114 63 295 103 376
109 440 54 541 -80 148 -306 156 -487 17 -26 -21 -49 -37 -52 -37 -3 0 -5 15
-5 33 0 59 -44 98 -126 111 -41 7 -165 -15 -294 -52 -62 -18 -65 -20 -72 -58
-4 -21 -10 -49 -13 -61 -5 -21 -2 -23 43 -23 27 0 51 -3 54 -6 3 -3 -12 -71
-33 -152 -22 -81 -69 -264 -105 -407 -36 -143 -69 -264 -74 -269 -5 -4 -18 11
-30 34 -16 32 -25 40 -38 34 -107 -45 -142 -39 -142 23 0 20 32 159 71 307 39
149 82 313 95 364 39 151 31 213 -35 247 -31 16 -111 25 -156 18z m-660 -213
c14 -16 17 -30 12 -69 -10 -87 -67 -173 -153 -232 -47 -32 -173 -83 -182 -74
-9 9 28 116 64 185 88 169 202 253 259 190z"/>
<path d="M12605 17349 c-116 -19 -236 -53 -245 -68 -4 -9 -11 -37 -15 -63 l-7
-48 41 0 c27 0 44 -5 47 -14 3 -8 -34 -162 -83 -343 -83 -311 -88 -333 -88
-430 0 -96 1 -103 30 -144 18 -26 50 -53 80 -68 43 -23 62 -26 145 -26 91 0
100 2 171 37 40 20 100 60 132 88 42 38 57 47 57 34 0 -10 10 -37 21 -62 43
-87 149 -125 279 -98 77 16 202 78 264 129 l37 32 -20 48 c-11 26 -22 47 -25
47 -2 0 -23 -9 -47 -20 -59 -26 -85 -25 -105 5 -20 31 -26 2 105 518 55 219
101 407 101 418 0 18 -9 19 -183 19 -163 0 -186 -2 -199 -17 -8 -10 -59 -182
-112 -383 -121 -457 -118 -449 -179 -479 -35 -17 -56 -22 -83 -17 -68 13 -68
17 35 409 50 193 92 360 91 370 -1 91 -114 149 -245 126z"/>
<path d="M15920 16534 c-131 -57 -186 -228 -107 -338 43 -61 161 -84 242 -47
22 10 58 38 81 63 71 77 80 189 22 271 -43 60 -160 85 -238 51z"/>
<path d="M4578 15515 c-184 -31 -318 -95 -429 -205 -123 -122 -181 -249 -182
-400 -1 -67 4 -95 22 -135 55 -124 149 -164 258 -110 55 28 93 74 118 144 21
61 19 68 -18 80 -72 24 -114 103 -104 196 10 100 69 174 175 223 61 27 176 48
215 39 l26 -7 -24 -88 c-13 -48 -53 -202 -89 -342 -36 -140 -90 -345 -120
-455 -108 -400 -196 -735 -196 -745 0 -6 36 -10 93 -10 l94 0 42 153 c24 83
65 238 92 342 88 338 212 776 219 768 4 -5 37 -188 74 -408 98 -575 139 -777
165 -813 40 -57 163 -84 287 -63 82 14 168 51 183 79 6 11 40 125 75 253 87
314 125 453 201 719 84 297 194 709 197 740 3 25 2 25 -77 28 -54 2 -86 -1
-97 -10 -10 -8 -37 -84 -67 -188 -108 -378 -237 -847 -281 -1019 -6 -23 -13
-41 -15 -39 -2 2 -51 246 -110 543 -58 297 -111 555 -116 573 -36 113 -185
173 -422 171 -62 -1 -147 -7 -189 -14z"/>
<path d="M9020 15511 c-167 -36 -295 -106 -397 -214 -182 -195 -221 -486 -83
-611 45 -40 105 -54 167 -37 75 20 162 130 163 204 0 23 -7 31 -35 42 -49 21
-82 61 -96 117 -37 158 96 320 266 322 l60 1 3 -41 c2 -22 -17 -249 -42 -505
-100 -1018 -100 -1027 3 -1087 44 -26 52 -27 176 -27 112 0 138 4 186 23 32
12 69 35 84 50 28 28 120 205 230 442 35 74 110 237 168 361 58 125 108 236
112 248 4 13 9 21 11 18 4 -4 -11 -245 -42 -651 -8 -121 -14 -261 -12 -312 3
-87 5 -95 32 -123 46 -48 106 -66 216 -65 115 0 222 29 274 74 36 32 78 107
151 270 26 58 111 245 190 415 269 584 475 1048 475 1070 0 3 -46 5 -102 5
l-103 0 -65 -158 c-35 -86 -92 -220 -125 -297 -34 -77 -97 -221 -140 -320
-190 -436 -307 -701 -316 -709 -12 -13 -14 -56 30 669 29 488 36 638 27 665
-18 56 -76 80 -196 80 -109 0 -186 -18 -217 -52 -11 -13 -69 -131 -128 -263
-130 -291 -250 -554 -355 -775 -43 -91 -94 -201 -114 -244 -20 -44 -38 -77
-40 -75 -3 2 -1 36 4 76 21 162 120 1185 120 1233 0 84 -40 137 -129 171 -81
31 -292 36 -411 10z"/>
<path d="M13395 15435 c-88 -19 -170 -37 -181 -39 -16 -4 -25 -18 -33 -50 -17
-70 -15 -86 13 -86 36 0 56 -10 56 -29 0 -9 -20 -95 -45 -191 -25 -96 -72
-281 -105 -410 -32 -130 -86 -335 -119 -455 -32 -121 -65 -240 -71 -265 -11
-42 -13 -43 -27 -25 -8 11 -18 26 -22 32 -5 10 -19 9 -61 -6 -47 -17 -58 -18
-75 -6 -34 23 -24 81 91 505 61 226 51 328 -40 407 -47 42 -98 58 -181 56 -85
-1 -156 -27 -240 -86 l-60 -43 -15 45 c-18 54 -59 86 -124 95 -45 7 -185 -17
-301 -52 l-60 -18 -11 -62 -11 -62 48 0 c45 0 49 -2 49 -25 0 -19 -78 -330
-187 -747 -9 -32 -19 -58 -24 -58 -5 0 -17 16 -26 35 -19 40 -19 40 -72 19
-22 -8 -52 -14 -68 -12 -49 5 -44 48 62 463 104 409 105 422 56 477 -30 34
-96 52 -156 43 -22 -3 -100 -20 -172 -37 l-133 -31 -10 -36 c-5 -20 -10 -48
-10 -63 0 -24 4 -27 43 -30 34 -2 43 -7 45 -24 2 -11 -32 -153 -74 -315 -43
-162 -83 -325 -90 -364 -22 -117 0 -202 70 -263 46 -40 104 -55 186 -49 83 6
160 35 256 98 42 28 78 48 81 45 2 -2 0 -21 -6 -43 -6 -21 -11 -48 -11 -60 l0
-23 185 0 c165 0 187 2 203 18 11 11 35 84 61 183 106 409 163 616 176 636 20
31 99 59 133 47 64 -22 61 -58 -29 -384 -34 -123 -53 -212 -56 -267 -5 -75 -3
-88 21 -138 36 -73 90 -106 186 -113 89 -6 177 21 285 87 44 27 81 48 83 46 2
-2 -2 -21 -9 -43 -21 -72 -22 -72 176 -72 100 0 185 4 195 10 21 12 38 61 95
283 21 81 41 144 45 140 4 -4 19 -48 35 -98 55 -182 112 -280 184 -323 41 -24
55 -27 141 -26 114 0 183 22 282 90 92 63 93 64 68 114 -23 45 -21 45 -103 14
-43 -17 -50 -17 -75 -4 -39 22 -65 66 -107 182 -21 57 -40 108 -42 115 -3 7
23 26 59 44 86 43 185 144 228 232 28 57 34 83 38 153 4 76 2 89 -23 139 -18
38 -40 65 -68 83 -37 24 -50 27 -131 27 -85 0 -95 -2 -154 -34 -40 -22 -89
-62 -134 -110 -40 -42 -68 -67 -64 -56 17 47 177 703 178 732 3 83 -51 89
-297 38z m356 -832 c13 -34 4 -75 -29 -136 -31 -57 -74 -98 -142 -132 -47 -24
-160 -59 -167 -52 -5 5 78 156 114 207 59 85 130 140 180 140 27 0 35 -5 44
-27z"/>
<path d="M15606 15434 c-87 -18 -167 -36 -176 -39 -18 -6 -54 -118 -42 -130 3
-3 16 -5 29 -5 14 0 33 -4 43 -10 18 -9 17 -16 -19 -152 -86 -325 -166 -626
-223 -843 -33 -126 -62 -232 -64 -234 -3 -3 -17 10 -32 29 l-28 33 -58 -46
c-105 -86 -233 -137 -343 -137 -123 0 -176 50 -177 169 l-1 66 40 9 c203 44
324 99 425 193 84 77 124 140 145 222 32 124 -9 226 -115 285 -48 27 -66 31
-150 34 -122 5 -206 -14 -327 -74 -266 -131 -443 -427 -443 -738 0 -169 44
-266 150 -332 198 -122 551 -53 817 161 l78 63 5 -79 c5 -66 10 -85 35 -120
83 -117 271 -118 465 -2 41 24 85 53 98 63 l23 19 -20 45 -20 45 -58 -20 c-64
-22 -99 -19 -108 10 -7 22 30 180 134 586 38 149 103 403 145 566 42 162 76
310 76 327 0 82 -59 89 -304 36z m-731 -748 c13 -9 18 -25 18 -59 -2 -88 -77
-208 -167 -264 -40 -26 -166 -77 -172 -70 -7 7 35 119 73 195 41 84 109 164
162 192 43 23 61 24 86 6z"/>
<path d="M11490 15395 c-85 -38 -134 -117 -135 -215 0 -107 58 -174 162 -187
95 -11 203 62 231 156 28 93 4 187 -60 232 -42 30 -146 37 -198 14z"/>
<path d="M6136 14879 c-59 -9 -194 -43 -232 -59 -14 -5 -24 -21 -28 -47 -4
-21 -10 -48 -13 -60 -5 -22 -2 -23 46 -23 38 0 51 -4 51 -15 0 -8 -39 -162
-86 -342 -98 -375 -106 -441 -65 -526 27 -56 81 -104 136 -118 22 -6 77 -9
122 -7 69 4 93 10 155 41 40 20 96 57 125 82 l51 45 13 -37 c31 -99 94 -138
214 -137 93 1 151 22 263 91 40 25 75 44 77 42 2 -3 -1 -24 -6 -48 -5 -25 -8
-50 -5 -58 7 -18 354 -19 380 0 12 8 48 128 117 387 55 206 105 396 110 422
12 56 37 81 76 76 22 -2 27 -8 25 -23 -2 -11 -4 -41 -5 -67 -3 -65 30 -99 101
-106 67 -6 117 12 173 65 61 57 92 127 92 213 1 123 -57 191 -170 198 -75 5
-132 -13 -198 -64 l-44 -33 -11 35 c-19 56 -72 77 -179 72 -107 -6 -288 -53
-302 -79 -5 -10 -12 -39 -15 -64 l-7 -45 46 0 c25 0 48 -4 51 -8 6 -10 -197
-808 -208 -820 -3 -2 -12 10 -20 26 -21 42 -31 45 -65 27 -39 -19 -85 -19
-102 1 -16 20 -12 39 115 535 53 206 96 382 96 391 0 13 -26 17 -167 23 -192
8 -217 3 -238 -48 -8 -19 -42 -146 -76 -283 -77 -314 -117 -462 -135 -496 -18
-35 -62 -58 -109 -58 -52 0 -75 15 -75 49 0 16 39 181 86 367 89 349 93 379
59 430 -32 49 -114 69 -219 53z"/>
<path d="M15995 14080 c-45 -14 -110 -74 -134 -123 -30 -62 -29 -147 4 -203
48 -82 155 -107 253 -58 149 74 176 284 47 364 -39 24 -124 34 -170 20z"/>
<path d="M13104 12435 c-446 -45 -998 -156 -1439 -292 -82 -25 -164 -48 -181
-50 -17 -3 -93 9 -170 26 -174 38 -410 76 -574 93 -165 17 -697 17 -860 0
-571 -59 -1118 -220 -1645 -484 -300 -151 -654 -388 -950 -637 -130 -109 -405
-387 -516 -521 -323 -389 -578 -807 -745 -1220 l-42 -105 -119 -51 c-65 -27
-174 -77 -243 -110 -197 -95 -511 -282 -549 -328 -16 -19 -12 -20 26 -5 82 31
706 169 765 169 2 0 -6 -39 -19 -87 -37 -140 -93 -408 -112 -537 l-17 -120
-164 -63 c-432 -167 -901 -396 -1310 -641 -175 -105 -635 -406 -645 -422 -3
-5 75 30 172 77 573 276 1056 496 1433 655 829 348 1362 536 2080 732 222 60
452 118 456 114 2 -2 -65 -29 -149 -60 -228 -84 -1032 -391 -1112 -424 l-70
-30 3 -134 c8 -404 73 -823 184 -1185 16 -55 31 -101 32 -102 1 -1 36 11 77
26 282 110 948 287 1354 360 155 28 520 80 670 96 33 3 76 8 95 11 19 3 32 3
29 0 -3 -3 -104 -26 -225 -50 -120 -24 -275 -59 -344 -76 -1432 -361 -2485
-785 -3500 -1408 -179 -110 -417 -268 -426 -284 -4 -6 58 23 138 65 295 155
824 401 1239 576 l206 87 33 -90 c18 -50 44 -115 56 -143 l23 -53 -212 -104
c-238 -117 -504 -261 -724 -393 -245 -145 -757 -493 -727 -493 6 0 42 15 80
34 505 245 951 437 1414 609 199 73 280 101 284 96 2 -2 20 -36 39 -75 158
-316 417 -685 700 -996 77 -85 78 -88 55 -97 -12 -6 -106 -40 -208 -76 -264
-95 -498 -189 -477 -193 9 -2 93 6 185 18 92 12 291 34 442 50 l275 29 23 -26
24 -26 132 31 c73 18 140 32 149 32 42 0 16 28 -125 133 -84 63 -195 154 -245
202 -372 350 -760 956 -964 1504 -22 57 -38 105 -37 106 2 2 56 25 121 53
l118 51 26 -62 c15 -34 66 -141 115 -237 318 -634 846 -1253 1403 -1647 524
-370 1071 -608 1744 -759 114 -25 -261 0 -441 30 -559 94 -1020 256 -1472 518
l-68 40 -217 -57 c-290 -77 -693 -201 -931 -287 -215 -77 -602 -229 -597 -234
2 -2 73 14 159 36 239 60 851 174 1314 245 l161 24 125 -82 126 -83 -306 -23
c-406 -29 -956 -84 -1217 -122 -252 -35 -613 -107 -779 -155 -215 -61 -366
-150 -366 -215 0 -134 297 -243 950 -349 661 -106 1529 -174 2770 -215 508
-17 2140 -20 2532 -5 139 5 377 15 528 20 862 34 1684 103 2315 196 787 116
1135 269 959 424 -151 132 -583 236 -1384 334 -202 25 -648 69 -805 81 -44 3
-104 8 -133 11 l-53 6 117 79 117 80 431 -41 c494 -47 1010 -104 1140 -125 49
-8 92 -13 94 -11 11 11 -460 148 -743 216 -201 49 -589 130 -808 169 l-167 31
-114 -83 c-643 -461 -1402 -727 -2251 -788 -229 -16 -240 -8 -25 19 713 89
1392 336 1970 717 117 77 255 179 265 196 9 14 7 13 -90 -51 -472 -312 -1216
-571 -1890 -656 -176 -23 -722 -26 -915 -6 -197 20 -612 95 -598 107 2 1 77
-2 168 -8 262 -17 719 -14 892 6 217 26 406 61 653 122 428 105 777 238 1104
419 162 90 174 103 46 50 -142 -59 -487 -174 -657 -219 -285 -74 -604 -130
-888 -156 -170 -15 -566 -15 -730 0 -703 66 -1373 294 -1927 657 -62 40 -113
76 -113 78 0 3 60 -26 133 -64 221 -115 570 -249 872 -334 197 -56 544 -115
802 -137 214 -18 734 -7 933 20 266 36 608 108 735 155 58 21 34 19 -101 -8
-262 -53 -615 -86 -917 -86 -1144 1 -2128 370 -2937 1103 -58 52 -124 117
-145 143 -38 47 -36 46 60 -32 479 -387 1092 -691 1679 -835 133 -32 412 -81
581 -101 128 -15 818 -16 930 -2 62 9 43 11 -165 17 -396 13 -701 46 -995 108
-649 137 -1255 433 -1792 877 -129 107 -461 430 -502 489 l-22 33 24 11 c22
10 30 5 98 -61 306 -299 764 -602 1204 -796 359 -159 849 -292 1227 -333 170
-19 195 -11 48 15 -836 149 -1611 530 -2190 1078 -106 100 -200 201 -200 214
0 5 25 20 55 35 l56 27 105 -92 c275 -242 658 -475 1024 -625 192 -78 191 -72
-5 30 -375 194 -657 393 -907 638 l-113 111 200 99 c745 368 1677 607 2660
680 210 15 829 16 1025 0 738 -58 1283 -176 1849 -398 289 -113 651 -309 826
-447 64 -51 71 -54 83 -38 25 31 153 293 199 406 183 445 282 874 319 1374 6
85 8 92 28 92 47 0 47 -2 48 -271 0 -422 -47 -795 -148 -1161 -176 -641 -464
-1196 -882 -1697 -114 -137 -377 -408 -474 -489 -80 -66 -90 -56 92 -90 l105
-19 170 171 c653 656 1067 1426 1254 2326 68 332 95 593 95 944 l1 238 58 -6
c80 -8 801 -122 922 -145 55 -11 101 -18 103 -16 15 15 -579 178 -889 245
-303 65 -880 155 -1159 182 -71 6 -130 16 -130 21 0 15 625 -8 779 -30 l44 -6
-8 159 c-4 88 -4 157 -2 154 3 -3 15 -73 27 -155 11 -82 24 -152 28 -156 10
-9 194 -31 200 -24 19 19 -46 411 -113 681 -279 1125 -1021 2151 -2000 2764
-93 58 -120 80 -107 85 418 164 1973 675 2420 795 46 12 81 24 78 27 -5 5
-342 -56 -561 -102 -579 -122 -1308 -319 -1800 -485 -718 -244 -1521 -573
-2172 -890 -134 -65 -243 -117 -243 -116 0 19 692 414 913 522 64 31 116 58
114 60 -5 6 -241 35 -417 51 -287 27 -845 24 -1140 -5 -645 -64 -1225 -204
-1800 -434 -414 -166 -864 -400 -1145 -597 -95 -66 -91 -59 83 133 183 202
472 462 687 618 678 493 1459 784 2280 849 263 21 757 3 992 -36 165 -28 415
-82 546 -120 158 -45 449 -145 500 -171 27 -15 63 -4 281 85 15 6 -12 21 -122
70 -77 34 -171 72 -209 85 -54 19 -64 25 -48 31 11 4 56 23 100 42 343 148
745 288 1160 402 177 49 179 50 115 49 -36 0 -124 -6 -196 -13z m-565 -1027
c234 -140 428 -274 596 -412 84 -69 314 -280 310 -284 -2 -2 -22 9 -46 24
-121 76 -706 331 -959 419 -169 58 -438 138 -504 150 -20 4 -34 10 -31 14 3 3
115 42 248 87 133 44 244 82 246 82 2 1 65 -35 140 -80z m-289 -761 c494 -117
912 -477 1112 -954 68 -162 99 -304 105 -476 8 -216 -22 -368 -107 -537 -101
-200 -289 -371 -500 -453 -152 -59 -230 -72 -435 -72 -146 0 -209 4 -273 18
-474 102 -887 431 -1098 871 -62 130 -88 206 -114 336 -68 342 -6 658 178 906
146 197 365 329 629 379 121 23 368 14 503 -18z m-5504 -879 c-123 -291 -206
-566 -261 -863 -21 -115 -75 -484 -75 -513 0 -5 -35 -17 -77 -27 -43 -10 -129
-32 -190 -50 -62 -18 -113 -30 -113 -26 0 15 74 275 112 390 92 285 266 652
436 922 93 148 233 351 239 346 2 -2 -30 -83 -71 -179z m-16 -3370 c0 -18 108
-285 146 -360 19 -37 34 -70 34 -74 0 -23 -73 99 -188 314 -53 99 -58 113 -44
122 23 13 52 12 52 -2z"/>
<path d="M12050 10290 c-42 -61 -130 -123 -200 -141 -27 -7 -50 -15 -50 -18 0
-3 4 -22 9 -41 5 -19 12 -52 16 -73 l6 -39 52 7 c29 4 79 16 112 26 42 13 61
15 66 7 8 -13 52 -283 79 -488 31 -238 49 -434 56 -621 l7 -176 141 -7 c78 -4
179 -11 225 -17 46 -5 85 -8 88 -5 14 14 -30 613 -62 839 -41 293 -125 717
-150 757 -3 5 -36 10 -73 10 -60 1 -121 7 -247 25 -39 5 -41 4 -75 -45z"/>
<path d="M6145 8020 c-3 -6 -11 -83 -17 -173 -10 -148 0 -551 17 -692 4 -35 3
-33 -15 20 -11 33 -32 101 -45 150 l-25 90 6 -65 c14 -158 90 -503 155 -707
26 -79 33 -93 47 -87 9 4 71 27 137 52 66 25 122 47 124 49 3 2 -13 47 -33
101 -155 398 -279 875 -312 1205 -4 45 -11 67 -20 67 -7 0 -16 -5 -19 -10z"/>
<path d="M5780 7875 l-85 -33 -7 -129 c-7 -135 4 -452 22 -619 16 -145 56
-376 96 -559 20 -88 37 -161 38 -163 2 -1 46 18 99 42 62 29 95 50 92 58 -2 7
-18 76 -34 153 -70 325 -100 600 -108 998 -4 200 -9 287 -17 286 -6 0 -49 -15
-96 -34z"/>
</g>
</svg>
