<svg version="1.1" id="Layer_1" xmlns="http://www.w3.org/2000/svg" xmlns:xlink="http://www.w3.org/1999/xlink" x="0px" y="0px"
	 width="100%" viewBox="0 0 1024 1024" enable-background="new 0 0 1024 1024" xml:space="preserve">
<path fill="#000000" opacity="1.000000" stroke="none" 
	d="
M789.328857,794.136719 
	C792.177246,798.039062 794.453552,795.540955 796.409546,793.674683 
	C802.031860,788.310425 805.568359,781.450684 809.399170,774.819519 
	C809.982117,773.810303 810.410767,772.700623 811.073669,771.751160 
	C812.482727,769.732788 813.162354,766.126831 816.765076,767.795715 
	C820.349976,769.456238 821.111816,772.549194 819.557373,776.213013 
	C817.017883,782.198608 814.183411,788.038208 810.798889,793.588867 
	C806.362671,800.864380 801.610718,807.907959 794.712585,813.164307 
	C782.263794,822.650330 767.768616,818.626648 764.151733,804.495728 
	C762.771484,799.102966 763.540894,793.611267 765.211914,788.267151 
	C768.400146,778.071045 772.953369,768.434204 777.154968,758.650391 
	C778.786438,754.851318 780.924011,751.191895 780.665771,746.810425 
	C780.576843,745.300903 780.760864,743.683655 779.094788,742.910522 
	C777.493530,742.167542 776.206177,743.161316 774.968872,743.998291 
	C769.580383,747.642883 765.991028,752.903748 762.662537,758.277893 
	C753.306885,773.383850 747.879822,790.256470 741.296143,806.604736 
	C740.240051,809.227295 739.281372,811.889771 738.311646,814.546204 
	C735.889343,821.182007 728.383850,824.190125 722.000488,821.062683 
	C719.399963,819.788635 718.856140,817.435669 718.647339,814.837402 
	C718.479126,812.745239 719.257568,810.495117 717.539490,808.264099 
	C714.211182,809.872253 711.841919,812.681213 709.093384,814.972778 
	C699.557556,822.923096 688.859070,827.156494 676.331909,824.501343 
	C665.532532,822.212341 658.902954,815.353943 656.152161,804.701843 
	C655.782654,803.270874 655.421692,801.837646 655.102539,800.585266 
	C653.643738,799.636414 652.677979,800.382019 651.691162,800.992249 
	C650.983398,801.429932 650.309082,801.932739 649.568909,802.305237 
	C638.923218,807.664368 628.806824,813.438171 619.986816,821.954590 
	C611.202393,830.436768 599.326904,832.077820 587.235107,830.320496 
	C576.875366,828.815002 571.028503,822.099976 569.161560,809.170959 
	C564.225525,814.660950 559.844299,820.245972 554.301270,824.723267 
	C544.571167,832.582397 533.476562,835.965393 521.198547,834.142090 
	C511.297913,832.671753 504.048065,827.177185 500.679321,817.349854 
	C500.196198,815.940430 499.868103,814.474060 498.193024,813.042236 
	C493.498901,818.364441 489.350006,824.163086 484.092285,828.952454 
	C478.605652,833.950073 472.394073,837.029053 464.930023,837.586060 
	C454.954712,838.330444 448.367432,832.652039 447.672607,822.587341 
	C447.253540,816.516785 448.110748,810.675659 450.362030,804.992065 
	C453.923523,796.000793 458.298737,787.392029 462.406830,778.655090 
	C463.888702,775.503662 465.000397,772.176208 466.240173,768.913574 
	C466.807129,767.421448 466.776459,765.996765 465.541565,764.760559 
	C464.062775,763.280151 462.440918,763.744629 460.928558,764.507629 
	C456.563110,766.710083 452.826477,769.671326 449.814880,773.596252 
	C440.669647,785.514709 435.705078,799.585693 429.429047,812.976135 
	C426.039093,820.208923 422.926727,827.571411 419.667969,834.865967 
	C417.385101,839.976074 414.020599,841.830750 408.620758,841.012695 
	C403.315735,840.208984 401.367859,837.985413 400.613098,831.905212 
	C400.532196,831.253296 400.404907,830.597168 400.201263,829.974976 
	C400.108948,829.692993 399.777008,829.489502 399.512634,829.206299 
	C397.241608,829.272949 396.167664,831.116394 394.790710,832.485779 
	C390.029816,837.220642 385.001740,841.495361 378.316986,843.361572 
	C369.131134,845.926025 362.060791,842.331848 359.001556,833.394226 
	C357.274414,828.348328 356.796478,828.192871 353.037842,831.992065 
	C349.395905,835.673157 345.669250,839.227844 341.249664,841.982544 
	C337.537628,844.296204 333.626373,846.044739 329.193634,846.383362 
	C315.202057,847.452148 307.769073,840.667664 307.658234,826.648865 
	C307.497345,806.299683 316.237854,789.357422 328.124359,773.669312 
	C333.702087,766.307678 340.103119,759.772217 348.460876,755.537415 
	C361.640381,748.859436 369.984558,750.123962 380.449860,760.260376 
	C383.046478,760.068604 384.154053,757.719299 385.770020,756.198669 
	C388.111481,753.995728 390.726868,752.915955 393.893555,753.187744 
	C403.794861,754.037170 406.667938,759.052673 402.323486,768.116211 
	C397.145050,778.919434 391.829803,789.657043 386.611084,800.441162 
	C384.426483,804.955505 383.060211,809.756775 381.793610,814.594360 
	C381.202972,816.850098 381.195221,818.834656 383.109985,820.518677 
	C385.128204,822.293823 386.942261,821.005859 388.606903,820.081360 
	C396.266479,815.827759 401.493805,809.053772 406.249176,802.020630 
	C414.918335,789.198975 420.928558,775.214539 423.317993,759.801941 
	C423.551544,758.295349 423.808716,756.811340 423.276733,755.370789 
	C421.537872,750.661865 424.537628,749.367615 428.145081,748.770020 
	C435.756409,747.509277 441.415619,750.497864 444.928467,757.436890 
	C445.448059,758.463196 445.700165,759.666992 447.483612,760.464233 
	C451.291962,758.490112 454.238251,754.771912 457.995087,752.171265 
	C464.787415,747.469604 471.613556,743.014282 480.543945,745.548767 
	C490.760864,748.448364 495.265228,756.177917 492.806580,766.602966 
	C490.563232,776.114807 485.733215,784.518005 481.495880,793.172852 
	C478.931580,798.410583 476.379242,803.657776 474.724091,809.257935 
	C474.138062,811.240906 473.278839,813.733582 475.578400,815.187439 
	C477.663452,816.505676 479.427734,814.866638 480.891449,813.555542 
	C490.411194,805.027710 498.514862,795.344971 503.479462,783.465515 
	C510.060547,767.717957 519.469971,754.329346 533.918640,744.845581 
	C538.250854,742.002014 542.735229,739.607910 547.911804,738.511780 
	C563.774963,735.152832 573.349243,744.832642 569.911316,760.656128 
	C565.631042,780.356384 545.705933,798.388489 528.160828,799.256409 
	C525.430664,799.391479 524.462524,800.673950 524.310913,803.333679 
	C523.758850,813.017578 531.015686,818.849304 540.195801,815.794617 
	C550.644104,812.317932 557.694763,804.533264 564.272583,796.252319 
	C569.048279,790.240173 573.090515,783.825867 576.057373,776.651550 
	C584.643921,755.887695 595.047668,735.917175 603.144897,714.930054 
	C604.901489,710.377075 606.221619,705.915039 605.749817,700.885986 
	C605.228943,695.333984 607.100647,693.384583 612.682434,692.776733 
	C616.172974,692.396606 619.625305,692.843384 623.095276,693.526489 
	C631.497742,695.180481 633.939148,698.950928 631.662048,707.313904 
	C629.244629,716.192017 625.196167,724.408997 621.384766,732.725891 
	C620.665894,734.294495 619.135437,735.671631 619.746338,737.691162 
	C621.099060,738.254089 622.043579,737.509399 623.024536,736.921143 
	C637.771667,728.077820 650.603882,735.228333 651.378967,752.536377 
	C651.880249,763.730347 649.182556,774.290222 645.851746,784.783264 
	C645.400940,786.203430 644.944702,787.623352 644.562317,789.062378 
	C644.497803,789.305359 644.797729,789.645142 645.170593,790.481384 
	C651.811157,787.778198 657.240417,784.209717 659.674072,776.843689 
	C664.402832,762.530884 672.053833,749.951355 683.196716,739.680054 
	C689.781372,733.610352 697.296631,729.143433 706.171997,727.174988 
	C719.238953,724.276917 729.106750,733.638672 726.806396,746.826538 
	C723.123108,767.942627 707.860474,783.926147 686.989990,788.523621 
	C681.723389,789.683716 680.455688,791.829712 681.905151,797.130920 
	C684.140930,805.307983 689.928833,808.489502 697.908936,805.640808 
	C705.490906,802.934204 711.235291,797.624329 716.589172,791.819397 
	C727.880432,779.576599 732.657227,763.984314 738.521790,748.985779 
	C740.813843,743.123962 742.762634,737.076477 743.664001,730.788513 
	C744.069397,727.960999 745.806824,726.889221 748.406677,726.594116 
	C754.230225,725.932922 759.604309,728.862671 762.358154,734.218933 
	C763.020813,735.507629 763.245544,737.105530 765.083069,738.061890 
	C768.398254,735.012512 771.697571,731.778076 775.210876,728.795837 
	C779.763611,724.931213 784.962036,722.650024 791.095520,722.424500 
	C800.108704,722.092957 805.617065,726.845093 806.324280,735.904114 
	C806.827698,742.352600 805.523438,748.471191 803.181213,754.434143 
	C799.047302,764.958496 794.917114,775.484558 790.855347,786.036804 
	C789.904175,788.507935 788.985107,791.036194 789.328857,794.136719 
M368.513947,769.134155 
	C365.681549,765.613098 362.652222,765.974854 359.487488,768.660400 
	C355.917084,771.690063 352.809265,775.146057 350.053162,778.919556 
	C342.019196,789.919128 335.586975,801.625122 334.388672,815.531189 
	C334.133545,818.492004 333.803009,821.847778 336.975555,823.569397 
	C340.129333,825.280762 342.793610,823.107056 345.145691,821.407288 
	C358.445831,811.795654 365.822510,798.351074 369.652618,782.722717 
	C370.720184,778.366577 371.816620,773.926575 368.513947,769.134155 
M625.901489,752.666870 
	C621.554016,751.910583 618.530029,754.399231 615.887329,757.167297 
	C607.198669,766.267822 601.351440,776.952271 598.642151,789.297546 
	C597.919250,792.591553 598.860107,795.238892 601.634216,797.131042 
	C606.074707,800.159668 613.951050,799.267273 617.013855,794.804932 
	C624.176880,784.368591 628.828430,772.864929 629.866272,760.126404 
	C630.096436,757.301147 629.881897,754.340454 625.901489,752.666870 
M548.828186,771.345093 
	C551.729614,767.425293 553.843262,763.150879 555.090515,758.403870 
	C555.645142,756.293152 555.903137,754.401611 553.950745,753.031250 
	C552.104553,751.735474 550.407715,752.892395 548.893188,753.878723 
	C547.511353,754.778748 546.212036,755.854248 545.036743,757.014771 
	C538.029785,763.933044 533.485168,772.389404 530.039551,781.487976 
	C529.369446,783.257507 527.997864,784.984680 529.162292,787.723694 
	C537.251160,784.331177 543.096191,778.456421 548.828186,771.345093 
M704.151672,761.660461 
	C706.673828,757.773438 709.601746,754.132324 710.887634,749.531067 
	C711.447327,747.528320 712.146179,745.488525 710.309265,744.004822 
	C708.261108,742.350525 706.518860,744.104248 704.994263,745.238708 
	C695.280334,752.467712 689.699524,762.488525 685.978027,773.736206 
	C685.625122,774.802917 684.907166,775.868591 686.676025,777.369812 
	C693.434937,773.732483 698.970703,768.446533 704.151672,761.660461 
M599.768860,809.726135 
	C597.718750,809.429871 596.025757,807.640320 593.725891,808.028748 
	C594.332947,814.489258 597.922668,815.446228 604.661438,811.197205 
	C603.240845,810.798279 601.820190,810.399292 599.768860,809.726135 
z"/>
<path fill="#000000" opacity="1.000000" stroke="none" 
	d="
M735.156738,378.016693 
	C727.344238,389.438232 717.816650,397.806641 703.893311,399.743195 
	C699.701599,400.326172 698.822205,402.883728 699.465210,406.525208 
	C700.752319,413.815247 707.642944,418.155548 714.786133,416.050385 
	C723.822754,413.387177 730.327271,407.210724 736.084045,400.163666 
	C743.009949,391.685486 747.889221,382.085083 751.282715,371.684082 
	C757.781738,351.764679 764.349670,331.867706 770.927917,311.974243 
	C772.211365,308.092926 773.173462,304.482330 769.850403,300.898529 
	C767.619202,298.492279 769.070251,296.261627 771.461609,294.696777 
	C777.000610,291.072144 791.570312,292.264801 796.104004,296.942932 
	C800.294434,301.266846 800.112122,306.711182 798.636108,311.970398 
	C795.437073,323.369202 790.106628,333.978882 785.890015,345.006073 
	C779.295898,362.250153 771.965576,379.227661 767.153503,397.105164 
	C766.227722,400.544312 764.506226,404.757568 768.434875,407.085205 
	C772.256714,409.349548 774.817017,405.596191 777.344604,403.353607 
	C782.817322,398.498352 786.008667,392.620361 787.866760,385.268616 
	C793.049316,364.764343 803.566101,347.508179 822.203857,336.318115 
	C828.668396,332.436859 835.680298,329.488922 843.534058,331.230652 
	C854.260437,333.609375 859.812073,342.418365 856.707886,352.974152 
	C850.737427,373.277008 838.279114,386.930634 816.496155,390.437256 
	C813.223999,390.963959 811.934937,394.040558 813.261963,397.824066 
	C816.663696,407.522858 826.555847,411.176697 835.507568,405.889587 
	C847.665283,398.708984 854.824524,387.382660 860.750854,375.058258 
	C861.946411,372.571930 862.145081,368.447418 866.595520,370.103210 
	C870.559143,371.577972 872.209778,374.765381 871.088318,378.937622 
	C866.212952,397.074951 846.542175,424.580475 821.816589,427.860992 
	C807.857605,429.713043 795.605347,424.383514 788.676636,411.963196 
	C788.205078,411.117920 787.612122,410.340393 786.926575,409.306671 
	C782.840759,414.015381 779.257202,418.824158 774.983459,422.911285 
	C768.582703,429.032501 761.301270,433.682312 751.743774,431.573730 
	C744.912781,430.066681 741.641663,426.329163 740.661011,419.257599 
	C740.500000,418.096588 740.527222,416.910034 739.208496,415.954315 
	C736.091003,416.851135 734.554688,419.819916 732.334900,421.922302 
	C720.553101,433.081116 707.218262,438.433838 690.894226,433.527527 
	C684.736389,431.676788 680.683167,427.532349 677.299988,422.418457 
	C676.316162,420.931244 675.809998,419.078857 674.048523,417.902374 
	C671.406799,419.120483 670.375122,421.729279 668.744812,423.723602 
	C663.943176,429.597534 658.633545,434.725616 651.330872,437.476746 
	C638.603149,442.271606 628.938660,436.275635 627.702515,422.680328 
	C626.727966,411.962189 626.882690,412.359833 617.074951,416.176208 
	C611.450562,418.364716 607.678833,421.732239 604.603760,426.743256 
	C600.552063,433.345795 595.282104,438.877899 587.878967,441.954651 
	C578.549377,445.832092 567.959900,442.843994 562.625488,434.765594 
	C557.627380,427.196472 558.833069,415.151031 565.061401,408.862427 
	C568.583374,405.306396 572.410339,404.739227 576.861511,406.807892 
	C589.764343,412.804382 590.012573,412.634491 595.307556,399.154083 
	C598.419373,391.231720 600.738098,383.101593 602.354004,374.760925 
	C602.981689,371.521210 603.026367,368.235931 599.972290,366.173035 
	C596.911743,364.105774 594.632202,366.670532 592.409363,368.225128 
	C576.699768,379.212219 566.632690,394.660736 559.587830,411.975800 
	C551.630859,431.532776 544.891663,451.582184 539.944275,472.146912 
	C538.663147,477.472168 535.497131,479.653656 530.594604,480.185394 
	C527.780090,480.490662 524.989624,480.407959 522.199768,479.516602 
	C515.475647,477.368225 513.612671,474.494812 515.069397,467.635376 
	C517.775146,454.894257 522.724426,442.881683 527.168945,430.703674 
	C534.582092,410.391663 541.752930,389.998932 547.749451,369.208740 
	C548.784790,365.619232 548.675964,362.535767 546.718384,359.218994 
	C544.340027,355.189270 545.807434,352.288788 550.328247,351.757751 
	C554.606140,351.255188 558.840820,350.410187 563.223450,350.606354 
	C572.303711,351.012726 574.994080,354.106964 573.727722,363.208405 
	C573.664734,363.661407 573.857849,364.150055 573.971313,364.875275 
	C577.129456,365.226379 578.232727,362.517090 579.785034,360.908417 
	C585.874207,354.598083 592.665649,349.802032 601.836365,349.670532 
	C614.518127,349.488586 622.814026,357.609192 623.385193,370.279816 
	C623.788330,379.223358 622.352539,387.818207 619.664795,396.291718 
	C619.088867,398.107544 617.872864,399.913544 619.080627,403.134888 
	C624.394653,399.895477 629.160828,396.528107 632.589355,391.717224 
	C640.316223,380.874878 644.439819,368.634338 644.515808,355.349823 
	C644.545288,350.202820 646.776489,347.812286 651.136414,347.127594 
	C656.894775,346.223267 662.470642,347.481567 667.158020,350.996735 
	C670.814636,353.738953 670.877808,357.742767 669.720947,361.907288 
	C666.636292,373.010925 661.353271,383.279480 657.593384,394.120728 
	C655.798889,399.295319 654.258240,404.560272 652.696960,409.812378 
	C652.052673,411.979706 652.057251,414.206726 654.021057,415.771851 
	C656.312317,417.597870 658.253296,415.899780 659.805725,414.576447 
	C666.665100,408.729309 672.758240,402.650513 675.053345,393.122467 
	C679.411194,375.030731 688.239014,359.389374 703.689697,348.177643 
	C708.589417,344.622131 713.954163,342.045074 719.818176,340.465729 
	C734.935608,336.394135 745.101929,345.810089 742.037537,361.156250 
	C740.854919,367.078339 738.685547,372.637909 735.156738,378.016693 
M828.529053,372.031555 
	C834.476074,366.758270 838.809814,360.372681 841.609741,352.948578 
	C842.559204,350.430878 843.685364,347.599823 840.739441,345.809906 
	C838.083740,344.196320 836.015747,346.381042 834.181763,347.971527 
	C825.106384,355.842438 819.972961,366.122375 816.533875,377.387482 
	C816.382019,377.884979 816.788269,378.552887 817.000061,379.404541 
	C821.559814,378.133850 824.748718,375.258209 828.529053,372.031555 
M719.708496,358.208038 
	C710.772095,365.869080 705.824280,375.757294 702.676758,387.450256 
	C712.575684,383.951050 723.180237,372.619080 726.649902,362.463654 
	C727.411072,360.235657 728.378235,357.838989 725.959839,356.135468 
	C723.616821,354.485138 722.025635,356.704285 719.708496,358.208038 
M581.967957,418.985016 
	C580.075317,418.460968 578.207153,417.651398 576.283691,417.486237 
	C573.960754,417.286774 572.783447,418.650482 573.801880,420.944672 
	C574.699219,422.966187 576.680115,422.887695 578.545410,422.705383 
	C581.266418,422.439392 581.685974,422.068970 581.967957,418.985016 
z"/>
<path fill="#000000" opacity="1.000000" stroke="none" 
	d="
M386.410400,519.630249 
	C384.684692,512.641174 381.838562,506.729034 377.004700,501.845276 
	C375.462463,500.287140 374.094421,498.480072 375.060974,496.065308 
	C376.077545,493.525696 378.372192,493.711029 380.561768,493.640533 
	C392.041840,493.270874 403.500702,492.429993 415.006561,492.558563 
	C419.030792,492.603546 421.538177,493.915955 423.385437,497.416870 
	C432.243347,514.204407 441.255585,530.910461 450.131989,547.688293 
	C457.606567,561.816528 464.960876,576.008484 472.395905,590.157715 
	C473.149048,591.590942 473.766266,593.255249 475.731049,593.534912 
	C478.067413,592.621399 477.624115,590.580750 477.626465,588.841248 
	C477.655701,567.015930 477.868713,545.187012 477.522919,523.367126 
	C477.393982,515.232300 475.649811,507.231262 471.502808,499.926971 
	C468.403687,494.468384 469.983307,491.932648 476.335785,491.725037 
	C485.481720,491.426147 494.629242,491.799164 503.784698,490.972717 
	C510.510986,490.365540 512.684204,494.072876 509.464813,499.844635 
	C505.149323,507.581329 503.223877,515.731140 503.262207,524.666565 
	C503.451477,568.816284 503.350342,612.967285 503.346741,657.117798 
	C503.346069,665.281189 502.509430,666.139709 494.133942,666.259033 
	C487.970642,666.346802 481.800415,666.172424 475.643097,666.391235 
	C470.491638,666.574341 467.272461,664.298523 464.949463,659.814880 
	C450.859436,632.620056 436.658356,605.482727 422.477264,578.335144 
	C421.398743,576.270447 420.229797,574.249451 419.021057,572.257812 
	C418.411865,571.254028 417.605774,570.280090 416.225525,570.613342 
	C414.889648,570.935913 414.396332,572.046387 414.407043,573.284363 
	C414.609741,596.756409 413.605011,620.240479 414.945770,643.698486 
	C415.270416,649.378174 417.196259,654.712585 419.451813,659.953491 
	C421.441711,664.577026 419.803253,667.096497 414.885132,667.289307 
	C404.071625,667.713440 393.252289,667.992676 382.434509,668.301575 
	C380.427521,668.358948 378.180023,668.485168 377.118561,666.381531 
	C375.990540,664.146057 377.109802,662.165161 378.689056,660.516174 
	C385.301056,653.612305 387.618530,645.094910 387.783752,635.861572 
	C388.427551,599.881165 387.796692,563.901123 387.591003,527.921326 
	C387.575958,525.289307 386.895325,522.661011 386.410400,519.630249 
z"/>
<path fill="#000000" opacity="1.000000" stroke="none" 
	d="
M257.350281,641.000122 
	C257.350128,649.165588 257.369843,656.831116 257.333527,664.496399 
	C257.325684,666.152710 257.389587,667.886414 256.942352,669.447510 
	C256.024200,672.652710 255.014023,675.977722 250.851273,676.419556 
	C246.406006,676.891296 245.312180,673.519897 244.075180,670.403870 
	C242.726593,667.006775 241.737488,663.443237 240.133011,660.177612 
	C238.115814,656.072021 236.646652,656.008240 233.550079,659.436829 
	C230.985794,662.276123 228.692871,665.382812 225.962982,668.046387 
	C211.208893,682.442322 191.607269,683.786987 174.367996,672.468384 
	C156.174988,660.523499 147.520767,642.989685 143.774368,622.460144 
	C141.202896,608.369019 140.069595,594.087830 140.745148,579.762817 
	C141.696060,559.598083 145.546524,540.164001 156.795959,522.875244 
	C167.835388,505.909271 183.413147,496.634094 203.713516,495.976135 
	C213.707260,495.652283 222.481995,499.733459 230.766449,504.984375 
	C237.362900,509.165375 237.996170,509.001648 242.690674,502.537567 
	C243.694443,501.155365 244.728165,499.716522 246.652817,500.026855 
	C248.741287,500.363586 249.736526,502.123901 250.083176,503.917358 
	C250.711792,507.169495 251.378204,510.415619 251.340103,513.797607 
	C251.220016,524.461121 251.300949,535.126770 251.287582,545.791626 
	C251.279190,552.486084 244.098251,558.047485 237.637375,556.403931 
	C235.231934,555.792175 234.240631,554.040955 233.546051,551.839905 
	C232.245056,547.717285 230.965988,543.570740 229.343079,539.569885 
	C224.416977,527.425903 212.702347,521.140320 201.438538,524.357117 
	C197.550827,525.467407 194.766266,527.868347 192.467163,531.108948 
	C185.311707,541.194519 182.943542,552.981201 180.681244,564.723389 
	C176.662186,585.583862 177.726379,606.396545 182.395264,627.038574 
	C183.810440,633.295349 186.925110,638.850708 191.041245,643.759644 
	C199.278915,653.583862 211.236954,652.933167 218.175018,642.053772 
	C223.688599,633.408081 223.238678,623.597656 222.174850,613.959839 
	C221.760010,610.201599 218.157639,609.057983 214.795242,608.166565 
	C211.538055,607.302979 207.523117,607.474915 206.319916,603.171448 
	C204.670761,597.272888 202.467834,591.377991 204.466949,585.140442 
	C205.282791,582.594910 207.505981,581.698853 210.026749,581.730469 
	C225.855133,581.929260 241.637436,580.059875 257.472717,580.678711 
	C262.033813,580.856995 264.696838,583.639038 262.884216,587.359375 
	C255.426178,602.666504 257.688934,618.956848 257.355408,635.000854 
	C257.317322,636.833191 257.350098,638.666931 257.350281,641.000122 
z"/>
<path fill="#000000" opacity="1.000000" stroke="none" 
	d="
M684.508301,502.296143 
	C682.103821,506.465759 680.969482,510.213989 681.923645,514.944946 
	C688.160828,545.871643 695.875732,576.458008 702.829041,607.218262 
	C705.354797,618.391846 707.929871,629.557495 710.720764,640.666809 
	C712.437256,647.499634 715.472107,653.818237 719.652893,659.519592 
	C721.026733,661.393250 721.932312,663.360413 720.945312,665.531311 
	C719.864380,667.908936 717.446716,667.817993 715.292908,667.754456 
	C700.477783,667.317383 685.664917,666.805115 670.850098,666.357483 
	C663.176575,666.125549 661.140076,663.499756 665.119690,657.240967 
	C672.959473,644.911316 668.602051,632.475952 666.508911,619.995605 
	C666.021912,617.091980 663.291687,616.644836 661.028503,616.571472 
	C654.203308,616.350037 647.367737,616.424255 640.536255,616.426025 
	C637.478943,616.426758 636.031311,618.463196 635.454041,621.064331 
	C632.628784,633.795105 630.058167,646.496765 636.267639,659.106506 
	C638.284668,663.202576 637.009521,665.134216 632.449707,665.198364 
	C621.286438,665.355530 610.118042,665.364075 598.954834,665.210693 
	C594.629028,665.151306 592.484253,662.313721 594.502808,659.155212 
	C606.040710,641.101135 608.124329,620.067261 613.198608,600.039307 
	C620.292419,572.040100 626.563110,543.831787 633.127258,515.699341 
	C634.561646,509.551971 636.050903,503.518219 632.361206,497.330444 
	C630.344360,493.948364 633.163208,492.042480 636.400940,491.778839 
	C639.709045,491.509430 643.091370,491.484009 646.386658,491.846802 
	C657.191406,493.036438 668.023254,492.538147 678.845093,492.677826 
	C686.308899,492.774200 687.764465,495.083832 684.508301,502.296143 
M644.563171,590.336060 
	C647.359863,592.568542 650.652954,591.541565 653.725342,591.595520 
	C659.078430,591.689453 660.343872,590.102905 659.357422,585.023499 
	C657.462891,575.268188 655.525391,565.521301 653.607666,555.770508 
	C653.352173,554.471436 653.191895,553.103088 650.836121,552.952759 
	C648.457153,565.167725 645.397339,577.285156 644.563171,590.336060 
z"/>
<path fill="#000000" opacity="1.000000" stroke="none" 
	d="
M307.933685,760.456238 
	C309.416504,794.820801 298.373322,823.101990 269.924011,843.034607 
	C249.071671,857.644531 226.832962,858.165588 204.182587,847.496338 
	C199.765701,845.415894 196.941696,845.672119 193.179855,848.916565 
	C184.639801,856.281982 174.814423,860.965088 163.059387,859.461060 
	C154.171478,858.323975 148.346420,853.468018 146.856140,846.265076 
	C145.208694,838.302429 149.148666,830.261353 157.063248,825.776550 
	C164.412476,821.612244 172.312210,821.526123 180.312729,823.163513 
	C188.760696,824.892517 188.892838,825.049927 192.642029,817.071228 
	C201.504684,798.210510 207.779480,778.330627 215.280441,758.932800 
	C218.725479,750.023865 223.013763,741.579102 229.103210,734.172852 
	C233.377304,728.974426 238.469757,725.035583 245.732834,725.736938 
	C251.725510,726.315613 254.668182,730.791687 251.604874,735.085938 
	C238.216095,753.854919 231.838593,775.636169 224.424698,797.002014 
	C220.500626,808.310791 216.793991,819.732422 211.382294,830.447754 
	C209.300690,834.569275 212.103470,835.631958 214.699509,836.544922 
	C225.665390,840.401489 236.311035,839.321106 246.506927,833.822693 
	C255.360352,829.048279 262.432129,822.192932 267.827118,813.857727 
	C283.147064,790.188538 286.983795,764.788696 276.899200,738.215637 
	C269.584442,718.941162 251.590439,709.391357 231.128860,712.591614 
	C219.341171,714.435242 207.943161,717.192078 198.838425,725.734680 
	C192.286377,731.882324 188.163803,739.323608 186.537399,748.093689 
	C184.856003,757.160461 190.269577,762.996521 199.175949,761.972229 
	C202.986755,761.533936 205.366425,764.784424 203.973312,769.036804 
	C201.753433,775.812805 195.968399,778.287476 189.720428,779.181885 
	C173.599548,781.489624 161.985886,770.901855 161.585953,754.588684 
	C161.123734,735.736023 171.189468,722.945618 185.830704,713.609070 
	C208.638565,699.064819 233.913620,693.522156 260.348419,700.066467 
	C285.863708,706.383179 300.416656,724.408508 306.278015,749.669250 
	C307.063049,753.052551 307.326874,756.556885 307.933685,760.456238 
M167.923035,839.568115 
	C171.617874,843.237732 177.431137,841.694153 179.792831,836.416321 
	C174.410080,834.210022 171.880005,834.753174 167.923035,839.568115 
z"/>
<path fill="#000000" opacity="1.000000" stroke="none" 
	d="
M334.988953,641.893311 
	C345.353912,640.507324 353.538116,635.493958 361.197784,629.464233 
	C363.501587,627.650696 365.788330,625.598083 368.754028,627.299866 
	C371.325775,628.775513 370.428040,631.601379 370.481842,634.080627 
	C370.704529,644.341248 367.263367,654.057190 366.180817,664.123169 
	C365.816925,667.506470 363.290283,669.139587 359.841461,669.322998 
	C341.071991,670.321228 322.302673,671.326050 303.537231,672.397156 
	C295.076202,672.880066 286.623718,673.513611 278.168549,674.096924 
	C275.955627,674.249573 273.576599,674.376343 272.285217,672.299622 
	C270.898621,670.069763 271.769318,667.779114 273.294617,665.824890 
	C280.004242,657.228760 281.650238,647.191040 281.650421,636.677490 
	C281.651001,602.856934 281.653046,569.036377 281.649261,535.215820 
	C281.648071,524.622253 280.966125,514.353088 273.317963,505.757416 
	C270.077209,502.115295 272.047577,498.791779 277.188263,498.723816 
	C285.181366,498.618103 293.148651,498.143188 301.127930,497.803345 
	C319.571045,497.017853 337.960541,495.619812 356.326447,493.876038 
	C359.839752,493.542480 361.771057,494.572266 362.310150,498.049683 
	C363.936462,508.539886 365.670288,519.015503 367.099854,529.532532 
	C367.435242,531.999939 366.522644,534.623291 364.083862,535.967590 
	C361.714874,537.273499 359.557007,536.186340 357.678467,534.613953 
	C347.960602,526.479919 336.602722,523.748413 324.196960,524.260376 
	C320.114685,524.428894 318.119263,526.187317 318.164062,530.415100 
	C318.280518,541.409607 318.259613,552.405640 318.272552,563.401062 
	C318.276154,566.470764 319.244812,568.619507 322.786224,568.642395 
	C330.256256,568.690674 337.850525,569.485352 344.151947,563.991333 
	C346.500366,561.943787 348.392670,563.071411 349.958771,565.312988 
	C351.382935,567.351379 351.416656,569.720459 351.604919,572.014526 
	C352.257599,579.967285 353.035034,587.991333 351.408112,595.858215 
	C350.132019,602.028503 346.576660,603.327881 341.704926,599.293579 
	C335.723633,594.340515 328.943878,595.230591 322.190704,595.508179 
	C319.444183,595.621094 318.292603,597.645264 318.303833,600.385925 
	C318.354462,612.714294 318.325348,625.042969 318.394836,637.371155 
	C318.413788,640.732605 320.102295,642.700256 323.641327,642.634033 
	C327.290436,642.565796 330.977661,643.082092 334.988953,641.893311 
z"/>
<path fill="#000000" opacity="1.000000" stroke="none" 
	d="
M359.335510,334.116272 
	C357.612091,346.623779 352.854126,357.889343 349.994568,369.659760 
	C349.430573,371.981293 348.004395,374.185852 348.667389,376.886780 
	C351.448975,376.546906 352.761169,374.374176 354.570312,373.048340 
	C358.337769,370.287231 362.072693,367.552490 366.413574,365.692566 
	C372.759155,362.973755 378.989319,363.099487 384.245178,367.568268 
	C389.270782,371.841370 389.631714,378.163696 388.703430,384.170319 
	C387.212402,393.817810 381.985931,402.198334 378.668793,411.237976 
	C377.065704,415.606476 375.436920,419.968414 373.973297,424.384216 
	C373.127380,426.936493 372.330109,429.818542 375.252014,431.556122 
	C377.888184,433.123779 379.615173,430.709015 381.260284,429.265076 
	C388.516663,422.895752 393.343201,414.720215 397.887665,406.358246 
	C398.949005,404.405304 399.389465,401.619812 402.750977,402.774231 
	C405.924744,403.864197 407.863220,406.759155 406.810364,409.334442 
	C399.387878,427.490234 391.302155,445.297394 371.483124,453.605988 
	C364.839172,456.391296 358.458282,456.283081 352.839325,451.225739 
	C347.052063,446.016968 346.761597,439.239166 348.182587,432.312531 
	C350.837769,419.369843 356.601044,407.462372 361.016022,395.105011 
	C361.630524,393.385132 362.196930,391.648102 362.801514,389.924591 
	C363.469910,388.019226 364.399445,385.926575 362.492645,384.377716 
	C360.282562,382.582611 358.378876,384.480011 356.665436,385.602112 
	C350.828491,389.424622 346.544403,394.720398 343.131409,400.716553 
	C334.205933,416.397339 327.837250,433.217346 321.496399,450.030548 
	C318.551880,457.838135 306.642548,461.605927 299.772675,456.696350 
	C296.033325,454.024017 298.507690,450.303741 298.107422,446.959198 
	C295.221832,446.220612 294.148376,448.526978 292.667969,449.826263 
	C285.114716,456.455109 276.673950,461.663940 266.507935,462.177734 
	C246.370178,463.195526 233.967499,452.326080 235.090149,430.880096 
	C236.263214,408.471436 246.455368,390.094696 263.971863,376.051208 
	C271.021393,370.399414 279.071777,367.014465 288.480713,368.583466 
	C299.059662,370.347595 304.171082,376.258270 304.321991,386.984222 
	C304.408569,393.138092 302.637909,398.839081 299.610504,404.096680 
	C297.308838,408.093964 293.760651,410.508789 288.951782,410.277802 
	C282.920776,409.988159 280.825684,406.351746 283.857391,401.198517 
	C285.904419,397.719116 287.770416,394.214417 288.470581,390.232666 
	C288.909241,387.738129 289.032227,385.074219 286.500153,383.483215 
	C283.671814,381.706116 281.655426,383.810547 279.993805,385.545776 
	C270.120239,395.857056 264.764740,408.419067 262.382324,422.312836 
	C261.745209,426.028442 261.224487,429.805939 262.366760,433.660248 
	C264.273651,440.094696 270.052521,443.706482 276.607788,442.180511 
	C290.232758,439.008667 297.990570,428.834351 305.341705,418.144562 
	C310.435364,410.737549 312.589264,402.111450 315.443604,393.801514 
	C321.164948,377.144958 327.935059,360.831451 332.109497,343.663330 
	C333.123260,339.493835 334.343597,335.299500 331.419952,331.261597 
	C330.361969,329.800354 330.404968,327.851044 331.742706,326.627960 
	C336.624390,322.164551 342.542908,320.797272 348.901184,322.016205 
	C355.269897,323.237152 358.420502,327.028503 359.335510,334.116272 
z"/>
<path fill="#000000" opacity="1.000000" stroke="none" 
	d="
M422.912964,903.223694 
	C408.703491,905.479126 394.931396,907.681946 381.157806,909.875366 
	C380.010742,910.058044 378.854767,910.295471 377.701172,910.305847 
	C373.768555,910.341064 369.336548,911.302673 368.673065,905.284546 
	C367.887177,898.155884 369.572327,894.972839 375.624329,893.797607 
	C398.925446,889.272888 422.316864,885.259399 445.779602,881.653381 
	C465.948975,878.553467 486.083954,875.229248 506.257629,872.158264 
	C525.606689,869.212891 544.966431,866.323425 564.357544,863.673096 
	C582.112305,861.246460 599.897400,859.015381 617.702454,856.991516 
	C632.385071,855.322571 647.112305,854.038696 661.827332,852.664612 
	C679.188354,851.043457 696.551453,849.438965 713.925232,847.963257 
	C724.195557,847.091064 734.478882,846.099487 744.773193,845.845703 
	C759.585327,845.480530 774.373413,844.007874 789.206665,844.708374 
	C792.182434,844.848877 795.174683,845.206177 798.097778,845.777954 
	C804.311707,846.993530 806.969421,849.958557 807.396851,855.748535 
	C808.015503,864.129517 805.017090,870.741089 799.700317,872.790588 
	C798.714417,873.170654 797.583923,873.478394 796.862915,872.729187 
	C793.603943,869.342834 789.425720,870.282898 785.534729,870.290405 
	C766.053467,870.327942 746.559753,870.031860 727.107544,871.408142 
	C705.715759,872.921692 684.334961,874.588928 662.947998,876.170959 
	C648.355164,877.250488 633.747375,878.151306 619.169312,879.400757 
	C603.277039,880.762878 587.401917,882.345459 571.536682,883.997925 
	C555.513550,885.666870 539.494385,887.398865 523.504822,889.358704 
	C504.553558,891.681641 485.627716,894.218384 466.706146,896.775513 
	C453.707977,898.532166 440.734955,900.475281 427.753235,902.352661 
	C426.276978,902.566101 424.817261,902.893860 422.912964,903.223694 
z"/>
<path fill="#000000" opacity="1.000000" stroke="none" 
	d="
M822.439087,649.292358 
	C821.554199,656.324646 819.981018,662.766357 818.236267,669.175171 
	C817.234497,672.854919 815.237061,674.788269 811.096558,674.420715 
	C800.674072,673.495300 790.228271,672.836121 779.796692,672.009399 
	C769.037720,671.156799 758.286377,670.209106 747.528015,669.349182 
	C742.393494,668.938904 737.234558,668.784424 732.116089,668.238831 
	C727.668213,667.764648 726.168335,665.023071 728.526855,661.297607 
	C733.765930,653.022522 734.196533,644.139709 734.049377,634.581299 
	C733.503601,599.119812 733.612488,563.646179 733.726929,528.177917 
	C733.759094,518.210327 732.241272,508.691528 728.539368,499.458008 
	C726.530029,494.445984 728.331604,491.412537 733.260742,491.996918 
	C744.064575,493.277863 754.897522,492.135712 765.690918,492.815765 
	C778.879883,493.646698 780.733826,493.973145 774.755737,506.249847 
	C770.276489,515.448547 771.011841,525.433411 771.449646,535.188538 
	C772.786865,564.984497 771.986511,594.788879 772.226746,624.588013 
	C772.253601,627.917725 772.084351,631.252380 772.207092,634.577271 
	C772.405090,639.939880 774.917542,642.424133 780.274841,642.643555 
	C794.275146,643.216919 804.206909,635.927673 812.470276,625.673035 
	C814.329285,623.366150 815.632019,620.599487 817.103271,617.994995 
	C818.357849,615.774109 819.938538,614.201721 822.700256,614.983643 
	C825.313477,615.723694 826.336304,617.664978 826.323792,620.288513 
	C826.277771,629.979492 824.088501,639.380371 822.439087,649.292358 
z"/>
<path fill="#000000" opacity="1.000000" stroke="none" 
	d="
M535.877441,641.052490 
	C536.835022,638.206055 536.645508,635.691711 536.645996,633.200989 
	C536.653015,597.736206 536.671570,562.271423 536.637329,526.806641 
	C536.628113,517.262146 535.225891,507.976227 531.400879,499.110291 
	C528.824097,493.137482 529.901306,491.467377 536.415466,491.695984 
	C548.911743,492.134552 561.345825,490.622864 573.825256,490.791443 
	C582.291077,490.905823 583.539307,492.655823 580.141785,500.066071 
	C577.242615,506.389221 576.031128,512.970825 576.056335,519.901672 
	C576.197693,558.695374 576.268250,597.489380 576.341797,636.283325 
	C576.355347,643.451111 578.818359,649.915100 581.662109,656.344177 
	C584.471008,662.694580 582.758911,665.232910 575.699158,665.304810 
	C562.713318,665.436951 549.725952,665.472534 536.739441,665.442993 
	C529.454834,665.426392 528.046875,663.130432 531.105103,656.624146 
	C533.374939,651.795288 535.473633,646.916992 535.877441,641.052490 
z"/>
<path fill="#000000" opacity="1.000000" stroke="none" 
	d="
M453.478516,386.739227 
	C459.674988,386.346527 465.151672,386.826782 469.949799,390.682953 
	C474.416107,394.272400 475.887787,399.049774 475.815308,404.376953 
	C475.741852,409.777130 473.043793,412.611084 467.730164,412.261322 
	C455.801910,411.476105 453.341461,420.276947 454.626343,429.093903 
	C455.716644,436.575592 460.212769,442.066895 467.613190,444.105072 
	C474.658234,446.045441 481.443024,445.201172 487.107483,439.735107 
	C497.220123,429.976746 499.785553,413.135071 493.008301,400.047119 
	C488.231354,390.822083 481.583069,382.882690 475.554291,374.511414 
	C469.794586,366.513763 464.578247,358.268555 463.509247,348.047211 
	C462.071075,334.295502 467.504608,323.180878 479.760773,317.192810 
	C489.803833,312.286072 500.456177,309.788116 511.668915,312.852997 
	C526.492126,316.904755 535.459229,335.066254 529.734802,349.229187 
	C526.867554,356.323029 521.858826,359.599335 514.228699,359.372009 
	C507.895233,359.183319 506.357574,356.634064 509.485748,351.149200 
	C511.743256,347.190857 513.550842,343.142029 513.636536,338.510925 
	C513.764343,331.602478 510.589630,327.234192 504.934784,326.460266 
	C498.722076,325.609955 492.230682,329.825714 490.462463,335.534760 
	C488.206085,342.820068 490.168945,349.313782 493.814697,355.523376 
	C498.478638,363.467346 504.786377,370.176270 510.516449,377.309692 
	C526.628479,397.367737 527.140015,422.788757 511.011444,442.440186 
	C500.228638,455.578125 485.646423,460.577942 468.838501,459.600250 
	C462.453064,459.228821 456.342133,457.854248 450.500671,455.277344 
	C434.280762,448.122162 428.680145,434.102692 429.888611,418.399017 
	C430.128845,415.277222 430.832916,412.146606 431.691864,409.124878 
	C434.866272,397.957916 441.523682,390.022858 453.478516,386.739227 
z"/>
<path fill="#000000" opacity="1.000000" stroke="none" 
	d="
M222.987427,426.742889 
	C218.829651,439.658386 214.107513,451.912994 207.159897,463.165070 
	C200.630371,473.740021 188.256149,478.699066 177.575592,475.263824 
	C175.013489,474.439789 172.643951,473.211609 170.607758,471.458130 
	C165.716324,467.245850 165.985779,464.697723 171.191010,461.086548 
	C174.477005,458.806885 177.099289,455.810059 179.353775,452.422821 
	C191.557892,434.086731 198.894135,413.513397 206.663269,393.154999 
	C213.125198,376.222076 219.271042,359.168274 225.501846,342.147888 
	C225.938370,340.955475 226.779404,339.750458 226.215118,338.262238 
	C224.350494,336.476654 222.422607,338.069641 220.634842,338.404266 
	C210.643036,340.274811 201.663864,344.492981 193.681274,350.758270 
	C190.167419,353.516235 187.736069,357.077118 187.310913,361.657562 
	C186.874557,366.358673 188.799866,368.454712 193.495224,368.684174 
	C199.539124,368.979584 201.236206,371.471222 199.091797,377.299957 
	C196.776810,383.592377 192.344803,387.587738 185.548492,388.308960 
	C176.345154,389.285645 168.708267,386.422058 163.887680,378.132141 
	C158.040436,368.076691 160.087936,354.444183 168.441193,344.174591 
	C175.172546,335.898987 184.076782,331.367004 194.115677,328.821960 
	C213.169312,323.991516 232.695175,322.292633 252.204468,320.748993 
	C259.768494,320.150513 260.834045,322.173645 257.968445,329.219330 
	C244.995346,361.116119 233.869553,393.675415 222.987427,426.742889 
z"/>
<path fill="#000000" opacity="1.000000" stroke="none" 
	d="
M398.102783,721.343872 
	C378.558228,723.929932 359.585999,727.272095 340.660553,730.881470 
	C337.830505,731.421265 334.971191,731.680054 332.226593,731.157471 
	C328.235901,730.397644 326.036407,727.798645 325.552094,723.560120 
	C325.037445,719.056213 327.729218,717.742432 331.258484,716.935303 
	C350.684204,712.492615 370.330658,709.304810 390.069183,706.662537 
	C407.331787,704.351746 424.577118,701.864258 441.885406,699.956360 
	C458.053558,698.174194 474.282532,696.892761 490.506348,695.680054 
	C509.561218,694.255737 528.627625,692.898682 547.711670,691.984009 
	C559.829834,691.403198 571.990356,691.747986 584.129456,691.537537 
	C588.361389,691.464233 588.788208,693.792908 588.075195,697.013245 
	C586.752930,702.985107 581.742004,706.986755 574.931580,707.290710 
	C565.453918,707.713867 555.970215,708.048889 546.485474,708.255737 
	C521.193848,708.807190 496.017578,711.009521 470.823669,713.117920 
	C448.464600,714.989197 426.202271,717.624146 403.951263,720.419067 
	C402.140442,720.646545 400.348053,721.020508 398.102783,721.343872 
z"/>
<path fill="#000000" opacity="1.000000" stroke="none" 
	d="
M235.544388,211.008789 
	C230.131393,212.202621 228.901367,208.498398 227.612305,205.024460 
	C221.600616,188.823120 215.688812,172.584518 209.630219,156.400818 
	C207.708618,151.267807 205.446915,146.261948 203.334045,141.200745 
	C202.021179,138.055923 202.788589,135.124237 205.866699,134.125275 
	C217.215332,130.442245 227.897232,124.760880 239.758850,122.648094 
	C252.758881,120.332542 261.913788,126.261826 268.778870,136.638474 
	C275.876556,147.366653 279.981506,159.201843 281.182068,172.012619 
	C282.303192,183.975311 276.203888,194.577286 265.117737,199.280914 
	C255.482086,203.369095 245.667007,207.034378 235.544388,211.008789 
M231.331573,149.376175 
	C235.600922,160.742584 239.865540,172.110779 244.143753,183.473846 
	C244.967300,185.661209 245.596436,187.994995 248.802292,187.686127 
	C254.569382,187.130508 260.493591,180.413589 259.511475,174.632996 
	C257.798126,164.548599 254.387222,154.986771 248.536865,146.498749 
	C245.197662,141.654037 240.530212,140.254135 234.915237,141.779526 
	C231.261520,142.772125 229.227737,144.602081 231.331573,149.376175 
z"/>
<path fill="#000000" opacity="1.000000" stroke="none" 
	d="
M886.033997,504.473938 
	C887.592957,531.858154 872.735168,553.169678 848.439392,558.954590 
	C819.525696,565.838928 785.014526,545.882080 783.416626,512.497559 
	C782.558716,494.572845 785.854309,478.432922 799.860596,466.465820 
	C822.465454,447.152100 860.830383,453.895935 876.995972,479.388214 
	C881.804626,486.971222 884.749451,495.167419 886.033997,504.473938 
M792.278625,501.516266 
	C790.544678,511.722076 792.125793,521.251892 797.692139,529.987244 
	C799.225464,525.567871 796.878052,521.599304 796.793579,517.427063 
	C796.710144,513.304993 795.525635,508.787292 799.755493,505.312836 
	C801.974121,508.027161 801.934509,511.393341 803.394165,514.092468 
	C808.248962,523.069641 811.880981,533.584717 825.415222,531.847534 
	C825.915283,531.783264 826.498840,532.370300 826.755249,532.503723 
	C827.463623,534.447693 825.199890,535.311401 825.958923,537.208313 
	C829.911438,537.987183 834.042175,534.100281 838.115173,537.391846 
	C838.986267,538.095764 841.173645,536.982300 841.942444,538.806946 
	C842.974365,541.256287 840.068115,541.486816 839.203674,543.345398 
	C841.649109,543.393677 843.920654,545.559082 845.970642,544.226379 
	C850.690491,541.158264 855.547852,538.525208 860.922363,536.846313 
	C861.031677,536.812195 860.975342,536.247742 860.994019,535.965149 
	C859.951965,534.353943 856.902222,534.786194 857.054749,531.887756 
	C858.622803,529.863525 860.909424,529.697144 863.261719,529.623291 
	C867.484863,529.490662 870.275024,527.511658 872.181885,523.604980 
	C876.087646,515.603210 876.835449,507.157776 875.021912,498.769867 
	C870.388062,477.337433 844.825806,462.557007 822.424194,467.899261 
	C806.124756,471.786346 793.926208,485.055481 792.278625,501.516266 
z"/>
<path fill="#000000" opacity="1.000000" stroke="none" 
	d="
M332.378967,176.697449 
	C331.329742,174.742676 330.469818,173.125687 329.601135,171.513412 
	C328.250763,169.007248 326.428955,167.857056 323.449341,168.882629 
	C321.260010,169.636200 318.910370,169.909576 316.661835,170.508286 
	C310.251587,172.215118 309.103119,174.071274 310.170929,180.801880 
	C311.165192,187.068634 310.532227,187.994919 304.140106,189.627365 
	C292.063507,192.711578 291.551849,192.389145 291.669739,180.061813 
	C291.886414,157.404602 291.601044,134.752655 290.548981,112.124054 
	C290.277222,106.278900 292.566345,103.419243 297.958527,102.335526 
	C302.677002,101.387199 307.402283,100.453377 312.079712,99.326851 
	C315.587921,98.481941 317.865997,99.798790 319.466980,102.807991 
	C331.353821,125.150185 343.777008,147.214706 354.441193,170.190002 
	C356.474579,174.570801 355.499115,176.658676 350.859558,177.855118 
	C347.163391,178.808273 343.410187,179.562744 339.654968,180.257568 
	C336.616791,180.819702 334.006531,180.136948 332.378967,176.697449 
M313.516388,138.933517 
	C312.325073,137.124146 311.894653,134.750061 309.364044,132.984970 
	C309.364044,139.497208 309.350037,145.275406 309.374664,151.053436 
	C309.380280,152.373337 309.345184,154.185165 311.042145,154.160538 
	C313.646271,154.122696 316.399994,153.920578 318.658203,152.395645 
	C320.077454,151.437210 319.342865,149.988571 318.733673,148.808701 
	C317.136963,145.716415 315.475861,142.657364 313.516388,138.933517 
z"/>
<path fill="#000000" opacity="1.000000" stroke="none" 
	d="
M691.054077,126.680519 
	C702.894714,129.807907 702.894714,129.807907 700.442566,140.817764 
	C699.231689,146.254089 696.947205,147.677948 691.475281,145.833755 
	C687.538757,144.507019 683.631958,143.151443 679.597046,142.126297 
	C677.136108,141.501068 675.715881,142.027618 675.229126,144.579758 
	C675.198120,144.742554 675.146118,144.902222 675.094055,145.060074 
	C671.289612,156.580780 672.246460,158.298965 684.012024,160.515381 
	C688.571899,161.374359 693.168518,162.054565 697.764587,162.700302 
	C702.078613,163.306381 703.831299,165.600006 703.121704,169.936646 
	C701.160950,181.919815 700.383362,182.358139 688.697083,180.193573 
	C677.126709,178.050446 665.494263,176.237259 653.877197,174.352905 
	C647.734863,173.356598 645.609192,170.857529 646.972595,165.377228 
	C651.539734,147.019272 653.961670,128.254883 657.650757,109.731621 
	C658.751038,104.206848 659.749390,98.657814 660.618591,93.092407 
	C661.180908,89.491982 663.048462,88.297691 666.533020,89.007912 
	C680.991943,91.954910 695.468872,94.813950 709.925354,97.773033 
	C714.848755,98.780823 715.947571,100.656136 714.828247,105.579292 
	C712.409302,116.218102 712.386841,116.333244 701.816711,114.273842 
	C696.450745,113.228371 691.129150,111.859703 685.890686,110.292007 
	C682.877747,109.390320 681.514832,110.505150 680.699768,113.122978 
	C680.601135,113.439674 680.520752,113.762611 680.444458,114.085625 
	C678.211975,123.543953 678.212219,123.544014 691.054077,126.680519 
z"/>
<path fill="#000000" opacity="1.000000" stroke="none" 
	d="
M563.548828,132.402466 
	C559.899170,132.380432 558.578247,133.872360 558.026123,137.156433 
	C557.104431,142.639389 557.653381,148.123428 557.220276,153.585190 
	C556.596680,161.449417 555.591248,162.362534 547.850403,162.355194 
	C534.377869,162.342392 534.552856,162.343155 534.610352,149.078094 
	C534.706909,126.799393 537.704712,104.662872 537.683838,82.385147 
	C537.680176,78.481911 539.506714,76.737198 543.489258,76.624504 
	C556.170105,76.265678 568.786133,77.065544 581.129578,79.851440 
	C595.740051,83.148979 601.109131,93.874268 598.920227,109.199265 
	C596.683533,124.859245 585.967102,133.236328 570.979370,132.398300 
	C568.656555,132.268433 566.319824,132.388290 563.548828,132.402466 
M560.384644,97.145653 
	C560.360413,101.944466 558.917847,106.632195 559.331177,111.477013 
	C559.496460,113.413986 559.641357,115.292740 562.026123,115.516922 
	C565.331299,115.827629 568.695190,115.984138 571.687683,114.143196 
	C575.643982,111.709343 576.844299,107.941940 576.708496,103.508110 
	C576.601013,99.996910 575.150452,96.989906 571.824219,96.243446 
	C568.185974,95.426987 564.202209,92.118034 560.384644,97.145653 
z"/>
<path fill="#000000" opacity="1.000000" stroke="none" 
	d="
M362.213745,161.441055 
	C361.713593,160.330673 361.353546,159.573593 361.114594,158.780029 
	C357.381897,146.382599 359.904907,144.654221 371.768829,144.637360 
	C374.243988,144.633850 375.575684,145.554352 376.595642,147.965454 
	C378.940643,153.508682 383.596558,155.706116 389.586670,154.607925 
	C392.379333,154.095932 394.671173,152.768280 395.525360,149.920227 
	C396.374725,147.088242 396.170837,144.347351 394.032257,141.967239 
	C392.076324,139.790405 389.651428,138.388107 386.959595,137.427994 
	C381.947662,135.640396 376.880981,134.004974 371.881592,132.183929 
	C361.857239,128.532471 355.332458,118.795090 355.679810,108.157097 
	C356.028839,97.469276 362.225433,89.630943 373.028076,86.345474 
	C381.169983,83.869247 389.471344,83.740555 397.639130,85.816490 
	C406.265869,88.009079 410.847778,94.937302 410.338165,103.732544 
	C410.180115,106.460136 409.159302,108.112701 406.244965,108.369461 
	C403.766968,108.587784 401.306580,109.007271 398.838959,109.341896 
	C395.101898,109.848679 392.461426,108.814819 391.141083,104.845001 
	C390.016510,101.463799 387.334106,99.947372 383.672424,100.399071 
	C381.141235,100.711304 379.119934,101.793274 378.524506,104.387672 
	C377.674622,108.090904 379.234436,110.960938 382.345306,112.885361 
	C387.790863,116.254044 394.064575,117.583900 400.015472,119.663826 
	C416.983459,125.594368 419.765289,141.113007 416.212799,155.609970 
	C415.400482,158.924850 413.381683,161.678650 410.483856,163.557281 
	C399.016754,170.991318 386.628662,173.413300 373.319458,169.876434 
	C368.699585,168.648712 364.713013,166.271378 362.213745,161.441055 
z"/>
<path fill="#000000" opacity="1.000000" stroke="none" 
	d="
M519.488647,144.994919 
	C516.719482,156.999298 507.508423,160.419678 497.522308,162.012680 
	C489.796814,163.245056 481.998749,162.620850 474.470825,159.612335 
	C464.311066,155.551971 461.502960,146.749481 461.792938,137.488815 
	C461.889801,134.396591 463.726349,132.626297 467.007751,132.714432 
	C469.005676,132.768097 471.007111,132.751175 473.001434,132.864014 
	C476.608643,133.068130 479.322784,134.237289 480.029510,138.401428 
	C480.928528,143.698303 485.138123,145.686554 489.727539,146.396332 
	C493.205536,146.934204 496.487701,145.336014 498.000549,142.013657 
	C499.558228,138.592819 498.870575,135.110519 496.158783,132.338150 
	C493.690186,129.814392 490.644806,128.070404 487.517456,126.471657 
	C483.663330,124.501350 479.745941,122.635506 476.003967,120.468819 
	C465.351746,114.301010 461.416168,104.459549 464.614807,92.414963 
	C467.292542,82.331848 476.417694,75.827187 487.907898,75.627983 
	C495.265442,75.500427 502.550385,75.510315 509.352722,78.955933 
	C516.180298,82.414360 520.286255,91.574272 518.136536,98.823524 
	C517.952576,99.443947 517.648621,100.072990 517.249084,100.578308 
	C514.144714,104.504135 501.434235,102.532455 499.528076,97.854767 
	C499.088989,96.777222 498.725189,95.641838 498.113708,94.666649 
	C496.085114,91.431496 492.090027,90.398582 488.976898,92.333839 
	C485.267334,94.639885 485.831818,97.857346 487.483215,101.056801 
	C488.660095,103.336929 490.740082,104.823402 492.968201,106.010208 
	C497.228516,108.279457 501.619415,110.317764 505.790894,112.736908 
	C519.641418,120.769127 522.113892,128.259689 519.488647,144.994919 
z"/>
<path fill="#000000" opacity="1.000000" stroke="none" 
	d="
M285.650818,262.999512 
	C285.650757,248.838379 285.633057,235.177063 285.664642,221.515884 
	C285.671875,218.392899 285.170380,214.887375 289.356140,213.790680 
	C295.480835,212.185944 301.031860,213.727814 303.051544,217.665588 
	C307.687988,226.705322 312.230804,235.793121 316.805725,244.864365 
	C317.546783,246.333740 318.173767,247.879654 320.359558,249.518341 
	C320.359558,242.490936 320.401520,236.157761 320.333160,229.825806 
	C320.313507,228.003479 319.865875,226.188400 319.802277,224.363464 
	C319.447479,214.180939 320.580597,213.186874 330.699249,213.550476 
	C334.252655,213.678177 336.183960,215.354660 336.202972,218.610199 
	C336.325623,239.600159 336.313812,260.591187 336.258362,281.581635 
	C336.249969,284.760345 334.386505,286.205017 331.131927,286.404816 
	C320.629669,287.049683 320.388763,286.954803 316.021515,277.516815 
	C312.190277,269.237183 308.159088,261.059723 302.412842,253.360687 
	C302.412842,261.393066 302.316193,269.426910 302.440002,277.457367 
	C302.564117,285.509888 296.150360,289.561737 288.679138,285.917480 
	C286.068359,284.644043 285.739197,282.036163 285.703735,279.492645 
	C285.629486,274.162354 285.662262,268.830566 285.650818,262.999512 
z"/>
<path fill="#000000" opacity="1.000000" stroke="none" 
	d="
M485.201416,263.059814 
	C485.224609,268.714539 485.375946,273.881775 485.227875,279.040405 
	C485.060303,284.878845 482.814240,286.445709 475.343994,286.356018 
	C469.203918,286.282288 467.839142,285.078033 467.739899,279.188202 
	C467.638916,273.194672 467.635071,267.196350 467.756134,261.203461 
	C467.830872,257.503784 466.105164,256.342133 462.579102,256.262146 
	C452.055145,256.023499 452.029938,255.919174 452.054596,266.334442 
	C452.066833,271.497803 452.068451,276.648712 451.332947,281.781311 
	C450.914001,284.704834 449.450623,286.310028 446.446136,286.355164 
	C444.780914,286.380157 443.114685,286.392212 441.449646,286.365417 
	C435.994232,286.277649 434.720245,285.121887 434.694031,279.521210 
	C434.616058,262.865021 434.655060,246.208252 434.650360,229.551712 
	C434.649323,225.887283 434.730225,222.221054 434.640503,218.558899 
	C434.536652,214.319290 436.527252,212.406479 440.725952,212.652542 
	C441.887817,212.720627 443.057404,212.645355 444.223145,212.660614 
	C449.840881,212.734177 451.190430,214.029144 451.322388,219.790009 
	C451.432953,224.618073 451.244080,229.456192 451.463989,234.277252 
	C451.582031,236.865341 451.441162,240.286789 454.481689,241.107422 
	C458.271820,242.130356 462.407837,242.477859 466.150970,240.507797 
	C467.876404,239.599686 467.636597,237.675262 467.640991,236.014526 
	C467.656433,230.184784 467.762360,224.352417 467.623352,218.526077 
	C467.521271,214.249374 469.545990,212.407913 473.645081,212.466904 
	C473.811584,212.469299 473.978119,212.467834 474.144653,212.466003 
	C483.876617,212.358521 485.497772,213.906509 485.149261,223.676834 
	C484.686707,236.644409 483.760223,249.605789 485.201416,263.059814 
z"/>
<path fill="#000000" opacity="1.000000" stroke="none" 
	d="
M572.734985,240.348343 
	C573.745361,235.856186 574.442810,231.729630 575.756409,227.809540 
	C581.662354,210.184601 600.825134,208.321320 612.335632,214.169479 
	C618.952026,217.531097 623.078003,226.029892 622.341675,233.465576 
	C622.105652,235.849213 621.150635,237.129105 618.725098,237.353531 
	C616.574890,237.552475 614.445923,237.984619 612.295166,238.172668 
	C609.193787,238.443832 607.041748,237.230896 606.721313,233.909775 
	C606.341003,229.967407 604.589172,226.951492 600.471680,226.752747 
	C596.375977,226.555069 593.497131,229.188446 592.333618,232.967377 
	C588.837158,244.323441 589.519226,255.623917 593.856079,266.622803 
	C594.964233,269.433380 597.121704,271.721680 600.666931,271.642456 
	C603.736206,271.573883 605.473755,269.489532 606.835632,267.171631 
	C609.054077,263.395935 607.955017,260.939728 603.571533,260.315186 
	C598.334106,259.569000 598.745605,255.912888 598.595459,252.137268 
	C598.433289,248.058136 600.341003,246.262268 604.140869,246.147812 
	C609.132568,245.997513 614.128235,245.903839 619.121887,245.915573 
	C623.373291,245.925568 624.874817,248.783585 625.181824,252.437759 
	C625.700745,258.613617 625.243225,264.714508 623.463074,270.702393 
	C620.364380,281.125824 613.311035,287.153748 602.650085,287.997986 
	C592.659363,288.789154 584.397522,284.789368 578.961548,276.085846 
	C574.825378,269.463470 572.947632,262.066406 572.689697,254.298111 
	C572.540527,249.806885 572.690430,245.305710 572.734985,240.348343 
z"/>
<path fill="#000000" opacity="1.000000" stroke="none" 
	d="
M320.828613,948.232666 
	C295.012665,956.417847 270.076935,943.270447 264.467896,917.728516 
	C258.577606,890.906006 276.862335,867.259277 301.642212,864.532166 
	C329.292908,861.489014 345.481293,884.099609 347.619629,902.827637 
	C349.686188,920.927490 338.878296,941.517822 320.828613,948.232666 
M298.007507,928.998596 
	C298.007507,928.998596 297.976593,928.971863 298.452667,929.473328 
	C302.043365,932.208374 305.595123,935.741882 309.348999,929.594421 
	C309.650177,929.101135 310.927673,928.797180 311.581543,928.987854 
	C319.703522,931.356995 324.718109,926.118042 330.045044,921.594849 
	C331.341705,920.493835 332.002716,918.376770 334.597961,918.843140 
	C334.644348,924.975708 330.759430,929.265259 326.612030,934.947571 
	C330.521606,931.914490 332.251434,929.021179 334.043488,926.249451 
	C346.035583,907.701172 336.688171,886.438354 325.873260,878.581177 
	C308.390442,865.879517 284.134247,872.341736 274.914978,892.308350 
	C272.090912,898.424561 267.415619,905.053467 275.355194,912.209839 
	C278.649353,915.178955 280.700317,919.486694 285.516876,920.837402 
	C286.615448,921.145508 287.529510,922.031982 287.447845,923.071655 
	C287.023651,925.231628 284.329681,923.546082 284.072723,925.548828 
	C287.896515,929.407288 287.896515,929.407288 298.007507,928.998596 
z"/>
<path fill="#000000" opacity="1.000000" stroke="none" 
	d="
M649.867615,215.334839 
	C651.331116,217.989410 651.352478,220.478592 651.348450,222.992523 
	C651.330627,234.150757 651.359497,245.309067 651.344238,256.467316 
	C651.339233,260.166016 651.850952,263.792267 653.356262,267.157349 
	C654.499023,269.712067 656.529785,271.659241 659.544312,271.310669 
	C662.238037,270.999176 663.909058,269.142975 664.651428,266.462280 
	C665.322571,264.038788 665.684082,261.613312 665.674133,259.083893 
	C665.623596,246.260391 665.657471,233.436584 665.651672,220.612885 
	C665.650085,217.058960 665.960571,213.940155 670.699951,213.620651 
	C680.019592,212.992310 682.180542,213.636734 682.571594,219.381332 
	C683.453186,232.330414 683.518860,245.325195 682.725220,258.292603 
	C682.412292,263.405182 682.227905,268.531403 680.379150,273.489532 
	C676.555176,283.745117 668.446777,288.885040 656.417480,288.256409 
	C645.081360,287.664001 638.301575,282.265686 635.781372,271.459351 
	C633.381409,261.168243 633.638000,250.665207 633.748291,240.189178 
	C633.809692,234.360703 633.871765,228.532074 633.892517,222.703369 
	C633.924683,213.673203 636.743835,211.376358 645.580322,213.280365 
	C647.022888,213.591171 648.589417,213.676300 649.867615,215.334839 
z"/>
<path fill="#000000" opacity="1.000000" stroke="none" 
	d="
M868.825073,715.635559 
	C862.406067,732.462891 856.100647,748.920837 849.927917,765.428284 
	C848.218994,769.998413 845.105103,772.342102 840.351196,772.988647 
	C833.865662,773.870605 831.034668,770.834290 832.060181,764.389709 
	C835.092224,745.334961 840.450195,726.835022 845.224548,708.195312 
	C848.355347,695.972046 851.629883,683.785461 854.723511,671.552856 
	C855.564575,668.227112 857.047058,666.750305 860.825256,666.518494 
	C879.456787,665.375305 885.866028,675.187988 878.304077,691.612976 
	C874.763611,699.303162 872.067566,707.382080 868.825073,715.635559 
z"/>
<path fill="#000000" opacity="1.000000" stroke="none" 
	d="
M748.346924,195.883865 
	C738.310242,193.277847 728.645203,190.865540 719.012390,188.331116 
	C714.629456,187.177948 713.306458,184.676880 714.512085,180.581238 
	C721.175964,157.943283 727.854492,135.309540 734.452209,112.652275 
	C736.431274,105.855995 736.747437,105.636551 743.884644,107.418274 
	C759.804016,111.392349 759.160706,110.694740 754.409424,126.188461 
	C750.218140,139.855957 746.139893,153.562012 741.660706,167.135208 
	C740.043945,172.034714 741.578491,174.176193 746.203125,175.310196 
	C751.527344,176.615692 756.734863,178.413406 762.078796,179.616638 
	C766.382507,180.585648 768.036560,183.087601 767.249146,187.152374 
	C766.652954,190.229965 765.718506,193.274124 764.608398,196.209778 
	C763.748108,198.484863 761.921326,199.419617 759.359131,198.707611 
	C755.840149,197.729721 752.276306,196.913330 748.346924,195.883865 
z"/>
<path fill="#000000" opacity="1.000000" stroke="none" 
	d="
M424.187439,272.795837 
	C418.522644,284.584412 410.898163,288.600952 397.201172,287.316071 
	C388.250610,286.476471 380.420441,279.240601 377.894043,268.842346 
	C374.581207,255.207352 374.139526,241.507675 378.829071,228.057785 
	C381.881012,219.304810 387.578278,212.895477 397.222504,211.809509 
	C406.946167,210.714554 416.439240,211.333618 422.101837,221.305267 
	C422.997375,222.882278 423.765564,224.575531 424.302032,226.305191 
	C427.247925,235.804047 423.911896,239.890427 413.863312,239.253082 
	C410.986664,239.070633 409.943085,237.146301 409.319366,234.733475 
	C408.417542,231.244888 407.297791,227.514801 402.947784,227.577347 
	C398.508118,227.641205 396.395721,231.118774 395.166565,234.950577 
	C391.836731,245.331100 393.092194,255.662598 396.007355,265.852142 
	C396.907532,268.998596 399.171082,271.664307 402.858337,271.368134 
	C406.526459,271.073547 407.904999,268.164612 408.815155,264.876099 
	C411.146027,256.454193 411.433136,256.356995 419.491302,258.970398 
	C427.394989,261.533691 427.660797,262.274750 424.187439,272.795837 
z"/>
<path fill="#000000" opacity="1.000000" stroke="none" 
	d="
M611.019165,140.339020 
	C612.989319,124.086159 614.946533,108.281700 616.660278,92.450874 
	C617.529053,84.425636 618.395020,83.114410 626.466187,83.726776 
	C640.848877,84.817978 641.871155,84.787117 639.039673,99.275185 
	C636.555481,111.986275 635.725708,124.914276 634.331299,137.767227 
	C633.419189,146.175125 632.376648,154.569016 631.489319,162.979385 
	C631.041687,167.221786 628.575684,168.701675 624.652039,168.350281 
	C620.850037,168.009796 617.027039,167.755173 613.267761,167.133240 
	C610.026367,166.596985 608.356140,164.414169 608.696533,161.057266 
	C609.382629,154.291931 610.163696,147.536209 611.019165,140.339020 
z"/>
<path fill="#000000" opacity="1.000000" stroke="none" 
	d="
M527.027466,280.436584 
	C525.340942,285.699951 515.160156,288.677185 511.215729,285.458862 
	C509.419708,283.993439 509.661713,281.896027 509.660034,279.911102 
	C509.648041,265.584991 509.658356,251.258865 509.647003,236.932755 
	C509.640411,228.618805 509.433594,228.479324 501.380341,228.339569 
	C498.845825,228.295593 495.390778,229.417175 494.295319,226.228729 
	C493.008118,222.482285 493.046417,218.355942 494.411499,214.499908 
	C495.081848,212.606247 497.007202,212.660095 498.686401,212.659714 
	C511.513123,212.656799 524.339905,212.694199 537.166504,212.663727 
	C540.730225,212.655258 542.360779,214.378357 542.328796,217.860062 
	C542.312012,219.692261 542.315002,221.524826 542.328308,223.357086 
	C542.354248,226.929764 540.508545,228.271576 537.030579,228.419586 
	C526.338196,228.874680 526.244019,228.957474 526.364136,239.554535 
	C526.516907,253.035919 526.847839,266.515289 527.027466,280.436584 
z"/>
<path fill="#000000" opacity="1.000000" stroke="none" 
	d="
M706.642334,264.635376 
	C706.496582,254.202576 706.842834,244.231277 706.040710,234.251328 
	C705.715393,230.203918 704.220825,228.906799 700.519653,229.366882 
	C700.191956,229.407608 699.854736,229.373688 699.521973,229.372208 
	C691.459106,229.336472 687.813538,223.740662 691.027039,216.314941 
	C691.851929,214.408844 693.382629,213.656509 695.407715,213.659027 
	C708.552673,213.675323 721.697693,213.686905 734.842651,213.664581 
	C738.022217,213.659180 739.347168,215.302841 739.324158,218.321014 
	C739.315247,219.485580 739.348511,220.650391 739.345215,221.815048 
	C739.325500,228.760391 738.779846,229.322601 732.031738,229.375305 
	C723.303284,229.443466 723.302002,229.443466 723.308960,238.279312 
	C723.319946,252.256500 723.266235,266.234222 723.384521,280.210541 
	C723.420898,284.509003 722.326294,287.212646 717.360779,287.380066 
	C708.469727,287.679901 707.435486,287.160980 706.525879,281.008881 
	C705.738647,275.684479 706.668579,270.398346 706.642334,264.635376 
z"/>
<path fill="#000000" opacity="1.000000" stroke="none" 
	d="
M348.669861,226.055252 
	C348.673035,224.231400 348.663605,222.897934 348.681061,221.564819 
	C348.777191,214.226074 350.540375,212.566360 358.023499,212.757126 
	C364.380341,212.919205 366.076111,214.376450 366.127258,220.822968 
	C366.283264,240.488052 366.296417,260.154694 366.264618,279.820557 
	C366.255829,285.254395 364.976135,286.297516 359.268646,286.372620 
	C349.442291,286.501923 348.693146,285.781677 348.685303,276.044952 
	C348.672028,259.545227 348.674072,243.045517 348.669861,226.055252 
z"/>
<path fill="#000000" opacity="1.000000" stroke="none" 
	d="
M666.966431,341.313843 
	C660.974915,342.233734 655.862976,341.731445 652.787354,336.123291 
	C650.352966,331.684296 651.502014,324.092621 655.164185,319.735107 
	C659.034546,315.129852 664.091919,312.750519 670.024109,312.980652 
	C675.952820,313.210663 679.770691,316.207947 681.039368,320.738159 
	C682.624756,326.399750 679.706543,334.267273 674.544495,337.958588 
	C672.380005,339.506409 670.016968,340.730194 666.966431,341.313843 
z"/>
<path fill="#000000" opacity="1.000000" stroke="none" 
	d="
M826.658386,813.912048 
	C820.521912,811.465881 818.270569,806.906677 818.737183,801.076965 
	C819.329834,793.672852 823.169800,788.289856 830.100647,785.430237 
	C839.732300,781.456116 847.396606,787.255493 846.287354,797.560120 
	C845.284790,806.873108 836.270874,814.597961 826.658386,813.912048 
z"/>
<path fill="#000000" opacity="1.000000" stroke="none" 
	d="
M842.694824,530.069031 
	C845.061523,530.969788 846.366028,529.227356 848.036316,528.709473 
	C849.241211,528.335999 850.438110,527.356140 851.564331,528.883911 
	C852.569641,530.247559 852.632751,531.672302 851.694519,533.013428 
	C850.062073,535.346985 847.706543,536.474609 844.894226,536.316345 
	C841.901245,536.147827 839.565369,534.644348 838.089355,532.038757 
	C837.515503,531.025696 837.376343,529.690063 838.449951,528.864258 
	C840.100830,527.594360 841.063293,529.551636 842.694824,530.069031 
z"/>
<path fill="#000000" opacity="1.000000" stroke="none" 
	d="
M856.274841,505.764648 
	C853.447510,506.669159 851.331482,505.730774 849.437988,504.314301 
	C847.821411,503.104950 847.252563,501.299194 848.007263,499.417480 
	C848.964355,497.031219 850.794434,498.262726 852.224670,498.809631 
	C853.871948,499.439545 855.354065,499.621918 857.003662,498.820618 
	C858.260681,498.209991 859.803345,496.994202 860.943604,498.835632 
	C861.989685,500.524841 861.153748,502.050995 859.784912,503.223602 
	C858.786682,504.078705 857.680603,504.807892 856.274841,505.764648 
z"/>
<path fill="#000000" opacity="1.000000" stroke="none" 
	d="
M852.023621,523.794556 
	C850.544861,522.111572 850.255005,520.442322 851.217285,518.960938 
	C852.358459,517.204224 853.919922,518.467834 855.167175,519.010315 
	C857.054199,519.831116 858.665466,519.463379 860.285522,518.429932 
	C861.151550,517.877563 862.166382,517.501526 863.014160,518.277222 
	C863.974426,519.155701 863.780640,520.345825 863.453064,521.502747 
	C862.261597,525.710938 858.225769,526.646423 852.023621,523.794556 
z"/>
<path fill="#000000" opacity="1.000000" stroke="none" 
	d="
M837.197021,517.004761 
	C835.836548,515.483093 835.287476,514.119812 836.513245,512.729736 
	C837.765808,511.309113 838.957275,512.463867 840.032471,513.093750 
	C843.015930,514.841614 844.854370,511.792358 847.505005,511.285431 
	C849.933167,514.701721 848.591492,516.914001 845.201904,517.995178 
	C842.684631,518.798035 839.954895,518.812744 837.197021,517.004761 
z"/>
<path fill="#000000" opacity="1.000000" stroke="none" 
	d="
M823.966858,524.087463 
	C823.042236,522.806458 822.490356,521.818909 823.453125,520.248169 
	C826.942688,521.498962 830.654236,522.427368 834.263184,520.547058 
	C835.972046,522.833130 834.910706,524.367310 833.305298,525.316284 
	C830.156250,527.177734 827.045410,526.744568 823.966858,524.087463 
z"/>
<path fill="#000000" opacity="1.000000" stroke="none" 
	d="
M868.449768,512.953979 
	C864.526367,513.709900 861.842590,513.203369 862.043030,508.754242 
	C863.885498,507.256836 866.151855,508.802246 867.820862,507.370483 
	C869.011719,506.348816 870.510681,504.757690 871.880798,506.937988 
	C872.846741,508.475189 872.194458,510.151428 870.847839,511.377869 
	C870.246155,511.925812 869.512329,512.328613 868.449768,512.953979 
z"/>
<path fill="#000000" opacity="1.000000" stroke="none" 
	d="
M311.552795,903.270935 
	C310.541687,899.772583 311.095123,898.083008 314.652618,900.037109 
	C316.289581,900.936340 317.730103,901.944885 319.600586,900.564575 
	C320.797760,899.681091 322.229401,899.511230 322.907593,901.086792 
	C323.572693,902.632080 323.532593,904.216553 321.910278,905.486206 
	C318.549500,908.116333 315.116211,907.540039 311.552795,903.270935 
z"/>
<path fill="#000000" opacity="1.000000" stroke="none" 
	d="
M289.749084,894.631348 
	C291.810699,896.364746 293.699341,897.562073 296.257050,896.942322 
	C297.395538,896.666565 298.683746,896.539551 299.203857,897.923218 
	C299.753967,899.386963 298.921478,900.449951 297.743103,901.230164 
	C295.492310,902.720276 293.057068,902.967834 290.807404,901.492981 
	C288.646576,900.076294 287.360443,897.977173 287.767517,895.206482 
	C287.928406,894.111572 288.547882,893.893921 289.749084,894.631348 
z"/>
<path fill="#000000" opacity="1.000000" stroke="none" 
	d="
M311.167328,918.660278 
	C313.985229,921.657654 316.904114,919.511414 320.133057,919.166138 
	C319.633698,922.982605 317.601898,924.457214 314.462250,924.284607 
	C311.269226,924.109009 308.198029,923.305420 306.886780,919.819580 
	C306.593842,919.040771 306.727936,918.111084 307.447021,917.551208 
	C308.921997,916.402771 309.831360,917.753174 311.167328,918.660278 
z"/>
<path fill="#000000" opacity="1.000000" stroke="none" 
	d="
M298.025452,929.008545 
	C297.628662,928.742310 297.208130,928.474304 296.800171,928.188354 
	C294.954651,926.894592 291.908569,925.728760 293.319977,923.056152 
	C294.944916,919.979187 297.091614,922.868652 298.646759,923.852600 
	C300.619659,925.101074 302.560181,923.674622 304.907227,924.423950 
	C305.446533,929.312378 302.279236,929.406311 298.394470,929.061523 
	C297.976593,928.971863 298.007507,928.998596 298.025452,929.008545 
z"/>
<path fill="#000000" opacity="1.000000" stroke="none" 
	d="
M332.016113,913.901611 
	C330.168457,916.398743 327.943604,916.765137 325.563507,916.118713 
	C323.812347,915.643066 322.708313,914.306763 322.995178,912.416565 
	C323.270203,910.604431 324.696808,910.716614 326.083984,911.061768 
	C328.931580,911.770325 329.515350,908.147339 332.268005,907.988525 
	C334.032623,909.739258 333.345551,911.640259 332.016113,913.901611 
z"/>
<path fill="#000000" opacity="1.000000" stroke="none" 
	d="
M284.126465,911.432922 
	C288.353668,910.135498 291.325500,913.054443 294.586121,914.471741 
	C296.011414,915.091248 294.230927,916.865906 292.637512,917.266235 
	C288.187592,918.384155 285.415253,916.631592 284.126465,911.432922 
z"/>
<path fill="#000000" opacity="1.000000" stroke="none" 
	d="
M301.842560,910.163208 
	C304.098816,910.537170 306.016083,910.749512 308.166687,910.987732 
	C307.405640,915.287598 304.539490,915.019104 301.772186,914.462341 
	C298.595520,913.823181 296.319275,912.261658 296.998352,908.510010 
	C299.303711,907.326294 300.133179,909.385681 301.842560,910.163208 
z"/>
<path fill="#000000" opacity="1.000000" stroke="none" 
	d="
M283.858398,907.094543 
	C277.639648,905.693054 276.320801,902.978271 279.393860,898.129211 
	C280.711700,900.446289 281.883728,902.399414 284.877106,903.170349 
	C287.327972,903.801575 286.015076,905.897156 283.858398,907.094543 
z"/>
</svg>